<?xml version="1.0" encoding="UTF-8"?>
<svg version="1.1" xmlns="http://www.w3.org/2000/svg" width="512" height="512">
<path d="M0 0 C0.67836914 0.20898926 1.35673828 0.41797852 2.05566406 0.63330078 C18.31506414 5.81380176 32.98900614 14.01558765 46 25 C47.41539062 26.16982422 47.41539062 26.16982422 48.859375 27.36328125 C72.38240957 47.66352719 86.85458159 77.97324024 89.83666992 108.73974609 C91.57168716 132.7498949 87.49274228 154.9386548 78 177 C78.97694824 177.31892212 78.97694824 177.31892212 79.97363281 177.64428711 C84.14467681 179.51277754 87.68751224 182.07393654 91.421875 184.69140625 C93.13019845 185.87481533 94.83921097 187.05723018 96.54882812 188.23876953 C97.44126221 188.85649231 98.33369629 189.47421509 99.25317383 190.11065674 C103.81396741 193.24769712 108.41514334 196.32393634 113.015625 199.40234375 C114.88160686 200.65415313 116.7474919 201.90610684 118.61328125 203.15820312 C121.45542912 205.06475092 124.2984778 206.96989351 127.14404297 208.87133789 C129.95816883 210.7525846 132.76844069 212.63947208 135.578125 214.52734375 C136.42296448 215.08993393 137.26780396 215.65252411 138.13824463 216.23216248 C151.89047183 225.4949224 151.89047183 225.4949224 154.375 231.125 C154.67148437 231.76695312 154.96796875 232.40890625 155.2734375 233.0703125 C158.2779256 241.04997443 157.79779807 248.93047248 154.3203125 256.67578125 C150.94947823 262.60964632 146.06519127 266.81979095 139.72265625 269.34375 C132.53353733 271.07656489 124.68586983 271.1794394 117.76586914 268.47290039 C117.05717178 268.1983754 116.34847443 267.9238504 115.61830139 267.64100647 C115.08426193 267.42947433 114.55022247 267.2179422 114 267 C114.00888245 267.85777542 114.01776489 268.71555084 114.0269165 269.59931946 C114.10701791 277.67749281 114.16794162 285.75553306 114.20724869 293.83401203 C114.22813623 297.98741388 114.25647451 302.14048798 114.30175781 306.29370117 C114.34517495 310.3007702 114.36912831 314.30752373 114.37950897 318.3148098 C114.38690787 319.84468746 114.40135619 321.37454758 114.42292023 322.90429115 C114.45190113 325.04505539 114.45595851 327.18451106 114.45410156 329.32543945 C114.46298401 330.54455521 114.47186646 331.76367096 114.48101807 333.01972961 C114 336 114 336 112.19036865 337.88591003 C108.91223046 339.55327359 106.61503893 339.51643413 103 339 C99.98299659 336.18663402 99.06902846 334.51667771 98.51898193 330.39958191 C98.50746729 328.9932131 98.51784114 327.58655598 98.54589844 326.18041992 C98.54531433 325.40915771 98.54473022 324.63789551 98.54412842 323.84326172 C98.54690534 321.30519915 98.5779773 318.76832501 98.609375 316.23046875 C98.61683882 314.46642193 98.62253109 312.7023668 98.62652588 310.93830872 C98.64177118 306.30373086 98.68104332 301.6696574 98.7253418 297.03527832 C98.76631841 292.30288516 98.78454199 287.5704102 98.8046875 282.83789062 C98.84753877 273.55837259 98.91577663 264.2792283 99 255 C98.219664 254.69791626 97.439328 254.39583252 96.63534546 254.08459473 C94.00149665 253.00061596 91.9751292 251.74711155 89.6640625 250.09375 C88.85582031 249.52052002 88.04757812 248.94729004 87.21484375 248.35668945 C86.36019531 247.74398193 85.50554687 247.13127441 84.625 246.5 C82.80558314 245.21097448 80.98526553 243.92321943 79.1640625 242.63671875 C78.27493164 242.00813965 77.38580078 241.37956055 76.46972656 240.73193359 C72.77798535 238.1430435 69.02733647 235.65235708 65.265625 233.16625977 C58.68425739 228.80765268 52.15488725 224.37266547 45.625 219.9375 C45.02533417 219.53022675 44.42566833 219.12295349 43.80783081 218.70333862 C40.74929025 216.62584034 37.69115666 214.5477442 34.63330078 212.46923828 C31.68311633 210.46399554 28.73212026 208.45995199 25.78070068 206.45652771 C24.11281453 205.32418876 22.44529972 204.19130467 20.77783203 203.05834961 C18.66147967 201.62125476 16.54399543 200.18582512 14.42529297 198.75219727 C10.15328119 195.856089 5.89635619 192.95362243 1.73046875 189.90625 C1.12581787 189.46812988 0.52116699 189.03000977 -0.10180664 188.57861328 C-1.59293572 187.48969811 -3.07074318 186.382598 -4.546875 185.2734375 C-7.65725015 183.658816 -8.67227872 184.06070677 -12 185 C-32.91766619 194.86795496 -42.43645899 208.18166456 -51 229 C-51.33 229.66 -51.66 230.32 -52 231 C-50.7625 230.979375 -49.525 230.95875 -48.25 230.9375 C-45.3359175 230.93233319 -42.79046673 231.06984442 -40 232 C-39.9690625 230.576875 -39.9690625 230.576875 -39.9375 229.125 C-38.90386555 222.0474752 -33.57577934 215.96511849 -28.1875 211.5625 C-21.01056032 206.68107475 -12.57812259 204.85451474 -4 206 C6.16883905 208.38932162 12.99792371 213.72436157 18.9921875 222.12890625 C21.7238785 227.20053412 22.38853031 232.12571004 22.375 237.8125 C22.37338867 238.51810059 22.37177734 239.22370117 22.37011719 239.95068359 C22.2326965 245.80992466 21.05853365 250.06174254 18 255 C17.4225 256.051875 16.845 257.10375 16.25 258.1875 C11.22944519 264.46319351 4.91773226 268.48888706 -3 270 C-12.35436362 271.03794994 -20.76634154 269.70048551 -28.546875 264.19921875 C-33.17654752 260.3033342 -36.50965292 256.52207397 -39 251 C-39 250.01 -39 249.02 -39 248 C-40.00160156 247.93941406 -41.00320313 247.87882813 -42.03515625 247.81640625 C-43.37761331 247.73191595 -44.72006072 247.64727232 -46.0625 247.5625 C-48.02896484 247.44068359 -48.02896484 247.44068359 -50.03515625 247.31640625 C-53.73663238 247.02101751 -57.33370448 246.56734612 -61 246 C-61.33451172 247.16595703 -61.33451172 247.16595703 -61.67578125 248.35546875 C-63.44763501 253.23198663 -65.78565842 257.7200749 -68.1875 262.3125 C-68.64447266 263.21162109 -69.10144531 264.11074219 -69.57226562 265.03710938 C-77.36912134 279.99279793 -87.03480497 288.44300073 -103 294 C-106.12250485 294.93106071 -109.26210109 295.79372047 -112.40625 296.6484375 C-113.23543945 296.87619873 -114.06462891 297.10395996 -114.91894531 297.33862305 C-116.94529738 297.89484793 -118.97255703 298.44776468 -121 299 C-121.06949495 311.43045592 -121.12280882 323.86086566 -121.15543652 336.29147625 C-121.17109577 342.06344652 -121.19233903 347.83528393 -121.22631836 353.60717773 C-121.25890217 359.1768455 -121.27685106 364.74638541 -121.28463173 370.31614113 C-121.29017696 372.44162827 -121.30100536 374.56710837 -121.31719017 376.69254112 C-121.33895116 379.66847254 -121.34196745 382.64387493 -121.34057617 385.61987305 C-121.351362 386.49956757 -121.36214783 387.37926208 -121.3732605 388.28561401 C-121.34305298 394.25264948 -120.32976116 397.67023884 -116 402 C-113.20956645 402.37147675 -113.20956645 402.37147675 -109.89794922 402.41064453 C-108.61677216 402.45053497 -107.33559509 402.49042542 -106.01559448 402.53152466 C-104.61196379 402.56549329 -103.20832798 402.5992509 -101.8046875 402.6328125 C-100.37262568 402.67395133 -98.94058815 402.71594428 -97.50857544 402.75875854 C-93.73748436 402.86920366 -89.96617407 402.96801948 -86.19470215 403.06445312 C-82.34705064 403.16488122 -78.49971788 403.27625418 -74.65234375 403.38671875 C-67.10183235 403.60188598 -59.5510561 403.80477408 -52 404 C-52.01110306 402.9815802 -52.02220612 401.9631604 -52.03364563 400.91387939 C-52.13496589 391.32029847 -52.20993851 381.72682596 -52.25906086 372.13283157 C-52.2851643 367.20030687 -52.32057597 362.26821378 -52.37719727 357.3359375 C-52.43149044 352.57672632 -52.4614149 347.81793048 -52.47438622 343.05843353 C-52.48363096 341.24188446 -52.50168395 339.42535834 -52.52865028 337.6089859 C-52.5649059 335.06597121 -52.56994698 332.52467651 -52.56762695 329.98144531 C-52.58560333 329.22906586 -52.60357971 328.4766864 -52.62210083 327.70150757 C-52.58644316 324.09357874 -52.27117881 322.3204927 -49.91386414 319.53450012 C-46.3150285 317.63928007 -43.87409856 317.4863758 -39.81054688 317.46655273 C-39.10583755 317.45793716 -38.40112823 317.44932159 -37.67506409 317.44044495 C-35.35591439 317.41782402 -33.03797679 317.42451533 -30.71875 317.43359375 C-29.10119265 317.4283567 -27.48363836 317.42207992 -25.86608887 317.41481018 C-22.48007816 317.40441344 -19.09448791 317.40895715 -15.70849609 317.42358398 C-11.37372335 317.4407786 -7.04027529 317.41726582 -2.70565033 317.38209438 C0.63332874 317.36011367 3.97199107 317.36156323 7.3110199 317.3698597 C8.90898594 317.37067871 10.50697535 317.36382465 12.10487366 317.34908867 C14.34092208 317.33162676 16.57459325 317.34619361 18.81054688 317.36889648 C20.08119995 317.36985825 21.35185303 317.37082001 22.66101074 317.37181091 C27.01796883 318.19151811 28.45529053 319.38841369 31 323 C31.46996025 325.87346615 31.63720107 328.14133911 31.56762695 331.00317383 C31.56835709 331.79394318 31.56908722 332.58471252 31.56983948 333.39944458 C31.56636721 336.00268115 31.5275257 338.60410889 31.48828125 341.20703125 C31.47895178 343.01591515 31.4718363 344.82481171 31.46684265 346.63371277 C31.44778331 351.38678072 31.39869187 356.13908053 31.34332275 360.8918457 C31.2921072 365.74484873 31.2693237 370.59797629 31.24414062 375.45117188 C31.19057195 384.96778477 31.10527214 394.48382842 31 404 C38.31122406 403.93860277 45.62210351 403.86136427 52.93294621 403.76428509 C56.32823849 403.71968929 59.72341378 403.68041026 63.11889648 403.65356445 C67.02873986 403.62241318 70.93808551 403.56762824 74.84765625 403.51171875 C76.66367088 403.50213387 76.66367088 403.50213387 78.51637268 403.49235535 C84.71765946 403.38474231 89.59846666 403.1902968 95 400 C97.41205741 396.38191388 97.26470727 394.62577677 97.30859375 390.3203125 C97.33375748 388.98567279 97.35915545 387.65103747 97.38476562 386.31640625 C97.41346813 384.22087787 97.43749618 382.12542597 97.45629883 380.02978516 C97.47804194 378.00122447 97.51748719 375.97356001 97.55859375 373.9453125 C97.57204834 372.73375488 97.58550293 371.52219727 97.59936523 370.27392578 C98.03234131 366.7357118 98.87441084 364.83216969 101 362 C104.09173752 360.45413124 106.59429552 360.70640479 110 361 C112.19116211 362.53857422 112.19116211 362.53857422 114 365 C114.41106766 367.70345182 114.58518814 369.9931988 114.56640625 372.6953125 C114.57260483 373.44279755 114.57880341 374.19028259 114.58518982 374.9604187 C114.59228399 376.54228416 114.58912083 378.12422434 114.57641602 379.70605469 C114.56266022 382.09715032 114.59648385 384.4842416 114.63476562 386.875 C114.68362659 396.4580767 114.08233529 404.49105052 107.2578125 411.88842773 C98.78844997 419.92343151 88.70684007 420.1526975 77.69921875 420.1328125 C76.50352264 420.13431305 75.30782654 420.1358136 74.07589722 420.13735962 C69.94639954 420.1397832 65.81698611 420.13328789 61.6875 420.125 C60.2249248 420.12271535 58.76234952 420.12047806 57.29977417 420.11828613 C47.60980939 420.10232953 37.91993066 420.0702818 28.23002148 420.03445435 C22.14729174 420.0125937 16.06456554 419.99454499 9.98181152 419.9810791 C9.28509828 419.9795339 8.58838504 419.9779887 7.87055928 419.97639668 C7.16280903 419.97483063 6.45505878 419.97326458 5.72586155 419.97165108 C-9.61473445 419.93769655 -24.95515672 419.88683239 -40.2956152 419.81288338 C-48.1583947 419.77531849 -56.02108318 419.74427485 -63.88394165 419.72955322 C-70.69648195 419.71668325 -77.5087966 419.68976791 -84.32120848 419.64558756 C-87.86252146 419.62304165 -91.40355887 419.60706025 -94.9449501 419.60808182 C-98.84431419 419.60896349 -102.74310125 419.57879651 -106.64233398 419.54589844 C-107.7832163 419.55092943 -108.92409861 419.55596043 -110.09955311 419.56114388 C-118.3241147 419.45329019 -124.68878499 417.84619696 -130.75 411.875 C-136.93705749 405.07434149 -138.6069512 397.19584693 -138.45410156 388.23583984 C-138.45468567 387.31754395 -138.45526978 386.39924805 -138.45587158 385.453125 C-138.45311248 382.45532772 -138.4221245 379.45855837 -138.390625 376.4609375 C-138.38315486 374.36773217 -138.37746558 372.27451979 -138.37347412 370.18130493 C-138.35827871 364.70017836 -138.31904976 359.21948288 -138.2746582 353.73852539 C-138.23357356 348.13433664 -138.21543502 342.53007753 -138.1953125 336.92578125 C-138.15254932 325.95033253 -138.08437239 314.97520226 -138 304 C-141.56705858 304.98153767 -145.11575486 306.01830522 -148.6640625 307.06542969 C-149.66832275 307.34103729 -150.67258301 307.6166449 -151.70727539 307.90060425 C-159.49138932 310.24251007 -162.76098801 313.09856044 -166.54812622 320.1317749 C-166.78506195 320.74023254 -167.02199768 321.34869019 -167.26611328 321.97558594 C-167.54908264 322.67196167 -167.832052 323.3683374 -168.12359619 324.08581543 C-168.41280945 324.79999634 -168.70202271 325.51417725 -169 326.25 C-169.67280239 327.73835404 -170.35379473 329.22303008 -171.04248047 330.70410156 C-172.42536816 333.69640851 -173.77115907 336.70110689 -175.08886719 339.72265625 C-177.80437901 345.88767638 -180.96503635 351.80230457 -184.125 357.75 C-185.26667594 359.94408973 -186.4059965 362.13940665 -187.54296875 364.3359375 C-188.10806152 365.42487305 -188.6731543 366.51380859 -189.25537109 367.63574219 C-192.3205628 373.54650928 -195.37914593 379.46069311 -198.4375 385.375 C-198.74882874 385.97703247 -199.06015747 386.57906494 -199.38092041 387.19934082 C-200.95699054 390.24710963 -202.53296477 393.29492801 -204.10888672 396.34277344 C-206.92652212 401.79198254 -209.74504757 407.24073128 -212.56350708 412.68951416 C-214.12570796 415.70965719 -215.68785105 418.72983011 -217.25 421.75 C-217.87499972 422.95833348 -218.49999972 424.16666681 -219.125 425.375 C-219.434375 425.973125 -219.74375 426.57125 -220.0625 427.1875 C-222.875 432.625 -222.875 432.625 -223.81236267 434.43721008 C-224.437847 435.64649607 -225.06330473 436.85579581 -225.68873596 438.06510925 C-227.24360883 441.07147995 -228.79893143 444.07761623 -230.35522461 447.08325195 C-233.25914304 452.69268564 -236.158623 458.30428121 -239.04275513 463.92391968 C-240.3900747 466.54846751 -241.73987036 469.17173829 -243.08984375 471.79492188 C-243.7263293 473.03338472 -244.36163101 474.27245687 -244.99560547 475.51220703 C-246.96342456 479.35989206 -248.96269948 483.18864907 -251 487 C-251.51288574 487.95986816 -252.02577148 488.91973633 -252.55419922 489.90869141 C-253.05064941 490.79089355 -253.54709961 491.6730957 -254.05859375 492.58203125 C-254.48325928 493.34362549 -254.9079248 494.10521973 -255.34545898 494.88989258 C-259.25761532 499.87923406 -264.14624956 501.59262342 -270.1640625 502.921875 C-270.83738617 503.07158752 -271.51070984 503.22130005 -272.20443726 503.37554932 C-273.62336664 503.6874862 -275.04371317 503.99303928 -276.46533203 504.29248047 C-278.60257497 504.74524932 -280.7325846 505.22450707 -282.86328125 505.70703125 C-303.39572874 510.22402631 -303.39572874 510.22402631 -311 506.375 C-316.22417995 502.23919087 -318.74203813 496.78623058 -321.234375 490.73046875 C-321.65870819 489.70981071 -321.65870819 489.70981071 -322.09161377 488.66853333 C-322.68330148 487.2371184 -323.27136759 485.80420154 -323.85595703 484.36987305 C-324.74601905 482.19721757 -325.65952632 480.03542696 -326.57421875 477.87304688 C-330.22991684 469.05712857 -333.24901468 461.2841785 -329.4375 451.875 C-326.57620654 445.52095521 -323.32119135 441.35011036 -316.76171875 438.68359375 C-308.35561847 436 -308.35561847 436 -304 436 C-304.28875 435.27296875 -304.5775 434.5459375 -304.875 433.796875 C-308.64539726 423.58538243 -309.89028323 414.51146539 -305.265625 404.3828125 C-301.16102075 396.6550082 -297.08919575 389.73055426 -288.5078125 386.8125 C-285.03059693 385.77330677 -281.52480371 384.86430118 -278 384 C-278.20496094 383.31035156 -278.40992188 382.62070312 -278.62109375 381.91015625 C-281.96584492 370.24353614 -282.89251982 362.5134512 -278 351 C-273.04104045 342.25441176 -267.78647995 337.17102931 -258.1875 334.25 C-257.49462891 334.02957031 -256.80175781 333.80914062 -256.08789062 333.58203125 C-254.39497932 333.04496973 -252.69788842 332.52111292 -251 332 C-251.28875 331.26136719 -251.5775 330.52273438 -251.875 329.76171875 C-252.24625 328.74722656 -252.6175 327.73273438 -253 326.6875 C-253.37125 325.70136719 -253.7425 324.71523438 -254.125 323.69921875 C-256.79362398 312.41713436 -253.61590695 304.75304102 -248.3125 294.875 C-247.67832069 293.65338917 -247.04614649 292.43073526 -246.41601562 291.20703125 C-241.51603481 281.76361741 -241.51603481 281.76361741 -239.32177734 278.51660156 C-236.54410112 274.3926207 -236.54410112 274.3926207 -236.34417725 269.56886292 C-236.61054993 268.69994919 -236.87692261 267.83103546 -237.15136719 266.93579102 C-237.58953011 265.48103363 -237.58953011 265.48103363 -238.0365448 263.99688721 C-238.35448502 263.00791443 -238.67242523 262.01894165 -239 261 C-239.29131302 260.08434265 -239.58262604 259.1686853 -239.88276672 258.22528076 C-240.80802201 255.37827831 -241.76143733 252.54208366 -242.72265625 249.70703125 C-243.06880478 248.67615891 -243.41495331 247.64528656 -243.77159119 246.58317566 C-244.86561915 243.32528521 -245.96355407 240.06873455 -247.0625 236.8125 C-248.51524349 232.50768622 -249.96391268 228.20153249 -251.41015625 223.89453125 C-251.74040298 222.92038773 -252.07064972 221.9462442 -252.41090393 220.94258118 C-255.11763382 212.87998243 -257.35900295 205.30842408 -257.375 196.75 C-257.39949219 196.07582031 -257.42398438 195.40164062 -257.44921875 194.70703125 C-257.51367244 183.16982132 -251.68634876 172.77438342 -246.4543457 162.81445312 C-245.42372864 160.84873358 -244.41142196 158.87428994 -243.40039062 156.8984375 C-242.74584617 155.6374729 -242.0902854 154.3770352 -241.43359375 153.1171875 C-240.84634521 151.98909668 -240.25909668 150.86100586 -239.65405273 149.69873047 C-238 147 -238 147 -235 145 C-231.44974612 144.67724965 -228.90291396 144.59606481 -225.625 146.0625 C-223.24699867 148.89780928 -222.69734573 151.39061136 -223 155 C-224.52682095 159.17414369 -226.59063592 163.02479486 -228.6875 166.9375 C-229.23083984 167.98357422 -229.77417969 169.02964844 -230.33398438 170.10742188 C-231.87794986 173.07773517 -233.43818421 176.03904674 -235 179 C-240.56971084 189.65085055 -241.6299167 198.41203204 -238.08813477 210.14208984 C-237.2365563 212.75932452 -236.34141598 215.36003752 -235.44140625 217.9609375 C-234.97127767 219.36374042 -234.50288038 220.76712461 -234.03611755 222.17105103 C-232.81405175 225.83346596 -231.57152811 229.48857963 -230.32348633 233.14221191 C-228.32460787 239.00706366 -226.35970574 244.88342007 -224.39069939 250.75835037 C-223.70432713 252.79754981 -223.01048301 254.8340742 -222.31507874 256.87020874 C-221.89471848 258.11235138 -221.47435822 259.35449402 -221.04125977 260.63427734 C-220.48499657 262.26542984 -220.48499657 262.26542984 -219.91749573 263.92953491 C-218.30080609 269.33990243 -217.43618332 272.867727 -219.9921875 278.01953125 C-220.44634033 278.9513623 -220.90049316 279.88319336 -221.3684082 280.84326172 C-222.11417114 282.31303467 -222.11417114 282.31303467 -222.875 283.8125 C-223.37153076 284.82844238 -223.86806152 285.84438477 -224.37963867 286.89111328 C-226.7307507 291.66084414 -229.16414607 296.3587984 -231.80859375 300.97265625 C-232.23221191 301.72248779 -232.65583008 302.47231934 -233.09228516 303.24487305 C-233.88090058 304.62155764 -234.69306289 305.98513415 -235.53271484 307.33129883 C-237.68170641 311.06945655 -238.24500479 313.27595966 -237.25 317.52734375 C-237.03448486 318.28176758 -236.81896973 319.03619141 -236.59692383 319.81347656 C-235.74116496 322.94810904 -235.69847519 325.94981836 -235.6875 329.1875 C-235.67074219 330.33605469 -235.65398437 331.48460937 -235.63671875 332.66796875 C-236.19678408 337.80491205 -238.00025117 341.00025117 -241.625 344.625 C-246.01936347 348.03309736 -251.26574827 350.16928841 -256.55859375 351.77734375 C-260.77839706 353.89062125 -262.08660347 357.49994236 -264.0390625 361.6328125 C-265.40540796 366.42057587 -264.41126882 369.61565692 -262.890625 374.25 C-261.01590189 380.03861873 -261.52666373 385.54138205 -263.91796875 391.12109375 C-267.35328666 397.08639309 -272.29375823 399.2192265 -278.625 401.375 C-283.89158096 403.26975844 -286.77883487 404.81380327 -289.26953125 409.890625 C-291.44069762 416.16030329 -290.83030806 420.64775438 -289 427 C-288.34508265 433.14330924 -288.38044018 438.78301842 -291.55078125 444.22265625 C-296.22875043 449.95978826 -303.10349084 452.70213536 -309.93359375 455.04296875 C-312.33474997 455.93674137 -312.33474997 455.93674137 -314 459 C-313.65084914 463.46679034 -312.25828492 467.18191317 -310.49609375 471.2734375 C-310.00302734 472.42714844 -309.50996094 473.58085937 -309.00195312 474.76953125 C-308.48568359 475.95933594 -307.96941406 477.14914062 -307.4375 478.375 C-306.65729492 480.19451172 -306.65729492 480.19451172 -305.86132812 482.05078125 C-304.58008244 485.03643633 -303.29280626 488.01933688 -302 491 C-295.40080961 490.48117666 -289.11686565 489.49663494 -282.6875 487.9375 C-273.50744656 485.72109612 -273.50744656 485.72109612 -269 486 C-268.72631592 485.12287354 -268.45263184 484.24574707 -268.1706543 483.34204102 C-267.07703388 480.21992007 -265.80536862 477.45200036 -264.26953125 474.52734375 C-263.72176025 473.47820801 -263.17398926 472.42907227 -262.60961914 471.34814453 C-262.01656982 470.22263184 -261.42352051 469.09711914 -260.8125 467.9375 C-260.18496925 466.73837806 -259.55794519 465.53899083 -258.93139648 464.33935547 C-257.61798485 461.8251619 -256.30271636 459.31195262 -254.98632812 456.79931641 C-252.13484193 451.35125172 -249.31345176 445.88765548 -246.49179077 440.42410278 C-244.92403136 437.38892756 -243.3544444 434.35469751 -241.78515625 431.3203125 C-241.15379916 430.09928873 -240.5224515 428.87826009 -239.89111328 427.65722656 C-237.07347788 422.20801746 -234.25495243 416.75926872 -231.43649292 411.31048584 C-229.87429204 408.29034281 -228.31214895 405.27016989 -226.75 402.25 C-226.12500028 401.04166652 -225.50000028 399.83333319 -224.875 398.625 C-224.565625 398.026875 -224.25625 397.42875 -223.9375 396.8125 C-206.125 362.375 -206.125 362.375 -205.18763733 360.56278992 C-204.562153 359.35350393 -203.93669527 358.14420419 -203.31126404 356.93489075 C-201.75639117 353.92852005 -200.20106857 350.92238377 -198.64477539 347.91674805 C-195.74085696 342.30731436 -192.841377 336.69571879 -189.95724487 331.07608032 C-188.6099253 328.45153249 -187.26012964 325.82826171 -185.91015625 323.20507812 C-185.2736707 321.96661528 -184.63836899 320.72754313 -184.00439453 319.48779297 C-181.05767783 313.72606526 -178.07189897 307.98519229 -174.87890625 302.35546875 C-174.44263916 301.58227295 -174.00637207 300.80907715 -173.55688477 300.01245117 C-170.29405594 295.79487268 -165.65828764 294.42033342 -160.68432617 292.99462891 C-159.42919724 292.63059967 -158.1740683 292.26657043 -156.88090515 291.89151001 C-156.21510626 291.7018932 -155.54930737 291.51227638 -154.86333275 291.3169136 C-152.76240217 290.71784663 -150.66453174 290.10899672 -148.56721497 289.49740601 C-142.60636585 287.76097321 -136.64074301 286.04128746 -130.67260742 284.33007812 C-127.01332221 283.28013291 -123.35770573 282.21812901 -119.70397377 281.14902878 C-118.31919817 280.74652013 -116.93306968 280.34863341 -115.54555321 279.95567703 C-107.89923734 277.78959377 -101.53308652 275.54632294 -95 271 C-94.01 270.67 -93.02 270.34 -92 270 C-90.89717169 268.17559918 -90.89717169 268.17559918 -90 266 C-89.21935632 264.56641419 -88.43101078 263.13700657 -87.63671875 261.7109375 C-81.39653627 250.43457333 -75.45204542 239.04974631 -69.73510742 227.49926758 C-66.4160621 220.80157736 -63.0122721 214.16074909 -59.5 207.5625 C-49.89424022 190.38104392 -49.89424022 190.38104392 -50.14453125 171.23046875 C-54.49369442 159.89086979 -63.15803349 154.64311231 -73.5 149.4375 C-75.58687586 148.36901824 -77.67279238 147.298661 -79.7578125 146.2265625 C-80.8087207 145.68676758 -81.85962891 145.14697266 -82.94238281 144.59082031 C-87.46168261 142.23951422 -91.91746401 139.77829 -96.375 137.3125 C-107.50243181 131.17714446 -118.80497915 125.38877111 -130.12060547 119.6105957 C-130.81864792 119.25343979 -131.51669037 118.89628387 -132.23588562 118.52830505 C-133.55322918 117.85454631 -134.87139366 117.1823894 -136.19050598 116.51210022 C-138.90815815 115.12203529 -141.45561673 113.69625552 -144 112 C-144 119.92 -144 127.84 -144 136 C-143.34 135.67 -142.68 135.34 -142 135 C-130.32592523 134.38557501 -120.98872166 137.50550079 -111.9375 144.875 C-104.71646104 151.57229076 -99.40328206 161.40788942 -98.796875 171.3203125 C-98.64075222 183.99227804 -100.48899918 193.18595835 -109 203 C-118.25037836 211.82837204 -128.23776778 215.3656638 -140.87890625 215.2109375 C-151.15346893 214.51653652 -160.73857397 209.78452576 -167.8125 202.3125 C-176.31467189 191.88075718 -178.14710463 180.0122679 -177 167 C-175.10781013 157.82401899 -169.99844611 149.73188304 -163.1875 143.375 C-161 142 -161 142 -159 142 C-159.33 141.34 -159.66 140.68 -160 140 C-161.87818686 128.31350397 -161.7327586 115.69612058 -160 104 C-167.62402771 99.37186394 -175.25497804 98.94537088 -184 100 C-192.46322669 102.43893784 -198.00886907 107.97131395 -202.43359375 115.41015625 C-203.26794314 116.93278199 -204.07961201 118.46824219 -204.859375 120.01953125 C-206.05286323 122.0917865 -207.1410073 123.49708302 -209 125 C-213.41055377 125.65341537 -215.2906002 125.51318284 -218.9375 122.875 C-221.40166278 119.44010643 -221.36960434 118.1375153 -221 114 C-216.29721389 101.53300624 -206.36407908 91.3336735 -194.375 85.78515625 C-181.52678263 80.65681949 -168.94914356 81.41263524 -156 86 C-155.68289062 84.98164062 -155.36578125 83.96328125 -155.0390625 82.9140625 C-144.41383831 50.1376153 -121.63679175 23.71618736 -90.99658203 7.98876953 C-63.93366574 -5.41362849 -29.01663992 -9.09820161 0 0 Z M-113.93359375 44.875 C-126.49520449 57.74898144 -136.42303925 74.55033714 -141 92 C-141.07913995 94.08252815 -141.07913995 94.08252815 -140 96 C-137.31553456 97.85985831 -137.31553456 97.85985831 -133.89453125 99.46875 C-132.95476692 99.94374939 -132.95476692 99.94374939 -131.99601746 100.42834473 C-130.64595084 101.10896308 -129.29272861 101.78335032 -127.93676758 102.45214844 C-125.06839769 103.86704828 -122.21518017 105.31127814 -119.36105347 106.75463867 C-117.92342054 107.48153104 -116.48504253 108.20695167 -115.04592896 108.9309082 C-109.29345225 111.8296947 -103.6310171 114.87165717 -98 118 C-87.65337244 123.72512728 -77.14447001 129.12222416 -66.60546875 134.48242188 C-60.22739072 137.73741951 -53.99262647 141.06307198 -48 145 C-46.93471069 144.30438965 -46.93471069 144.30438965 -45.84790039 143.59472656 C-43.17301854 141.85253808 -40.49439627 140.11629129 -37.81323242 138.38378906 C-36.66069483 137.63739601 -35.50960995 136.88875418 -34.36010742 136.13769531 C-16.38933179 124.40231723 -16.38933179 124.40231723 -8.5625 124.5 C-7.73878906 124.4896875 -6.91507813 124.479375 -6.06640625 124.46875 C5.19458243 126.41969836 14.06857009 133.4559796 23.25 139.8125 C24.75963484 140.84733923 26.26989373 141.88126865 27.78076172 142.91430664 C30.78468268 144.97015246 33.78507186 147.0309825 36.78222656 149.09667969 C40.55209892 151.69413947 44.33148012 154.27724943 48.1171875 156.8515625 C53.08240358 160.22814254 58.04337633 163.61082067 63 167 C65.52303331 164.77748448 66.56848189 162.99547281 67.53515625 159.7890625 C67.7863623 158.9633374 68.03756836 158.1376123 68.29638672 157.28686523 C68.5492041 156.40844971 68.80202148 155.53003418 69.0625 154.625 C69.45719482 153.26580444 69.45719482 153.26580444 69.85986328 151.87915039 C78.01906553 123.07578181 74.46251392 93.58586133 60.17529297 67.32714844 C56.65331496 61.13418475 52.49157381 55.53060819 48 50 C47.42636719 49.27296875 46.85273438 48.5459375 46.26171875 47.796875 C28.71445713 26.52239075 1.10508201 14.39326238 -25.8125 11.75 C-58.93132035 8.7229131 -90.55567723 21.69340458 -113.93359375 44.875 Z M-16.4375 142.875 C-17.46230469 143.50277344 -18.48710937 144.13054687 -19.54296875 144.77734375 C-25.76564649 148.74519015 -31.89462607 152.85468464 -38 157 C-37.566875 158.2375 -37.13375 159.475 -36.6875 160.75 C-34.78947104 166.41697218 -33.38609152 172.19021215 -32 178 C-26.11261792 174.91410166 -20.84438739 171.51797895 -15.65234375 167.35546875 C-12.02988811 165.50422853 -8.9400336 165.27535706 -5 166 C-1.52787137 167.65411364 1.50359368 169.83025224 4.62109375 172.0703125 C6.488025 173.36374172 8.35505284 174.65703153 10.22216797 175.95019531 C11.65408478 176.95669128 11.65408478 176.95669128 13.1149292 177.98352051 C17.7118619 181.1964817 22.37664908 184.30703442 27.03515625 187.4296875 C28.87226983 188.66849257 30.70885788 189.90807734 32.54492188 191.1484375 C33.45298584 191.76170898 34.3610498 192.37498047 35.29663086 193.00683594 C36.66573608 193.93157715 36.66573608 193.93157715 38.0625 194.875 C51.49230985 203.95760672 51.49230985 203.95760672 64.96484375 212.9765625 C75.141197 219.74396814 85.25329108 226.60788836 95.38232422 233.44580078 C96.32736816 234.08372559 97.27241211 234.72165039 98.24609375 235.37890625 C99.17797516 236.00798386 100.10985657 236.63706146 101.06997681 237.28520203 C103.77496859 239.10985352 106.48189958 240.93160059 109.18896484 242.75317383 C112.09055046 244.70678716 114.98316002 246.67170772 117.86181641 248.65893555 C119.45002197 249.74621948 119.45002197 249.74621948 121.0703125 250.85546875 C121.93930176 251.45770264 122.80829102 252.05993652 123.70361328 252.68041992 C127.54429331 254.88740223 129.67459897 254.96948644 134 254 C137.2561101 252.10553594 139.3487671 250.69599157 140.73046875 247.09765625 C141.44052818 243.43487443 141.31983907 241.67574308 139.68359375 238.21875 C136.21913112 233.4017335 130.85247868 230.58209593 125.9375 227.4375 C124.14960292 226.27351542 122.36486799 225.10478253 120.58026123 223.9357605 C119.26536791 223.07458103 117.94962232 222.21470172 116.63311768 221.35598755 C107.0557051 215.09930607 97.60052551 208.65936421 88.125 202.25 C84.58668164 199.8582719 81.04760532 197.46767033 77.5078125 195.078125 C76.63854126 194.49131958 75.76927002 193.90451416 74.87365723 193.29992676 C68.78782383 189.19575069 62.68514445 185.11748066 56.57421875 181.05078125 C49.3068221 176.21435261 42.05762094 171.35197429 34.82421875 166.46484375 C33.90503662 165.8438681 32.98585449 165.22289246 32.03881836 164.58309937 C28.299039 162.05584072 24.55982747 159.52774594 20.8215332 156.99829102 C18.03158347 155.11092302 15.24047759 153.22527494 12.44921875 151.33984375 C11.61581467 150.77522934 10.78241058 150.21061493 9.92375183 149.62889099 C6.17360317 147.09709328 2.41080524 144.5850089 -1.39306641 142.13452148 C-2.01363922 141.73337631 -2.63421204 141.33223114 -3.27359009 140.91893005 C-8.17978932 138.30746803 -12.07104895 140.18700034 -16.4375 142.875 Z M-140 151 C-139.31809048 161.00133969 -134.2592784 169.81328435 -129.5 178.4375 C-129.13261719 179.11159912 -128.76523438 179.78569824 -128.38671875 180.48022461 C-126.03349394 184.63838533 -123.52955795 187.77492856 -120 191 C-119.360625 189.9275 -118.72125 188.855 -118.0625 187.75 C-117.70285156 187.14671875 -117.34320313 186.5434375 -116.97265625 185.921875 C-114.20655067 180.45631699 -114.20893837 174.30532758 -115.61328125 168.4375 C-118.12691692 161.17342512 -122.27254568 156.43772967 -129.12109375 152.90625 C-132.77712303 151.41342897 -136.05919073 150.63054913 -140 151 Z M-156 160 C-160.99951463 167.03056745 -161.89182928 172.48614143 -161 181 C-158.77994227 188.4382308 -154.70923843 193.20782175 -148 197 C-143.55594935 198.99528805 -139.8469253 199.19387701 -135 199 C-135.4125 198.3915625 -135.825 197.783125 -136.25 197.15625 C-143.93489451 185.49167797 -149.88587756 172.98200313 -155 160 C-155.33 160 -155.66 160 -156 160 Z M-21.4375 227.0625 C-23.20925082 228.84463127 -23.20925082 228.84463127 -23 231 C-14.97229811 230.44636539 -7.66145933 228.34312056 0 226 C-2.92093194 222.57992146 -5.30773295 222.27974973 -9.65234375 221.93359375 C-14.44503548 222.06916074 -17.85614263 224.03212069 -21.4375 227.0625 Z M-3.5 242.875 C-9.63526931 244.43916263 -15.76911609 245.86166544 -22 247 C-19.34268952 250.73991846 -17.50471559 252.8738211 -13 254 C-8.22214592 254.45503372 -6.01972475 254.52947247 -1.75 252.3125 C2.09641922 249.07801111 5.23967572 246.13218887 6 241 C2.73486148 241 -0.35496542 242.06148056 -3.5 242.875 Z M-36 334 C-36 357.1 -36 380.2 -36 404 C-19.17 404 -2.34 404 15 404 C15 380.9 15 357.8 15 334 C-1.83 334 -18.66 334 -36 334 Z " fill="#000000" transform="translate(343,4)"/>
<path d="M0 0 C1.875 1.0625 1.875 1.0625 3 3 C3.67619492 9.96173409 1.8948987 14.24394741 -1.375 20.3125 C-1.83124756 21.19075439 -2.28749512 22.06900879 -2.75756836 22.97387695 C-4.15620523 25.6577477 -5.57608752 28.32947153 -7 31 C-7.76552443 32.45509769 -8.52991871 33.91079072 -9.29296875 35.3671875 C-10.44489523 37.56260912 -11.59914385 39.75667049 -12.75976562 41.94750977 C-17.03088712 50.01437108 -21.20125313 58.13249778 -25.375 66.25 C-30.73354403 76.66952899 -36.11191469 87.07772185 -41.54248047 97.45996094 C-45.2259117 104.50576165 -48.8832786 111.56483699 -52.53274536 118.62826538 C-54.43368838 122.30678054 -56.3366576 125.98424808 -58.23942566 129.66181946 C-59.75154239 132.58476268 -61.26226821 135.50841129 -62.77099609 138.43310547 C-64.40659415 141.60292347 -66.0465433 144.77045357 -67.6875 147.9375 C-68.40873047 149.33935547 -68.40873047 149.33935547 -69.14453125 150.76953125 C-75.66949524 163.33474762 -75.66949524 163.33474762 -79 165 C-86.21144674 165.45786963 -86.21144674 165.45786963 -88.9375 163.875 C-90.46533761 161.17881597 -90.78313847 159.10340262 -91 156 C-90.04249326 153.4759525 -89.06515165 151.35903256 -87.7734375 149.01953125 C-87.02414732 147.59470405 -86.27513993 146.1697281 -85.52636719 144.74462891 C-84.91384094 143.59924652 -84.91384094 143.59924652 -84.28894043 142.4307251 C-82.46744531 138.99569132 -80.71411112 135.52727252 -78.95684814 132.05905151 C-77.02026896 128.23812385 -75.06915132 124.42468116 -73.11914062 120.6105957 C-71.63275751 117.70267658 -70.1483546 114.7937525 -68.6640625 111.88476562 C-63.68722831 102.14084256 -58.66657162 92.42294894 -53.5559082 82.7485199 C-49.87760767 75.78277059 -46.26335898 68.78521743 -42.66604614 61.77737427 C-40.84399228 58.22903479 -39.01755068 54.68295428 -37.19140625 51.13671875 C-36.83112839 50.43703476 -36.47085052 49.73735077 -36.09965515 49.01646423 C-31.5501191 40.18254933 -26.9983956 31.35025033 -22.35546875 22.56494141 C-21.43553169 20.82415273 -20.51897579 19.08157387 -19.60546875 17.33740234 C-18.27194904 14.80042805 -16.92036484 12.27401009 -15.5625 9.75 C-15.17328369 9.00435791 -14.78406738 8.25871582 -14.38305664 7.49047852 C-10.96252541 1.22406529 -7.50763136 -2.28493128 0 0 Z " fill="#000000" transform="translate(147,307)"/>
</svg>
