<?xml version="1.0" encoding="UTF-8"?>
<svg version="1.1" xmlns="http://www.w3.org/2000/svg" width="512" height="512">
<path d="M0 0 C2.0898686 -0.0171578 4.17813146 -0.06103617 6.26757812 -0.10522461 C7.6061082 -0.11535709 8.94465169 -0.12387146 10.28320312 -0.13061523 C12.10223145 -0.15248901 12.10223145 -0.15248901 13.95800781 -0.17480469 C18.55118339 0.4594753 21.89496743 2.35973893 24.71679688 6.08422852 C24.99136719 6.69008789 25.2659375 7.29594727 25.54882812 7.92016602 C25.87753906 8.61110352 26.20625 9.30204102 26.54492188 10.01391602 C27.36132812 12.29516602 27.36132812 12.29516602 27.70898438 14.82641602 C28.18126783 17.87103948 28.63413624 19.71733213 30.36132812 22.29516602 C34.87580717 24.69852149 39.45501365 26.23567442 44.36083984 27.63305664 C46.36170173 28.29528967 48.06074277 29.17580784 49.91601562 30.16625977 C53.40285359 31.69483387 53.40285359 31.69483387 57.00976562 30.02172852 C58.26185227 29.33905857 59.5039203 28.63775237 60.73632812 27.92016602 C69.85789546 23.18170404 69.85789546 23.18170404 75.39648438 24.47094727 C84.44879621 28.26823911 95.13122583 38.53083643 99.36132812 47.29516602 C99.72460938 49.83032227 99.72460938 49.83032227 99.67382812 52.35766602 C99.66996094 53.19426758 99.66609375 54.03086914 99.66210938 54.89282227 C99.3449877 57.42567723 98.63357495 59.10041353 97.36132812 61.29516602 C98.23273438 61.40731445 99.10414063 61.51946289 100.00195312 61.63500977 C113.43035752 64.27384737 125.31164731 74.62670258 133.36132812 85.29516602 C133.88421417 86.48209549 134.40710022 87.66902496 134.9458313 88.891922 C135.94734529 90.78978164 135.94734529 90.78978164 137.36132812 92.29516602 C140.51052203 93.00539996 142.64817504 93.20529147 145.79833984 93.11816406 C147.07223068 93.12468994 147.07223068 93.12468994 148.37185669 93.13134766 C151.17926683 93.13836127 153.98391814 93.09698531 156.79101562 93.05688477 C158.74390856 93.05611244 160.69680608 93.05899716 162.64968872 93.06538391 C167.7934227 93.07498557 172.93615014 93.0463084 178.07971191 93.00622559 C186.30509566 92.944835 194.53021761 92.92501445 202.75580215 92.93604469 C205.62668766 92.93194098 208.49647208 92.90163638 211.36715698 92.86906433 C213.13327856 92.8651822 214.8994025 92.86222871 216.66552734 92.86035156 C217.85804108 92.83631004 217.85804108 92.83631004 219.074646 92.81178284 C224.31126134 92.83854481 227.15433977 93.91986943 231.36132812 97.29516602 C232.27180908 98.01023315 232.27180908 98.01023315 233.20068359 98.73974609 C233.70486816 99.17697998 234.20905273 99.61421387 234.72851562 100.06469727 C235.30061768 100.55800537 235.87271973 101.05131348 236.4621582 101.55957031 C237.04763428 102.07044189 237.63311035 102.58131348 238.23632812 103.10766602 C238.84694092 103.63593994 239.45755371 104.16421387 240.08666992 104.70849609 C241.84796373 106.23389191 243.60520934 107.76381798 245.36132812 109.29516602 C246.23660156 110.05571289 247.111875 110.81625977 248.01367188 111.59985352 C254.31960123 117.09616084 254.31960123 117.09616084 255.17382812 121.17016602 C255.13859098 124.87006604 254.48828431 126.14394516 252.07226562 129.02172852 C248.98994674 131.96533526 245.68459391 134.63114813 242.36132812 137.29516602 C241.32418907 138.15736981 240.28895495 139.02187142 239.25585938 139.88891602 C236.64799922 142.05685374 234.02302788 144.19382411 231.36132812 146.29516602 C230.66007812 146.85204102 229.95882813 147.40891602 229.23632812 147.98266602 C224.53541869 151.27330262 218.85479888 150.74313144 213.36132812 150.29516602 C209.61046688 148.88859305 206.97066107 147.33938779 204.36132812 144.29516602 C203.24757813 145.50172852 203.24757813 145.50172852 202.11132812 146.73266602 C197.41595556 151.10789954 192.55036809 150.57078892 186.34570312 150.51782227 C181.53008763 150.15854205 178.11355738 148.82130117 174.42382812 145.60766602 C174.07320313 145.17454102 173.72257812 144.74141602 173.36132812 144.29516602 C172.24757813 145.50172852 172.24757813 145.50172852 171.11132812 146.73266602 C166.94022336 150.61937728 163.87725217 150.40099761 158.31054688 150.26000977 C157.13685547 150.25678711 155.96316406 150.25356445 154.75390625 150.25024414 C152.29515373 150.238579 149.83630558 150.19201199 147.37890625 150.10961914 C140.59911605 150.05173764 140.59911605 150.05173764 135.03808594 153.46728516 C133.26279877 156.00609429 131.79549781 158.55279557 130.36132812 161.29516602 C122.75976045 172.1856946 110.30155304 178.31192976 98.36132812 183.29516602 C98.69132813 184.28516602 99.02132812 185.27516602 99.36132812 186.29516602 C99.56445312 188.38110352 99.56445312 188.38110352 99.61132812 190.67016602 C99.65 191.79551758 99.65 191.79551758 99.68945312 192.94360352 C98.76003673 199.60442104 92.66133902 204.43341808 88.17382812 208.98266602 C87.44357422 209.75416992 86.71332031 210.52567383 85.9609375 211.32055664 C81.28089121 216.06692777 78.06293965 218.5652187 71.36132812 219.29516602 C68.63867188 218.97485352 68.63867188 218.97485352 66.29882812 218.17016602 C65.45835937 217.88399414 64.61789062 217.59782227 63.75195312 217.30297852 C61.53553015 216.36860413 59.58779678 215.31287261 57.54882812 214.04516602 C53.86174796 212.02088671 53.24348339 212.1777504 49.36132812 213.29516602 C46.56769297 214.45604878 43.86882065 215.75738364 41.14648438 217.07641602 C38.67883779 218.15622771 36.60082501 218.65421217 33.98632812 219.17016602 C31.96935447 219.72756429 31.96935447 219.72756429 30.36132812 221.29516602 C29.03425852 224.40741694 27.99321553 227.39912188 27.17041016 230.67358398 C25.73642277 236.19601955 23.42349796 239.36163175 18.59472656 242.41064453 C13.59488649 244.39079545 7.72536115 243.62102 2.42382812 243.60766602 C1.14830078 243.6237793 -0.12722656 243.63989258 -1.44140625 243.65649414 C-2.67052734 243.65713867 -3.89964844 243.6577832 -5.16601562 243.65844727 C-6.84812134 243.6629187 -6.84812134 243.6629187 -8.56420898 243.66748047 C-12.95339262 243.13595462 -15.52852807 241.33802837 -18.70117188 238.35766602 C-22.01663059 233.11710224 -24.63867188 226.55240889 -24.63867188 220.29516602 C-25.85554688 220.08891602 -27.07242188 219.88266602 -28.32617188 219.67016602 C-33.8609946 218.49664348 -38.55689103 215.98705423 -43.52539062 213.34204102 C-48.06937647 211.81407589 -50.60339575 213.28703859 -54.72851562 215.33032227 C-55.33824219 215.6693457 -55.94796875 216.00836914 -56.57617188 216.35766602 C-61.87248837 219.04610043 -66.79760328 220.06187241 -72.61645508 218.29858398 C-77.15298586 216.04757088 -80.48566999 212.02971077 -83.95117188 208.42016602 C-84.76134766 207.60418945 -85.57152344 206.78821289 -86.40625 205.94750977 C-94.86515562 197.31252368 -94.86515562 197.31252368 -95.13867188 191.29516602 C-95.0753928 185.82604596 -92.5811158 181.80991797 -89.85351562 177.18969727 C-87.64811797 171.93503596 -89.70791105 167.71184476 -91.76171875 162.63110352 C-92.03048828 161.98399414 -92.29925781 161.33688477 -92.57617188 160.67016602 C-92.84107422 160.01532227 -93.10597656 159.36047852 -93.37890625 158.68579102 C-94.11477487 156.88172601 -94.87581324 155.08798499 -95.63867188 153.29516602 C-95.88230469 152.53075195 -96.1259375 151.76633789 -96.37695312 150.97875977 C-98.4613704 148.19738563 -101.669476 147.83150297 -104.88867188 146.98266602 C-110.3881311 145.3536546 -114.2932806 143.75602898 -117.75585938 139.04125977 C-120.43967753 133.73299996 -119.85972212 127.77623541 -119.88867188 121.98266602 C-119.90929687 120.96237305 -119.92992187 119.94208008 -119.95117188 118.89086914 C-119.98850054 111.67243846 -119.31007568 106.91448729 -114.94335938 100.99829102 C-112.37780016 99.10238624 -109.96594203 98.41470161 -106.90087891 97.62280273 C-100.31851557 95.88538965 -100.31851557 95.88538965 -95.34179688 91.52270508 C-93.07543204 86.98779622 -91.89491136 82.18515609 -90.63867188 77.29516602 C-89.98550654 75.95516703 -89.32387649 74.61906815 -88.63867188 73.29516602 C-88.74409224 68.97293107 -90.34346565 65.73585238 -92.20117188 61.92016602 C-94.53251522 56.92539845 -95.47343135 53.76747813 -94.63867188 48.29516602 C-91.50217959 42.762521 -87.18574338 38.50929736 -82.70117188 34.04516602 C-81.99798828 33.32586914 -81.29480469 32.60657227 -80.5703125 31.86547852 C-79.88259766 31.17711914 -79.19488281 30.48875977 -78.48632812 29.77954102 C-77.55832397 28.84706543 -77.55832397 28.84706543 -76.61157227 27.89575195 C-73.2612766 25.17770488 -69.87821591 23.89728911 -65.57617188 24.29516602 C-60.24696643 24.98251747 -56.01860486 27.52755978 -51.43554688 30.21313477 C-48.74703741 31.5769547 -48.74703741 31.5769547 -46.33789062 30.63500977 C-45.44714844 30.19286133 -44.55640625 29.75071289 -43.63867188 29.29516602 C-42.23879996 28.88921351 -40.83311353 28.50306245 -39.42382812 28.13110352 C-30.91370925 25.86198736 -30.91370925 25.86198736 -24.29980469 20.48266602 C-22.64040097 17.1020982 -21.68682422 13.68514279 -20.80664062 10.03735352 C-19.49660127 5.83996989 -17.98292206 4.07766617 -14.63867188 1.29516602 C-10.37020018 -0.83906983 -4.73724482 0.02709209 0 0 Z M-5.63867188 17.29516602 C-6.02539062 18.40375977 -6.41210938 19.51235352 -6.81054688 20.65454102 C-7.33599707 22.11829514 -7.86207172 23.58182521 -8.38867188 25.04516602 C-8.76765625 26.13958008 -8.76765625 26.13958008 -9.15429688 27.25610352 C-10.67298778 31.4325035 -11.93174263 34.61235451 -15.63867188 37.29516602 C-18.28769754 38.47554938 -21.00000342 39.36081776 -23.76367188 40.23266602 C-28.78269473 41.88532935 -33.45249825 43.56704514 -38.07617188 46.17016602 C-42.99855869 48.71851804 -47.17723134 49.49186402 -52.63867188 48.29516602 C-55.87685668 46.83237214 -58.91950359 45.22607067 -61.97460938 43.41235352 C-64.50586481 42.0305583 -64.50586481 42.0305583 -66.72460938 42.85766602 C-68.9848518 44.5551542 -70.92256247 46.38851963 -72.88867188 48.42016602 C-73.94828125 49.5068457 -73.94828125 49.5068457 -75.02929688 50.61547852 C-75.8259375 51.44692383 -75.8259375 51.44692383 -76.63867188 52.29516602 C-75.29170296 56.672815 -73.5557812 60.6109237 -71.44335938 64.65844727 C-69.16224652 72.13296755 -70.84707886 77.97156267 -74.38867188 84.67016602 C-75.13222186 86.14864653 -75.8718168 87.6291228 -76.60742188 89.11157227 C-76.96191406 89.8232959 -77.31640625 90.53501953 -77.68164062 91.26831055 C-79.33363397 94.76699645 -80.51821061 98.4036669 -81.65429688 102.09594727 C-83.58366703 106.40640519 -85.91359175 108.00622431 -90.27539062 109.74438477 C-91.62181195 110.16950118 -92.97226367 110.58203286 -94.32617188 110.98266602 C-98.83256423 112.03926498 -98.83256423 112.03926498 -102.63867188 114.29516602 C-102.71180754 116.82566004 -102.73114715 119.32821438 -102.70117188 121.85766602 C-102.69666016 122.56858398 -102.69214844 123.27950195 -102.6875 124.01196289 C-102.67568052 125.77306615 -102.65774451 127.53412637 -102.63867188 129.29516602 C-101.53007812 129.68188477 -100.42148438 130.06860352 -99.27929688 130.46704102 C-97.81554275 130.99249121 -96.35201268 131.51856586 -94.88867188 132.04516602 C-93.79425781 132.42415039 -93.79425781 132.42415039 -92.67773438 132.81079102 C-87.59453995 134.65922535 -84.09316191 136.24319239 -81.65527344 141.35864258 C-80.58780053 143.90068421 -79.60259973 146.46214058 -78.63867188 149.04516602 C-76.49325798 154.69363855 -74.33294184 160.17993828 -71.43408203 165.49047852 C-69.84085946 169.10530394 -69.81043646 172.47574946 -70.63867188 176.29516602 C-72.0772116 179.50858011 -73.66566087 182.54606529 -75.42382812 185.59594727 C-76.7869907 188.11479564 -76.7869907 188.11479564 -76.60742188 190.35375977 C-75.22698751 193.12019477 -73.30241558 194.91298895 -71.07617188 197.04516602 C-70.24988281 197.84438477 -69.42359375 198.64360352 -68.57226562 199.46704102 C-67.93417969 200.07032227 -67.29609375 200.67360352 -66.63867188 201.29516602 C-65.79304688 200.87364258 -64.94742188 200.45211914 -64.07617188 200.01782227 C-49.22019915 192.84306271 -49.22019915 192.84306271 -41.63867188 195.48266602 C-38.35224026 196.88479224 -35.21323873 198.5429571 -32.04882812 200.19750977 C-27.81112836 202.12748324 -23.34342647 203.45033187 -18.90820312 204.85375977 C-14.68200112 206.71692409 -11.8004107 208.83663333 -9.78393555 213.10400391 C-9.04683622 215.09112867 -8.42067009 217.07303754 -7.82617188 219.10766602 C-7.10429687 221.47954102 -6.38242188 223.85141602 -5.63867188 226.29516602 C-0.35867188 226.29516602 4.92132813 226.29516602 10.36132812 226.29516602 C11.3411674 223.69125063 12.32022606 221.08704634 13.29882812 218.48266602 C13.57662109 217.74467773 13.85441406 217.00668945 14.140625 216.24633789 C14.40810547 215.53413086 14.67558594 214.82192383 14.95117188 214.08813477 C15.19730225 213.43353271 15.44343262 212.77893066 15.69702148 212.10449219 C16.28169845 210.51204786 16.82488371 208.90449926 17.36132812 207.29516602 C19.36489971 206.56973492 21.3772032 205.86389529 23.41601562 205.24438477 C27.04487607 204.07487139 30.57048035 202.70570897 34.11132812 201.29516602 C34.74893066 201.04597412 35.3865332 200.79678223 36.04345703 200.54003906 C39.71231403 199.0745137 42.98528872 197.32773862 46.36132812 195.29516602 C53.48140163 193.48497784 57.8430539 195.25260041 64.36132812 198.29516602 C65.73456171 198.88264563 67.10933591 199.4665511 68.48632812 200.04516602 C69.90945313 200.66391602 69.90945313 200.66391602 71.36132812 201.29516602 C73.06642528 199.75188827 74.74999553 198.18479852 76.42382812 196.60766602 C77.36355469 195.73754883 78.30328125 194.86743164 79.27148438 193.97094727 C81.6662691 191.5044123 81.6662691 191.5044123 81.23242188 188.58813477 C80.4118026 186.31243133 80.4118026 186.31243133 79.36132812 184.29516602 C76.73006955 183.77670618 74.13832535 183.35722123 71.48632812 182.98266602 C61.03523334 181.3131516 52.85091943 177.83275931 44.43164062 171.33422852 C42.37691903 170.08471584 42.37691903 170.08471584 39.88476562 170.45532227 C37.18258282 171.35465555 35.216975 172.51437746 32.86132812 174.10766602 C19.85647901 182.09882884 4.43085262 183.8368816 -10.44726562 181.08032227 C-20.7763982 178.53912808 -30.78442709 174.37137269 -38.28710938 166.58422852 C-39.56859754 165.06510694 -39.56859754 165.06510694 -41.63867188 165.29516602 C-41.90035156 164.72797852 -42.16203125 164.16079102 -42.43164062 163.57641602 C-43.73648398 161.11030431 -45.27530681 159.02469825 -46.95117188 156.79516602 C-50.84204421 151.29120286 -53.41063812 145.63984027 -55.63867188 139.29516602 C-55.88617188 138.59262695 -56.13367188 137.89008789 -56.38867188 137.16625977 C-60.79777379 121.52007171 -57.5092913 104.59969893 -49.89013672 90.66748047 C-41.93884496 76.84140599 -29.56349504 67.71994222 -14.25195312 63.32250977 C3.7783607 59.05791409 18.92665434 61.91359167 35.06054688 70.55297852 C38.23729846 72.34446972 38.23729846 72.34446972 41.36132812 73.29516602 C43.72317659 72.02203203 43.72317659 72.02203203 46.23632812 70.17016602 C55.83019453 63.85409891 65.13089763 60.87561254 76.56054688 59.94750977 C79.43763157 59.58059836 79.43763157 59.58059836 80.81835938 57.48657227 C81.47457668 54.83809809 81.47255424 53.79423247 80.36132812 51.29516602 C78.29290594 48.86401559 78.29290594 48.86401559 75.79882812 46.54516602 C74.97253906 45.74594727 74.14625 44.94672852 73.29492188 44.12329102 C72.33779297 43.21836914 72.33779297 43.21836914 71.36132812 42.29516602 C70.55050781 42.72829102 69.7396875 43.16141602 68.90429688 43.60766602 C61.64723875 47.25731574 55.49993173 50.21620697 47.36132812 48.29516602 C42.92447117 46.59976363 38.7026708 44.47666077 34.47460938 42.32250977 C30.30182704 40.20582529 26.04925163 38.6949175 21.56054688 37.37719727 C17.31845685 35.29005884 15.65413558 31.99559226 13.87695312 27.74438477 C12.70507812 24.26131185 11.53320312 20.77823893 10.36132812 17.29516602 C5.08132813 17.29516602 -0.19867188 17.29516602 -5.63867188 17.29516602 Z M53.36132812 85.29516602 C52.46994141 85.92165039 52.46994141 85.92165039 51.56054688 86.56079102 C42.15972182 93.81464272 37.34841141 104.86072184 35.36132812 116.29516602 C34.3066417 129.31648691 38.20299204 140.70937766 45.48632812 151.42016602 C53.3518181 160.09932737 64.79642064 166.66034298 76.57617188 167.53344727 C91.30695927 167.82713558 102.89338849 164.35070599 113.76757812 154.00610352 C118.59760429 148.93457604 122.11443338 143.69248812 125.26757812 137.44750977 C126.36132812 135.29516602 126.36132812 135.29516602 127.36132812 134.29516602 C129.63294469 134.2466118 131.90589182 134.25868658 134.17773438 134.29516602 C135.59635429 134.2963257 137.01497813 134.29493864 138.43359375 134.29125977 C140.67092448 134.28686182 142.9040837 134.29470942 145.14086914 134.34643555 C154.10886712 134.73890038 154.10886712 134.73890038 162.06787109 131.26000977 C164.22027452 128.86566545 164.22027452 128.86566545 165.89624023 126.32641602 C167.36132812 124.29516602 167.36132812 124.29516602 170.36132812 123.29516602 C175.37642504 122.92367736 178.41532595 123.07605898 182.36132812 126.29516602 C184.18443303 128.55521342 185.75704935 130.86582959 187.36132812 133.29516602 C191.18377462 132.75631893 192.5965683 131.24288738 194.98632812 128.29516602 C198.18610154 124.38277931 198.18610154 124.38277931 200.36132812 123.29516602 C205.66510054 122.94737766 209.12810431 122.74841093 213.36132812 126.29516602 C215.18110827 128.55732365 216.75729979 130.86620882 218.36132812 133.29516602 C222.02548688 131.23204288 225.0668094 128.93644426 228.17382812 126.10766602 C229.35912109 125.03452148 229.35912109 125.03452148 230.56835938 123.93969727 C231.45587891 123.1256543 231.45587891 123.1256543 232.36132812 122.29516602 C231.49325212 121.22700157 230.6163803 120.16598517 229.73632812 119.10766602 C229.2490625 118.51598633 228.76179687 117.92430664 228.25976562 117.31469727 C223.1670202 111.6878345 223.1670202 111.6878345 216.17404175 109.68284607 C214.54892039 109.66295118 212.92332233 109.67011274 211.29833984 109.69921875 C210.40656036 109.69516022 209.51478088 109.69110168 208.59597778 109.68692017 C206.66771302 109.68141635 204.73938843 109.68737361 202.81118393 109.70358086 C199.75952843 109.72902227 196.70922206 109.7241967 193.65750122 109.71168518 C187.1836279 109.69095588 180.71017383 109.71062413 174.23632812 109.73266602 C166.72672131 109.75376276 159.21754803 109.75837634 151.70795059 109.73216438 C148.70081578 109.72879871 145.69450626 109.75003912 142.68746948 109.77256775 C140.84682026 109.77005705 139.00617207 109.76649759 137.16552734 109.76171875 C136.32906677 109.77460434 135.4926062 109.78748993 134.63079834 109.80076599 C130.9893295 109.76918005 128.83995327 109.65937286 125.89553833 107.4188385 C124.21135065 105.08756536 122.97069844 102.76764466 121.73632812 100.17016602 C115.34371066 88.1999898 105.68277641 81.4494484 93.01367188 77.16235352 C78.72010488 73.76858681 65.20330318 76.71036533 53.36132812 85.29516602 Z M-31.63867188 93.29516602 C-39.92781072 103.80405553 -43.01108813 114.99208575 -41.63867188 128.29516602 C-39.09550595 141.3288914 -32.43317152 151.55278528 -21.63867188 159.29516602 C-11.08661568 165.44792282 0.33476095 167.68820744 12.36132812 165.29516602 C18.83801 163.20892714 24.16230231 160.72047111 29.36132812 156.29516602 C28.89082031 155.43536133 28.4203125 154.57555664 27.93554688 153.68969727 C19.00853713 136.94229237 16.90272256 120.36656462 22.13867188 101.98266602 C23.52382097 97.80509175 25.22718145 94.0299227 27.40820312 90.21313477 C28.58383993 88.20436331 28.58383993 88.20436331 28.36132812 85.29516602 C6.79999126 73.6936345 -14.24213169 74.79363386 -31.63867188 93.29516602 Z " fill="#000000" transform="translate(257.638671875,24.704833984375)"/>
<path d="M0 0 C1.11826172 -0.02900391 2.23652344 -0.05800781 3.38867188 -0.08789062 C23.05341647 -0.23289441 41.87202834 7.57407672 60.33789062 13.62524414 C64.52685573 14.99639958 68.71878116 16.35847168 72.91042709 17.72140503 C76.17373526 18.78258897 79.43639807 19.84560567 82.69781494 20.91259766 C85.04948112 21.68073003 87.40312144 22.44285085 89.75891113 23.19824219 C92.09872798 23.95865975 94.42958471 24.74707438 96.75183105 25.55957031 C97.89043579 25.94467773 99.02904053 26.32978516 100.20214844 26.7265625 C101.21065857 27.07928223 102.2191687 27.43200195 103.25823975 27.79541016 C108.97215094 28.80406258 113.64504498 25.67695144 118.546875 23.01171875 C119.13615784 22.69346634 119.72544067 22.37521393 120.33258057 22.0473175 C122.2033599 21.03603155 124.07057827 20.01838693 125.9375 19 C139.86295276 11.43666088 139.86295276 11.43666088 145.765625 8.39453125 C146.5071582 8.01143799 147.24869141 7.62834473 148.01269531 7.23364258 C155.75222196 3.95555164 165.09145246 4.30393808 172.9375 6.9375 C181.56804438 10.48906215 187.03247454 15.61901503 192.1875 23.3125 C193.91507162 22.44871419 195.64262851 21.58489894 197.37011719 20.72094727 C198.836654 19.98784217 200.30345281 19.25526094 201.77050781 18.52319336 C204.96527324 16.92828556 208.15645555 15.32836887 211.3359375 13.703125 C212.62371094 13.04570312 212.62371094 13.04570312 213.9375 12.375 C214.67484375 11.99472656 215.4121875 11.61445313 216.171875 11.22265625 C223.0846199 8.10120361 231.87742097 8.203373 239.1171875 10.06640625 C249.11467246 13.94081152 256.97860922 20.08877815 261.5625 29.9375 C262.94459181 33.39272952 263.87008112 36.58282811 264.1875 40.3125 C264.290625 41.488125 264.39375 42.66375 264.5 43.875 C264.3378857 53.25961691 260.77805222 62.65045179 254.1875 69.3125 C247.10465022 75.02551634 239.11371383 79.19369611 231.07272339 83.36245728 C227.50661579 85.21206154 223.95253442 87.08447775 220.3984375 88.95703125 C219.69120041 89.32924301 218.98396332 89.70145477 218.2552948 90.08494568 C212.14301959 93.31249097 206.12081693 96.68601328 200.125 100.125 C191.78327702 104.9028468 183.33106091 109.40476494 174.78613281 113.80737305 C168.22650723 117.20404509 161.78324547 120.76416858 155.375 124.4375 C144.28714211 130.78521365 133.01330824 136.75504371 121.70556641 142.69824219 C115.2777508 146.07853465 108.8603653 149.4676245 102.5078125 152.98828125 C101.52047119 153.53540771 100.53312988 154.08253418 99.51586914 154.64624023 C97.75589418 155.62697304 95.99944348 156.61407739 94.24780273 157.60961914 C74.94279688 168.36734012 54.95868829 169.55295377 33.86929321 163.66531372 C28.04699786 161.94154578 22.27368662 160.06637582 16.5 158.1875 C13.93198388 157.36019698 11.36324343 156.53518468 8.79423523 155.71096802 C7.21195572 155.20244167 5.63038217 154.69171172 4.04963684 154.17843628 C-9.8584199 149.67653483 -24.23310804 149.51693396 -37.8125 155.3125 C-39.80775569 155.99323429 -41.80672921 156.66340217 -43.8125 157.3125 C-43.3071875 158.20710937 -42.801875 159.10171875 -42.28125 160.0234375 C-34.79029993 173.75716356 -34.79029993 173.75716356 -36.8125 181.3125 C-39.5585862 187.38923531 -42.45141634 189.90271595 -48.25 193 C-48.97775635 193.40790771 -49.7055127 193.81581543 -50.45532227 194.23608398 C-52.04063221 195.12417039 -53.62993389 196.00515969 -55.22265625 196.87988281 C-58.97789201 198.95715689 -62.69258732 201.10346305 -66.41235352 203.2434082 C-69.14549941 204.81491419 -71.88183656 206.38057962 -74.62109375 207.94140625 C-75.38220459 208.37525635 -76.14331543 208.80910645 -76.92749023 209.25610352 C-80.007665 210.98229393 -81.95734373 211.52192118 -85.5 211.625 C-86.74330078 211.68107422 -86.74330078 211.68107422 -88.01171875 211.73828125 C-93.026217 210.97596562 -96.38874243 209.19222234 -99.42407227 205.18481445 C-101.13037064 202.44026837 -102.70209272 199.64941841 -104.25 196.8125 C-104.84490234 195.75804687 -105.43980469 194.70359375 -106.05273438 193.6171875 C-107.32717402 191.35681064 -108.59437821 189.09234175 -109.85498047 186.82421875 C-112.78802931 181.54807156 -115.79947433 176.3166852 -118.80105591 171.0793457 C-119.81919884 169.3007981 -120.83470041 167.52076827 -121.84936523 165.74023438 C-126.12572697 158.23797618 -130.44901336 150.76448104 -134.8125 143.3125 C-140.52696075 133.55141598 -146.1555668 123.7428844 -151.75708008 113.91674805 C-157.08855988 104.56621628 -162.45973432 95.2391988 -167.85327148 85.92431641 C-168.99039119 83.95808322 -170.12406398 81.98985105 -171.25366211 80.01928711 C-172.26413097 78.26469536 -173.287645 76.51752672 -174.32641602 74.77954102 C-177.85712823 68.75309926 -178.94727334 64.31754313 -177.8125 57.3125 C-173.70035242 47.83668165 -161.07861087 43.04194561 -152.4453125 38.13378906 C-150.54927173 37.05497333 -148.6573232 35.96922122 -146.765625 34.8828125 C-145.54711183 34.18708505 -144.32836993 33.491758 -143.109375 32.796875 C-142.01979492 32.17522461 -140.93021484 31.55357422 -139.80761719 30.91308594 C-135.56458432 28.64561581 -132.23214013 26.90070376 -127.375 27.4375 C-126.29412109 27.53417969 -126.29412109 27.53417969 -125.19140625 27.6328125 C-118.84581927 29.44583735 -115.56180861 33.5311365 -112.4375 39.0625 C-112.08300781 39.66449219 -111.72851562 40.26648438 -111.36328125 40.88671875 C-110.50097463 42.35497056 -109.65499363 43.83279038 -108.8125 45.3125 C-96.94823178 39.53334356 -85.3620738 33.30574404 -73.79785156 26.95068359 C-68.60176773 24.09938146 -63.39573998 21.26652126 -58.1875 18.4375 C-57.22908203 17.91454346 -56.27066406 17.39158691 -55.28320312 16.8527832 C-35.53482813 6.12955225 -35.53482813 6.12955225 -26.4375 3.5 C-25.77878906 3.29697266 -25.12007812 3.09394531 -24.44140625 2.88476562 C-16.24717218 0.41672097 -8.49790916 0.07077659 0 0 Z M-39.49560547 28.08056641 C-42.02747237 29.42680459 -44.57615891 30.73677433 -47.12890625 32.04296875 C-59.08866006 38.18340689 -70.84606284 44.63044224 -82.515625 51.3046875 C-87.90634807 54.3842341 -93.35201677 57.35879133 -98.8125 60.3125 C-98.8125 64.55106686 -98.27408634 65.75930235 -96.2421875 69.328125 C-95.68289551 70.31917236 -95.12360352 71.31021973 -94.54736328 72.33129883 C-93.9336084 73.39759521 -93.31985352 74.4638916 -92.6875 75.5625 C-92.05440918 76.67713623 -91.42131836 77.79177246 -90.76904297 78.94018555 C-85.98492162 87.33875263 -81.12850086 95.69605361 -76.23071289 104.02880859 C-72.93028334 109.6492963 -69.68007745 115.29439868 -66.48046875 120.97265625 C-65.74792277 122.26914619 -65.01533836 123.56561442 -64.28271484 124.86206055 C-63.20936804 126.76204413 -62.13853892 128.66322798 -61.07550049 130.56900024 C-60.09423666 132.32808658 -59.10395069 134.08213093 -58.11328125 135.8359375 C-57.54778564 136.84575684 -56.98229004 137.85557617 -56.3996582 138.89599609 C-54.88353158 141.54749173 -54.88353158 141.54749173 -51.8125 143.3125 C-51.25304687 142.99796875 -50.69359375 142.6834375 -50.1171875 142.359375 C-38.83126847 136.33537964 -28.56802128 133.95238713 -15.875 133.8125 C-14.91126465 133.79405029 -13.9475293 133.77560059 -12.95458984 133.7565918 C2.25955534 133.88509394 17.17970432 140.11880609 31.52978516 144.75708008 C33.81001762 145.49258507 36.09235851 146.22123074 38.375 146.94921875 C39.05739746 147.17212082 39.73979492 147.39502289 40.44287109 147.62467957 C56.10277241 152.60393295 70.81687422 150.47757463 85.29139709 143.01698303 C87.22085376 142.00095071 89.14179871 140.96997432 91.0625 139.9375 C92.43709726 139.21254159 93.81218679 138.4885159 95.18774414 137.76538086 C103.99564331 133.11396174 112.6968214 128.28100418 121.33349609 123.31884766 C129.52191092 118.63012317 137.84167967 114.21208345 146.1875 109.8125 C156.56322006 104.34204168 166.83951119 98.74352392 177.01953125 92.9140625 C184.42568467 88.69255505 191.95644475 84.7496488 199.53393555 80.84619141 C209.3954301 75.74008548 219.04070025 70.26666369 228.6706543 64.73901367 C231.85461826 62.93438651 235.07448857 61.19896142 238.30541992 59.47998047 C242.32269911 56.98800627 244.52884124 53.68969559 246.5625 49.4375 C247.6466021 44.01698952 246.9912642 39.4303677 244.5 34.5625 C241.40527924 30.21316271 238.2268072 27.99226907 233.1875 26.3125 C227.28818699 25.92165525 223.87454267 26.47941058 218.5625 29.3125 C217.90773682 29.65643799 217.25297363 30.00037598 216.57836914 30.35473633 C215.03117126 31.17120365 213.48829862 31.9958954 211.94873047 32.82666016 C209.34591368 34.22725635 206.73373157 35.60900358 204.11785889 36.98503113 C190.53171735 44.13272069 177.02842357 51.40657888 163.72045898 59.06323242 C162.86911377 59.55154541 162.01776855 60.0398584 161.140625 60.54296875 C160.32819336 61.010979 159.51576172 61.47898926 158.67871094 61.96118164 C156.05554101 63.38407909 153.37481246 64.5913301 150.65625 65.8203125 C146.94202497 67.61556352 146.94202497 67.61556352 144.765625 71.07421875 C144.60320312 72.52248047 144.60320312 72.52248047 144.4375 74 C142.92215153 82.55540492 139.09259675 89.64361299 132.1796875 95.06640625 C123.72631534 100.35390766 113.839227 102.83583453 104.04963684 100.59388733 C94.36649543 97.98363777 84.80648492 95.07169266 75.26171875 91.99609375 C73.69611771 91.49331114 72.13050987 90.99054971 70.56489563 90.48780823 C67.31942683 89.4443799 64.07506738 88.39757803 60.83129883 87.34887695 C56.67281562 86.00525633 52.51011132 84.67522879 48.3463316 83.34812832 C45.12791397 82.31981117 41.91260751 81.28202963 38.69809914 80.2415638 C37.16300624 79.74646321 35.62677079 79.25489063 34.08939171 78.76693535 C31.95425 78.08823758 29.82383963 77.39633531 27.6940918 76.70092773 C26.48246872 76.31106186 25.27084564 75.92119598 24.02250671 75.51951599 C21.1875 74.3125 21.1875 74.3125 19.1875 71.3125 C18.64580959 67.82316956 18.59437214 64.49875571 20.1875 61.3125 C25.47363428 58.66943286 31.88732061 60.5428903 37.17919922 62.28442383 C37.8275473 62.4941835 38.47589539 62.70394318 39.14389038 62.9200592 C41.26376805 63.60887821 43.37779893 64.31406204 45.4921875 65.01953125 C46.98102711 65.50665164 48.47022059 65.99269164 49.95974731 66.47770691 C53.86864965 67.75352073 57.77285576 69.04313694 61.67614746 70.33599854 C66.39754337 71.89703708 71.12429352 73.44176661 75.85022163 74.98901653 C79.53215831 76.19482675 83.21329702 77.40289822 86.89205933 78.61836243 C90.65371753 79.86055061 94.41934518 81.09013794 98.1875 82.3125 C99.18444885 82.63769623 100.18139771 82.96289246 101.20855713 83.29794312 C102.08477722 83.57433624 102.96099731 83.85072937 103.86376953 84.13549805 C104.59628937 84.36859177 105.3288092 84.60168549 106.08352661 84.84184265 C111.33079214 86.01565221 115.74088302 85.06362805 120.4375 82.625 C125.36930726 78.47779844 128.27665452 75.82927063 129.1875 69.375 C129.49557108 63.34043118 127.80295477 59.35557515 124.0625 54.625 C116.89172061 48.85719919 107.40345332 46.61744644 98.765625 43.86328125 C97.45777964 43.44254678 96.15006363 43.02141005 94.84246826 42.59989929 C92.10004264 41.71697014 89.3566112 40.83727032 86.61230469 39.96020508 C83.19054239 38.86661001 79.770543 37.76763589 76.35120392 36.66649055 C62.95714655 32.35362639 49.5495712 28.0821444 36.11940765 23.88295555 C34.29532785 23.31204607 32.47226082 22.73790383 30.64923096 22.16365051 C5.61983344 14.37448987 -16.2785733 15.64380965 -39.49560547 28.08056641 Z M149.375 25.9375 C148.68792969 26.29779297 148.00085938 26.65808594 147.29296875 27.02929688 C145.24829984 28.1069442 143.21699948 29.20660205 141.1875 30.3125 C140.03894531 30.92867188 138.89039063 31.54484375 137.70703125 32.1796875 C135.19061108 33.54044252 132.68422249 34.9160281 130.1875 36.3125 C131.44155083 40.07465249 133.24699359 41.15466749 136.30078125 43.51953125 C138.74153136 45.83900185 140.39500679 48.47537499 142.1875 51.3125 C153.73642567 45.67964524 164.99997966 39.63137723 176.1875 33.3125 C175.4403543 29.81335263 174.60463315 28.41643417 171.8125 26.125 C171.20664062 25.61582031 170.60078125 25.10664063 169.9765625 24.58203125 C163.19623837 19.77066587 155.89393527 22.36239222 149.375 25.9375 Z M-135.203125 48.26953125 C-136.30527344 48.88763672 -137.40742188 49.50574219 -138.54296875 50.14257812 C-139.12095215 50.46814697 -139.69893555 50.79371582 -140.29443359 51.12915039 C-142.04010523 52.11238632 -143.78761984 53.09234785 -145.53515625 54.07226562 C-150.32907818 56.7650099 -155.10935672 59.46333537 -159.8125 62.3125 C-159.22336447 66.28760033 -157.99204805 69.11947025 -155.9609375 72.57421875 C-155.36474609 73.59708984 -154.76855469 74.61996094 -154.15429688 75.67382812 C-153.50525391 76.77146484 -152.85621094 77.86910156 -152.1875 79 C-151.50771082 80.16166922 -150.82868752 81.32378693 -150.15039062 82.48632812 C-148.74091697 84.90067446 -147.32817013 87.31305922 -145.91308594 89.72412109 C-142.68194504 95.23568541 -139.49972194 100.77546652 -136.3125 106.3125 C-135.06144746 108.48191476 -133.81014462 110.65118519 -132.55859375 112.8203125 C-131.93968262 113.89313477 -131.32077148 114.96595703 -130.68310547 116.07128906 C-128.82230544 119.29551005 -126.96015709 122.51894874 -125.09765625 125.7421875 C-116.59170096 140.46656659 -108.13718796 155.2195334 -99.70947266 169.98876953 C-96.74594752 175.18123172 -93.77917076 180.37183462 -90.8125 185.5625 C-89.8333167 187.27603216 -88.85414814 188.98957275 -87.875 190.703125 C-87.47410156 191.40469727 -87.07320313 192.10626953 -86.66015625 192.82910156 C-86.38042969 193.31862305 -86.10070312 193.80814453 -85.8125 194.3125 C-85.01070313 193.85101563 -84.20890625 193.38953125 -83.3828125 192.9140625 C-73.57655353 187.28824953 -63.70463104 181.78569722 -53.8125 176.3125 C-54.21597656 175.61511719 -54.61945313 174.91773438 -55.03515625 174.19921875 C-59.5012038 166.43341633 -63.86777228 158.61624552 -68.20407104 150.77722168 C-73.03024048 142.05552103 -77.88576029 133.35929868 -82.97753906 124.7890625 C-91.84944764 109.85600436 -100.42970181 94.74886713 -109.04092407 79.66433716 C-111.34841868 75.62265438 -113.65781022 71.58205535 -115.96728516 67.54150391 C-117.16818082 65.44001594 -118.36841124 63.33814765 -119.56787109 61.23583984 C-121.12482829 58.50922141 -122.68657853 55.78541548 -124.25 53.0625 C-124.7047168 52.26400635 -125.15943359 51.4655127 -125.62792969 50.64282227 C-126.66091161 48.84930435 -127.73201144 47.07780525 -128.8125 45.3125 C-130.99309429 45.3125 -133.39145903 47.25202221 -135.203125 48.26953125 Z " fill="#000000" transform="translate(177.8125,275.6875)"/>
<path d="M0 0 C5.12228882 3.62308234 9.63362569 7.74688862 11.0703125 14.03515625 C11.95408812 20.11816506 11.67549382 25.40730173 8.5625 30.8125 C4.33205739 35.60030114 -0.21678593 39.35005654 -6.68359375 40.05859375 C-13.75173486 40.41361454 -18.89178006 38.99576857 -24.1953125 34.234375 C-28.33883411 29.7905982 -30.39563613 25.56828734 -30.46484375 19.359375 C-30.02452071 11.81743159 -27.48607943 7.51794207 -21.875 2.5 C-15.85720622 -2.60641299 -7.24428204 -2.50257016 0 0 Z M-11.4375 15.8125 C-12.0975 17.1325 -12.7575 18.4525 -13.4375 19.8125 C-12.4475 21.2975 -12.4475 21.2975 -11.4375 22.8125 C-9.7875 22.4825 -8.1375 22.1525 -6.4375 21.8125 C-6.1075 20.8225 -5.7775 19.8325 -5.4375 18.8125 C-6.0975 17.8225 -6.7575 16.8325 -7.4375 15.8125 C-8.7575 15.8125 -10.0775 15.8125 -11.4375 15.8125 Z " fill="#000000" transform="translate(328.4375,127.1875)"/>
</svg>
