<?xml version="1.0" encoding="UTF-8"?>
<svg version="1.1" xmlns="http://www.w3.org/2000/svg" width="512" height="512">
<path d="M0 0 C1.24907135 0.00081573 1.24907135 0.00081573 2.52337646 0.00164795 C50.13663764 0.14408322 93.43594602 18.35981912 127.625 51.375 C128.47449219 52.17292969 129.32398438 52.97085938 130.19921875 53.79296875 C160.11015743 82.57696469 180.40317904 126.77200602 181.72086775 168.40390718 C181.76242521 172.00648827 181.77268957 175.60791558 181.77217102 179.21073914 C181.77547587 180.60428923 181.77920273 181.99783838 181.7833125 183.39138633 C181.79326837 187.20180037 181.7970388 191.01219866 181.79970181 194.82262385 C181.80362351 198.93919003 181.8131998 203.05574395 181.82191467 207.17230225 C181.84161657 217.09820816 181.85173286 227.02411499 181.86064246 236.95003554 C181.86503173 241.62689115 181.87039651 246.30374563 181.87563133 250.98060036 C181.89262992 266.52751143 181.90712718 282.07442182 181.91438007 297.62134075 C181.91628985 301.64966012 181.91821021 305.67797948 181.92016602 309.70629883 C181.92064976 310.70747263 181.9211335 311.70864643 181.9216319 312.74015883 C181.92994426 328.98271613 181.9553076 345.22520008 181.98774669 361.4677253 C182.02079109 378.14928373 182.03882607 394.83080481 182.04202431 411.51239616 C182.04419078 420.87653751 182.05296055 430.24057156 182.07848549 439.60468102 C182.10015587 447.57276649 182.10826064 455.54071855 182.09851871 463.50883015 C182.09396466 467.57445031 182.09592443 471.63979496 182.11528015 475.70537758 C182.13284441 479.42669066 182.13196958 483.14752585 182.11638286 486.86884353 C182.11286579 488.85329422 182.12908254 490.83774954 182.14598733 492.82213134 C182.06609277 503.81161474 182.06609277 503.81161474 177.625 508.375 C172.0306231 513.84633488 165.30588686 512.93300176 157.96020508 512.88293457 C156.54861463 512.88754504 155.13702899 512.89389894 153.72545338 512.90184355 C149.85112402 512.91854025 145.97718883 512.91028915 142.10285807 512.89789867 C137.92282345 512.88885184 133.74285682 512.90281608 129.56283569 512.91381836 C121.37600805 512.9316121 113.18932703 512.9277598 105.00249362 512.9161678 C98.34935728 512.90713711 91.69626205 512.90590789 85.04312134 512.91026306 C84.09649307 512.91087599 83.1498648 512.91148893 82.17455083 512.91212043 C80.25154041 512.91339932 78.32853 512.91469618 76.4055196 512.9160108 C58.37014012 512.9274191 40.33484194 512.91429896 22.29947579 512.89280933 C6.82168012 512.87493812 -8.65599556 512.87804216 -24.13378906 512.89648438 C-42.10428627 512.91788666 -60.0747122 512.92632044 -78.04522038 512.91403532 C-79.96118735 512.91276111 -81.87715434 512.91150363 -83.79312134 512.91026306 C-85.20718861 512.90933741 -85.20718861 512.90933741 -86.64982289 512.90839306 C-93.29556786 512.90493823 -99.94126765 512.91077136 -106.58700562 512.92018127 C-114.68510788 512.93139551 -122.78305504 512.92837336 -130.88113952 512.9070583 C-135.01355511 512.89654009 -139.14571203 512.89243906 -143.27812576 512.90565491 C-147.06064603 512.91756888 -150.8426677 512.91103317 -154.62514269 512.8897447 C-156.64252213 512.88315563 -158.65993614 512.89622368 -160.67727947 512.90997362 C-171.83726713 512.81293054 -171.83726713 512.81293054 -176.375 508.375 C-181.77911146 502.80844772 -180.93095123 496.29344875 -180.87620544 489.0009613 C-180.8800998 487.62068597 -180.88574133 486.24041465 -180.89297634 484.86015278 C-180.90773266 481.07177844 -180.89754856 477.28381969 -180.88323963 473.49545872 C-180.87213305 469.40716899 -180.8840721 465.31893771 -180.89308167 461.23065186 C-180.90702389 453.2192586 -180.89944801 445.20802286 -180.88440608 437.19663709 C-180.86753303 427.85298022 -180.87075848 418.50936247 -180.87450016 409.16569508 C-180.88038182 392.47509636 -180.86620184 375.78457299 -180.84155273 359.09399414 C-180.81768889 342.93315802 -180.81052557 326.77242283 -180.82104492 310.61157227 C-180.83248942 292.99801319 -180.83433628 275.38450083 -180.81994683 257.77094227 C-180.81842111 255.88700394 -180.81690076 254.00306561 -180.81538582 252.11912727 C-180.814628 251.19234699 -180.81387019 250.26556672 -180.81308941 249.31070219 C-180.80836925 242.81478288 -180.81018226 236.31888458 -180.81445122 229.82296562 C-180.81941107 221.88268162 -180.81324902 213.94249254 -180.79355692 206.0022301 C-180.78377327 201.95913442 -180.77848109 197.91618234 -180.78644943 193.8730793 C-180.85010808 157.63585676 -175.50986723 125.55932177 -158.375 93.375 C-158.05805176 92.76914063 -157.74110352 92.16328125 -157.41455078 91.5390625 C-150.29560709 78.01712902 -140.86432166 66.43646648 -130.375 55.375 C-129.93075684 54.90352539 -129.48651367 54.43205078 -129.02880859 53.94628906 C-95.54184506 18.63276388 -48.34704866 -0.11925645 0 0 Z M57.8828125 215.875 C48.37816601 228.46046294 53.625 235.7061695 53.625 256.375 C85.635 256.375 117.645 256.375 150.625 256.375 C150.625 241.525 150.625 226.675 150.625 211.375 C135.86622809 211.28770273 135.86622809 211.28770273 121.10742188 211.22851562 C115.08544966 211.21060121 109.06361465 211.18943691 103.04174805 211.14868164 C98.18529318 211.11602045 93.32898552 211.09813268 88.47242928 211.09036827 C86.6221186 211.0848369 84.77181572 211.07403547 82.92156792 211.05780983 C80.32440833 211.03594562 77.72785245 211.03303682 75.13061523 211.03442383 C74.37032013 211.023638 73.61002502 211.01285217 72.82669067 211.0017395 C67.16550454 211.03432788 62.3109462 212.06243646 57.8828125 215.875 Z M-10.375 291.375 C-18.67015759 302.81659667 -14.375 317.95424271 -14.375 331.375 C40.075 331.375 94.525 331.375 150.625 331.375 C150.625 316.855 150.625 302.335 150.625 287.375 C130.51912957 287.28469898 110.41342338 287.21101761 90.30740166 287.16775131 C80.97178766 287.14712789 71.63630862 287.11901149 62.30078125 287.07324219 C54.16373292 287.0333677 46.02678234 287.00756559 37.88963902 286.99864602 C33.58121906 286.9934323 29.27307871 286.98118283 24.96474838 286.95207977 C20.90835152 286.92490091 16.85234909 286.91655993 12.79586983 286.92256927 C11.30836531 286.92147013 9.8208474 286.91353068 8.33342171 286.8981781 C6.29935412 286.87821566 4.26507421 286.88545959 2.23092651 286.89398193 C1.09343397 286.89029476 -0.04405857 286.88660759 -1.21602058 286.88280869 C-5.12484355 287.49183092 -7.28899479 288.94521335 -10.375 291.375 Z M-77.375 366.375 C-84.51830111 375.88810124 -84.51830111 375.88810124 -81.375 406.375 C-4.815 406.375 71.745 406.375 150.625 406.375 C150.625 391.855 150.625 377.335 150.625 362.375 C121.7834157 362.28474204 92.94194557 362.21104256 64.10025597 362.16775131 C61.43548955 362.16364529 58.77072324 362.15950659 56.10595703 362.15527344 C55.44361441 362.1542242 54.7812718 362.15317495 54.09885819 362.15209392 C44.04128777 362.13577114 33.98379296 362.10768484 23.92626953 362.07324219 C12.25579473 362.03340092 0.58538793 362.00757344 -11.08515298 361.99864602 C-17.26589587 361.99342673 -23.44644419 361.98114131 -29.62712479 361.95207977 C-35.44323358 361.92495371 -41.25906742 361.91654944 -47.07523346 361.92256927 C-49.21097939 361.92146779 -51.34673441 361.9134974 -53.48242569 361.8981781 C-56.39712062 361.87829451 -59.3107757 361.8830552 -62.22549438 361.89398193 C-63.07180786 361.88233057 -63.91812133 361.8706792 -64.79008067 361.85867476 C-70.11578747 361.91268866 -73.2237779 362.74027818 -77.375 366.375 Z M-145.375 441.375 C-152.10376416 451.80662766 -152.10376416 451.80662766 -149.375 481.375 C-50.375 481.375 48.625 481.375 150.625 481.375 C150.625 466.855 150.625 452.335 150.625 437.375 C114.07169506 437.2845672 77.51842264 437.21295762 40.96502879 437.17073868 C36.64921172 437.16573588 32.33339486 437.16055859 28.01757812 437.15527344 C26.72878027 437.15369957 26.72878027 437.15369957 25.41394609 437.15209392 C11.50335056 437.13469041 -2.40717883 437.10315302 -16.31773514 437.06638882 C-30.59208628 437.02897787 -44.86640279 437.00676382 -59.14080095 436.99864602 C-67.94833389 436.99315856 -76.75567985 436.9758292 -85.56315523 436.94333413 C-91.60342053 436.92218435 -97.64358922 436.915801 -103.68388885 436.92099449 C-107.16846668 436.92355557 -110.65271786 436.91963982 -114.13723755 436.8981781 C-117.91820938 436.87829019 -121.69837991 436.88305768 -125.47937012 436.89398193 C-126.57666049 436.88233057 -127.67395087 436.8706792 -128.80449247 436.85867476 C-134.83995886 436.90583936 -140.68386579 437.17611426 -145.375 441.375 Z " fill="#000000" transform="translate(255.375,-0.375)"/>
</svg>
