<?xml version="1.0" encoding="UTF-8"?>
<svg version="1.1" xmlns="http://www.w3.org/2000/svg" width="512" height="512">
<path d="M0 0 C0.80866943 -0.01242204 1.61733886 -0.02484408 2.45051342 -0.03764254 C3.32813884 -0.02580681 4.20576427 -0.01397108 5.1099844 -0.0017767 C6.0506513 -0.00887108 6.99131821 -0.01596547 7.96049017 -0.02327484 C11.11453177 -0.04088602 14.26734618 -0.02273368 17.42137051 -0.00469112 C19.6816047 -0.00982869 21.94183489 -0.01710873 24.20205593 -0.02637386 C30.34247886 -0.04491546 36.48246855 -0.03193194 42.62287354 -0.01228356 C49.04321422 0.00407926 55.46352694 -0.00470657 61.88387966 -0.00980282 C72.66534465 -0.01432609 83.44659424 0.00145718 94.22801113 0.02948856 C105.32215991 0.05833267 116.4160617 0.06540628 127.51023769 0.04999638 C140.87930115 0.03145206 154.24818515 0.03316677 167.61726093 0.05221081 C172.72446586 0.05909236 177.83157902 0.05803753 182.93878269 0.05066586 C188.94954206 0.04301881 194.95994458 0.05507778 200.97064304 0.08251476 C203.17977241 0.08941593 205.38893499 0.08947814 207.59806347 0.08229923 C210.60740288 0.07364497 213.61563078 0.08949265 216.62487698 0.1117487 C217.94466119 0.09938754 217.94466119 0.09938754 219.29110771 0.08677667 C225.17917867 0.16747716 225.17917867 0.16747716 228.31513023 2.47107887 C231.18746724 6.62933272 230.94284604 10.61355164 230.92419338 15.46605778 C230.92547502 16.67659241 230.92547502 16.67659241 230.92678255 17.91158229 C230.92843401 20.62473485 230.9229214 23.33782604 230.91746426 26.05097294 C230.91718229 27.99227745 230.91734031 29.93358207 230.91790676 31.87488651 C230.91819435 37.15347543 230.91230374 42.43204175 230.9053328 47.71062541 C230.89909296 53.22396051 230.89849497 58.7372961 230.8973074 64.25063419 C230.89419595 74.69470805 230.88598506 85.13877148 230.87595791 95.58284074 C230.864791 107.47143725 230.85928486 119.36003425 230.85426247 131.2486347 C230.8438023 155.70789972 230.82620645 180.16715547 230.80393887 204.62641239 C231.41685598 204.62364701 232.0297731 204.62088163 232.66126347 204.61803246 C247.58455582 204.55173891 262.50783394 204.50211542 277.43123722 204.47097588 C284.64813562 204.45551621 291.86493564 204.43444401 299.0817709 204.40009403 C305.37299904 204.37016398 311.66415592 204.35083084 317.95545328 204.34414691 C321.28575299 204.3402407 324.61580168 204.32949933 327.94604778 204.30922222 C331.66654236 204.28746844 335.38661366 204.2844447 339.10716152 204.28583622 C340.20767849 204.27505039 341.30819546 204.26426456 342.44206142 204.25315189 C352.34923033 204.29328867 352.34923033 204.29328867 356.80393887 207.62641239 C358.49905585 211.06112297 359.05341797 213.8376761 359.05003452 217.64575005 C359.05401662 218.63802284 359.05799872 219.63029564 359.06210148 220.6526373 C359.0562758 221.73532052 359.05045012 222.81800373 359.0444479 223.93349552 C359.04701117 225.66724636 359.04701117 225.66724636 359.04962623 227.43602246 C359.05235022 230.64002987 359.04610228 233.84387534 359.03607011 237.0478636 C359.02743148 240.50452232 359.03035606 243.96117352 359.03187466 247.41784 C359.03292325 253.40534916 359.02664936 259.39281473 359.01539898 265.38031292 C358.99914343 274.03721876 358.99393592 282.69410353 358.991423 291.35102298 C358.98704598 305.3963633 358.9737367 319.44168039 358.95481777 333.48700809 C358.93645914 347.1305616 358.92230255 360.77410879 358.91380215 374.41767216 C358.9132767 375.25869129 358.91275125 376.09971043 358.91220988 376.96621499 C358.9095998 381.18536987 358.90707239 385.4045248 358.90458608 389.62367976 C358.88385337 424.6246072 358.84862766 459.62550765 358.80393887 494.62641239 C359.43176769 494.62197117 360.05959652 494.61752995 360.70645046 494.61295414 C367.24388763 494.56868965 373.78128217 494.53853293 380.31883144 494.51654911 C382.75830216 494.50649479 385.19776084 494.49284947 387.63719082 494.47553349 C391.14462666 494.45126057 394.65190307 494.43992349 398.15940762 494.43109989 C399.24916393 494.42077732 400.33892025 494.41045475 401.46169949 494.39981937 C402.48238018 494.39966831 403.50306087 494.39951725 404.55467129 494.39936161 C405.44957775 494.39492039 406.34448421 494.39047916 407.26650906 494.38590336 C410.86116933 494.72662146 413.70865989 495.79956065 416.58909512 497.97406864 C418.1549144 500.10378426 418.23700883 501.43690218 418.24143887 504.06391239 C418.2607748 504.82574833 418.28011074 505.58758427 418.30003262 506.37250614 C417.58761582 509.60923444 416.44503516 510.62190683 413.80393887 512.62641239 C410.89323406 513.01832293 408.36176872 513.16397181 405.45176601 513.12977695 C404.59740869 513.13559072 403.74305136 513.14140448 402.86280441 513.14739442 C399.98027022 513.16207211 397.0985772 513.14807305 394.21604824 513.13434696 C392.13654295 513.1389528 390.05704092 513.14530357 387.97754574 513.15325594 C382.24782443 513.17001586 376.51836824 513.16167264 370.78864574 513.14931107 C364.61542077 513.1402901 358.44224255 513.15421559 352.26902676 513.16523075 C340.86955202 513.18202126 329.47018584 513.1805214 318.07071376 513.16958488 C307.54061758 513.15953174 297.01055253 513.1568916 286.48045254 513.16167545 C285.78258922 513.16198099 285.0847259 513.16228653 284.36571521 513.16260133 C281.53302397 513.16384664 278.70033274 513.16512024 275.86764154 513.16644039 C249.28235946 513.17868271 222.6971315 513.16757253 196.11185777 513.1460528 C172.48054332 513.12706967 148.84931507 513.12876815 125.21800137 513.14789677 C98.68206108 513.16930465 72.14616863 513.17781457 45.61022091 513.16544771 C42.78262235 513.1641648 39.95502377 513.16291344 37.12742519 513.16167545 C36.43117305 513.16135914 35.7349209 513.16104283 35.0175702 513.16071694 C24.49281475 513.15616264 13.96809383 513.16149634 3.44334316 513.17159367 C-8.52103423 513.18301476 -20.48530977 513.17981929 -32.44968319 513.15847069 C-38.55846915 513.1479311 -44.66707979 513.14388791 -50.7758646 513.1570673 C-56.36184748 513.16893683 -61.94749156 513.16251878 -67.53344345 513.14115709 C-69.56029613 513.13666787 -71.5871771 513.13900882 -73.61401176 513.14866024 C-76.35771764 513.16072878 -79.10024518 513.148447 -81.84388828 513.12977695 C-83.03929627 513.14382395 -83.03929627 513.14382395 -84.25885391 513.15815473 C-87.82175495 513.10930638 -89.80832341 512.92129475 -92.68486881 510.73362398 C-94.89866 507.6467062 -94.75653744 505.43961212 -94.58668613 501.75141239 C-94.19606113 499.62641239 -94.19606113 499.62641239 -92.44606113 497.12641239 C-88.11272291 494.23752024 -83.7430405 494.48705739 -78.6736002 494.512887 C-77.92199116 494.51274097 -77.17038212 494.51259495 -76.39599705 494.5124445 C-73.9178638 494.51313977 -71.43980621 494.52091413 -68.96168613 494.52875614 C-67.24104446 494.53062169 -65.52040226 494.53204495 -63.79975986 494.53304386 C-59.27553428 494.53685827 -54.75134091 494.54667937 -50.22712803 494.55774784 C-45.60870391 494.5679851 -40.99027458 494.57254644 -36.37184238 494.57758427 C-27.3132345 494.5883026 -18.2546505 494.6053661 -9.19606113 494.62641239 C-9.19795974 493.59360183 -9.19985834 492.56079127 -9.20181447 491.49668342 C-9.28513897 445.99076754 -9.36228066 400.48484581 -9.40777683 354.97887516 C-9.40846712 354.29020379 -9.4091574 353.60153241 -9.40986861 352.89199221 C-9.42483228 337.92619874 -9.43868332 322.96040443 -9.45138778 307.99460887 C-9.4576246 300.65564931 -9.46410735 293.31668998 -9.47071934 285.97773075 C-9.47137313 285.24740647 -9.47202693 284.51708219 -9.47270054 283.76462687 C-9.49401669 260.08215907 -9.53158022 236.39975083 -9.57754724 212.71731912 C-9.62468893 188.38556148 -9.6554834 164.0538368 -9.66563608 139.72203425 C-9.66707691 136.2872894 -9.6687051 132.85254466 -9.67044735 129.41779995 C-9.67078446 128.74177648 -9.67112158 128.06575301 -9.67146891 127.36924398 C-9.6773832 116.4762587 -9.70058875 105.58337522 -9.7302213 94.69043149 C-9.7596266 83.74590279 -9.77050332 72.80146029 -9.76356802 61.85689137 C-9.76035491 55.92414893 -9.76539539 49.99170588 -9.79208851 44.05901623 C-9.81632664 38.63253797 -9.81771011 33.20656192 -9.80055561 27.78006109 C-9.79843382 25.81227656 -9.80485601 23.84446136 -9.82047705 21.87673769 C-9.84042363 19.21005215 -9.82980499 16.54520066 -9.81130028 13.87854576 C-9.82443535 13.10715591 -9.83757041 12.33576606 -9.85110351 11.54100075 C-9.78932935 7.62569792 -9.32480287 5.79476924 -6.91986251 2.64980483 C-4.23929692 0.65853036 -3.24424421 0.00125959 0 0 Z M8.80393887 18.62641239 C8.80393887 175.70641239 8.80393887 332.78641239 8.80393887 494.62641239 C17.05393887 494.62641239 25.30393887 494.62641239 33.80393887 494.62641239 C33.80804775 492.16446415 33.81215664 489.70251591 33.81639004 487.16596317 C33.83363883 479.00346314 33.87822597 470.84127403 33.93602943 462.67896557 C33.97022299 457.73332707 33.99539752 452.78799498 33.99949551 447.8422327 C34.00379486 443.06328354 34.03239269 438.28502468 34.07737064 433.50629139 C34.0902935 431.68922678 34.09467193 429.87207935 34.09009266 428.05497456 C34.0532862 409.00353983 34.0532862 409.00353983 39.80393887 401.62641239 C48.1385975 393.59329453 56.55578338 393.28249105 67.67893887 393.31391239 C68.8120248 393.29779911 69.94511074 393.28168583 71.11253262 393.26508427 C80.42555252 393.25968854 88.29378133 394.34939191 95.30003262 400.88422489 C101.03920586 407.53272169 101.94129685 414.93511673 102.00926113 423.44599247 C102.01916073 424.21725468 102.02906033 424.98851688 102.03925991 425.78315067 C102.07073085 428.3207176 102.09557508 430.85830321 102.12034512 433.39594364 C102.1409271 435.16000181 102.16192389 436.92405518 102.18331814 438.68810368 C102.23841032 443.32240755 102.2878761 447.95675498 102.33616543 452.59113407 C102.3864745 457.32363589 102.4421114 462.05607476 102.49729824 466.78852177 C102.60472254 476.06776677 102.70570962 485.34706549 102.80393887 494.62641239 C108.08393887 494.62641239 113.36393887 494.62641239 118.80393887 494.62641239 C118.80632722 493.16643959 118.80871557 491.70646679 118.8111763 490.20225239 C118.86850487 455.5650921 118.94121308 420.92799569 119.03292515 386.29090895 C119.04419365 382.03002237 119.05533205 377.76913546 119.06639004 373.50824833 C119.06859372 372.65996298 119.0707974 371.81167762 119.07306787 370.93768665 C119.10846462 357.19256322 119.13331531 343.44743985 119.15428589 329.7022877 C119.17602902 315.60419712 119.20906523 301.50616582 119.25264043 287.40812564 C119.27918284 278.70506297 119.29685911 270.0020742 119.30328491 261.29897305 C119.30853089 255.33533346 119.32472117 249.37178695 119.34960452 243.40819719 C119.36364675 239.96470313 119.37278026 236.52137579 119.36894703 233.0778513 C119.36730552 229.34809331 119.38389807 225.61885563 119.40521145 221.88916874 C119.40036387 220.79579079 119.3955163 219.70241284 119.39052182 218.57590222 C119.39997837 217.57865369 119.40943491 216.58140515 119.41917801 215.55393696 C119.42107661 214.69273125 119.42297521 213.83152554 119.42493135 212.94422269 C119.89765939 210.05326706 120.75678773 208.70745901 122.80393887 206.62641239 C151.91539922 199.3485473 182.79856079 204.97531214 212.80393887 204.62641239 C212.80393887 143.24641239 212.80393887 81.86641239 212.80393887 18.62641239 C145.48393887 18.62641239 78.16393887 18.62641239 8.80393887 18.62641239 Z M136.80393887 222.62641239 C136.80393887 312.38641239 136.80393887 402.14641239 136.80393887 494.62641239 C204.12393887 494.62641239 271.44393887 494.62641239 340.80393887 494.62641239 C340.80393887 404.86641239 340.80393887 315.10641239 340.80393887 222.62641239 C273.48393887 222.62641239 206.16393887 222.62641239 136.80393887 222.62641239 Z M52.80393887 413.62641239 C51.29011722 416.65405569 51.67409634 419.78542792 51.69041348 423.1054163 C51.69026745 423.87624043 51.69012142 424.64706455 51.68997097 425.44124699 C51.69066897 427.99518468 51.69845611 430.5490499 51.70628262 433.10297489 C51.7081472 434.87131555 51.70957091 436.63965673 51.71057034 438.40799809 C51.71439237 443.06705998 51.72421999 447.72609081 51.73527431 452.38514042 C51.74549517 457.13743513 51.7500694 461.88973486 51.75511074 466.64203739 C51.76584252 475.97017825 51.7834368 485.29828788 51.80393887 494.62641239 C62.69393887 494.62641239 73.58393887 494.62641239 84.80393887 494.62641239 C84.87173753 484.67322107 84.92676817 474.72018333 84.95937538 464.76681328 C84.97502584 460.14497448 84.9962528 455.52330197 85.03025723 450.90155888 C85.06287278 446.44062702 85.08079655 441.97985503 85.08857059 437.51881313 C85.09411016 435.81756607 85.10492762 434.11632767 85.12112904 432.41514874 C85.14293278 430.03070695 85.1459046 427.64692429 85.14451504 425.26239872 C85.15530087 424.56036823 85.16608669 423.85833775 85.17719936 423.13503361 C85.14984153 418.79145108 84.43791848 416.09486041 81.80393887 412.62641239 C77.53947852 409.72373091 72.83710961 410.29607079 67.86643887 410.31391239 C66.97247402 410.29779911 66.07850918 410.28168583 65.15745449 410.26508427 C60.24928746 410.26144049 56.74690467 410.35255594 52.80393887 413.62641239 Z " fill="#000000" transform="translate(94.19606113433838,-0.6264123916625977)"/>
<path d="M0 0 C1.04150711 -0.00960754 2.08301422 -0.01921509 3.15608215 -0.02911377 C4.28108627 -0.03336365 5.40609039 -0.03761353 6.56518555 -0.04199219 C7.72310104 -0.04769226 8.88101654 -0.05339233 10.07402039 -0.05926514 C12.52606288 -0.06871714 14.97811809 -0.07524991 17.43017578 -0.07910156 C21.17657716 -0.08880161 24.92242871 -0.11982171 28.66870117 -0.15136719 C31.05085937 -0.15789785 33.4330215 -0.16314807 35.81518555 -0.16699219 C36.93411697 -0.17933899 38.0530484 -0.19168579 39.20588684 -0.20440674 C44.79813348 -0.18843769 49.1462966 -0.17452888 53.8894043 3.16113281 C56.15099908 6.55352499 56.14983886 7.7652312 56.17993164 11.74658203 C56.19269135 12.89142059 56.20545105 14.03625916 56.21859741 15.21578979 C56.22082306 16.45329987 56.22304871 17.69080994 56.2253418 18.96582031 C56.235327 20.87272141 56.235327 20.87272141 56.24551392 22.81814575 C56.25564884 25.50992818 56.26119486 28.20130683 56.26000977 30.89306641 C56.25980669 34.33542827 56.28709548 37.77696348 56.32155418 41.21912956 C56.34919684 44.50966201 56.34797318 47.80018751 56.3503418 51.09082031 C56.36471283 52.32428192 56.37908386 53.55774353 56.39389038 54.82858276 C56.38773712 55.97972565 56.38158386 57.13086853 56.37524414 58.31689453 C56.37809418 59.32710663 56.38094421 60.33731873 56.38388062 61.37814331 C55.74735586 64.96060345 54.45747467 66.61897865 51.8894043 69.16113281 C48.89266567 70.41348238 45.87353796 70.29300281 42.64941406 70.30639648 C41.60475479 70.31277634 40.56009552 70.31915619 39.48377991 70.32572937 C37.79931007 70.32739861 37.79931007 70.32739861 36.08081055 70.32910156 C34.34250221 70.33409416 34.34250221 70.33409416 32.56907654 70.33918762 C30.11880897 70.34424907 27.66853451 70.34659619 25.21826172 70.34643555 C21.4698553 70.34862234 17.72174304 70.36678748 13.97338867 70.38574219 C11.5925303 70.38867619 9.21167054 70.39066094 6.83081055 70.39160156 C5.14937706 70.40237984 5.14937706 70.40237984 3.43397522 70.41337585 C1.86225807 70.40876091 1.86225807 70.40876091 0.25878906 70.40405273 C-0.65958237 70.40547775 -1.5779538 70.40690277 -2.52415466 70.40837097 C-6.4201725 70.03595023 -9.0897183 69.17204248 -11.89685059 66.39231873 C-13.42250883 63.58775363 -13.50384842 61.65009602 -13.53051758 58.4621582 C-13.54642944 57.31739517 -13.56234131 56.17263214 -13.57873535 54.99317932 C-13.57893677 53.76083054 -13.57913818 52.52848175 -13.5793457 51.25878906 C-13.58695923 49.98893661 -13.59457275 48.71908417 -13.60241699 47.41075134 C-13.61322465 44.72476938 -13.61743671 42.03966731 -13.61157227 39.35375977 C-13.60567682 35.91905202 -13.63626324 32.4857582 -13.67668915 29.05132389 C-13.70881918 25.76633892 -13.70444984 22.48140693 -13.7043457 19.19628906 C-13.72074097 17.96596451 -13.73713623 16.73563995 -13.75402832 15.46803284 C-13.67711275 5.97974025 -13.67711275 5.97974025 -10.76098633 2.90893555 C-7.04591825 0.45903021 -4.35053537 0.03240195 0 0 Z M4.8894043 18.16113281 C4.8894043 29.38113281 4.8894043 40.60113281 4.8894043 52.16113281 C15.7794043 52.16113281 26.6694043 52.16113281 37.8894043 52.16113281 C37.8894043 40.94113281 37.8894043 29.72113281 37.8894043 18.16113281 C26.9994043 18.16113281 16.1094043 18.16113281 4.8894043 18.16113281 Z " fill="#000000" transform="translate(354.110595703125,237.8388671875)"/>
<path d="M0 0 C1.5272747 -0.01441132 1.5272747 -0.01441132 3.08540344 -0.02911377 C4.72765144 -0.03548859 4.72765144 -0.03548859 6.40307617 -0.04199219 C8.10097542 -0.0505423 8.10097542 -0.0505423 9.83317566 -0.05926514 C12.22796699 -0.06870851 14.62277128 -0.07524648 17.01757812 -0.07910156 C20.67169999 -0.08880256 24.32525825 -0.11983117 27.97924805 -0.15136719 C30.30802076 -0.15789802 32.63679748 -0.16314818 34.96557617 -0.16699219 C36.59871513 -0.18551239 36.59871513 -0.18551239 38.2648468 -0.20440674 C44.18825777 -0.18710812 48.78373498 -0.01192856 53.88354492 3.16113281 C55.6956046 6.70262427 56.13864894 9.64313182 56.15820312 13.59057617 C56.16773514 14.65195297 56.17726715 15.71332977 56.18708801 16.80686951 C56.18617661 17.94342484 56.1852652 19.07998016 56.18432617 20.25097656 C56.1886113 21.42825821 56.19289642 22.60553986 56.1973114 23.8184967 C56.20304874 26.3056677 56.20355937 28.79285547 56.19921875 31.2800293 C56.19605942 35.08118361 56.21952446 38.88155909 56.24487305 42.68261719 C56.24714618 45.101236 56.24784947 47.5198569 56.24682617 49.93847656 C56.25603592 51.07300766 56.26524567 52.20753876 56.2747345 53.37644958 C56.21393297 63.76770997 56.21393297 63.76770997 52.88354492 68.16113281 C49.31528322 69.9368384 46.39865566 70.41623596 42.43823242 70.43579102 C40.84132568 70.45008904 40.84132568 70.45008904 39.2121582 70.4646759 C38.07246582 70.4637645 36.93277344 70.46285309 35.75854492 70.46191406 C34.5788916 70.46619919 33.39923828 70.47048431 32.18383789 70.47489929 C29.69247072 70.48063621 27.20108679 70.48114757 24.7097168 70.47680664 C20.89757777 70.47364445 17.08621317 70.49712276 13.27416992 70.52246094 C10.8522959 70.52473375 8.43041979 70.52543751 6.00854492 70.52441406 C4.86885254 70.53362381 3.72916016 70.54283356 2.55493164 70.55232239 C1.49032715 70.5460936 0.42572266 70.53986481 -0.67114258 70.53344727 C-1.6042627 70.53407669 -2.53738281 70.53470612 -3.4987793 70.53535461 C-7.59434165 69.94985478 -10.23303341 68.04455448 -13.11645508 65.16113281 C-13.38388062 62.66970825 -13.38388062 62.66970825 -13.40698242 59.48974609 C-13.41974213 58.30156281 -13.43250183 57.11337952 -13.44564819 55.88919067 C-13.44787384 54.5996347 -13.45009949 53.31007874 -13.45239258 51.98144531 C-13.45904938 50.66199921 -13.46570618 49.3425531 -13.4725647 47.98312378 C-13.48454956 45.18712088 -13.48824437 42.39124163 -13.48706055 39.59521484 C-13.48685745 36.0148555 -13.51414277 32.4352908 -13.54860497 28.85511971 C-13.57086162 26.10127127 -13.57489847 23.34761431 -13.57384109 20.59368515 C-13.57734562 18.63271972 -13.59902034 16.67181405 -13.62094116 14.71096802 C-13.6147879 13.51648041 -13.60863464 12.3219928 -13.60229492 11.09130859 C-13.60514496 10.0403299 -13.607995 8.9893512 -13.6109314 7.90652466 C-12.98481551 4.43025412 -11.89877675 3.28189136 -9.11645508 1.16113281 C-6.11416925 0.01023957 -3.19532311 0.02441061 0 0 Z M4.88354492 18.16113281 C4.88354492 29.38113281 4.88354492 40.60113281 4.88354492 52.16113281 C15.77354492 52.16113281 26.66354492 52.16113281 37.88354492 52.16113281 C37.88354492 40.94113281 37.88354492 29.72113281 37.88354492 18.16113281 C26.99354492 18.16113281 16.10354492 18.16113281 4.88354492 18.16113281 Z " fill="#000000" transform="translate(269.116455078125,237.8388671875)"/>
<path d="M0 0 C1.06152786 -0.00960754 2.12305573 -0.01921509 3.2167511 -0.02911377 C4.363629 -0.03336365 5.5105069 -0.03761353 6.69213867 -0.04199219 C8.46230598 -0.0505423 8.46230598 -0.0505423 10.26823425 -0.05926514 C12.76735537 -0.06871755 15.26648897 -0.07525007 17.765625 -0.07910156 C21.58445044 -0.08880201 25.40273658 -0.11982195 29.22143555 -0.15136719 C31.64916673 -0.15789779 34.07690175 -0.16314804 36.50463867 -0.16699219 C37.64544388 -0.17933899 38.78624908 -0.19168579 39.96162415 -0.20440674 C50.41001486 -0.17512839 50.41001486 -0.17512839 54.79760742 3.16113281 C56.56958202 6.72453297 57.0526759 9.63595647 57.07226562 13.59057617 C57.08179764 14.65195297 57.09132965 15.71332977 57.10115051 16.80686951 C57.10023911 17.94342484 57.0993277 19.07998016 57.09838867 20.25097656 C57.1026738 21.42825821 57.10695892 22.60553986 57.1113739 23.8184967 C57.11711124 26.3056677 57.11762187 28.79285547 57.11328125 31.2800293 C57.11012192 35.08118361 57.13358696 38.88155909 57.15893555 42.68261719 C57.16120868 45.101236 57.16191197 47.5198569 57.16088867 49.93847656 C57.17009842 51.07300766 57.17930817 52.20753876 57.188797 53.37644958 C57.12712156 63.91706649 57.12712156 63.91706649 53.79760742 68.16113281 C48.44463399 71.12795662 41.97482073 70.44888725 36.01245117 70.42675781 C34.87860489 70.42867126 33.74475861 70.43058472 32.57655334 70.43255615 C30.18531064 70.4339142 27.79406047 70.43024438 25.40283203 70.421875 C21.74454193 70.41116044 18.08674178 70.4217886 14.4284668 70.43457031 C12.10229384 70.43324885 9.77612119 70.43068672 7.44995117 70.42675781 C6.3571434 70.43080627 5.26433563 70.43485474 4.13841248 70.43902588 C3.11707718 70.43272156 2.09574188 70.42641724 1.04345703 70.41992188 C0.1488829 70.41833069 -0.74569122 70.4167395 -1.66737366 70.4151001 C-5.29332663 70.05183913 -8.01779616 68.9985494 -10.98963928 66.89768982 C-12.75000658 64.3769973 -12.59067849 62.43203024 -12.60644531 59.3762207 C-12.61912949 58.18811295 -12.63181366 57.00000519 -12.6448822 55.77589417 C-12.64194656 54.49149948 -12.63901093 53.2071048 -12.63598633 51.88378906 C-12.64122818 50.5657579 -12.64647003 49.24772675 -12.65187073 47.88975525 C-12.66080529 45.09966466 -12.65837543 42.30986024 -12.6484375 39.51977539 C-12.63695158 35.94724646 -12.6571499 32.37570652 -12.68635464 28.80330753 C-12.70913325 25.39258228 -12.70224944 21.9820886 -12.69848633 18.57128906 C-12.70972031 17.28891861 -12.72095428 16.00654816 -12.73252869 14.68531799 C-12.72314774 13.49405807 -12.71376678 12.30279816 -12.70410156 11.07543945 C-12.70393539 10.02747696 -12.70376923 8.97951447 -12.70359802 7.89979553 C-12.07309613 4.45463735 -10.92518935 3.2988862 -8.20239258 1.16113281 C-5.19204393 0.15768326 -3.14784034 0.02299885 0 0 Z M5.79760742 18.16113281 C5.79760742 29.38113281 5.79760742 40.60113281 5.79760742 52.16113281 C16.68760742 52.16113281 27.57760742 52.16113281 38.79760742 52.16113281 C38.79760742 40.94113281 38.79760742 29.72113281 38.79760742 18.16113281 C27.90760742 18.16113281 17.01760742 18.16113281 5.79760742 18.16113281 Z " fill="#000000" transform="translate(140.202392578125,203.8388671875)"/>
<path d="M0 0 C1.29063354 -0.00478363 2.58126709 -0.00956726 3.91101074 -0.01449585 C6.6380823 -0.0218518 9.3643328 -0.01120535 12.09130859 0.01220703 C15.57877706 0.04069693 19.06432172 0.02428567 22.55171967 -0.00565529 C25.88879877 -0.0281165 29.22536631 -0.01236882 32.5625 0 C33.81156128 -0.01012115 35.06062256 -0.02024231 36.34753418 -0.03067017 C41.19536 0.03493049 44.74394961 0.11982797 49.07250977 2.39086914 C51.82810108 7.66936789 51.43291432 12.8367808 51.33984375 18.69921875 C51.33634666 20.60543251 51.33634666 20.60543251 51.33277893 22.55015564 C51.32304046 25.23489248 51.3039965 27.91749576 51.26831055 30.60180664 C51.22299273 34.0373048 51.20828135 37.47204551 51.20457363 40.90781498 C51.19907373 44.19253549 51.17569705 47.47708346 51.15234375 50.76171875 C51.1442997 52.61024193 51.1442997 52.61024193 51.13609314 54.49610901 C51.12010574 55.64087204 51.10411835 56.78563507 51.08764648 57.96508789 C51.07168678 59.47468834 51.07168678 59.47468834 51.05540466 61.01478577 C50.76838503 63.78838233 50.37017301 65.38067387 48.78125 67.6640625 C45.64573695 69.84536873 42.91305242 69.9168266 39.15820312 69.92285156 C37.46624817 69.93230804 37.46624817 69.93230804 35.7401123 69.94195557 C33.91969421 69.93588287 33.91969421 69.93588287 32.0625 69.9296875 C30.18745789 69.93255768 30.18745789 69.93255768 28.27453613 69.93548584 C25.63161363 69.93684685 22.98906104 69.93416133 20.34619141 69.92480469 C16.96340402 69.91341038 13.58093402 69.91997346 10.19815826 69.93194962 C6.96542755 69.94092582 3.73273486 69.93463594 0.5 69.9296875 C-0.71361206 69.93373596 -1.92722412 69.93778442 -3.1776123 69.94195557 C-4.30558228 69.93565125 -5.43355225 69.92934692 -6.59570312 69.92285156 C-7.58735474 69.92126038 -8.57900635 69.91966919 -9.60070801 69.91802979 C-12.34442139 69.65187155 -13.92838857 69.17670364 -16.21875 67.6640625 C-18.49105537 64.25560444 -18.48360542 62.9941429 -18.52514648 58.98681641 C-18.54113388 57.82195709 -18.55712128 56.65709778 -18.57359314 55.4569397 C-18.57895584 54.19755585 -18.58431854 52.938172 -18.58984375 51.640625 C-18.59887222 50.34716156 -18.6079007 49.05369812 -18.61720276 47.72103882 C-18.63368815 44.98229478 -18.64139193 42.24367292 -18.64428711 39.50488281 C-18.64966907 36.00183426 -18.68734019 32.49993994 -18.73303127 28.99721718 C-18.76999764 25.64919167 -18.77131769 22.30134767 -18.77734375 18.953125 C-18.79687607 17.69778961 -18.81640839 16.44245422 -18.83653259 15.14907837 C-18.81130822 10.2884026 -18.76971296 6.72458157 -16.51000977 2.375 C-11.17920003 -0.39618275 -5.91910918 -0.04796259 0 0 Z M-0.21875 18.6640625 C-0.21875 29.5540625 -0.21875 40.4440625 -0.21875 51.6640625 C10.67125 51.6640625 21.56125 51.6640625 32.78125 51.6640625 C32.78125 40.7740625 32.78125 29.8840625 32.78125 18.6640625 C21.89125 18.6640625 11.00125 18.6640625 -0.21875 18.6640625 Z " fill="#000000" transform="translate(359.21875,323.3359375)"/>
<path d="M0 0 C1.12812103 -0.00637985 2.25624207 -0.0127597 3.41854858 -0.01933289 C5.25445053 -0.02100212 5.25445053 -0.02100212 7.12744141 -0.02270508 C8.38029938 -0.02603348 9.63315735 -0.02936188 10.92398071 -0.03279114 C13.57875103 -0.03786218 16.23341903 -0.04063103 18.88818359 -0.04003906 C22.28669914 -0.03993753 25.68500533 -0.0535798 29.0834713 -0.07081127 C32.32728685 -0.08461945 35.57110045 -0.08402048 38.81494141 -0.08520508 C40.03482758 -0.09239059 41.25471375 -0.09957611 42.51156616 -0.10697937 C44.21320419 -0.10236443 44.21320419 -0.10236443 45.94921875 -0.09765625 C46.94690277 -0.09908127 47.94458679 -0.10050629 48.97250366 -0.10197449 C51.75192598 0.15916144 53.31908901 0.55264048 55.60400391 2.14526367 C57.79268391 5.29054322 57.87057518 8.07724087 57.91040039 11.84423828 C57.92638779 12.98900131 57.94237518 14.13376434 57.95884705 15.31321716 C57.96420975 16.54556595 57.96957245 17.77791473 57.97509766 19.04760742 C57.98412613 20.31745987 57.9931546 21.58731232 58.00245667 22.89564514 C58.01696563 25.58145332 58.02664263 28.26683592 58.02954102 30.95263672 C58.03492814 34.38728403 58.07262846 37.82075703 58.11828518 41.25507259 C58.15524627 44.54001429 58.15657087 47.82498571 58.16259766 51.11010742 C58.18212997 52.34043198 58.20166229 53.57075653 58.2217865 54.83836365 C58.19634916 59.64277549 58.13751735 63.12328701 55.89526367 67.41845703 C50.5685409 70.21319853 45.31017486 69.85733586 39.38525391 69.80932617 C37.44930359 69.81650162 37.44930359 69.81650162 35.47424316 69.82382202 C32.74717161 69.83117797 30.0209211 69.82053152 27.29394531 69.79711914 C23.80647684 69.76862925 20.32093219 69.7850405 16.83353424 69.81498146 C13.49645514 69.83744268 10.1598876 69.82169499 6.82275391 69.80932617 C4.94916199 69.8245079 4.94916199 69.8245079 3.03771973 69.83999634 C-1.80045289 69.77452631 -5.3574452 69.68656291 -9.68286133 67.43212891 C-12.46457991 62.09505077 -12.08766047 56.81867528 -12.02490234 50.89135742 C-12.0273143 49.5983522 -12.02972626 48.30534698 -12.0322113 46.97315979 C-12.03506386 44.2418764 -12.02042181 41.51141556 -11.99291992 38.78027344 C-11.95880188 35.28393781 -11.96487043 31.78906893 -11.9835825 28.29266262 C-11.99670484 24.95041545 -11.97843666 21.60859435 -11.96240234 18.26635742 C-11.96736221 17.01213486 -11.97232208 15.75791229 -11.97743225 14.46568298 C-11.96159592 13.3008992 -11.94575958 12.13611542 -11.92944336 10.93603516 C-11.92324478 9.91186996 -11.9170462 8.88770477 -11.91065979 7.83250427 C-11.26339392 4.452901 -10.0298533 3.28666207 -7.39599609 1.14526367 C-4.80134665 -0.15206105 -2.90548985 0.01111858 0 0 Z M6.60400391 18.14526367 C6.60400391 29.03526367 6.60400391 39.92526367 6.60400391 51.14526367 C17.49400391 51.14526367 28.38400391 51.14526367 39.60400391 51.14526367 C39.60400391 40.25526367 39.60400391 29.36526367 39.60400391 18.14526367 C28.71400391 18.14526367 17.82400391 18.14526367 6.60400391 18.14526367 Z " fill="#000000" transform="translate(224.39599609375,118.854736328125)"/>
<path d="M0 0 C1.08477631 -0.00960754 2.16955261 -0.01921509 3.28720093 -0.02911377 C5.04503403 -0.03548859 5.04503403 -0.03548859 6.83837891 -0.04199219 C8.04305817 -0.04769226 9.24773743 -0.05339233 10.48892212 -0.05926514 C13.03931804 -0.06871724 15.58972619 -0.07524995 18.14013672 -0.07910156 C22.04237138 -0.08881103 25.94408031 -0.11983498 29.84619141 -0.15136719 C32.32275077 -0.15789684 34.79931391 -0.16314746 37.27587891 -0.16699219 C38.44371918 -0.17933899 39.61155945 -0.19168579 40.81478882 -0.20440674 C41.90586945 -0.20140564 42.99695007 -0.19840454 44.12109375 -0.1953125 C45.55646988 -0.20078094 45.55646988 -0.20078094 47.02084351 -0.20635986 C50.23595952 0.23631089 52.08174565 1.25365523 54.68994141 3.16113281 C56.94861501 6.54914322 56.95438836 7.76989346 56.99633789 11.74658203 C57.01232529 12.89142059 57.02831268 14.03625916 57.04478455 15.21578979 C57.05014725 16.45329987 57.05550995 17.69080994 57.06103516 18.96582031 C57.07006363 20.23708771 57.0790921 21.5083551 57.08839417 22.81814575 C57.1029154 25.50993002 57.11258312 28.20128934 57.11547852 30.89306641 C57.12086031 34.33558951 57.15853086 37.77693799 57.20422268 41.21912956 C57.24119186 44.50962327 57.24250943 47.80014682 57.24853516 51.09082031 C57.26806747 52.32428192 57.28759979 53.55774353 57.307724 54.82858276 C57.28231571 59.64100118 57.2259835 63.13362307 54.98120117 67.43652344 C49.65391238 70.22800538 44.39530402 69.87319845 38.47119141 69.82519531 C36.53524109 69.83237076 36.53524109 69.83237076 34.56018066 69.83969116 C31.83310911 69.84704711 29.1068586 69.83640066 26.37988281 69.81298828 C22.89241434 69.78449839 19.40686969 69.80090964 15.91947174 69.8308506 C12.58239264 69.85331182 9.2458251 69.83756413 5.90869141 69.82519531 C4.03509949 69.84037704 4.03509949 69.84037704 2.12365723 69.85586548 C-2.72388339 69.79026868 -6.27084874 69.70779286 -10.59692383 67.43212891 C-13.35378865 62.16827329 -13.0021958 57.01382653 -12.93896484 51.16113281 C-12.9413768 49.89269531 -12.94378876 48.62425781 -12.9462738 47.31738281 C-12.94529473 44.63682988 -12.93448893 41.95851218 -12.90698242 39.27832031 C-12.87289811 35.85157539 -12.87892154 32.42632838 -12.897645 28.99951172 C-12.91078456 25.71996552 -12.89249111 22.44064673 -12.87646484 19.16113281 C-12.88142471 17.93394531 -12.88638458 16.70675781 -12.89149475 15.44238281 C-12.87565842 14.29769531 -12.85982208 13.15300781 -12.84350586 11.97363281 C-12.83730728 10.96945312 -12.8311087 9.96527344 -12.82472229 8.93066406 C-12.16779117 5.395557 -10.80523286 3.70849939 -8.31005859 1.16113281 C-5.26998559 0.14777515 -3.18223203 0.02274437 0 0 Z M5.68994141 18.16113281 C5.68994141 29.05113281 5.68994141 39.94113281 5.68994141 51.16113281 C16.57994141 51.16113281 27.46994141 51.16113281 38.68994141 51.16113281 C38.68994141 40.27113281 38.68994141 29.38113281 38.68994141 18.16113281 C27.79994141 18.16113281 16.90994141 18.16113281 5.68994141 18.16113281 Z " fill="#000000" transform="translate(353.31005859375,408.8388671875)"/>
<path d="M0 0 C1.93950783 -0.00361794 1.93950783 -0.00361794 3.91819763 -0.00730896 C6.64948102 -0.01016152 9.37994186 0.00448053 12.11108398 0.03198242 C15.60741961 0.06610047 19.10228849 0.06003192 22.5986948 0.04131985 C25.94094198 0.0281975 29.28276307 0.04646568 32.625 0.0625 C33.87922256 0.05754013 35.13344513 0.05258026 36.42567444 0.04747009 C38.17285011 0.07122459 38.17285011 0.07122459 39.95532227 0.09545898 C40.97948746 0.10165756 42.00365265 0.10785614 43.05885315 0.11424255 C46.45860354 0.76536702 47.62576045 1.94303151 49.74609375 4.62890625 C50.75945142 7.66897925 50.8844822 9.75673281 50.90722656 12.93896484 C50.91683411 14.02374115 50.92644165 15.10851746 50.93634033 16.22616577 C50.94059021 17.3980545 50.94484009 18.56994324 50.94921875 19.77734375 C50.95491882 20.98202301 50.9606189 22.18670227 50.9664917 23.42788696 C50.9759438 25.97828289 50.98247651 28.52869103 50.98632812 31.07910156 C50.99603759 34.98133623 51.02706154 38.88304515 51.05859375 42.78515625 C51.0651234 45.26171562 51.07037402 47.73827876 51.07421875 50.21484375 C51.08656555 51.38268402 51.09891235 52.55052429 51.1116333 53.75375366 C51.1086322 54.84483429 51.1056311 55.93591492 51.10253906 57.06005859 C51.10800751 58.49543472 51.10800751 58.49543472 51.11358643 59.95980835 C50.67091567 63.17492437 49.65357133 65.02071049 47.74609375 67.62890625 C44.36969333 69.87983986 43.20753909 69.8851736 39.25244141 69.90356445 C38.1276236 69.91309647 37.00280579 69.92262848 35.84390259 69.93244934 C34.6282663 69.93153793 33.41263 69.93062653 32.16015625 69.9296875 C30.9110849 69.93397263 29.66201355 69.93825775 28.37509155 69.94267273 C25.73038714 69.94842114 23.08607233 69.94984588 20.44140625 69.94458008 C17.05970611 69.9387928 13.67855499 69.95569862 10.29694557 69.97892475 C7.06385339 69.99724241 3.83079096 69.99347587 0.59765625 69.9921875 C-0.61393158 70.00139725 -1.82551941 70.01060699 -3.07382202 70.02009583 C-4.20494415 70.01386703 -5.33606628 70.00763824 -6.50146484 70.0012207 C-7.99013565 70.00216484 -7.99013565 70.00216484 -9.50888062 70.00312805 C-12.74132436 69.56245788 -14.62953305 68.53702737 -17.25390625 66.62890625 C-18.56758966 64.00153944 -18.40998923 62.00758656 -18.44677734 59.06518555 C-18.46284027 57.9002507 -18.4789032 56.73531586 -18.49545288 55.53507996 C-18.53981081 50.20510311 -18.58140717 44.87527448 -18.60400391 39.54516602 C-18.61733949 36.73103297 -18.64518344 33.91762573 -18.68603516 31.10375977 C-18.74483643 27.05342357 -18.76266379 23.00386576 -18.77734375 18.953125 C-18.80001312 17.69465256 -18.8226825 16.43618011 -18.84603882 15.13957214 C-18.83421995 10.26946651 -18.80677637 6.69726578 -16.54956055 2.33544922 C-11.20429383 -0.43241613 -5.92939289 -0.0627801 0 0 Z M-0.25390625 18.62890625 C-0.25390625 29.51890625 -0.25390625 40.40890625 -0.25390625 51.62890625 C10.63609375 51.62890625 21.52609375 51.62890625 32.74609375 51.62890625 C32.74609375 40.73890625 32.74609375 29.84890625 32.74609375 18.62890625 C21.85609375 18.62890625 10.96609375 18.62890625 -0.25390625 18.62890625 Z " fill="#000000" transform="translate(274.25390625,323.37109375)"/>
<path d="M0 0 C1.68734001 -0.01925285 1.68734001 -0.01925285 3.4087677 -0.03889465 C5.23996407 -0.04997505 5.23996407 -0.04997505 7.1081543 -0.0612793 C8.35864059 -0.06935104 9.60912689 -0.07742279 10.89750671 -0.08573914 C13.54808263 -0.09959 16.19853374 -0.11060341 18.84912109 -0.11816406 C22.23878054 -0.12922017 25.62778197 -0.16361025 29.01720905 -0.20333576 C32.25579215 -0.2358211 35.4944331 -0.24028268 38.7331543 -0.2487793 C40.55524162 -0.27504143 40.55524162 -0.27504143 42.41413879 -0.30183411 C43.54848862 -0.29890854 44.68283844 -0.29598297 45.8515625 -0.29296875 C47.34475761 -0.30176811 47.34475761 -0.30176811 48.86811829 -0.31074524 C52.40647699 0.31642712 54.07598073 1.68377278 56.61987305 4.17700195 C57.63323071 7.21707495 57.75826149 9.30482852 57.78100586 12.48706055 C57.7906134 13.57183685 57.80022095 14.65661316 57.81011963 15.77426147 C57.81436951 16.94615021 57.81861938 18.11803894 57.82299805 19.32543945 C57.82869812 20.53011871 57.83439819 21.73479797 57.840271 22.97598267 C57.8497231 25.52637859 57.85625581 28.07678674 57.86010742 30.62719727 C57.86981689 34.52943193 57.90084084 38.43114085 57.93237305 42.33325195 C57.9389027 44.80981132 57.94415332 47.28637446 57.94799805 49.76293945 C57.96034485 50.93077972 57.97269165 52.09862 57.9854126 53.30184937 C57.9824115 54.39292999 57.9794104 55.48401062 57.97631836 56.6081543 C57.9817868 58.04353043 57.9817868 58.04353043 57.98736572 59.50790405 C57.41836925 63.64052327 55.52705249 66.26982251 52.61987305 69.17700195 C50.17314148 69.45115662 50.17314148 69.45115662 47.05615234 69.48339844 C45.30875008 69.50737953 45.30875008 69.50737953 43.52604675 69.53184509 C42.26150162 69.53720779 40.99695648 69.5425705 39.6940918 69.5480957 C38.39921341 69.55712418 37.10433502 69.56615265 35.7702179 69.57545471 C33.02549752 69.59195777 30.28089927 69.59964681 27.53613281 69.60253906 C24.02520847 69.60791582 20.51543866 69.64555776 17.0048399 69.69128323 C13.65126249 69.72825753 10.29786613 69.72957069 6.9440918 69.7355957 C5.68561935 69.75512802 4.42714691 69.77466034 3.13053894 69.79478455 C-1.7376506 69.76959062 -5.3150575 69.72888004 -9.67358398 67.47045898 C-12.44245889 62.12680771 -12.0718015 56.85137423 -12.0090332 50.9230957 C-12.01144516 49.63009048 -12.01385712 48.33708527 -12.01634216 47.00489807 C-12.01919472 44.27361468 -12.00455267 41.54315384 -11.97705078 38.81201172 C-11.94293274 35.3156761 -11.94900128 31.82080721 -11.96771336 28.3244009 C-11.9808357 24.98215373 -11.96256752 21.64033264 -11.9465332 18.2980957 C-11.95149307 17.04387314 -11.95645294 15.78965057 -11.96156311 14.49742126 C-11.94572678 13.33263748 -11.92989044 12.1678537 -11.91357422 10.96777344 C-11.90737564 9.94360825 -11.90117706 8.91944305 -11.89479065 7.86424255 C-11.24752478 4.48463928 -10.01398415 3.31840035 -7.38012695 1.17700195 C-4.79478691 -0.11566807 -2.89514167 0.02869907 0 0 Z M6.61987305 18.17700195 C6.61987305 29.06700195 6.61987305 39.95700195 6.61987305 51.17700195 C17.50987305 51.17700195 28.39987305 51.17700195 39.61987305 51.17700195 C39.61987305 40.28700195 39.61987305 29.39700195 39.61987305 18.17700195 C28.72987305 18.17700195 17.83987305 18.17700195 6.61987305 18.17700195 Z " fill="#000000" transform="translate(139.380126953125,118.822998046875)"/>
<path d="M0 0 C1.29063354 -0.00478363 2.58126709 -0.00956726 3.91101074 -0.01449585 C6.6380823 -0.0218518 9.3643328 -0.01120535 12.09130859 0.01220703 C15.57877706 0.04069693 19.06432172 0.02428567 22.55171967 -0.00565529 C25.88879877 -0.0281165 29.22536631 -0.01236882 32.5625 0 C33.81156128 -0.01012115 35.06062256 -0.02024231 36.34753418 -0.03067017 C41.19507479 0.03492663 44.74204015 0.11740246 49.06811523 2.39306641 C51.82498005 7.65692202 51.47338721 12.81136879 51.41015625 18.6640625 C51.41256821 19.9325 51.41498016 21.2009375 51.41746521 22.5078125 C51.41648614 25.18836544 51.40568033 27.86668313 51.37817383 30.546875 C51.34408952 33.97361992 51.35011294 37.39886693 51.3688364 40.82568359 C51.38197597 44.10522979 51.36368252 47.38454858 51.34765625 50.6640625 C51.35509605 52.50484375 51.35509605 52.50484375 51.36268616 54.3828125 C51.34684982 55.5275 51.33101349 56.6721875 51.31469727 57.8515625 C51.30849869 58.85574219 51.30230011 59.85992187 51.2959137 60.89453125 C50.63898258 64.42963831 49.27642426 66.11669593 46.78125 68.6640625 C43.741177 69.67742017 41.65342344 69.80245095 38.47119141 69.82519531 C37.3864151 69.83480286 36.30163879 69.8444104 35.18399048 69.85430908 C34.01210175 69.85855896 32.84021301 69.86280884 31.6328125 69.8671875 C30.42813324 69.87288757 29.22345398 69.87858765 27.98226929 69.88446045 C25.43187336 69.89391255 22.88146522 69.90044526 20.33105469 69.90429688 C16.42882002 69.91400634 12.5271111 69.94503029 8.625 69.9765625 C6.14844063 69.98309215 3.67187749 69.98834277 1.1953125 69.9921875 C0.02747223 70.0045343 -1.14036804 70.0168811 -2.34359741 70.02960205 C-3.43467804 70.02660095 -4.52575867 70.02359985 -5.64990234 70.02050781 C-6.60681976 70.02415344 -7.56373718 70.02779907 -8.5496521 70.03155518 C-11.76476812 69.58888442 -13.61055424 68.57154008 -16.21875 66.6640625 C-18.47742361 63.27605209 -18.48319695 62.05530185 -18.52514648 58.07861328 C-18.54113388 56.93377472 -18.55712128 55.78893616 -18.57359314 54.60940552 C-18.57895584 53.37189545 -18.58431854 52.13438538 -18.58984375 50.859375 C-18.59887222 49.5881076 -18.6079007 48.31684021 -18.61720276 47.00704956 C-18.63172399 44.31526529 -18.64139172 41.62390598 -18.64428711 38.93212891 C-18.64966891 35.4896058 -18.68733946 32.04825733 -18.73303127 28.60606575 C-18.77000046 25.31557204 -18.77131802 22.0250485 -18.77734375 18.734375 C-18.79687607 17.50091339 -18.81640839 16.26745178 -18.83653259 14.99661255 C-18.8111243 10.18419413 -18.75479209 6.69157224 -16.51000977 2.38867188 C-11.18272097 -0.40281006 -5.92411261 -0.04800314 0 0 Z M-0.21875 18.6640625 C-0.21875 29.5540625 -0.21875 40.4440625 -0.21875 51.6640625 C10.67125 51.6640625 21.56125 51.6640625 32.78125 51.6640625 C32.78125 40.7740625 32.78125 29.8840625 32.78125 18.6640625 C21.89125 18.6640625 11.00125 18.6640625 -0.21875 18.6640625 Z " fill="#000000" transform="translate(231.21875,33.3359375)"/>
<path d="M0 0 C1.10487259 -0.00960754 2.20974518 -0.01921509 3.34809875 -0.02911377 C5.14648445 -0.03548859 5.14648445 -0.03548859 6.98120117 -0.04199219 C8.20949142 -0.04769226 9.43778168 -0.05339233 10.70329285 -0.05926514 C13.30674373 -0.06872588 15.91020665 -0.07525337 18.51367188 -0.07910156 C22.4971514 -0.08565513 26.48026428 -0.11981388 30.46362305 -0.15136719 C32.99031268 -0.15789758 35.51700602 -0.16314791 38.04370117 -0.16699219 C39.23655228 -0.17933899 40.42940338 -0.19168579 41.65840149 -0.20440674 C42.77273056 -0.20140564 43.88705963 -0.19840454 45.03515625 -0.1953125 C46.01285477 -0.19895813 46.99055328 -0.20260376 47.99787903 -0.20635986 C51.2679297 0.23645969 53.09261574 1.16793297 55.71166992 3.16113281 C57.86650094 6.23621737 57.96845399 8.88719245 57.98632812 12.5847168 C57.99586014 13.66941757 58.00539215 14.75411835 58.01521301 15.87168884 C58.01430161 17.03841629 58.0133902 18.20514374 58.01245117 19.40722656 C58.0167363 20.61049088 58.02102142 21.81375519 58.0254364 23.05348206 C58.0311789 25.59790416 58.03168056 28.14234269 58.02734375 30.68676758 C58.02418488 34.5802002 58.04764149 38.47287232 58.07299805 42.36621094 C58.07527113 44.83821519 58.07597449 47.31022148 58.07495117 49.78222656 C58.08416092 50.94692978 58.09337067 52.111633 58.1028595 53.31163025 C58.09663071 54.39948318 58.09040192 55.48733612 58.08398438 56.6081543 C58.0846138 57.56205551 58.08524323 58.51595673 58.08589172 59.49876404 C57.5060704 63.62385291 55.61530711 66.25749562 52.71166992 69.16113281 C50.26493835 69.42855835 50.26493835 69.42855835 47.14794922 69.45166016 C45.40054695 69.47079971 45.40054695 69.47079971 43.61784363 69.49032593 C41.72102592 69.4936644 41.72102592 69.4936644 39.78588867 69.49707031 C38.49101028 69.50372711 37.1961319 69.51038391 35.86201477 69.51724243 C33.11728587 69.52922837 30.37268292 69.53292209 27.62792969 69.53173828 C24.11716387 69.53153539 20.60721034 69.55879861 17.09663677 69.5932827 C13.74304207 69.620929 10.38959585 69.61970199 7.03588867 69.62207031 C5.77741623 69.63644135 4.51894379 69.65081238 3.22233582 69.6656189 C2.04794449 69.65946564 0.87355316 69.65331238 -0.33642578 69.64697266 C-1.36741898 69.64982269 -2.39841217 69.65267273 -3.46064758 69.65560913 C-7.13172556 69.0136484 -8.76227306 67.88629248 -11.28833008 65.16113281 C-11.91651917 62.42919922 -11.91651917 62.42919922 -11.91943359 59.26269531 C-11.93196671 58.07466309 -11.94449982 56.88663086 -11.95741272 55.66259766 C-11.94415451 54.38336426 -11.9308963 53.10413086 -11.91723633 51.78613281 C-11.91964828 50.4695166 -11.92206024 49.15290039 -11.92454529 47.79638672 C-11.92740109 45.01205524 -11.91272588 42.22852917 -11.88525391 39.44433594 C-11.85116934 35.87959881 -11.85719017 32.31630143 -11.87591648 28.75149536 C-11.88904076 25.34623183 -11.87076813 21.94138631 -11.85473633 18.53613281 C-11.8596962 17.25689941 -11.86465607 15.97766602 -11.86976624 14.65966797 C-11.8539299 13.47163574 -11.83809357 12.28360352 -11.82177734 11.05957031 C-11.81557877 10.01462402 -11.80938019 8.96967773 -11.80299377 7.89306641 C-11.15998449 4.47984982 -9.95110255 3.31747366 -7.28833008 1.16113281 C-4.7224607 -0.12180188 -2.87301459 0.02011352 0 0 Z M6.71166992 18.16113281 C6.71166992 29.05113281 6.71166992 39.94113281 6.71166992 51.16113281 C17.60166992 51.16113281 28.49166992 51.16113281 39.71166992 51.16113281 C39.71166992 40.27113281 39.71166992 29.38113281 39.71166992 18.16113281 C28.82166992 18.16113281 17.93166992 18.16113281 6.71166992 18.16113281 Z " fill="#000000" transform="translate(267.288330078125,408.8388671875)"/>
<path d="M0 0 C1.16793594 -0.01260864 2.33587189 -0.02521729 3.53919983 -0.03820801 C4.79139816 -0.03011108 6.0435965 -0.02201416 7.33374023 -0.01367188 C8.62674545 -0.01749878 9.91975067 -0.02132568 11.25193787 -0.02526855 C13.98309532 -0.03115241 16.71372797 -0.02263637 19.44482422 -0.00390625 C22.94111831 0.01890674 26.4361857 0.00574047 29.93243504 -0.01819611 C33.27463463 -0.03614252 36.61650581 -0.0235712 39.95874023 -0.01367188 C41.84007408 -0.02581726 41.84007408 -0.02581726 43.75941467 -0.03820801 C45.50659035 -0.01929504 45.50659035 -0.01929504 47.2890625 0 C48.31322769 0.00318237 49.33739288 0.00636475 50.39259338 0.00964355 C53.79601516 0.65294865 54.95903041 1.82987077 57.07983398 4.51757812 C58.08986429 7.54766905 58.22405045 9.64016112 58.25683594 12.81176758 C58.27608879 14.4340905 58.27608879 14.4340905 58.29573059 16.08918762 C58.30311752 17.2579393 58.31050446 18.42669098 58.31811523 19.63085938 C58.32618698 20.83316696 58.33425873 22.03547455 58.34257507 23.2742157 C58.3564137 25.82040973 58.36713684 28.3666223 58.375 30.9128418 C58.39221961 34.80423135 58.43611045 38.69477294 58.48022461 42.5859375 C58.49035095 45.05923854 58.49886723 47.53254681 58.50561523 50.00585938 C58.52312332 51.16853836 58.54063141 52.33121735 58.55867004 53.52912903 C58.54194687 59.76555065 58.47374857 63.88041214 54.07983398 68.51757812 C51.01437038 69.53939933 48.88943713 69.65617672 45.67797852 69.67871094 C44.02078293 69.69312225 44.02078293 69.69312225 42.33010864 69.70782471 C41.13634613 69.71207458 39.94258362 69.71632446 38.71264648 69.72070312 C36.87233353 69.72925323 36.87233353 69.72925323 34.99484253 69.73797607 C32.397368 69.74742857 29.79988146 69.75396104 27.20239258 69.7578125 C23.22773349 69.76752218 19.25359051 69.79854591 15.27905273 69.83007812 C12.75692039 69.83660774 10.23478435 69.84185837 7.71264648 69.84570312 C6.52293243 69.85804993 5.33321838 69.87039673 4.10745239 69.88311768 C2.44080032 69.87861603 2.44080032 69.87861603 0.74047852 69.87402344 C-0.2342038 69.87766907 -1.20888611 69.8813147 -2.21310425 69.8850708 C-5.4263075 69.44886773 -7.31002959 68.41159049 -9.92016602 66.51757812 C-11.24694554 63.86401908 -11.07661965 61.81779302 -11.11303711 58.84619141 C-11.12910004 57.65800812 -11.14516296 56.46982483 -11.16171265 55.24563599 C-11.2060374 49.81430521 -11.24765924 44.38311985 -11.27026367 38.95166016 C-11.28361077 36.08219578 -11.31147658 33.21344128 -11.35229492 30.34423828 C-11.40158652 26.87943272 -11.42637975 23.41527169 -11.43349075 19.95013046 C-11.44347027 17.98907419 -11.47772113 16.02819014 -11.51229858 14.06741333 C-11.50944855 12.87292572 -11.50659851 11.67843811 -11.50366211 10.44775391 C-11.51174896 9.39677521 -11.51983582 8.34579651 -11.52816772 7.26296997 C-10.92016602 4.51757812 -10.92016602 4.51757812 -8.75370789 2.17929077 C-5.52490181 0.28577794 -3.71737691 0.01154198 0 0 Z M7.07983398 18.51757812 C7.07983398 29.40757812 7.07983398 40.29757812 7.07983398 51.51757812 C17.96983398 51.51757812 28.85983398 51.51757812 40.07983398 51.51757812 C40.07983398 40.62757813 40.07983398 29.73757813 40.07983398 18.51757812 C29.18983398 18.51757812 18.29983398 18.51757812 7.07983398 18.51757812 Z " fill="#000000" transform="translate(138.920166015625,289.482421875)"/>
<path d="M0 0 C1.16793594 -0.01260864 2.33587189 -0.02521729 3.53919983 -0.03820801 C4.79139816 -0.03011108 6.0435965 -0.02201416 7.33374023 -0.01367188 C8.62674545 -0.01749878 9.91975067 -0.02132568 11.25193787 -0.02526855 C13.98309532 -0.03115241 16.71372797 -0.02263637 19.44482422 -0.00390625 C22.94111831 0.01890674 26.4361857 0.00574047 29.93243504 -0.01819611 C33.27463463 -0.03614252 36.61650581 -0.0235712 39.95874023 -0.01367188 C41.84007408 -0.02581726 41.84007408 -0.02581726 43.75941467 -0.03820801 C45.50659035 -0.01929504 45.50659035 -0.01929504 47.2890625 0 C48.31322769 0.00318237 49.33739288 0.00636475 50.39259338 0.00964355 C53.79601516 0.65294865 54.95903041 1.82987077 57.07983398 4.51757812 C58.08986429 7.54766905 58.22405045 9.64016112 58.25683594 12.81176758 C58.27608879 14.4340905 58.27608879 14.4340905 58.29573059 16.08918762 C58.30311752 17.2579393 58.31050446 18.42669098 58.31811523 19.63085938 C58.32618698 20.83316696 58.33425873 22.03547455 58.34257507 23.2742157 C58.3564137 25.82040973 58.36713684 28.3666223 58.375 30.9128418 C58.39221961 34.80423135 58.43611045 38.69477294 58.48022461 42.5859375 C58.49035095 45.05923854 58.49886723 47.53254681 58.50561523 50.00585938 C58.52312332 51.16853836 58.54063141 52.33121735 58.55867004 53.52912903 C58.54194687 59.76555065 58.47374857 63.88041214 54.07983398 68.51757812 C51.01437038 69.53939933 48.88943713 69.65617672 45.67797852 69.67871094 C44.02078293 69.69312225 44.02078293 69.69312225 42.33010864 69.70782471 C41.13634613 69.71207458 39.94258362 69.71632446 38.71264648 69.72070312 C36.87233353 69.72925323 36.87233353 69.72925323 34.99484253 69.73797607 C32.397368 69.74742857 29.79988146 69.75396104 27.20239258 69.7578125 C23.22773349 69.76752218 19.25359051 69.79854591 15.27905273 69.83007812 C12.75692039 69.83660774 10.23478435 69.84185837 7.71264648 69.84570312 C6.52293243 69.85804993 5.33321838 69.87039673 4.10745239 69.88311768 C2.44080032 69.87861603 2.44080032 69.87861603 0.74047852 69.87402344 C-0.2342038 69.87766907 -1.20888611 69.8813147 -2.21310425 69.8850708 C-5.4263075 69.44886773 -7.31002959 68.41159049 -9.92016602 66.51757812 C-11.24694554 63.86401908 -11.07661965 61.81779302 -11.11303711 58.84619141 C-11.12910004 57.65800812 -11.14516296 56.46982483 -11.16171265 55.24563599 C-11.2060374 49.81430521 -11.24765924 44.38311985 -11.27026367 38.95166016 C-11.28361077 36.08219578 -11.31147658 33.21344128 -11.35229492 30.34423828 C-11.40158652 26.87943272 -11.42637975 23.41527169 -11.43349075 19.95013046 C-11.44347027 17.98907419 -11.47772113 16.02819014 -11.51229858 14.06741333 C-11.50944855 12.87292572 -11.50659851 11.67843811 -11.50366211 10.44775391 C-11.51174896 9.39677521 -11.51983582 8.34579651 -11.52816772 7.26296997 C-10.92016602 4.51757812 -10.92016602 4.51757812 -8.75370789 2.17929077 C-5.52490181 0.28577794 -3.71737691 0.01154198 0 0 Z M7.07983398 18.51757812 C7.07983398 29.40757813 7.07983398 40.29757813 7.07983398 51.51757812 C17.96983398 51.51757812 28.85983398 51.51757812 40.07983398 51.51757812 C40.07983398 40.62757812 40.07983398 29.73757812 40.07983398 18.51757812 C29.18983398 18.51757812 18.29983398 18.51757812 7.07983398 18.51757812 Z " fill="#000000" transform="translate(138.920166015625,33.482421875)"/>
</svg>
