<?xml version="1.0" encoding="UTF-8"?>
<svg version="1.1" xmlns="http://www.w3.org/2000/svg" width="512" height="512">
<path d="M0 0 C0.80344677 -0.00465992 1.60689353 -0.00931984 2.43468717 -0.01412097 C5.11988538 -0.02604692 7.80457536 -0.01668488 10.48977757 -0.00736332 C12.43717667 -0.01153728 14.38457334 -0.01701514 16.33196551 -0.02368313 C21.67810651 -0.03814816 27.02409348 -0.03388967 32.37024295 -0.02651632 C38.13789596 -0.02178962 43.90551541 -0.03429007 49.67315769 -0.04453373 C60.97022106 -0.06173655 72.26722884 -0.06255869 83.5643019 -0.05732083 C92.74548592 -0.05328081 101.92665349 -0.05472068 111.10783672 -0.06006908 C112.4141248 -0.06081751 113.72041288 -0.06156593 115.06628545 -0.06233703 C117.7199256 -0.06386849 120.37356575 -0.06540684 123.02720589 -0.066952 C140.84599668 -0.07701035 158.66478161 -0.08094338 176.48357391 -0.07332611 C177.18022886 -0.07302894 177.87688381 -0.07273176 178.59464952 -0.07242559 C184.25186619 -0.06997669 189.90908279 -0.06736508 195.56629939 -0.06474145 C217.63412851 -0.05463853 239.70188154 -0.06299577 261.76970005 -0.086236 C286.56793393 -0.11230951 311.36612155 -0.12510684 336.16436964 -0.11804825 C349.29288187 -0.11455287 362.42133162 -0.11680922 375.54983425 -0.13429928 C386.72529 -0.14900269 397.90063927 -0.14968096 409.07609289 -0.13222837 C414.7784555 -0.1237009 420.48062773 -0.12161158 426.18298054 -0.13687992 C431.40330029 -0.15068465 436.62326578 -0.14601801 441.84356482 -0.12664068 C443.73176299 -0.12286744 445.61998925 -0.12584062 447.50816249 -0.13625234 C465.6569625 -0.22920961 465.6569625 -0.22920961 472.66935825 4.38031673 C474.27810825 5.43219173 474.27810825 5.43219173 475.91935825 6.50531673 C483.34525639 14.2687557 484.39991859 22.30012074 484.30427647 32.70197201 C484.31207642 34.01428091 484.31987637 35.3265898 484.32791269 36.67866564 C484.34867171 40.2968921 484.33852159 43.91445419 484.3229816 47.53268218 C484.31162669 51.44416244 484.32915122 55.35553178 484.3428812 59.26698971 C484.36507419 66.91989939 484.36033007 74.57256341 484.345818 82.22548258 C484.3345102 88.44705155 484.33300151 94.66855183 484.33843708 100.89012814 C484.33958633 102.22010138 484.33958633 102.22010138 484.34075879 103.57694277 C484.34235748 105.37834714 484.34397854 107.17975149 484.34562175 108.98115581 C484.35986771 125.85927606 484.34350465 142.73726035 484.31661992 159.61535829 C484.29428218 174.08672109 484.29816263 188.55788333 484.32121372 203.02924252 C484.34799212 219.84838076 484.35849452 236.66739995 484.3431524 253.48655653 C484.34155972 255.28120611 484.33998786 257.07585571 484.33843708 258.87050533 C484.33728001 260.19488893 484.33728001 260.19488893 484.33609957 261.54602775 C484.33178869 267.75764017 484.33905591 273.96917686 484.35083485 280.18077755 C484.36488107 287.75426052 484.36101544 295.32748449 484.33443113 302.90093791 C484.32132132 306.7625493 484.31609159 310.6237294 484.33267689 314.48533726 C484.35040624 318.67681817 484.3291891 322.86721718 484.30427647 327.05866146 C484.31543007 328.27170625 484.32658368 329.48475104 484.33807528 330.73455477 C484.24203588 339.07188801 482.69210195 346.00116227 476.9140259 352.29116964 C470.49333803 358.34310534 463.97595089 359.83127712 455.42936802 359.72089291 C454.081842 359.72155003 454.081842 359.72155003 452.70709324 359.72222042 C449.75809059 359.72014188 446.809667 359.69685506 443.8607645 359.67328548 C441.80810958 359.66768621 439.75545063 359.66341767 437.70279026 359.66042233 C432.31541354 359.64899972 426.92828168 359.61955473 421.54100132 359.58631039 C416.03759669 359.55555377 410.53415228 359.54190505 405.03068638 359.52680111 C394.24346976 359.4946826 383.45643442 359.4435175 372.66935825 359.38031673 C372.46988087 360.20446575 372.27040348 361.02861477 372.06488132 361.877738 C371.79973225 362.95874279 371.53458317 364.03974758 371.26139927 365.15351009 C371.00004688 366.22515911 370.7386945 367.29680813 370.46942234 368.40093136 C367.54325028 379.29780122 360.47364265 387.55093817 352.66935825 395.38031673 C351.85338169 396.22078548 351.03740513 397.06125423 350.196702 397.92719173 C315.97030792 431.14848306 262.43291672 437.22491798 217.17150974 436.55771542 C177.59130039 435.75155938 130.79181037 424.74173319 101.89592075 395.59125423 C93.64686665 386.13502148 86.30361209 376.16204621 83.60417271 363.69696712 C83.42795887 362.88812572 83.25174503 362.07928432 83.07019138 361.24593258 C82.93791645 360.63027935 82.80564152 360.01462612 82.66935825 359.38031673 C81.53898136 359.39141979 80.40860447 359.40252285 79.24397373 359.41396236 C68.56325728 359.51555739 57.88263956 359.59038711 47.20154858 359.63937759 C41.71095779 359.66541141 36.22075877 359.70069594 30.73039341 359.757514 C25.42651517 359.81205532 20.12301247 359.84178397 14.81887531 359.85470295 C12.80075136 359.86390319 10.78264671 359.88186895 8.76468372 359.90896702 C-13.10792273 360.19085724 -13.10792273 360.19085724 -21.21110439 352.62441158 C-28.43956398 345.10785351 -28.76856938 337.39894076 -28.72505093 327.41942501 C-28.73114203 326.10967939 -28.73723313 324.79993376 -28.74350882 323.45049888 C-28.75988233 319.82565069 -28.75759574 316.20102036 -28.75213385 312.57614815 C-28.74946042 308.66258756 -28.76400135 304.74908463 -28.7762289 300.83554745 C-28.79727231 293.1722621 -28.80182437 285.50905242 -28.80004102 277.84574159 C-28.79873278 271.61553074 -28.8025407 265.38534348 -28.80996609 259.15513706 C-28.81206531 257.35969871 -28.81416291 255.56426037 -28.81625891 253.76882201 C-28.81730244 252.87514302 -28.81834596 251.98146403 -28.81942111 251.06070385 C-28.83831928 234.16260769 -28.83727466 217.26455496 -28.83045179 200.36645261 C-28.82487733 184.91535359 -28.84569836 169.46442043 -28.87881225 154.01336017 C-28.91256466 138.1409218 -28.92771561 122.26856286 -28.92309523 106.39608794 C-28.92085202 97.48784788 -28.92607191 88.57976108 -28.95098782 79.6715517 C-28.97202105 72.08703702 -28.975573 64.50275964 -28.95668823 56.91823515 C-28.94754253 53.05055478 -28.94635096 49.18331664 -28.96704388 45.31567097 C-28.98925626 41.11749074 -28.97250719 36.92034864 -28.95210171 32.72215939 C-28.96461956 31.50706824 -28.9771374 30.29197708 -28.99003458 29.04006499 C-28.90300577 20.68197397 -27.3349122 13.81303157 -21.6045537 7.46954268 C-15.49303758 1.58796178 -8.21419212 -0.07543574 0 0 Z M-8.57228565 20.13485527 C-11.34632847 25.25500647 -11.01866866 30.14018131 -10.96555996 35.87532711 C-10.97335991 37.15901241 -10.98115987 38.44269771 -10.98919618 39.76528257 C-11.01008099 43.32657982 -10.99974761 46.88720769 -10.98426509 50.44850743 C-10.97296204 54.28975069 -10.99040896 58.13087804 -11.0041647 61.97209835 C-11.0264123 69.49601097 -11.0215894 77.01967438 -11.00710149 84.54359681 C-10.99581604 90.65711837 -10.99427533 96.77057002 -10.99972057 102.88409901 C-11.00048674 103.75373009 -11.0012529 104.62336118 -11.00204229 105.51934473 C-11.00364089 107.28589215 -11.00526195 109.05243956 -11.00690524 110.81898694 C-11.02116698 127.38835441 -11.00476293 143.95758362 -10.97790341 160.52692842 C-10.95556029 174.7506694 -10.95944748 188.97420638 -10.98249722 203.19794369 C-11.00924096 219.70898548 -11.0197978 236.21990609 -11.0044359 252.73096651 C-11.00284312 254.49076106 -11.00127127 256.25055564 -10.99972057 258.01035023 C-10.9989492 258.87624306 -10.99817782 259.7421359 -10.99738307 260.63426792 C-10.99306207 266.7424425 -11.00036112 272.85054034 -11.01211834 278.95870304 C-11.0261259 286.39963062 -11.0223802 293.84029439 -10.99571462 301.28119165 C-10.98255328 305.07924442 -10.97746295 308.876857 -10.99396038 312.67490673 C-11.01155535 316.78775282 -10.99058068 320.8994828 -10.96555996 325.01229 C-10.97671357 326.2189858 -10.98786718 327.4256816 -10.99935877 328.66894394 C-11.07148555 334.91944487 -11.07148555 334.91944487 -8.03734016 340.12325478 C-4.25734561 341.8787837 -0.76808435 341.90737354 3.31511021 341.8344183 C4.17415455 341.8350024 5.03319889 341.83558651 5.91827488 341.83618832 C8.7484788 341.83340884 11.57762031 341.80232356 14.4076395 341.77094173 C16.37346922 341.76347886 18.33930639 341.75778614 20.30514622 341.75379086 C25.47235343 341.73853826 30.63910895 341.69925948 35.80613804 341.65497494 C41.08144617 341.61401427 46.35682747 341.59577813 51.63224888 341.57562923 C61.97815016 341.53276503 72.3237166 341.46451806 82.66935825 341.38031673 C82.87492249 340.82873614 83.08048674 340.27715555 83.2922802 339.7088604 C83.5621635 338.98651994 83.83204679 338.26417948 84.11010838 337.51994991 C84.37754762 336.80336932 84.64498686 336.08678873 84.92053032 335.34849358 C88.5005579 325.93895227 93.02616068 317.12873277 100.20060825 309.98187923 C101.89465406 308.49682661 101.89465406 308.49682661 101.66935825 306.38031673 C102.25588169 306.11605892 102.84240513 305.85180111 103.446702 305.57953548 C106.49457591 303.93507628 108.70989875 301.68950606 111.20743942 299.31288147 C113.66935825 297.38031673 113.66935825 297.38031673 116.46505547 296.38249779 C120.27925779 294.89778983 122.10770131 293.61464814 124.66935825 290.38031673 C126.9238414 282.14917016 126.05401362 273.06090751 125.91813755 264.616889 C125.91503432 261.93596331 125.91629251 259.25536992 125.9230051 256.57448483 C125.92876579 250.804723 125.89433565 245.03633223 125.83238888 239.26691532 C125.74288601 230.9256172 125.71433297 222.5849802 125.70052097 214.24325394 C125.67646188 200.7088947 125.60330242 187.17526585 125.49919224 173.64130306 C125.39818086 160.4964834 125.32033946 147.35186231 125.2736063 134.20673275 C125.27071634 133.39610902 125.26782638 132.58548528 125.26484885 131.7502972 C125.25049316 127.6835255 125.23659244 123.61675241 125.22291791 119.54997838 C125.10893347 85.8262282 124.9152338 52.10336208 124.66935825 18.38031673 C107.80587856 18.26350585 90.94252516 18.17533979 74.07873344 18.12125587 C66.24853394 18.09547605 58.41858584 18.06033016 50.58854771 18.00311947 C43.76372506 17.95327723 36.93908449 17.92102409 30.1140849 17.90987426 C26.50032016 17.90335673 22.88707627 17.88804452 19.27347851 17.85166645 C15.23894382 17.81138041 11.20531411 17.81036779 7.17057896 17.81268978 C5.97295933 17.7947134 4.7753397 17.77673702 3.54142857 17.7582159 C-1.16059577 17.78757734 -4.39900791 17.87607027 -8.57228565 20.13485527 Z M142.66935825 18.38031673 C142.66935825 104.84031673 142.66935825 191.30031673 142.66935825 280.38031673 C150.07147001 278.16003374 150.07147001 278.16003374 157.46623325 275.91547298 C206.11516308 261.29584085 260.50796791 261.02591025 308.25529575 279.49750423 C310.55401192 280.49480032 310.55401192 280.49480032 312.66935825 280.38031673 C312.66935825 193.92031673 312.66935825 107.46031673 312.66935825 18.38031673 C256.56935825 18.38031673 200.46935825 18.38031673 142.66935825 18.38031673 Z M330.66935825 18.38031673 C330.41758555 52.91218678 330.22375541 87.44384731 330.10763963 121.97643695 C330.09388184 126.05320372 330.0796443 130.12996868 330.06511021 134.20673275 C330.06222479 135.01834379 330.05933938 135.82995484 330.05636653 136.66616016 C330.00850034 149.80816056 329.92177009 162.94963172 329.8206775 176.09131814 C329.71781334 189.57575689 329.65671259 203.05991846 329.63438481 216.54473346 C329.61928999 224.86609486 329.57161941 233.18596047 329.48227712 241.50686138 C329.42413312 247.21273719 329.40655563 252.91783975 329.4208431 258.6239903 C329.42789134 261.91708489 329.411083 265.20701505 329.35809803 268.49976635 C328.47825283 281.70350916 328.47825283 281.70350916 333.08998775 293.42206287 C335.93131119 295.24973573 338.47748121 296.324491 341.66935825 297.38031673 C343.72679191 298.88071387 345.39070734 300.54339617 347.23185825 302.31781673 C349.99970143 305.40323028 349.99970143 305.40323028 353.66935825 306.38031673 C353.9220145 306.9487933 354.17467075 307.51726986 354.43498325 308.10297298 C355.82715576 310.67144314 357.50223279 312.6146086 359.41935825 314.81781673 C364.98626898 321.65774153 368.18984228 329.38401091 371.25212193 337.58490658 C371.65185467 338.65435009 371.65185467 338.65435009 372.05966282 339.74539852 C372.26086231 340.28492153 372.46206181 340.82444454 372.66935825 341.38031673 C384.05670966 341.47299635 395.44397133 341.54407154 406.83162308 341.58756542 C412.11938581 341.60844034 417.40689051 341.63675651 422.69450474 341.68207455 C427.79734744 341.72553529 432.89994194 341.74945456 438.00295544 341.75982571 C439.94983229 341.76721664 441.89669556 341.78164939 443.84346676 341.80323696 C446.57047857 341.83227395 449.29646477 341.83627261 452.0236063 341.8344183 C453.23093922 341.85598995 453.23093922 341.85598995 454.4626627 341.8779974 C457.77633994 341.85361587 460.3603938 341.52380796 463.37605667 340.12325478 C467.14412427 335.61640054 466.35686445 330.70172198 466.30427647 325.01229 C466.31207642 323.73016469 466.31987637 322.44803938 466.32791269 321.12706178 C466.34882395 317.56543628 466.3384521 314.00447891 466.3229816 310.44285071 C466.3116891 306.60293386 466.32912036 302.76313356 466.3428812 298.92323971 C466.3651414 291.39952294 466.36029995 283.87605523 466.345818 276.35232861 C466.33453581 270.23831498 466.33299043 264.12437127 466.33843708 258.01035023 C466.33958633 256.70613344 466.33958633 256.70613344 466.34075879 255.37556885 C466.34235739 253.60934562 466.34397845 251.84312241 466.34562175 250.07689922 C466.35988761 233.50559833 466.34347387 216.93443562 466.31661992 200.36315738 C466.2942843 186.13972264 466.29815701 171.91649193 466.32121372 157.69306087 C466.34796376 141.18348166 466.35851009 124.67402365 466.3431524 108.16442579 C466.34155963 106.40431688 466.33998778 104.64420795 466.33843708 102.88409901 C466.33728001 101.58502834 466.33728001 101.58502834 466.33609957 100.25971382 C466.33177988 94.15252157 466.33907499 88.0454061 466.35083485 81.93822575 C466.36484974 74.49620463 466.36108152 67.05444724 466.33443113 59.61245639 C466.32127849 55.81428674 466.3161646 52.01655698 466.33267689 48.21839046 C466.35029502 44.10365205 466.32927828 39.99002692 466.30427647 35.87532711 C466.31543007 34.67086203 466.32658368 33.46639695 466.33807528 32.22543293 C466.28250767 27.532095 466.16684777 24.29855113 463.91100216 20.13485527 C458.78927368 17.36272167 453.9007129 17.7266433 448.16813755 17.81268978 C446.89944324 17.81195965 445.63074894 17.81122952 444.32360935 17.81047726 C440.85258576 17.80904473 437.38242898 17.8384063 433.91160655 17.87334704 C430.28148898 17.9046387 426.65135075 17.90754347 423.02111912 17.91347408 C416.15039666 17.9290044 409.28007277 17.97002143 402.40952569 18.02022153 C394.58615671 18.07614063 386.76276853 18.10360787 378.9392494 18.12869871 C362.84905249 18.18093838 346.75925626 18.26886434 330.66935825 18.38031673 Z M185.66935825 286.38031673 C184.85531528 286.55192318 184.04127232 286.72352962 183.20256138 286.90033627 C156.15420772 292.69863277 124.31273335 303.67026498 107.66935825 327.38031673 C101.32956006 338.38787843 98.23609303 349.06189295 101.540452 361.71625423 C104.19116842 368.4777538 107.83444884 373.99620869 112.66935825 379.38031673 C113.63808872 380.48826595 113.63808872 380.48826595 114.6263895 381.61859798 C138.81874419 407.60630366 181.91329446 417.25332149 215.97404575 418.50141048 C256.62592374 419.5942029 305.11932485 413.94881778 336.66935825 385.38031673 C337.46084263 384.6700433 338.252327 383.95976986 339.06779575 383.22797298 C344.41915657 378.16995919 348.31884838 372.93099309 351.66935825 366.38031673 C352.00967075 365.75898861 352.34998325 365.13766048 352.70060825 364.49750423 C356.46698799 356.44163646 355.84449116 345.91728401 353.16935825 337.63031673 C344.02489311 316.0800737 322.30119179 303.95732066 301.66935825 295.38031673 C293.20509553 292.04728624 284.57372835 289.76173661 275.73185825 287.69281673 C274.87503452 287.49019222 274.01821079 287.28756771 273.13542271 287.07880306 C258.10191468 283.71886658 243.32190605 283.00522179 227.98185825 283.06781673 C227.05459934 283.06963955 226.12734043 283.07146236 225.17198277 283.07334042 C211.79979596 283.11762109 198.77048851 283.46357944 185.66935825 286.38031673 Z " fill="#000000" transform="translate(28.330641746520996,37.619683265686035)"/>
<path d="M0 0 C4.73174538 3.37763327 7.36057463 6.71539235 9.8671875 11.98046875 C10.19163849 12.63453201 10.51608948 13.28859528 10.85037231 13.96247864 C11.52728259 15.33332278 12.19753412 16.70747364 12.86132812 18.0847168 C13.88031294 20.19852128 14.9186651 22.30189155 15.9609375 24.40429688 C16.61831869 25.74163204 17.27460861 27.07950432 17.9296875 28.41796875 C18.39361404 29.36327705 18.39361404 29.36327705 18.86691284 30.3276825 C21 34.76425451 21 34.76425451 21 37 C22.06734375 37.10957031 23.1346875 37.21914062 24.234375 37.33203125 C32.7780931 38.23070669 41.30487761 39.24293658 49.8125 40.4375 C50.65329102 40.54747314 51.49408203 40.65744629 52.36035156 40.77075195 C57.54800776 41.52513852 61.9647887 42.40973107 65.375 46.75 C66.31741977 50.14271115 66.26565755 52.7509178 65 56 C62.28991271 59.4900562 59.14141055 62.4662298 55.9375 65.5 C55.10283203 66.31597656 54.26816406 67.13195312 53.40820312 67.97265625 C46.6747598 74.51191609 46.6747598 74.51191609 43.55908203 76.765625 C41.33006879 78.3962552 39.61423824 79.75624902 38 82 C37.46624361 85.8421323 38.18908419 89.23615019 39 93 C39.32643756 94.95275538 39.65064871 96.90588423 39.97265625 98.859375 C40.5139321 101.82359839 41.06908481 104.78495187 41.62695312 107.74609375 C44.05357752 121.06141736 44.05357752 121.06141736 41.4375 125.875 C38.13893727 128.75067007 36.38528525 128.9053226 32 129 C28.44268248 127.85291156 25.19549965 126.20331279 21.875 124.5 C20.94937256 124.0452832 20.02374512 123.59056641 19.07006836 123.12207031 C12.78321604 120.0068695 6.66936336 116.66061529 0.69140625 112.984375 C-2.94801115 111.65326733 -4.42781294 112.5998694 -8 114 C-10.10313799 115.03228419 -12.18454401 116.10963661 -14.24609375 117.22265625 C-15.42495058 117.84994707 -16.60399278 118.47688961 -17.78320312 119.10351562 C-19.61311897 120.08239913 -21.44113395 121.06446861 -23.26586914 122.05297852 C-25.04606471 123.01482554 -26.83294054 123.96320512 -28.62109375 124.91015625 C-30.20555298 125.76299194 -30.20555298 125.76299194 -31.82202148 126.63305664 C-35.29273332 128.12591333 -38.23747218 128.73735465 -42 129 C-45.57387602 127.41161066 -46.81089572 126.28365642 -49 123 C-49.45047847 113.91535088 -47.11657513 104.5531596 -45.37255859 95.69213867 C-44.87697327 93.13312867 -44.43209065 90.57034373 -44 88 C-43.69642578 86.42798828 -43.69642578 86.42798828 -43.38671875 84.82421875 C-44.43880311 79.97926975 -48.24825228 77.41847661 -51.875 74.25 C-53.43550835 72.83009996 -54.99540604 71.4095285 -56.5546875 69.98828125 C-58.03600809 68.6583525 -59.51774302 67.32888503 -61 66 C-63.02597295 64.16902555 -65.01863583 62.31777416 -67 60.4375 C-68.1446875 59.38369141 -68.1446875 59.38369141 -69.3125 58.30859375 C-71.56090046 55.23265701 -71.80523209 52.76551289 -72 49 C-70.82431374 46.2154799 -69.91602965 44.59251559 -67.3671875 42.94384766 C-64.09859416 41.64059045 -60.77563364 41.19370084 -57.3125 40.7109375 C-56.57298096 40.60278717 -55.83346191 40.49463684 -55.0715332 40.38320923 C-53.51202617 40.15651134 -51.95203221 39.93314126 -50.39160156 39.71289062 C-48.00731073 39.37603288 -45.62471779 39.02875818 -43.2421875 38.6796875 C-41.72404679 38.46032442 -40.20582025 38.2415544 -38.6875 38.0234375 C-37.62172729 37.86879532 -37.62172729 37.86879532 -36.53442383 37.71102905 C-33.30234303 37.25757221 -30.27425368 37 -27 37 C-26.72833008 36.13576416 -26.45666016 35.27152832 -26.17675781 34.38110352 C-24.18997904 28.67261819 -21.42229557 23.35084147 -18.75 17.9375 C-18.18925781 16.76638672 -17.62851563 15.59527344 -17.05078125 14.38867188 C-9.01483368 -1.87809035 -9.01483368 -1.87809035 0 0 Z M-4 30 C-4.28198242 30.59014893 -4.56396484 31.18029785 -4.85449219 31.78833008 C-6.14239567 34.46829796 -7.44597275 37.14034304 -8.75 39.8125 C-9.1934375 40.74126953 -9.636875 41.67003906 -10.09375 42.62695312 C-10.53203125 43.51962891 -10.9703125 44.41230469 -11.421875 45.33203125 C-12.01887207 46.56530151 -12.01887207 46.56530151 -12.62792969 47.82348633 C-14.79571561 51.26224282 -16.81090974 52.69385678 -20.74902344 53.70776367 C-21.77543945 53.85963135 -22.80185547 54.01149902 -23.859375 54.16796875 C-24.97441406 54.33876953 -26.08945313 54.50957031 -27.23828125 54.68554688 C-28.39714844 54.85119141 -29.55601562 55.01683594 -30.75 55.1875 C-32.51150391 55.45336914 -32.51150391 55.45336914 -34.30859375 55.72460938 C-37.20434508 56.16014921 -40.10126674 56.58485319 -43 57 C-40.17516644 60.49180815 -37.47860625 63.63856583 -34 66.5 C-30.52738133 69.50565669 -27.52297619 72.13669271 -25 76 C-24.622468 82.15511988 -25.46700008 87.94159505 -26.5 94 C-26.71462891 95.30517578 -26.71462891 95.30517578 -26.93359375 96.63671875 C-27.28338027 98.75875695 -27.6408865 100.87952028 -28 103 C-24.53294968 101.98091367 -21.39201936 100.74788848 -18.23046875 99.01953125 C-17.56853516 98.66052734 -16.90660156 98.30152344 -16.22460938 97.93164062 C-14.87052107 97.18773593 -13.523978 96.42992293 -12.18554688 95.65820312 C-6.88311486 92.82989718 -2.81221184 92.34995722 3 94 C6.12267751 95.31557092 9.01600946 96.91410048 11.9375 98.625 C13.42182884 99.47826688 14.90993834 100.32500198 16.40234375 101.1640625 C17.04679443 101.53998535 17.69124512 101.9159082 18.35522461 102.30322266 C18.89800049 102.53315918 19.44077637 102.7630957 20 103 C20.66 102.67 21.32 102.34 22 102 C21.7834375 100.7934375 21.566875 99.586875 21.34375 98.34375 C21.06214735 96.72922814 20.78091721 95.11464127 20.5 93.5 C20.35691406 92.70851562 20.21382812 91.91703125 20.06640625 91.1015625 C17.84543746 78.19879145 17.84543746 78.19879145 20.14453125 73.8203125 C20.69496094 73.26085937 21.24539063 72.70140625 21.8125 72.125 C22.43898438 71.47660156 23.06546875 70.82820313 23.7109375 70.16015625 C27.36601775 66.71090817 31.07025391 63.32703054 34.83984375 60.00390625 C35.55269531 59.34261719 36.26554687 58.68132812 37 58 C37 57.67 37 57.34 37 57 C36.26885986 56.90501221 35.53771973 56.81002441 34.78442383 56.7121582 C31.45711882 56.26737368 28.13521602 55.79031206 24.8125 55.3125 C23.66201172 55.16361328 22.51152344 55.01472656 21.32617188 54.86132812 C12.8943857 53.61489017 12.8943857 53.61489017 9 50.9375 C6.33117672 47.01766581 4.21759223 42.96724518 2.1875 38.6875 C1.78080078 37.85154297 1.37410156 37.01558594 0.95507812 36.15429688 C-0.03925669 34.10713696 -1.02390175 32.05590096 -2 30 C-2.66 30 -3.32 30 -4 30 Z " fill="#000000" transform="translate(259,132)"/>
<path d="M0 0 C4.75078497 4.13147166 8.42403946 9.21454506 12.25 14.1875 C12.88679688 15.00669922 13.52359375 15.82589844 14.1796875 16.66992188 C18.85925752 22.71851504 18.85925752 22.71851504 20 25 C23.28642488 23.90452504 23.73283201 23.37502214 25.671875 20.68359375 C26.1683252 20.00498291 26.66477539 19.32637207 27.17626953 18.62719727 C27.69560059 17.90459717 28.21493164 17.18199707 28.75 16.4375 C40.12178421 0.93910789 40.12178421 0.93910789 44 -1 C47.83191838 -1.42576871 49.52949683 -1.30321315 52.8125 0.8125 C56.50260319 4.50260319 56.13010753 7.8713218 56.14526367 12.87060547 C56.14862228 13.56526917 56.1519809 14.25993286 56.15544128 14.97564697 C56.16494261 17.27284533 56.16689403 19.56997072 56.16796875 21.8671875 C56.17118208 23.46517975 56.17454621 25.0631717 56.17805481 26.66116333 C56.18404415 30.01190879 56.18589493 33.36262847 56.18530273 36.71337891 C56.18520116 41.00294651 56.19884902 45.29234841 56.21607494 49.58187675 C56.22720454 52.88303382 56.22922164 56.18415096 56.22869301 59.48532486 C56.22987184 61.0665354 56.23428822 62.64774701 56.24202538 64.22893906 C56.25184399 66.44294518 56.2489399 68.65659334 56.24291992 70.87060547 C56.24434494 72.12952606 56.24576996 73.38844666 56.24723816 74.68551636 C56.00372607 77.95004823 55.54497401 80.12779501 54 83 C50.83181244 85.11212504 48.86780748 85.33156464 45.1328125 85.55859375 C41.5936867 84.63167985 40.23676695 82.86079661 38 80 C37.25587408 76.70511184 37.27849135 73.47303061 37.29296875 70.10546875 C37.27784744 69.15811356 37.26272614 68.21075836 37.24714661 67.23469543 C37.20427253 64.21872144 37.1954318 61.20374837 37.1875 58.1875 C37.1643555 56.13864527 37.13899026 54.08981434 37.11132812 52.04101562 C37.04847841 47.02725528 37.01614089 42.0141195 37 37 C36.39671875 37.84304688 35.7934375 38.68609375 35.171875 39.5546875 C34.36501567 40.66177356 33.55769992 41.76852707 32.75 42.875 C32.35425781 43.43058594 31.95851563 43.98617187 31.55078125 44.55859375 C28.44934097 48.77858627 26.29899455 50.59128986 21.1875 51.5 C16.00640821 50.68727972 12.78747155 47.42881862 9.72962952 43.27381897 C9.06500954 42.33402443 9.06500954 42.33402443 8.38696289 41.37524414 C7.93922012 40.74356827 7.49147736 40.1118924 7.03016663 39.46107483 C6.69021164 38.97892014 6.35025665 38.49676544 6 38 C5.98018066 39.1552417 5.96036133 40.3104834 5.93994141 41.50073242 C5.86373059 45.79668561 5.77503711 50.09230692 5.68261719 54.38793945 C5.64439134 56.24529456 5.60952737 58.10272208 5.578125 59.96020508 C5.53233539 62.63388912 5.47436421 65.30707742 5.4140625 67.98046875 C5.39673569 69.2213752 5.39673569 69.2213752 5.37905884 70.48735046 C5.24978069 75.56507233 4.80903598 79.60368278 1.65234375 83.78515625 C-0.47737187 85.35097553 -1.81048979 85.43306997 -4.4375 85.4375 C-5.19933594 85.45683594 -5.96117187 85.47617187 -6.74609375 85.49609375 C-9.94873518 84.79117961 -10.99329333 83.58352962 -13 81 C-13.39500944 78.37353375 -13.54795913 76.16506132 -13.51757812 73.54101562 C-13.5245874 72.79583176 -13.53159668 72.05064789 -13.53881836 71.28288269 C-13.55640042 68.82362424 -13.54477574 66.36551982 -13.53125 63.90625 C-13.53394488 62.19518819 -13.53782726 60.48412786 -13.54284668 58.77307129 C-13.54874198 55.18857225 -13.54017799 51.60447216 -13.52148438 48.02001953 C-13.49869451 43.42633561 -13.51181746 38.83358646 -13.53577423 34.23993683 C-13.55023152 30.70714276 -13.54562661 27.17457016 -13.53526306 23.64176941 C-13.53259557 21.94809356 -13.53586635 20.25439757 -13.54518127 18.56074524 C-13.55534612 16.19295024 -13.53984879 13.82666683 -13.51757812 11.45898438 C-13.52567505 10.75964279 -13.53377197 10.06030121 -13.54211426 9.33976746 C-13.48330552 5.9632271 -13.21939767 4.27649021 -11.09265137 1.59631348 C-7.10057286 -1.44891843 -4.90084912 -1.16291335 0 0 Z " fill="#000000" transform="translate(269,346)"/>
<path d="M0 0 C6.05014397 4.27937012 9.14415975 9.89891066 11 17 C11.58116705 21.28886572 11.64501481 25.38050605 9 29 C5.3054728 31.46301813 2.28685431 31.78857985 -2 31 C-6.62081082 27.81677477 -7.85356607 24.22157373 -9.12890625 18.98828125 C-9.84943553 16.88198074 -9.84943553 16.88198074 -11.75 15.75 C-17.03389768 13.98870077 -22.99247551 14.19699021 -28.125 16.25 C-31.14149059 19.06539122 -30.98240833 21.51224602 -31.12939453 25.58764648 C-31.13597169 27.01544755 -31.13677577 28.44328304 -31.1328125 29.87109375 C-31.13376923 30.63043716 -31.13472595 31.38978058 -31.13571167 32.1721344 C-31.13639085 33.77499474 -31.13455483 35.37785787 -31.13037109 36.98071289 C-31.12502655 39.42535633 -31.13032111 41.86981543 -31.13671875 44.31445312 C-31.13605778 45.8750004 -31.13477622 47.43554757 -31.1328125 48.99609375 C-31.13483673 49.72332138 -31.13686096 50.45054901 -31.13894653 51.19981384 C-31.12186434 54.92517891 -30.89067278 58.37760637 -30 62 C-26.45305244 63.18231585 -23.19322247 63.22186116 -19.5 63.25 C-18.82324219 63.270625 -18.14648438 63.29125 -17.44921875 63.3125 C-13.57395441 63.34419072 -13.57395441 63.34419072 -10.125 61.765625 C-8.81776734 59.71399597 -8.15567111 57.84168255 -7.5 55.5 C-6.56872433 52.17401547 -5.72296682 50.1918202 -3 48 C0.74351039 46.83535232 2.54114296 46.8323407 6.25 48.1875 C9.12526254 50.0825594 10.09347044 50.7364936 11 54 C11.88419033 61.36825273 9.07943318 67.65805382 5.25 73.8125 C-2.06001053 80.91945468 -8.82743893 82.19854502 -18.6875 82.25 C-19.65623047 82.270625 -20.62496094 82.29125 -21.62304688 82.3125 C-28.96492091 82.35221264 -34.37374087 81.27695341 -40.6875 77.3125 C-47.75268128 70.24731872 -50.18212255 62.04923565 -50.30354309 52.22584534 C-50.30263168 51.42041794 -50.30172028 50.61499054 -50.30078125 49.78515625 C-50.30506638 48.9299791 -50.3093515 48.07480194 -50.31376648 47.19371033 C-50.31947534 45.39615763 -50.32003565 43.59858186 -50.31567383 41.80102539 C-50.31251254 39.07332427 -50.33602054 36.34670822 -50.36132812 33.61914062 C-50.36360158 31.86198052 -50.3643044 30.10481753 -50.36328125 28.34765625 C-50.372491 27.54425308 -50.38170074 26.74084991 -50.39118958 25.9131012 C-50.32588619 17.79494559 -48.21740834 10.34549663 -43 4 C-31.83810697 -6.16268426 -13.17352065 -7.53731148 0 0 Z " fill="#000000" transform="translate(237,349)"/>
</svg>
