<?xml version="1.0" encoding="UTF-8"?>
<svg version="1.1" xmlns="http://www.w3.org/2000/svg" width="512" height="512">
<path d="M0 0 C16.04954885 12.94104456 26.09877452 29.87384729 28.86865234 50.29052734 C29.23552156 53.82627151 29.36576858 57.34700093 29.46240234 60.89990234 C29.49317871 62.00076172 29.52395508 63.10162109 29.55566406 64.23583984 C29.60715046 66.43600393 29.64070806 68.63667787 29.65429688 70.83740234 C29.77831836 76.71693945 30.34816017 80.92623854 33.32421875 86.03320312 C34.52032237 88.19118641 34.95489908 90.28518873 35.25927734 92.72021484 C35.85353516 92.27291016 36.44779297 91.82560547 37.06005859 91.36474609 C53.70790889 79.22191283 72.84165409 74.37016063 93.29418945 77.48974609 C111.70844793 80.71806161 128.64055834 90.8426233 139.70849609 105.98193359 C151.16900654 122.48871655 153.57012641 139.53200957 153.64990234 159.19677734 C153.78909838 166.62056604 154.50382566 171.32795666 158.25927734 177.72021484 C160.08322891 184.9562194 159.57838629 192.01712836 156.25927734 198.72021484 C151.90509998 205.20559377 146.84744513 209.57996239 139.25927734 211.72021484 C138.26927734 211.72021484 137.27927734 211.72021484 136.25927734 211.72021484 C136.11232422 212.45884766 135.96537109 213.19748047 135.81396484 213.95849609 C133.14092857 226.04860843 128.55368869 234.21275469 119.23583984 242.43115234 C116.13808202 247.58591931 116.89865942 252.85178084 117.25927734 258.72021484 C118.39018799 259.14729736 119.52109863 259.57437988 120.6862793 260.0144043 C133.55811596 264.87940184 146.41693417 269.77785944 159.25927734 274.72021484 C160.02673279 275.01549072 160.79418823 275.3107666 161.5848999 275.61499023 C165.98669662 277.31205044 170.37622078 279.03766472 174.75927734 280.78271484 C175.79866455 281.18594971 176.83805176 281.58918457 177.90893555 282.00463867 C192.65101768 287.95452786 203.16571134 297.38860018 210.06787109 311.76318359 C212.93930139 318.88997943 213.57784746 324.90196003 213.59521484 332.54443359 C213.60187164 333.56825638 213.60852844 334.59207916 213.61538696 335.64692688 C213.62547263 337.80097668 213.63020525 339.95505747 213.62988281 342.10913086 C213.63427738 345.40774342 213.67069937 348.70503985 213.70849609 352.00341797 C213.71436077 354.10041861 213.7183325 356.19742559 213.72021484 358.29443359 C213.73458588 359.2798967 213.74895691 360.2653598 213.76376343 361.28068542 C213.71835565 368.05562252 213.71835565 368.05562252 211.44921875 371.34057617 C208.21381745 373.37884292 205.99829551 373.2543603 202.25927734 372.72021484 C200.07421875 371.17919922 200.07421875 371.17919922 198.25927734 368.72021484 C197.86382578 365.97571339 197.70123723 363.61909042 197.72021484 360.87646484 C197.70252548 359.72905823 197.70252548 359.72905823 197.68447876 358.55847168 C197.64924655 356.1121808 197.64006565 353.66673823 197.63427734 351.22021484 C197.63080362 327.24009786 197.63080362 327.24009786 186.43115234 306.67724609 C180.73980558 301.54889227 174.05392869 298.59730571 166.94677734 295.95068359 C166.09245117 295.62481766 165.238125 295.29895172 164.35791016 294.96321106 C161.66131903 293.93671978 158.96046266 292.92204636 156.25927734 291.90771484 C154.41653313 291.20862558 152.57408213 290.50876289 150.73193359 289.80810547 C146.24438577 288.10318882 141.75297686 286.40884698 137.25927734 284.72021484 C136.86530762 285.98841064 136.86530762 285.98841064 136.46337891 287.28222656 C135.19939381 290.89119616 133.66758996 294.29743074 131.99365234 297.72802734 C131.67777161 298.37593231 131.36189087 299.02383728 131.03643799 299.69137573 C130.36975417 301.0522467 129.70066754 302.41194293 129.02929688 303.77050781 C128.34925099 305.15371268 127.67638216 306.54046928 127.01074219 307.93066406 C126.04159041 309.95455132 125.05147632 311.96690605 124.05615234 313.97802734 C123.76528748 314.59477325 123.47442261 315.21151917 123.17474365 315.84695435 C120.97153513 320.20943426 118.50722622 322.36878667 114.25927734 324.72021484 C110.28983207 325.49008946 106.09622019 324.99919579 102.25927734 323.72021484 C101.07698409 329.57740797 101.58517123 334.36966461 102.64624023 340.21630859 C102.80536392 341.1424295 102.96448761 342.06855042 103.12843323 343.0227356 C103.47358925 345.02435454 103.82355012 347.0251497 104.17781258 349.025177 C104.73820411 352.19316314 105.28438145 355.36330846 105.82676697 358.53442383 C107.37104742 367.54676732 108.942416 376.55434395 110.51928711 385.56103516 C111.48422241 391.07823188 112.43407789 396.59786219 113.3751812 402.11917114 C113.73641861 404.21891445 114.10365343 406.31763527 114.47703743 408.41525269 C114.99929015 411.34931082 115.50246053 414.28607437 116.00170898 417.22412109 C116.1600824 418.08562775 116.31845581 418.9471344 116.48162842 419.83474731 C117.54624101 426.28096713 117.0658377 431.07248591 113.27099609 436.63427734 C112.50400391 437.52888672 111.73701172 438.42349609 110.94677734 439.34521484 C110.18751953 440.24498047 109.42826172 441.14474609 108.64599609 442.07177734 C106.27323022 444.70473194 103.76551634 447.21397585 101.25927734 449.72021484 C118.41927734 450.05021484 135.57927734 450.38021484 153.25927734 450.72021484 C153.22447266 442.68162109 153.18966797 434.64302734 153.15380859 426.36083984 C153.13848397 421.2748951 153.12404236 416.18897874 153.11279297 411.10302734 C153.0948443 403.02646941 153.07403471 394.95001255 153.03295898 386.87353516 C152.99986689 380.36373029 152.98243476 373.85399361 152.97464561 367.34410858 C152.96909315 364.85774771 152.95825087 362.37139296 152.94208717 359.88507843 C152.92037976 356.40844204 152.91730768 352.93225942 152.91870117 349.45556641 C152.90252243 347.90621399 152.90252243 347.90621399 152.88601685 346.32556152 C152.89014084 345.37767761 152.89426483 344.4297937 152.89851379 343.45318604 C152.89574841 342.63094669 152.89298304 341.80870735 152.89013386 340.96155167 C153.35623182 338.13153419 154.28057879 336.77676223 156.25927734 334.72021484 C159.66548551 333.85318004 162.15525125 333.42182941 165.57177734 334.34521484 C167.97999053 336.30746263 168.3680764 337.69896971 169.25927734 340.72021484 C169.54507321 344.27588297 169.51169588 347.82015533 169.48632812 351.38549805 C169.48662018 352.45912094 169.48691223 353.53274384 169.48721313 354.63890076 C169.48582124 358.18301511 169.47026637 361.72691852 169.45458984 365.27099609 C169.45085922 367.73007594 169.44801248 370.18915727 169.4460144 372.64823914 C169.43838185 379.11732087 169.41873647 385.58631266 169.39660645 392.05535889 C169.37613997 398.65782454 169.36701096 405.26030473 169.35693359 411.86279297 C169.33549032 424.81531278 169.30031113 437.76774226 169.25927734 450.72021484 C178.49927734 450.39021484 187.73927734 450.06021484 197.25927734 449.72021484 C197.29666016 445.85689453 197.33404297 441.99357422 197.37255859 438.01318359 C197.41874243 434.279971 197.46998765 430.54685992 197.52172852 426.8137207 C197.55502478 424.21515041 197.58304188 421.61650698 197.60571289 419.01782227 C197.63917186 415.28679165 197.69148464 411.55643424 197.74755859 407.82568359 C197.75394852 406.65998337 197.76033844 405.49428314 197.766922 404.29325867 C197.78671616 403.21236465 197.80651031 402.13147064 197.8269043 401.01782227 C197.83800735 400.0651799 197.84911041 399.11253754 197.86054993 398.13102722 C198.32889709 395.29927527 198.99267366 394.42522828 201.25927734 392.72021484 C204.30583301 391.67797211 205.84722388 391.59564054 208.94677734 392.53271484 C211.25927734 393.72021484 211.25927734 393.72021484 213.25927734 395.72021484 C213.52670288 398.19145203 213.52670288 398.19145203 213.54980469 401.34399414 C213.56256439 402.52249435 213.5753241 403.70099457 213.58847046 404.91520691 C213.59180893 406.83542412 213.59180893 406.83542412 213.59521484 408.79443359 C213.60187164 410.10676468 213.60852844 411.41909576 213.61538696 412.77119446 C213.62737597 415.554609 213.63106649 418.33789934 213.62988281 421.12133789 C213.62968031 424.67450204 213.65690184 428.22686009 213.69142723 431.77983379 C213.71913854 435.18054467 213.71784857 438.5811114 213.72021484 441.98193359 C213.73458588 443.25195724 213.74895691 444.5219809 213.76376343 445.83049011 C213.72878198 452.61989629 213.69162177 457.39969436 209.25927734 462.72021484 C203.53113007 466.78757929 199.22227886 467.29102407 192.30184937 467.20796204 C191.3152601 467.2120853 190.32867084 467.21620857 189.31218493 467.22045678 C186.01480468 467.22936849 182.71822346 467.20974501 179.42089844 467.19018555 C177.05362349 467.19069444 174.68634837 467.19295079 172.31907654 467.19682312 C165.89569305 467.20224212 159.47259802 467.1828318 153.04926634 467.15872216 C147.01031459 467.1377495 140.97134828 467.13831254 134.93236668 467.13669374 C122.96804221 467.13282007 111.0038261 467.11037119 99.03955078 467.0769043 C87.43244982 467.04446306 75.82540605 467.023222 64.21826172 467.01538086 C63.50306186 467.01489537 62.78786201 467.01440988 62.05098943 467.01390968 C59.17610438 467.0119809 56.30121931 467.01006878 53.42633422 467.00819357 C42.35978544 467.00065944 31.29324604 466.98503354 20.22670876 466.96769697 C16.88468539 466.96246337 13.5426622 466.95753019 10.20063734 466.95333505 C2.58023858 466.94355002 -5.04011788 466.92906384 -12.66049004 466.90649605 C-14.97079904 466.90037205 -17.28111317 466.89592274 -19.59142876 466.89325333 C-22.74007313 466.88927354 -25.88863846 466.87915696 -29.03726196 466.86738586 C-29.95564146 466.86757023 -30.87402095 466.86775459 -31.82023013 466.86794454 C-35.96515082 466.84608132 -39.67213525 466.55757915 -43.74072266 465.72021484 C-44.73072266 466.05021484 -45.72072266 466.38021484 -46.74072266 466.72021484 C-48.10946877 466.8125242 -49.48224813 466.85106166 -50.85409927 466.85443592 C-52.11583115 466.86112269 -52.11583115 466.86112269 -53.40305257 466.86794454 C-54.32725775 466.86776018 -55.25146292 466.86757581 -56.20367432 466.86738586 C-57.18543475 466.87106255 -58.16719518 466.87473924 -59.17870593 466.87852734 C-62.48356309 466.88958088 -65.78838883 466.89341085 -69.09326172 466.8972168 C-71.45670166 466.90348014 -73.82014062 466.91012682 -76.18357849 466.91712952 C-83.28660832 466.93636787 -90.38963874 466.94695902 -97.49268734 466.95585731 C-100.83800863 466.96024116 -104.18332834 466.9656077 -107.52864838 466.97084618 C-118.64973751 466.98785739 -129.77082566 467.00235163 -140.89192581 467.00959492 C-143.77755993 467.01150479 -146.66319404 467.01342513 -149.54882812 467.01538086 C-150.62463635 467.01610647 -150.62463635 467.01610647 -151.72217807 467.01684674 C-163.34088899 467.02514737 -174.95949697 467.05048527 -186.57816294 467.08296154 C-198.5078347 467.11603518 -210.43745415 467.13404393 -222.367172 467.13723916 C-229.06488315 467.13940393 -235.76242124 467.14859076 -242.46009064 467.17370033 C-248.76050703 467.19693884 -255.06065305 467.20123111 -261.36110115 467.19093895 C-263.67380483 467.19044247 -265.98652164 467.19679576 -268.2991848 467.210495 C-271.45639424 467.22815088 -274.61262677 467.22113816 -277.76983643 467.20796204 C-278.68511872 467.21893128 -279.60040101 467.22990053 -280.54341912 467.24120218 C-286.45034369 467.18168181 -289.9005487 466.16346985 -294.74072266 462.72021484 C-299.73543291 456.6076647 -299.30951974 450.46286421 -299.25830078 442.81518555 C-299.26531006 441.52646042 -299.27231934 440.23773529 -299.27954102 438.90995789 C-299.29771171 435.38886339 -299.29073075 431.86823997 -299.27802467 428.34713769 C-299.26785352 424.64785059 -299.27730272 420.94860215 -299.28356934 417.24931335 C-299.29083839 411.03291642 -299.28128245 404.8167098 -299.26220703 398.6003418 C-299.24048746 391.44016927 -299.24745653 384.28045328 -299.26951265 377.12029201 C-299.28774539 370.9518221 -299.29018535 364.78348861 -299.27975798 358.61500043 C-299.27355985 354.94034851 -299.27258373 351.26591007 -299.28590393 347.59127235 C-299.29975049 343.48465218 -299.28048535 339.37880049 -299.25830078 335.2722168 C-299.26639771 334.07335846 -299.27449463 332.87450012 -299.28283691 331.63931274 C-299.13878611 317.15828418 -293.86935823 305.0822533 -284.05322266 294.47021484 C-272.66048229 284.06111152 -257.65671635 279.52648974 -243.49072266 274.15771484 C-241.31978936 273.32597258 -239.14921366 272.49329632 -236.97900391 271.65966797 C-225.58716449 267.29115141 -214.17244027 262.98323096 -202.74072266 258.72021484 C-202.2133027 254.53098166 -201.9335566 250.90053783 -202.74072266 246.72021484 C-204.91168525 243.93458212 -207.34428405 241.8163631 -209.99072266 239.48193359 C-217.18653176 232.25546053 -221.78910098 221.8311952 -222.74072266 211.72021484 C-223.29759766 211.64544922 -223.85447266 211.57068359 -224.42822266 211.49365234 C-230.72580087 210.40859664 -235.25658792 208.34112058 -239.74072266 203.72021484 C-244.8966313 196.33818187 -246.51775274 189.65606084 -245.74072266 180.72021484 C-244.68881475 176.6560252 -243.07713991 173.22484073 -240.74072266 169.72021484 C-240.42021866 166.86369927 -240.42021866 166.86369927 -240.43212891 163.61083984 C-240.40948975 162.38840576 -240.38685059 161.16597168 -240.36352539 159.90649414 C-240.34362549 158.60752197 -240.32372559 157.3085498 -240.30322266 155.97021484 C-239.77717499 134.92734517 -236.28865103 116.76964959 -221.74072266 100.72021484 C-221.19931641 100.11048828 -220.65791016 99.50076172 -220.10009766 98.87255859 C-211.73625385 89.98108912 -198.60118177 80.65289475 -186.17822266 79.34521484 C-182.74072266 79.72021484 -182.74072266 79.72021484 -180.36572266 81.40771484 C-178.52150459 84.03217902 -177.81903243 85.50951432 -177.74072266 88.72021484 C-179.9894837 94.42209431 -184.53009883 95.94200454 -189.74072266 98.40771484 C-205.71830912 106.40478974 -214.93303411 116.51335501 -220.76025391 133.48583984 C-222.53169619 139.32948211 -222.86930803 144.46811102 -222.80322266 150.53271484 C-222.79871094 151.32097656 -222.79419922 152.10923828 -222.78955078 152.92138672 C-222.77783578 154.85436245 -222.75990264 156.78729877 -222.74072266 158.72021484 C-222.24572266 157.93646484 -221.75072266 157.15271484 -221.24072266 156.34521484 C-217.06157452 151.9571093 -211.99559014 151.69522724 -206.21728516 151.44677734 C-204.60015266 151.41039062 -202.98295923 151.37663763 -201.36572266 151.34521484 C-182.04327064 150.63302345 -164.51077442 145.17347443 -147.92553711 135.26025391 C-143.68659388 132.83190861 -140.5919726 132.12503835 -135.74072266 132.72021484 C-131.06787298 134.76098098 -127.75867061 138.43722512 -124.24072266 142.03271484 C-123.68513672 142.58894531 -123.12955078 143.14517578 -122.55712891 143.71826172 C-119.07687485 147.23536553 -115.85700442 150.87718827 -112.74072266 154.72021484 C-111.97099182 139.2614539 -114.74556881 125.01966599 -125.30322266 112.93115234 C-126.42779777 111.83852538 -127.5805252 110.7749398 -128.74072266 109.72021484 C-128.74072266 109.06021484 -128.74072266 108.40021484 -128.74072266 107.72021484 C-129.29888672 107.45853516 -129.85705078 107.19685547 -130.43212891 106.92724609 C-132.98888161 105.59046676 -135.29059516 104.02699304 -137.67822266 102.40771484 C-142.91351255 99.01394875 -148.19176098 96.85208775 -154.08837891 94.86083984 C-156.74072266 93.72021484 -156.74072266 93.72021484 -158.74072266 90.72021484 C-159.06347301 87.16996096 -159.14465785 84.6231288 -157.67822266 81.34521484 C-155.5338935 79.54674523 -153.8217809 78.74260796 -151.01806641 78.49365234 C-141.83808716 79.40692644 -133.33109033 84.82923849 -125.74072266 89.72021484 C-124.07694952 90.72502165 -122.41101089 91.72627572 -120.74072266 92.72021484 C-120.58603516 90.89490234 -120.58603516 90.89490234 -120.42822266 89.03271484 C-120.1909894 86.23336243 -119.81962175 84.83788684 -118.23193359 82.4699707 C-116.4679021 79.21714052 -116.3720993 77.16728242 -116.36962891 73.48583984 C-116.35536865 72.28016357 -116.3411084 71.0744873 -116.32641602 69.83227539 C-116.31876221 68.55779541 -116.3111084 67.28331543 -116.30322266 65.97021484 C-115.76892687 41.81974775 -110.44351545 22.79357501 -92.74072266 5.72021484 C-92.10779297 5.05634766 -91.47486328 4.39248047 -90.82275391 3.70849609 C-67.32439874 -19.37487709 -25.58370047 -18.8092227 0 0 Z M-84.74072266 20.72021484 C-85.31564453 21.28482422 -85.89056641 21.84943359 -86.48291016 22.43115234 C-97.92631148 34.58606048 -100.20977657 50.49563859 -99.84619141 66.45849609 C-99.81138672 67.53486328 -99.77658203 68.61123047 -99.74072266 69.72021484 C-99.01755859 69.08792969 -99.01755859 69.08792969 -98.27978516 68.44287109 C-97.64814453 67.89501953 -97.01650391 67.34716797 -96.36572266 66.78271484 C-95.42599609 65.96480469 -95.42599609 65.96480469 -94.46728516 65.13037109 C-91.65552815 62.83389083 -89.85374792 62.58649391 -86.29541016 62.50927734 C-64.86059329 61.89232441 -46.64519684 58.35292594 -27.86572266 47.84521484 C-17.79188492 42.3065296 -17.79188492 42.3065296 -11.85791016 42.98583984 C-7.49593814 44.49884859 -4.81943538 47.38400979 -1.74072266 50.72021484 C-0.79676775 51.68508655 0.14863855 52.64853969 1.09521484 53.61083984 C2.08981824 54.64498007 3.08201284 55.68144242 4.07177734 56.72021484 C4.540271 57.20586914 5.00876465 57.69152344 5.49145508 58.19189453 C8.83209642 61.81953255 10.5489816 65.17457831 12.25927734 69.72021484 C12.58927734 69.72021484 12.91927734 69.72021484 13.25927734 69.72021484 C13.93900066 51.74530929 11.06385291 35.35736423 -1.11572266 21.28271484 C-12.26811169 9.79123291 -24.71666772 2.91656657 -40.87231445 2.43676758 C-58.37056682 2.21016054 -72.39114587 8.19358319 -84.74072266 20.72021484 Z M-21.68945312 62.26049805 C-41.5648359 72.77065345 -61.4977167 76.39524735 -83.74072266 77.72021484 C-83.79068681 82.50332164 -83.82670522 87.2862718 -83.85058594 92.06958008 C-83.86055622 93.69200288 -83.87413735 95.31440814 -83.89160156 96.93676758 C-84.05149548 112.18782562 -83.66798089 126.40568641 -73.24072266 138.65771484 C-72.41572266 139.33833984 -71.59072266 140.01896484 -70.74072266 140.72021484 C-69.81259766 141.56583984 -68.88447266 142.41146484 -67.92822266 143.28271484 C-60.26610917 149.48259294 -50.78782092 152.30478691 -40.93212891 151.96630859 C-28.74796045 150.59803299 -19.98423644 145.75952852 -11.53369141 137.00537109 C-6.59876142 130.71575444 -3.7576561 123.00778636 -3.45263672 115.05029297 C-3.41720764 114.1283313 -3.38177856 113.20636963 -3.34527588 112.25646973 C-3.22014078 108.02798543 -3.13066068 103.79957451 -3.06103516 99.56982422 C-3.01444897 97.35051029 -2.94635239 95.13153573 -2.85595703 92.91357422 C-1.83608542 78.44531128 -1.83608542 78.44531128 -7.6317749 65.75720215 C-9.88094237 63.4530632 -12.07775566 61.54399884 -14.74072266 59.72021484 C-17.4817974 59.72021484 -19.31615843 61.00074118 -21.68945312 62.26049805 Z M-100.74072266 86.72021484 C-103.65125799 89.90361286 -105.63349559 92.32390498 -105.74072266 96.72021484 C-104.60727665 99.98765205 -104.60727665 99.98765205 -102.74072266 102.72021484 C-101.75072266 103.05021484 -100.76072266 103.38021484 -99.74072266 103.72021484 C-99.74072266 98.11021484 -99.74072266 92.50021484 -99.74072266 86.72021484 C-100.07072266 86.72021484 -100.40072266 86.72021484 -100.74072266 86.72021484 Z M12.25927734 86.72021484 C12.25927734 92.66021484 12.25927734 98.60021484 12.25927734 104.72021484 C17.1442326 102.39770058 17.1442326 102.39770058 18.25927734 99.72021484 C18.78236063 93.88559233 18.78236063 93.88559233 16.38427734 88.72021484 C14.50290308 86.49175994 14.50290308 86.49175994 12.25927734 86.72021484 Z M36.32568359 114.02880859 C25.91642291 128.01975037 23.80567035 142.68475226 24.25927734 159.72021484 C24.91927734 159.72021484 25.57927734 159.72021484 26.25927734 159.72021484 C27.12552734 158.54458984 27.12552734 158.54458984 28.00927734 157.34521484 C31.0527214 153.79453012 33.87249585 152.91334998 38.53417969 152.53613281 C41.21342566 152.44135183 43.89125706 152.39060422 46.57177734 152.34521484 C64.41746645 151.77121771 80.37996418 147.17994651 96.00927734 138.47021484 C101.54318972 135.41109558 105.84779479 133.41490615 112.25927734 133.72021484 C118.16606038 135.9144012 121.77256683 139.94505686 125.94677734 144.47021484 C126.61 145.16115234 127.27322266 145.85208984 127.95654297 146.56396484 C131.8454157 150.73089393 134.37561401 154.33025685 136.25927734 159.72021484 C136.58927734 159.72021484 136.91927734 159.72021484 137.25927734 159.72021484 C137.85704625 141.23365791 135.43058964 125.95017047 122.94677734 111.34521484 C111.96348116 99.89809703 97.59187737 93.00840206 81.69677734 92.34521484 C63.88188761 92.731015 47.80469666 100.32356269 36.32568359 114.02880859 Z M-100.74072266 120.72021484 C-100.46357422 121.58775391 -100.18642578 122.45529297 -99.90087891 123.34912109 C-96.57946372 134.86498781 -96.20944167 146.21787955 -96.15698242 158.11694336 C-96.14207764 159.4143042 -96.12717285 160.71166504 -96.11181641 162.04833984 C-96.11109131 163.21268555 -96.11036621 164.37703125 -96.10961914 165.57666016 C-95.70579001 169.01789373 -94.72705297 170.91853353 -92.74072266 173.72021484 C-91.17735092 173.26486385 -89.61506417 172.80578708 -88.05322266 172.34521484 C-87.18310547 172.08998047 -86.31298828 171.83474609 -85.41650391 171.57177734 C-82.79863813 170.73864634 -80.27780493 169.77161831 -77.74072266 168.72021484 C-76.69956768 160.9528865 -76.69956768 160.9528865 -79.05322266 153.87255859 C-80.25579946 152.95183573 -81.4860258 152.06647754 -82.73681641 151.21240234 C-90.52606005 145.41222482 -93.66435837 135.51147309 -96.74072266 126.72021484 C-97.85135204 122.9524675 -97.85135204 122.9524675 -100.74072266 120.72021484 Z M11.25927734 121.72021484 C10.58536652 123.69780468 9.99511645 125.70419362 9.44677734 127.72021484 C6.0833858 138.97652887 0.55058 146.42891218 -7.74072266 154.72021484 C-7.81344007 157.07335039 -7.82443133 159.42855153 -7.80322266 161.78271484 C-7.78259766 164.07208984 -7.76197266 166.36146484 -7.74072266 168.72021484 C-3.12072266 170.37021484 1.49927734 172.02021484 6.25927734 173.72021484 C8.4600326 170.41908195 8.52668575 169.30034026 8.60302734 165.45068359 C8.63122559 164.40348145 8.65942383 163.3562793 8.68847656 162.27734375 C8.71184082 161.16536621 8.73520508 160.05338867 8.75927734 158.90771484 C9.16717324 145.69527125 10.36998907 133.42522322 14.25927734 120.72021484 C13.03567055 120.64567924 13.03567055 120.64567924 11.25927734 121.72021484 Z M-140.74072266 149.72021484 C-141.61470703 150.22810547 -142.48869141 150.73599609 -143.38916016 151.25927734 C-163.68591262 162.74340839 -184.6268415 166.91185741 -207.74072266 167.72021484 C-207.81567418 172.91224114 -207.86969774 178.10394272 -207.90551758 183.29638672 C-207.92047233 185.05751034 -207.94084362 186.81859758 -207.96704102 188.57958984 C-208.18883001 203.88737918 -207.67325374 218.15909824 -196.63134766 229.97802734 C-192.11499434 234.19848165 -187.50735546 237.46710106 -181.74072266 239.72021484 C-180.83966797 240.07470703 -179.93861328 240.42919922 -179.01025391 240.79443359 C-169.22012354 243.56654936 -158.41280625 242.64001148 -149.32275391 238.20068359 C-138.02602885 231.72343882 -131.80824674 223.40882741 -128.20715332 210.86102295 C-127.71108736 208.58419573 -127.57222047 206.49921738 -127.51611328 204.17041016 C-127.49359497 203.27557922 -127.47107666 202.38074829 -127.44787598 201.45880127 C-127.37643646 197.37415691 -127.31937081 193.28968109 -127.28076172 189.20458984 C-127.25415486 187.05527462 -127.21322999 184.9060871 -127.15771484 182.75732422 C-127.07834071 179.64547559 -127.04541564 176.53605411 -127.02197266 173.42333984 C-126.97248474 171.99480682 -126.97248474 171.99480682 -126.92199707 170.53741455 C-126.94101151 164.14444846 -128.40285519 160.94118448 -132.89904785 156.38690186 C-135.45617638 154.07274036 -138.02090357 151.84300047 -140.74072266 149.72021484 Z M108.25927734 149.72021484 C107.26669922 150.23970703 106.27412109 150.75919922 105.25146484 151.29443359 C87.7687197 160.32422158 69.94794281 166.54103148 50.17724609 167.32958984 C49.31305054 167.36938965 48.44885498 167.40918945 47.55847168 167.45019531 C45.45899931 167.546055 43.35916731 167.63398586 41.25927734 167.72021484 C41.1596027 173.50019432 41.08743152 179.27966172 41.03955078 185.06030273 C41.01956817 187.02230558 40.99237251 188.98424989 40.95751953 190.94604492 C40.72554855 204.34919184 40.77926027 215.59019243 49.25927734 226.72021484 C50.09458984 227.95771484 50.09458984 227.95771484 50.94677734 229.22021484 C58.30466241 237.17468518 68.40047314 241.71907832 79.17871094 242.19311523 C91.19130632 242.34958063 100.52709891 239.07273334 109.25927734 230.72021484 C121.46787769 217.71382477 121.55469531 202.89883714 121.77416992 186.0390625 C121.80591396 184.15948964 121.85377607 182.28012007 121.91772461 180.40136719 C122.63315028 169.74976637 122.63315028 169.74976637 119.61425781 159.83349609 C117.60871893 157.82371518 115.61797041 156.28919272 113.25927734 154.72021484 C112.23529303 153.74478872 111.23101752 152.74769771 110.25927734 151.72021484 C109.26927734 150.73021484 109.26927734 150.73021484 108.25927734 149.72021484 Z M-61.74072266 164.72021484 C-62.20921665 167.47261708 -62.3666003 169.04284938 -61.74072266 171.72021484 C-60.07266987 174.0673383 -58.1833857 176.03308703 -56.17822266 178.09912109 C-52.83490013 181.69426439 -49.96647501 185.59800996 -47.06738281 189.5546875 C-46.00317584 190.97773031 -44.87685017 192.35390536 -43.74072266 193.72021484 C-43.08072266 193.72021484 -42.42072266 193.72021484 -41.74072266 193.72021484 C-39.93102391 191.61040022 -38.23144248 189.49367157 -36.55322266 187.28271484 C-35.56394686 185.99211447 -34.57436336 184.7017499 -33.58447266 183.41162109 C-33.10107422 182.77885254 -32.61767578 182.14608398 -32.11962891 181.49414062 C-30.93353685 179.96826512 -29.70068837 178.47894105 -28.45947266 176.99755859 C-27.83041016 176.24603516 -27.20134766 175.49451172 -26.55322266 174.72021484 C-25.72757812 173.76115234 -25.72757812 173.76115234 -24.88525391 172.78271484 C-23.35156147 170.01892779 -23.5421525 167.82673465 -23.74072266 164.72021484 C-24.62373047 164.86458984 -25.50673828 165.00896484 -26.41650391 165.15771484 C-38.79873233 167.07290377 -49.40798768 166.91618673 -61.74072266 164.72021484 Z M-111.74072266 176.72021484 C-111.74072266 182.66021484 -111.74072266 188.60021484 -111.74072266 194.72021484 C-106.59610235 192.37100622 -106.59610235 192.37100622 -105.74072266 188.72021484 C-105.2404106 185.30449632 -105.2404106 185.30449632 -105.74072266 181.72021484 C-108.03271669 178.7597061 -108.03271669 178.7597061 -110.74072266 176.72021484 C-111.07072266 176.72021484 -111.40072266 176.72021484 -111.74072266 176.72021484 Z M24.25927734 176.72021484 C20.95111811 180.02837408 19.43454222 181.61020396 18.69677734 186.28271484 C19.3433326 190.23388588 20.40758072 191.95239165 23.25927734 194.72021484 C23.91927734 194.72021484 24.57927734 194.72021484 25.25927734 194.72021484 C25.25927734 188.78021484 25.25927734 182.84021484 25.25927734 176.72021484 C24.92927734 176.72021484 24.59927734 176.72021484 24.25927734 176.72021484 Z M137.25927734 176.72021484 C137.25927734 182.66021484 137.25927734 188.60021484 137.25927734 194.72021484 C142.39930675 191.36975816 142.39930675 191.36975816 143.32177734 187.34521484 C143.24530939 182.9100736 142.06572066 181.08794683 139.25927734 177.72021484 C138.59927734 177.39021484 137.93927734 177.06021484 137.25927734 176.72021484 Z M-225.74072266 177.72021484 C-228.58411928 181.05105089 -229.72691477 182.91935745 -229.80322266 187.34521484 C-228.88075206 191.36975816 -228.88075206 191.36975816 -223.74072266 194.72021484 C-223.74072266 189.11021484 -223.74072266 183.50021484 -223.74072266 177.72021484 C-224.40072266 177.72021484 -225.06072266 177.72021484 -225.74072266 177.72021484 Z M-13.74072266 183.72021484 C-15.57517718 185.65958098 -17.29091859 187.60521204 -18.99072266 189.65771484 C-19.48290283 190.24512451 -19.97508301 190.83253418 -20.48217773 191.43774414 C-24.24379591 195.98429863 -27.65666985 200.68422987 -30.74072266 205.72021484 C-28.82986076 207.20744227 -26.9126851 208.68495525 -24.99072266 210.15771484 C-24.45189453 210.57859375 -23.91306641 210.99947266 -23.35791016 211.43310547 C-20.49989066 213.61147399 -18.24771679 215.00227359 -14.74072266 215.72021484 C-12.88422476 212.05659399 -11.03295386 208.39038525 -9.18652344 204.72167969 C-8.55742835 203.47355763 -7.92690024 202.2261568 -7.29492188 200.97949219 C-6.38768668 199.18923373 -5.48599669 197.39616856 -4.58447266 195.60302734 C-4.03984375 194.52424316 -3.49521484 193.44545898 -2.93408203 192.33398438 C-1.60228066 189.89587526 -1.60228066 189.89587526 -1.74072266 187.72021484 C-3.36399136 187.04934365 -4.98939844 186.38364455 -6.61572266 185.72021484 C-7.97310547 185.16333984 -7.97310547 185.16333984 -9.35791016 184.59521484 C-11.63056124 183.60531259 -11.63056124 183.60531259 -13.74072266 183.72021484 Z M-78.86572266 185.72021484 C-79.77580078 186.09146484 -80.68587891 186.46271484 -81.62353516 186.84521484 C-82.67154297 187.27833984 -82.67154297 187.27833984 -83.74072266 187.72021484 C-82.4864958 191.70814431 -81.02556685 195.38970888 -79.13916016 199.11865234 C-78.64931641 200.09189453 -78.15947266 201.06513672 -77.65478516 202.06787109 C-77.14689453 203.06689453 -76.63900391 204.06591797 -76.11572266 205.09521484 C-75.60009766 206.11744141 -75.08447266 207.13966797 -74.55322266 208.19287109 C-73.28600393 210.70384154 -72.01507709 213.21286046 -70.74072266 215.72021484 C-66.62142916 214.15992239 -63.46705541 212.23868027 -59.92822266 209.59521484 C-58.95240234 208.87076172 -57.97658203 208.14630859 -56.97119141 207.39990234 C-56.23513672 206.84560547 -55.49908203 206.29130859 -54.74072266 205.72021484 C-57.97700304 200.66651592 -61.58980494 196.00611327 -65.36572266 191.34521484 C-65.95095703 190.60916016 -66.53619141 189.87310547 -67.13916016 189.11474609 C-67.70119141 188.41994141 -68.26322266 187.72513672 -68.84228516 187.00927734 C-69.35098145 186.37715332 -69.85967773 185.7450293 -70.38378906 185.09375 C-70.83157715 184.6404834 -71.27936523 184.1872168 -71.74072266 183.72021484 C-74.44255321 183.72021484 -76.37062054 184.69658321 -78.86572266 185.72021484 Z M-99.24072266 205.53271484 C-102.35644758 207.97598115 -104.62422045 209.04014157 -108.49072266 209.78271484 C-110.81757907 210.32663172 -110.81757907 210.32663172 -112.74072266 211.72021484 C-114.21309393 214.88491528 -115.0262813 217.98792352 -115.86962891 221.37255859 C-118.36992044 230.98130228 -124.85613562 237.83562781 -131.74072266 244.72021484 C-131.81344007 247.07335039 -131.82443133 249.42855153 -131.80322266 251.78271484 C-131.79419922 253.07306641 -131.78517578 254.36341797 -131.77587891 255.69287109 C-131.76427734 256.69189453 -131.75267578 257.69091797 -131.74072266 258.72021484 C-125.64259332 261.49219012 -119.49154163 264.05393332 -113.24462891 266.47021484 C-112.37104233 266.81020508 -111.49745575 267.15019531 -110.59739685 267.50048828 C-107.83345519 268.57575818 -105.06839317 269.64810954 -102.30322266 270.72021484 C-99.54185546 271.79291003 -96.78072974 272.8662233 -94.01976013 273.93994141 C-92.31143311 274.60407605 -90.60284468 275.26753886 -88.89393616 275.93017578 C-88.10288986 276.23729492 -87.31184357 276.54441406 -86.49682617 276.86083984 C-85.72323761 277.16054688 -84.94964905 277.46025391 -84.15261841 277.76904297 C-82.43682623 278.44569463 -80.72751841 279.13888958 -79.0229187 279.84326172 C-78.13307281 280.21 -77.24322693 280.57673828 -76.32641602 280.95458984 C-75.51998154 281.29200195 -74.71354706 281.62941406 -73.88267517 281.97705078 C-71.64621571 282.88410861 -71.64621571 282.88410861 -68.74072266 282.72021484 C-67.73627292 277.01065083 -66.73961306 271.2998008 -65.75 265.58764648 C-65.41259608 263.64652258 -65.0731041 261.70576038 -64.73144531 259.76538086 C-64.23939192 256.96871004 -63.75497885 254.17080433 -63.27197266 251.37255859 C-63.1188562 250.51186264 -62.96573975 249.65116669 -62.8079834 248.76438904 C-61.12867998 240.58862394 -61.12867998 240.58862394 -62.74072266 232.72021484 C-63.46517578 232.82720703 -64.18962891 232.93419922 -64.93603516 233.04443359 C-65.90283203 233.16431641 -66.86962891 233.28419922 -67.86572266 233.40771484 C-68.81705078 233.53533203 -69.76837891 233.66294922 -70.74853516 233.79443359 C-74.69263816 233.69660336 -76.50213087 233.01511101 -79.74072266 230.72021484 C-81.77107732 227.84064681 -83.27886434 224.76549114 -84.80322266 221.59521484 C-85.62640089 219.9462575 -86.45061734 218.29781802 -87.27587891 216.64990234 C-87.67564941 215.84004883 -88.07541992 215.03019531 -88.48730469 214.19580078 C-90.45656471 210.30637799 -92.58948604 206.5112771 -94.74072266 202.72021484 C-96.5594777 202.72021484 -97.88669665 204.42853888 -99.24072266 205.53271484 Z M8.25927734 203.72021484 C7.88641602 204.49212158 7.51355469 205.26402832 7.12939453 206.05932617 C5.7359933 208.93154041 4.33351579 211.79908587 2.92480469 214.66381836 C2.31795842 215.90259387 1.71472053 217.14314403 1.11523438 218.38549805 C0.25098052 220.17491918 -0.62753296 221.9574309 -1.50634766 223.73974609 C-2.0300293 224.81329346 -2.55371094 225.88684082 -3.09326172 226.99291992 C-4.76348753 229.75790104 -5.96198398 231.12234034 -8.74072266 232.72021484 C-13.7826027 233.69606259 -17.68302849 233.85819603 -22.74072266 232.72021484 C-26.78805693 240.8148834 -21.22775051 257.33303134 -19.67822266 266.03271484 C-19.39315401 267.65956934 -19.10864519 269.28652204 -18.82470703 270.91357422 C-18.13647782 274.85028011 -17.44074411 278.78558948 -16.74072266 282.72021484 C-13.14396001 282.08910811 -9.90109707 281.12829953 -6.49487305 279.81835938 C-5.47353775 279.42770294 -4.45220245 279.03704651 -3.3999176 278.634552 C-1.76070595 278.0001973 -1.76070595 278.0001973 -0.08837891 277.35302734 C1.04451065 276.91763641 2.17740021 276.48224548 3.34461975 276.03366089 C5.73838822 275.11259795 8.13139179 274.18954502 10.52368164 273.26464844 C14.17766663 271.8526 17.8344682 270.44805016 21.49169922 269.04443359 C23.81934545 268.14774525 26.14682502 267.25062412 28.47412109 266.35302734 C29.56490463 265.93417267 30.65568817 265.51531799 31.77952576 265.08377075 C36.7326814 263.16455897 41.57275257 261.22650217 46.25927734 258.72021484 C47.30043232 250.9528865 47.30043232 250.9528865 44.94677734 243.87255859 C43.74420054 242.95183573 42.5139742 242.06647754 41.26318359 241.21240234 C32.84331764 234.94263861 29.3427541 223.59374097 26.42333984 213.96240234 C24.88660706 211.00238685 23.57519788 210.66612626 20.44677734 209.65771484 C16.3660989 208.21505075 13.54495316 206.59518118 10.25927734 203.72021484 C9.59927734 203.72021484 8.93927734 203.72021484 8.25927734 203.72021484 Z M-47.99072266 220.22021484 C-48.89822266 221.04521484 -49.80572266 221.87021484 -50.74072266 222.72021484 C-49.75072266 224.20521484 -49.75072266 224.20521484 -48.74072266 225.72021484 C-45.91774641 226.19966321 -45.91774641 226.19966321 -42.74072266 226.09521484 C-41.66822266 226.10294922 -40.59572266 226.11068359 -39.49072266 226.11865234 C-38.58322266 225.98716797 -37.67572266 225.85568359 -36.74072266 225.72021484 C-36.08072266 224.73021484 -35.42072266 223.74021484 -34.74072266 222.72021484 C-35.64822266 221.89521484 -36.55572266 221.07021484 -37.49072266 220.22021484 C-38.25642578 219.52412109 -38.25642578 219.52412109 -39.03759766 218.81396484 C-42.62520543 216.50999655 -45.16151658 217.64820932 -47.99072266 220.22021484 Z M-45.74072266 241.72021484 C-47.99804674 250.399873 -49.60191788 259.1644377 -51.15698242 267.9934082 C-51.50580103 269.94368817 -51.86592403 271.89197854 -52.23706055 273.83813477 C-52.77460516 276.66315378 -53.27502476 279.49260293 -53.76806641 282.32568359 C-53.94071518 283.19347946 -54.11336395 284.06127533 -54.29124451 284.95536804 C-54.6786829 287.30966925 -54.95359579 289.34331683 -54.74072266 291.72021484 C-52.62066464 294.87405776 -52.62066464 294.87405776 -49.74072266 296.72021484 C-49.08072266 296.72021484 -48.42072266 296.72021484 -47.74072266 296.72021484 C-47.45197266 297.31833984 -47.16322266 297.91646484 -46.86572266 298.53271484 C-45.6933024 300.91349276 -45.6933024 300.91349276 -43.74072266 303.72021484 C-40.3291401 302.58302066 -39.62217665 301.67678541 -37.74072266 298.72021484 C-37.74072266 298.06021484 -37.74072266 297.40021484 -37.74072266 296.72021484 C-37.14259766 296.47271484 -36.54447266 296.22521484 -35.92822266 295.97021484 C-33.35469695 294.49962873 -32.27015688 293.25232772 -30.74072266 290.72021484 C-30.59932142 288.41753674 -30.59932142 288.41753674 -31.11865234 285.98339844 C-31.27581726 285.0491806 -31.43298218 284.11496277 -31.59490967 283.1524353 C-31.7822467 282.15128693 -31.96958374 281.15013855 -32.16259766 280.11865234 C-32.34203918 279.08584137 -32.52148071 278.0530304 -32.70635986 276.98892212 C-33.28448621 273.68782504 -33.88766989 270.3918393 -34.49072266 267.09521484 C-34.88291438 264.86632329 -35.27355838 262.6371588 -35.66259766 260.40771484 C-36.38116655 256.33624792 -37.10112615 252.26512964 -37.84521484 248.19824219 C-37.99416199 247.37979828 -38.14310913 246.56135437 -38.29656982 245.71810913 C-38.66904877 243.66151758 -38.66904877 243.66151758 -39.74072266 241.72021484 C-41.72072266 241.72021484 -43.70072266 241.72021484 -45.74072266 241.72021484 Z M62.25927734 254.72021484 C61.89000883 257.94105688 61.60490387 260.59945267 63.28759766 263.48144531 C64.7525415 265.28242807 66.28532344 266.9746302 67.88427734 268.65771484 C68.98760287 269.87617281 70.08918083 271.09621559 71.18896484 272.31787109 C71.98512207 273.19016357 71.98512207 273.19016357 72.79736328 274.08007812 C75.51497872 277.12899939 77.87522082 280.40902522 80.25927734 283.72021484 C83.56736621 282.31091299 85.38833565 280.69449187 87.64208984 277.91162109 C88.25181641 277.16460937 88.86154297 276.41759766 89.48974609 275.64794922 C90.11494141 274.86742187 90.74013672 274.08689453 91.38427734 273.28271484 C92.01720703 272.50605469 92.65013672 271.72939453 93.30224609 270.92919922 C99.20484462 263.78636381 99.20484462 263.78636381 100.25927734 254.72021484 C98.98052734 255.04505859 97.70177734 255.36990234 96.38427734 255.70458984 C91.29824763 256.83083899 86.4523279 257.0181507 81.25927734 256.97021484 C80.42138672 256.97794922 79.58349609 256.98568359 78.72021484 256.99365234 C72.95874857 256.97581499 67.84350472 256.13878873 62.25927734 254.72021484 Z M-153.24072266 255.70849609 C-158.09995442 256.95071396 -162.74957924 256.97955706 -167.74072266 256.90771484 C-168.59150391 256.90707031 -169.44228516 256.90642578 -170.31884766 256.90576172 C-175.54039992 256.8697234 -180.57316742 256.46783568 -185.74072266 255.72021484 C-186.2497811 259.86181379 -185.88827583 261.49261474 -183.58056641 265.05224609 C-182.62752816 266.22426832 -181.65930269 267.38406348 -180.67822266 268.53271484 C-179.67022287 269.76042568 -178.6624106 270.9882905 -177.65478516 272.21630859 C-177.15881836 272.81040527 -176.66285156 273.40450195 -176.15185547 274.01660156 C-174.23158481 276.33487988 -172.38996063 278.71047891 -170.55322266 281.09521484 C-169.72757813 282.15869141 -169.72757813 282.15869141 -168.88525391 283.24365234 C-168.50755859 283.73091797 -168.12986328 284.21818359 -167.74072266 284.72021484 C-163.98125112 281.06308827 -160.54202127 277.2418437 -157.17822266 273.22021484 C-156.70964844 272.66462891 -156.24107422 272.10904297 -155.75830078 271.53662109 C-154.84145994 270.44667044 -153.9287149 269.35325867 -153.02050781 268.25610352 C-151.83895158 266.8381008 -150.62890892 265.44396478 -149.41650391 264.05224609 C-147.1390469 260.88291781 -147.44231969 258.52485265 -147.74072266 254.72021484 C-150.02607466 254.62963459 -150.02607466 254.62963459 -153.24072266 255.70849609 Z M-137.74072266 273.72021484 C-145.23249974 282.43599434 -145.23249974 282.43599434 -152.49072266 291.34521484 C-152.95994141 291.93560547 -153.42916016 292.52599609 -153.91259766 293.13427734 C-154.18587891 293.65763672 -154.45916016 294.18099609 -154.74072266 294.72021484 C-153.38257489 298.79465814 -150.60988006 300.14043435 -147.17822266 302.40771484 C-146.56269531 302.8234375 -145.94716797 303.23916016 -145.31298828 303.66748047 C-143.79365595 304.69214646 -142.26779608 305.70712162 -140.74072266 306.72021484 C-137.90170864 304.23469674 -136.47995386 301.54510406 -134.82275391 298.17724609 C-134.29101562 297.10410156 -133.75927734 296.03095703 -133.21142578 294.92529297 C-132.66421875 293.80574219 -132.11701172 292.68619141 -131.55322266 291.53271484 C-130.99441406 290.4015625 -130.43560547 289.27041016 -129.85986328 288.10498047 C-128.48138487 285.31267805 -127.10858609 282.51772846 -125.74072266 279.72021484 C-128.18616184 277.1271265 -129.99717788 276.07694586 -133.42822266 275.03271484 C-134.64058594 274.65566406 -134.64058594 274.65566406 -135.87744141 274.27099609 C-136.79976562 273.99835938 -136.79976562 273.99835938 -137.74072266 273.72021484 Z M-203.99072266 276.22021484 C-205.05033203 276.63787109 -205.05033203 276.63787109 -206.13134766 277.06396484 C-206.66244141 277.28052734 -207.19353516 277.49708984 -207.74072266 277.72021484 C-207.12425429 281.72246801 -205.84842592 284.85557789 -204.01806641 288.45849609 C-203.47988281 289.52519531 -202.94169922 290.59189453 -202.38720703 291.69091797 C-201.82324219 292.79371094 -201.25927734 293.89650391 -200.67822266 295.03271484 C-200.11039062 296.15484375 -199.54255859 297.27697266 -198.95751953 298.43310547 C-197.55729289 301.19825893 -196.15153601 303.96045201 -194.74072266 306.72021484 C-190.73821163 304.48851173 -186.93723602 302.27541814 -183.30322266 299.47021484 C-182.62388672 298.94943359 -181.94455078 298.42865234 -181.24462891 297.89208984 C-180.50019531 297.31201172 -180.50019531 297.31201172 -179.74072266 296.72021484 C-180.60680283 292.2733763 -183.12349376 289.59903151 -186.05322266 286.28271484 C-187.02906724 285.15952419 -188.00433664 284.03583354 -188.97900391 282.91162109 C-189.45160645 282.37553223 -189.92420898 281.83944336 -190.41113281 281.28710938 C-191.62815561 279.85287281 -192.74361157 278.33403258 -193.84619141 276.81005859 C-194.47138672 276.12041016 -195.09658203 275.43076172 -195.74072266 274.72021484 C-199.29118932 274.72021484 -200.84311508 274.96117181 -203.99072266 276.22021484 Z M51.25927734 273.72021484 C49.61024715 274.33673067 47.96511894 274.96369227 46.32177734 275.59521484 C45.40525391 275.94326172 44.48873047 276.29130859 43.54443359 276.64990234 C41.10986678 277.50212345 41.10986678 277.50212345 40.25927734 279.72021484 C41.35856854 282.4792475 41.35856854 282.4792475 43.00537109 285.60302734 C43.59511719 286.76962891 44.18486328 287.93623047 44.79248047 289.13818359 C45.4270756 290.37394824 46.06184349 291.60962419 46.69677734 292.84521484 C47.32836502 294.08833467 47.95923388 295.33181998 48.58935547 296.57568359 C50.13894153 299.62754011 51.69585094 302.67543167 53.25927734 305.72021484 C57.3992543 305.72021484 59.71534765 303.55188567 62.94677734 301.22021484 C63.55328125 300.79095703 64.15978516 300.36169922 64.78466797 299.91943359 C66.2806576 298.85928346 67.77056435 297.79055914 69.25927734 296.72021484 C67.49462371 292.58205046 64.71989936 289.27765879 61.94677734 285.78271484 C61.47304688 285.17492187 60.99931641 284.56712891 60.51123047 283.94091797 C57.62733413 280.28377446 54.61940311 276.94569076 51.25927734 273.72021484 Z M108.39990234 276.33740234 C107.77599609 277.08248047 107.15208984 277.82755859 106.50927734 278.59521484 C105.82349609 279.40990234 105.13771484 280.22458984 104.43115234 281.06396484 C103.71443359 281.94052734 102.99771484 282.81708984 102.25927734 283.72021484 C101.50130859 284.61740234 100.74333984 285.51458984 99.96240234 286.43896484 C95.68157291 291.00185564 95.68157291 291.00185564 94.25927734 296.72021484 C96.55870778 298.58263618 98.81713871 300.2552639 101.25927734 301.90771484 C102.26087891 302.6028418 102.26087891 302.6028418 103.28271484 303.31201172 C104.93537601 304.45706981 106.59655403 305.58981749 108.25927734 306.72021484 C111.92247384 302.09369104 114.32482759 296.91853016 116.94677734 291.65771484 C117.45789063 290.65160156 117.96900391 289.64548828 118.49560547 288.60888672 C118.97835938 287.64402344 119.46111328 286.67916016 119.95849609 285.68505859 C120.4002417 284.80454834 120.8419873 283.92403809 121.29711914 283.0168457 C122.45247928 280.67405541 122.45247928 280.67405541 122.25927734 277.72021484 C121.01264404 277.21187893 119.76178348 276.71390339 118.50927734 276.22021484 C117.46513672 275.80255859 117.46513672 275.80255859 116.39990234 275.37646484 C113.15611906 274.38202033 111.03967771 274.04146326 108.39990234 276.33740234 Z M-234.02978516 287.75537109 C-234.84764496 288.07171005 -235.66550476 288.38804901 -236.50814819 288.713974 C-238.24256356 289.38787952 -239.97582307 290.06476624 -241.70800781 290.74438477 C-244.32940965 291.76852789 -246.95844348 292.7709631 -249.58837891 293.77294922 C-262.61936401 298.82215849 -274.60140822 304.62912083 -280.80322266 318.01318359 C-283.871126 326.5826636 -283.88723654 335.35682101 -283.87011719 344.3527832 C-283.87186951 345.49351288 -283.87362183 346.63424255 -283.87542725 347.80953979 C-283.87980976 351.55972844 -283.87692184 355.30986952 -283.87353516 359.06005859 C-283.8742089 361.66939808 -283.87517952 364.27873751 -283.87643433 366.88807678 C-283.87824837 372.34425367 -283.87586793 377.80041697 -283.87109375 383.2565918 C-283.86563348 389.56991561 -283.8674296 395.88320722 -283.87292016 402.19653028 C-283.87799498 408.27487488 -283.87747131 414.35320515 -283.87453842 420.43155098 C-283.87386936 423.018062 -283.87469685 425.60457384 -283.87701797 428.19108391 C-283.87954181 431.79188129 -283.87570863 435.39261556 -283.87011719 438.9934082 C-283.87214142 440.07128098 -283.87416565 441.14915375 -283.87625122 442.25968933 C-283.8734314 443.23395874 -283.87061157 444.20822815 -283.8677063 445.21202087 C-283.86732927 446.06350677 -283.86695225 446.91499266 -283.8665638 447.79228115 C-283.9530631 449.72772393 -283.9530631 449.72772393 -282.74072266 450.72021484 C-280.66810189 450.80788597 -278.59251971 450.82717357 -276.51806641 450.81787109 C-275.25800781 450.81464844 -273.99794922 450.81142578 -272.69970703 450.80810547 C-271.35921157 450.79974888 -270.01871678 450.79128392 -268.67822266 450.78271484 C-267.33382324 450.77770145 -265.98942206 450.77313826 -264.64501953 450.76904297 C-261.34354325 450.75720972 -258.04215462 450.74072455 -254.74072266 450.72021484 C-254.73649072 450.15791326 -254.73225878 449.59561167 -254.7278986 449.01627064 C-254.62455195 435.32834001 -254.51584727 421.64046093 -254.4013834 407.9526186 C-254.34619126 401.33325675 -254.29277708 394.71389046 -254.2434082 388.09448242 C-254.19571009 381.70782307 -254.14336515 375.32121724 -254.08778191 368.93462181 C-254.06738307 366.49656696 -254.04866592 364.05849744 -254.03164864 361.62041664 C-254.00755006 358.20872315 -253.9775027 354.7971305 -253.94604492 351.38549805 C-253.94028946 350.37489319 -253.934534 349.36428833 -253.92860413 348.32305908 C-253.91881531 347.39062881 -253.90902649 346.45819855 -253.89894104 345.49751282 C-253.89248849 344.69094396 -253.88603594 343.8843751 -253.87938786 343.05336475 C-253.72977631 340.53603401 -253.28817807 338.17920435 -252.74072266 335.72021484 C-245.40738932 334.49799262 -245.40738932 334.49799262 -242.30322266 335.53271484 C-240.74072266 336.72021484 -240.74072266 336.72021484 -239.74072266 338.72021484 C-239.63683639 340.21502505 -239.59423648 341.71430713 -239.58250427 343.212677 C-239.57271545 344.15781158 -239.56292664 345.10294617 -239.55284119 346.07672119 C-239.54420799 347.63685944 -239.54420799 347.63685944 -239.53540039 349.22851562 C-239.52550079 350.32120758 -239.5156012 351.41389954 -239.50540161 352.53970337 C-239.47371956 356.1649557 -239.44900268 359.79022116 -239.42431641 363.41552734 C-239.40375267 365.92374011 -239.38275636 368.43194937 -239.36134338 370.94015503 C-239.31171833 376.87578024 -239.26646856 382.81142867 -239.22332102 388.74710357 C-239.16046529 397.35143076 -239.08879857 405.95568528 -239.01819611 414.55995178 C-238.92011129 426.61333753 -238.83130666 438.66675987 -238.74072266 450.72021484 C-221.25072266 450.72021484 -203.76072266 450.72021484 -185.74072266 450.72021484 C-189.96373984 445.78369277 -189.96373984 445.78369277 -194.26025391 440.91162109 C-195.01693359 440.04408203 -195.77361328 439.17654297 -196.55322266 438.28271484 C-197.32279297 437.41775391 -198.09236328 436.55279297 -198.88525391 435.66162109 C-202.93421772 429.24294793 -201.67707225 422.38317125 -200.36962891 415.29418945 C-200.21211151 414.38742966 -200.05459412 413.48066986 -199.89230347 412.5464325 C-199.55092018 410.59002375 -199.20422967 408.63453507 -198.85275269 406.67991447 C-198.29616737 403.58330591 -197.75407142 400.48446105 -197.21557617 397.38465881 C-196.07017022 390.80671589 -194.90649716 384.23207389 -193.74072266 377.65771484 C-192.38948599 370.03299848 -191.04582177 362.40708297 -189.71969604 354.77795601 C-189.18614145 351.73029079 -188.63963643 348.68513429 -188.0925293 345.63987732 C-187.76500324 343.76564199 -187.43806751 341.89130338 -187.11181641 340.0168457 C-186.95703827 339.17561157 -186.80226013 338.33437744 -186.64279175 337.46765137 C-185.80532455 332.56215988 -185.75998545 328.60798281 -186.74072266 323.72021484 C-188.22572266 323.22521484 -188.22572266 323.22521484 -189.74072266 322.72021484 C-190.73072266 323.21521484 -190.73072266 323.21521484 -191.74072266 323.72021484 C-197.26811284 324.08266666 -200.18648082 324.15168325 -204.74072266 320.72021484 C-206.5058246 318.13689968 -207.82232644 315.37259595 -209.16650391 312.55224609 C-209.75518501 311.36002693 -209.75518501 311.36002693 -210.35575867 310.14372253 C-211.60158389 307.61300646 -212.82754871 305.07324199 -214.05322266 302.53271484 C-214.89632999 300.81137746 -215.74071697 299.09066622 -216.58642578 297.37060547 C-218.65275666 293.16092007 -220.70133336 288.94301363 -222.74072266 284.72021484 C-226.86079872 284.72021484 -230.24224745 286.28290799 -234.02978516 287.75537109 Z M-110.74072266 284.72021484 C-110.996521 285.20675537 -111.25231934 285.6932959 -111.51586914 286.19458008 C-111.87753174 286.88237549 -112.23919434 287.5701709 -112.61181641 288.27880859 C-113.21956909 289.43509766 -113.21956909 289.43509766 -113.83959961 290.61474609 C-114.73868215 292.32272416 -115.63958848 294.02974332 -116.54223633 295.73583984 C-118.81025567 300.02636513 -121.05516067 304.32448868 -123.23291016 308.66162109 C-123.62422119 309.42998291 -124.01553223 310.19834473 -124.41870117 310.98999023 C-125.15932133 312.44588976 -125.88949535 313.90716412 -126.60766602 315.37426758 C-128.71279053 319.47598441 -130.44104088 321.91407892 -134.74072266 323.72021484 C-138.73777483 324.34545205 -142.8938534 324.0025046 -146.74072266 322.72021484 C-149.48319771 327.62542479 -148.46139265 331.61702428 -147.49902344 336.8815918 C-147.34325836 337.79606079 -147.18749329 338.71052979 -147.02700806 339.65270996 C-146.50937424 342.67364887 -145.97253169 345.69085529 -145.43603516 348.70849609 C-145.07305609 350.81186782 -144.71149386 352.9154845 -144.35128784 355.01933289 C-143.39960352 360.5601774 -142.43252395 366.09821331 -141.46105957 371.63562012 C-139.90981533 380.48728627 -138.37767266 389.34223381 -136.85351181 398.19859886 C-136.31922513 401.28616736 -135.77584648 404.37203562 -135.23147583 407.45783997 C-134.9010879 409.36205945 -134.57098466 411.26632835 -134.24121094 413.1706543 C-134.08845703 414.02235703 -133.93570313 414.87405975 -133.77832031 415.75157166 C-131.38064556 429.75430829 -131.38064556 429.75430829 -135.26025391 435.86083984 C-137.80140929 439.05237008 -140.74168335 441.82410333 -143.71728516 444.60693359 C-146.03812503 446.8224296 -146.03812503 446.8224296 -147.74072266 450.72021484 C-130.58072266 450.72021484 -113.42072266 450.72021484 -95.74072266 450.72021484 C-95.68013672 442.83759766 -95.61955078 434.95498047 -95.55712891 426.83349609 C-95.51663968 421.84325618 -95.47586903 416.85302177 -95.43408203 411.86279297 C-95.36776567 403.94004167 -95.30249811 396.01729135 -95.2434082 388.09448242 C-95.19571009 381.70782307 -95.14336515 375.32121724 -95.08778191 368.93462181 C-95.06738307 366.49656696 -95.04866592 364.05849744 -95.03164864 361.62041664 C-95.00755006 358.20872315 -94.9775027 354.7971305 -94.94604492 351.38549805 C-94.94028946 350.37489319 -94.934534 349.36428833 -94.92860413 348.32305908 C-94.91881531 347.39062881 -94.90902649 346.45819855 -94.89894104 345.49751282 C-94.89248849 344.69094396 -94.88603594 343.8843751 -94.87938786 343.05336475 C-94.72977631 340.53603401 -94.28817807 338.17920435 -93.74072266 335.72021484 C-86.40738932 334.49799262 -86.40738932 334.49799262 -83.30322266 335.53271484 C-81.74072266 336.72021484 -81.74072266 336.72021484 -80.74072266 338.72021484 C-80.63683639 340.21502505 -80.59423648 341.71430713 -80.58250427 343.212677 C-80.57271545 344.15781158 -80.56292664 345.10294617 -80.55284119 346.07672119 C-80.54708572 347.11681335 -80.54133026 348.15690552 -80.53540039 349.22851562 C-80.52550079 350.32120758 -80.5156012 351.41389954 -80.50540161 352.53970337 C-80.47371956 356.1649557 -80.44900268 359.79022116 -80.42431641 363.41552734 C-80.40375267 365.92374011 -80.38275636 368.43194937 -80.36134338 370.94015503 C-80.31171833 376.87578024 -80.26646856 382.81142867 -80.22332102 388.74710357 C-80.16912091 396.16656269 -80.10815891 403.5859636 -80.04736328 411.00537109 C-79.93970846 424.24361453 -79.83879128 437.48189692 -79.74072266 450.72021484 C-70.17072266 450.72021484 -60.60072266 450.72021484 -50.74072266 450.72021484 C-50.65023533 434.74258877 -50.57663237 418.76518326 -50.53347397 402.78737164 C-50.51289721 395.36767555 -50.48487092 387.94815063 -50.43896484 380.52856445 C-50.39894648 374.05746664 -50.37325437 367.58649286 -50.36436868 361.11527473 C-50.35917909 357.69254013 -50.34708572 354.2701602 -50.31780243 350.8475399 C-50.28862671 347.01541778 -50.28477276 343.18402254 -50.28662109 339.35180664 C-50.27223999 338.2318631 -50.25785889 337.11191956 -50.24304199 335.95803833 C-50.30366336 324.28859185 -54.05937558 313.43278317 -62.41259766 305.04052734 C-68.38294163 300.11626928 -75.60950753 297.51118111 -82.74072266 294.72021484 C-83.77938477 294.31125977 -84.81804687 293.90230469 -85.88818359 293.48095703 C-89.41936034 292.09452541 -92.95401272 290.71746794 -96.49072266 289.34521484 C-97.65845215 288.89178711 -98.82618164 288.43835938 -100.02929688 287.97119141 C-101.12516113 287.55063477 -102.22102539 287.13007813 -103.35009766 286.69677734 C-104.33977539 286.31602051 -105.32945312 285.93526367 -106.34912109 285.54296875 C-108.63439784 284.61177939 -108.63439784 284.61177939 -110.74072266 284.72021484 Z M15.57568359 287.53662109 C14.42047462 287.97783546 14.42047462 287.97783546 13.2419281 288.42796326 C11.60444777 289.05569212 9.96775516 289.68547902 8.33178711 290.31713867 C5.86701821 291.26531112 3.39643283 292.19700167 0.92529297 293.12841797 C-11.57421823 297.90747287 -23.62607902 302.71899759 -30.74072266 314.72021484 C-34.35209555 322.97414759 -35.30987777 330.53417947 -35.19482422 339.46533203 C-35.19540833 340.6765271 -35.19599243 341.88772217 -35.19659424 343.13562012 C-35.19430592 346.4160787 -35.17442436 349.69582998 -35.14629841 352.97614956 C-35.12107521 356.41939076 -35.11892646 359.8626499 -35.11419678 363.30596924 C-35.10182778 369.8080721 -35.06908987 376.30990183 -35.02879882 382.81188512 C-34.98389026 390.22189901 -34.96204641 397.63192683 -34.94201708 405.04204321 C-34.90035065 420.26827699 -34.82707584 435.4941566 -34.74072266 450.72021484 C-25.17072266 450.72021484 -15.60072266 450.72021484 -5.74072266 450.72021484 C-5.72090332 447.34311279 -5.70108398 443.96601074 -5.68066406 440.48657227 C-5.61385 429.34654394 -5.53620934 418.2066102 -5.45319557 407.0666914 C-5.40305154 400.31051592 -5.3566089 393.55435268 -5.31884766 386.7980957 C-5.28241682 380.28172925 -5.23571379 373.76548396 -5.18265915 367.24923134 C-5.16408217 364.7592939 -5.14898653 362.26932805 -5.13737869 359.77934837 C-5.12057285 356.30010706 -5.0915513 352.8211712 -5.05957031 349.34204102 C-5.05741013 348.30554413 -5.05524994 347.26904724 -5.05302429 346.20114136 C-5.04186081 345.25463211 -5.03069733 344.30812286 -5.01919556 343.33293152 C-5.0136648 342.50977038 -5.00813404 341.68660925 -5.00243568 340.83850384 C-4.74072266 338.72021484 -4.74072266 338.72021484 -2.74072266 335.72021484 C1.17938234 334.8490804 4.42950192 334.34149569 8.25927734 335.72021484 C8.99625047 339.03045554 9.39038372 342.10851144 9.41749573 345.49751282 C9.42728455 346.42994308 9.43707336 347.36237335 9.44715881 348.32305908 C9.45579201 349.83896637 9.45579201 349.83896637 9.46459961 351.38549805 C9.47449921 352.45912094 9.4843988 353.53274384 9.49459839 354.63890076 C9.52615236 358.1829102 9.55094679 361.72693305 9.57568359 365.27099609 C9.59625838 367.73008063 9.61725499 370.18916166 9.63865662 372.64823914 C9.69382304 379.11725024 9.74325631 385.58629297 9.79150391 392.05535889 C9.85059589 399.81892605 9.91679402 407.58243547 9.98180389 415.3459549 C10.07974509 427.13733958 10.16864802 438.92876148 10.25927734 450.72021484 C27.41927734 450.72021484 44.57927734 450.72021484 62.25927734 450.72021484 C58.81914437 445.49963282 58.81914437 445.49963282 54.75927734 441.22021484 C47.48009966 434.03496204 47.48009966 434.03496204 47.05338001 429.5619173 C47.08649863 423.57291179 47.68835805 417.91942356 48.77563477 412.03540039 C48.93651077 411.12513596 49.09738678 410.21487152 49.26313782 409.27702332 C49.60985253 407.31981413 49.96028004 405.36325961 50.31410789 403.40732384 C50.87305611 400.31089831 51.41950654 397.21250004 51.96247864 394.11323547 C53.50665873 385.30863496 55.06849921 376.50726383 56.6496582 367.70922852 C57.61868094 362.31231439 58.56950883 356.91245429 59.50899696 351.51032448 C59.87003134 349.45616956 60.23810326 347.40323865 60.61333275 345.35162926 C61.13635079 342.48981984 61.63623299 339.62484696 62.13110352 336.75805664 C62.29150116 335.91277405 62.4518988 335.06749146 62.61715698 334.19659424 C63.27402356 330.25369668 63.56119475 328.3675343 61.82978821 324.65534973 C61.31151962 324.01675522 60.79325104 323.37816071 60.25927734 322.72021484 C58.77427734 323.21521484 58.77427734 323.21521484 57.25927734 323.72021484 C51.79797064 324.07255721 48.69455323 324.25478855 44.25927734 320.72021484 C42.40153667 317.97976125 40.96636513 315.06375937 39.50927734 312.09521484 C38.64255006 310.38794988 37.77535171 308.68092399 36.90771484 306.97412109 C36.47168945 306.1054541 36.03566406 305.23678711 35.58642578 304.34179688 C33.4936998 300.20793161 31.31324988 296.12157522 29.13427734 292.03271484 C28.381335 290.61232114 27.62869735 289.19176585 26.87646484 287.77099609 C26.34279297 286.76423828 25.80912109 285.75748047 25.25927734 284.72021484 C21.8402919 284.72021484 18.73735886 286.32634738 15.57568359 287.53662109 Z M-171.36572266 310.22021484 C-171.99736328 310.68427734 -172.62900391 311.14833984 -173.27978516 311.62646484 C-173.76189453 311.98740234 -174.24400391 312.34833984 -174.74072266 312.72021484 C-174.08072266 314.04021484 -173.42072266 315.36021484 -172.74072266 316.72021484 C-168.78072266 316.72021484 -164.82072266 316.72021484 -160.74072266 316.72021484 C-160.08072266 315.40021484 -159.42072266 314.08021484 -158.74072266 312.72021484 C-159.86146128 311.88115919 -160.98746813 311.04913654 -162.11572266 310.22021484 C-162.74220703 309.75615234 -163.36869141 309.29208984 -164.01416016 308.81396484 C-167.21626553 306.7854818 -168.58665644 308.16164728 -171.36572266 310.22021484 Z M76.63427734 310.22021484 C76.00263672 310.68427734 75.37099609 311.14833984 74.72021484 311.62646484 C74.23810547 311.98740234 73.75599609 312.34833984 73.25927734 312.72021484 C73.91927734 314.04021484 74.57927734 315.36021484 75.25927734 316.72021484 C79.21927734 316.72021484 83.17927734 316.72021484 87.25927734 316.72021484 C87.91927734 315.40021484 88.57927734 314.08021484 89.25927734 312.72021484 C88.13853872 311.88115919 87.01253187 311.04913654 85.88427734 310.22021484 C85.25779297 309.75615234 84.63130859 309.29208984 83.98583984 308.81396484 C80.78373447 306.7854818 79.41334356 308.16164728 76.63427734 310.22021484 Z M-170.74072266 332.72021484 C-172.70235202 344.08936031 -174.65859768 355.45941773 -176.60799408 366.8306675 C-177.51336491 372.11087785 -178.42058034 377.39075735 -179.33203125 382.66992188 C-180.21171858 387.7655168 -181.08653435 392.86192629 -181.95799255 397.95893478 C-182.29116298 399.90245682 -182.62608149 401.84568002 -182.96278381 403.78859329 C-183.43442386 406.51193525 -183.89981248 409.23627765 -184.36376953 411.9609375 C-184.50403061 412.76223083 -184.64429169 413.56352417 -184.7888031 414.38909912 C-186.34204385 421.76390496 -186.34204385 421.76390496 -184.53491211 428.69897461 C-183.70286255 429.54673462 -183.70286255 429.54673462 -182.85400391 430.41162109 C-182.24492187 431.04648437 -181.63583984 431.68134766 -181.00830078 432.33544922 C-180.363125 432.97804688 -179.71794922 433.62064453 -179.05322266 434.28271484 C-178.42738281 434.92917969 -177.80154297 435.57564453 -177.15673828 436.24169922 C-175.36689037 438.08402435 -173.5585191 439.90550552 -171.74072266 441.72021484 C-171.22171387 442.24083496 -170.70270508 442.76145508 -170.16796875 443.29785156 C-169.0275743 444.44065954 -167.88450939 445.58080206 -166.74072266 446.72021484 C-162.08106245 442.16948176 -157.60416834 437.54037919 -153.38134766 432.57958984 C-151.74072266 430.72021484 -151.74072266 430.72021484 -149.6030426 428.98640442 C-147.45280403 426.84622109 -147.45280403 426.84622109 -147.68199158 423.90361023 C-147.88691727 422.81401505 -148.09184296 421.72441986 -148.30297852 420.60180664 C-148.52283417 419.35273529 -148.74268982 418.10366394 -148.96920776 416.81674194 C-149.09597271 416.1494595 -149.22273766 415.48217705 -149.35334396 414.79467392 C-149.87820813 411.98396373 -150.32859169 409.16294083 -150.78368473 406.34023762 C-151.41791025 402.42849023 -152.08388242 398.52208465 -152.74462891 394.61474609 C-153.03092189 392.91559742 -153.31712939 391.21643435 -153.60325623 389.51725769 C-154.19794621 385.98827404 -154.79395154 382.45951571 -155.39086914 378.9309082 C-156.15588023 374.40772116 -156.91706674 369.88389966 -157.67724705 365.35989857 C-158.26491787 361.86555207 -158.85480824 358.37158305 -159.44535637 354.87772179 C-159.7271812 353.20846704 -160.00825999 351.53908617 -160.28857613 349.86957741 C-160.67861648 347.54831787 -161.07169592 345.22759302 -161.46557617 342.90698242 C-161.58039841 342.21975601 -161.69522064 341.5325296 -161.81352234 340.82447815 C-162.29199077 338.02210317 -162.8395811 335.42363952 -163.74072266 332.72021484 C-166.05072266 332.72021484 -168.36072266 332.72021484 -170.74072266 332.72021484 Z M78.25927734 332.72021484 C74.64155121 349.84727419 71.70034251 367.08798114 68.77563477 384.34375 C68.07933716 388.44923453 67.37263257 392.55286001 66.66371441 396.65618134 C66.11522962 399.84137552 65.57401422 403.02777335 65.03483009 406.21455383 C64.77715414 407.73006426 64.51678855 409.24512002 64.25363731 410.75968933 C63.8893418 412.86054487 63.53533346 414.96288856 63.18383789 417.06591797 C62.98050339 418.2580188 62.77716888 419.45011963 62.56767273 420.67834473 C62.28568901 423.45970232 62.26186824 425.14238134 63.25927734 427.72021484 C64.86320156 429.65005541 64.86320156 429.65005541 66.88427734 431.47021484 C70.36082841 434.80346721 73.53132206 438.26419069 76.61865234 441.95849609 C78.35190236 443.81967646 80.18572162 445.25520264 82.25927734 446.72021484 C85.91466956 442.79031617 85.91466956 442.79031617 89.54321289 438.83569336 C91.77944479 436.37999484 93.98466337 433.97355242 96.42724609 431.72021484 C98.83839173 429.42934013 100.20738357 427.84106062 100.36524963 424.43133545 C99.40167248 414.74524512 97.76610861 405.19554804 96.09912109 395.61083984 C95.78621886 393.78960735 95.47377235 391.96829651 95.16175842 390.14691162 C94.34594963 385.39187071 93.52402192 380.63790799 92.70074463 375.88415527 C91.85908104 371.01765376 91.02330642 366.15014132 90.18701172 361.28271484 C88.55014292 351.76089216 86.90679756 342.24019992 85.25927734 332.72021484 C82.94927734 332.72021484 80.63927734 332.72021484 78.25927734 332.72021484 Z " fill="#000000" transform="translate(298.74072265625,29.27978515625)"/>
</svg>
