<?xml version="1.0" encoding="UTF-8"?>
<svg version="1.1" xmlns="http://www.w3.org/2000/svg" width="512" height="512">
<path d="M0 0 C19.41811936 15.83279452 34.0406482 37.67915557 37 63 C37.38841635 69.46410331 37.54755184 75.92955879 37.58520508 82.40429688 C37.6778011 90.35410506 37.8490694 97.64693711 42.6484375 104.27734375 C43.21820313 104.82519531 43.78796875 105.37304688 44.375 105.9375 C51.50033424 113.68308626 53.68334024 120.50539599 53.44897461 130.88476562 C52.98371286 140.56566447 50.17230871 145.2961002 43.9375 152.60546875 C39.81696736 157.69798187 38.42080492 161.08339387 38.66015625 167.59375 C39.1772957 171.25533509 40.66538017 173.14009071 43 176 C44.38589661 177.84603619 45.75991553 179.70102118 47.125 181.5625 C47.80820313 182.47128906 48.49140625 183.38007813 49.1953125 184.31640625 C52.44593721 189.15012741 53.13874901 192.58666832 53.125 198.375 C53.38346062 203.09374913 53.38346062 203.09374913 55.59375 207.12109375 C57.66737221 208.84778301 59.8139698 210.41903173 62 212 C71.77304827 221.06043017 75.61325048 233.20786001 78 246 C78.66902344 245.27296875 79.33804687 244.5459375 80.02734375 243.796875 C101.77854852 220.76527742 132.57301936 205.61514259 164.46875 204.6640625 C167.14734808 204.63392496 169.82167063 204.61714776 172.5 204.625 C173.2007666 204.62554382 173.9015332 204.62608765 174.62353516 204.62664795 C208.50027068 204.74708572 238.53992616 217.58166696 263 241 C263.74636719 241.68320312 264.49273437 242.36640625 265.26171875 243.0703125 C271.88236958 249.33277804 276.97963336 256.44348262 282 264 C282.6290625 264.93328125 283.258125 265.8665625 283.90625 266.828125 C301.23601593 294.39820716 305.95805078 330.79464759 298.83911133 362.37744141 C292.98202063 385.57300651 281.50045466 405.76553935 265 423 C264.31679688 423.74636719 263.63359375 424.49273437 262.9296875 425.26171875 C256.66722196 431.88236958 249.55651738 436.97963336 242 442 C241.06671875 442.6290625 240.1334375 443.258125 239.171875 443.90625 C211.62049977 461.22425728 175.17951441 465.987828 143.6159668 458.8347168 C120.43368111 452.95950026 100.35261366 441.39171974 83 425 C82.24976563 424.31421875 81.49953125 423.6284375 80.7265625 422.921875 C71.35172325 414.04044834 64.61040128 403.56960132 58.5625 392.25 C58.14943604 391.48252441 57.73637207 390.71504883 57.31079102 389.92431641 C54.37734226 384.25617353 52.89237172 379.30790574 51 373 C17.34 373 -16.32 373 -51 373 C-51 388.84 -51 404.68 -51 421 C-66.84 421 -82.68 421 -99 421 C-99 415.72 -99 410.44 -99 405 C-104.28 405 -109.56 405 -115 405 C-115 415.56 -115 426.12 -115 437 C-130.84 437 -146.68 437 -163 437 C-163.00257813 431.86050781 -163.00515625 426.72101563 -163.0078125 421.42578125 C-163.02276244 418.16722768 -163.03946838 414.9088726 -163.0625 411.65039062 C-163.09887975 406.4797699 -163.12879933 401.30968302 -163.12011719 396.13891602 C-163.1135233 391.96934272 -163.1360107 387.80084204 -163.17855453 383.63149071 C-163.18968496 382.04195156 -163.19038633 380.45230362 -163.18042374 378.86275673 C-163.1682412 376.63298669 -163.1933392 374.4064859 -163.22705078 372.17700195 C-163.231492 370.90903275 -163.23593323 369.64106354 -163.24050903 368.33467102 C-164.29784736 363.69225176 -166.1759001 362.72754659 -170 360 C-178.61341003 349.71645164 -180.00081289 339.0805132 -179.22900391 326.07763672 C-178.73955238 321.63709034 -177.13199492 317.87493968 -175 314 C-174.01 312.02 -174.01 312.02 -173 310 C-180.26 309.67 -187.52 309.34 -195 309 C-195.09081214 300.21078167 -195.16400825 291.42188118 -195.20724869 282.63229752 C-195.22801478 278.54977058 -195.25612795 274.46758466 -195.30175781 270.38525391 C-195.34561226 266.43649758 -195.36921937 262.48806669 -195.37950897 258.53908539 C-195.38683008 257.04176469 -195.40112391 255.54445931 -195.42292023 254.04727936 C-195.64158733 238.38675741 -191.90911058 223.8778161 -180.75024414 212.36743164 C-174.70263937 206.35131968 -174.70263937 206.35131968 -172 205 C-171.81841962 203.02642964 -171.73142878 201.0439191 -171.6875 199.0625 C-170.99851065 188.54392932 -166.33028216 181.94123745 -159.671875 174.03125 C-156.57455795 170.26815451 -156.6559257 167.2621438 -156.73046875 162.51171875 C-157.13392609 158.75196415 -158.61465305 156.92205001 -161 154 C-162.38769196 152.17625464 -163.76152979 150.3419243 -165.125 148.5 C-165.80820313 147.6028125 -166.49140625 146.705625 -167.1953125 145.78125 C-172.16686741 138.11945975 -172.03221842 128.83311758 -171 120 C-169.04107397 113.04809042 -164.50478544 107.83424293 -159.76953125 102.51953125 C-154.75725984 95.38285342 -155.72734552 86.99975792 -155.625 78.625 C-154.98966663 49.36187892 -145.52868657 26.55967099 -124.6640625 5.66015625 C-90.85252715 -26.34590876 -36.58774782 -27.97579576 0 0 Z M-114.1328125 19.2265625 C-132.03883678 36.5471037 -138.6439819 58.89679346 -139.1640625 83.29296875 C-139.19089111 84.39092773 -139.21771973 85.48888672 -139.24536133 86.62011719 C-139.28903307 88.77797742 -139.31087786 90.9364273 -139.30737305 93.09472656 C-139.48766746 102.95502034 -142.88117212 110.01298097 -149.25 117.5 C-153.43236014 122.46851806 -154.37140826 124.9959372 -154.26953125 131.48828125 C-153.86607391 135.24803585 -152.38534695 137.07794999 -150 140 C-148.61410339 141.84603619 -147.24008447 143.70102118 -145.875 145.5625 C-144.85019531 146.92568359 -144.85019531 146.92568359 -143.8046875 148.31640625 C-138.48070393 156.23323896 -138.9650912 166.33969585 -140.39453125 175.5390625 C-142.03362101 180.67840201 -145.67375612 184.58669467 -149.16015625 188.60546875 C-151.00572823 191.00745521 -152.02242858 193.14832793 -153 196 C-146.51587559 195.30901769 -140.25403851 194.06430795 -133.89453125 192.63671875 C-132.33118294 192.28683647 -132.33118294 192.28683647 -130.73625183 191.92988586 C-128.54476687 191.43705092 -126.35379976 190.94190816 -124.16333008 190.44458008 C-120.81533231 189.68813993 -117.46352062 188.95048588 -114.11132812 188.21289062 C-111.97630045 187.73032458 -109.84152549 187.24663883 -107.70703125 186.76171875 C-106.70799271 186.54488937 -105.70895416 186.32806 -104.67964172 186.10466003 C-99.57494716 184.92132339 -95.74987572 183.90515308 -92 180 C-90.54576316 176.62019264 -90.37135604 173.61745995 -91 170 C-92.61754488 167.73360943 -94.45502632 166.12538275 -96.55078125 164.29296875 C-111.49960226 150.29782053 -120.90800368 127.17060549 -122.19287109 106.96728516 C-122.28026277 103.51981597 -122.33430075 100.07333623 -122.375 96.625 C-122.41238281 95.43132812 -122.44976562 94.23765625 -122.48828125 93.0078125 C-122.602967 81.48826623 -119.11854478 76.99783343 -111.26171875 68.96875 C-109.08506381 66.79728568 -106.88678136 64.6485066 -104.6875 62.5 C-103.55333957 61.38091417 -102.41986982 60.2611279 -101.28710938 59.140625 C-98.53263936 56.41893925 -95.76898475 53.70691416 -93 51 C-89.32747259 52.38464051 -86.34877183 54.04462341 -83.14282227 56.32568359 C-62.73402321 70.81356255 -40.91732628 75.66057676 -16.33984375 77.234375 C-5.04623071 77.96209232 -5.04623071 77.96209232 -0.5703125 82.42578125 C5.72490723 89.5923732 4.49461151 98.27738755 4.17480469 107.30322266 C2.80199951 128.48200196 -7.20017422 149.36356605 -22.125 164.25 C-24.76040397 166.9207548 -26.78616505 169.06737045 -27.6484375 172.828125 C-27.42680844 176.81744804 -26.94950538 178.99328941 -24.16430664 181.94628906 C-19.51449287 184.96412977 -14.64929962 185.83358846 -9.27734375 187.015625 C-8.13971085 187.27631775 -7.00207794 187.5370105 -5.82997131 187.80560303 C-3.42999267 188.3529664 -1.0285309 188.8938618 1.37426758 189.42871094 C5.05554403 190.24845106 8.73205836 191.08726326 12.40820312 191.9296875 C14.74193432 192.45944988 17.07591089 192.98813272 19.41015625 193.515625 C20.51126236 193.76556213 21.61236847 194.01549927 22.74684143 194.27301025 C23.77147995 194.50034851 24.79611847 194.72768677 25.85180664 194.96191406 C26.75161758 195.16302795 27.65142853 195.36414185 28.57850647 195.5713501 C31.24660395 196.11620589 31.24660395 196.11620589 35 196 C33.63343649 192.01359971 31.81411487 189.35928697 29.0625 186.1875 C21.91026988 177.30886951 20.93542241 169.22822793 21.75 157.96923828 C22.75981099 150.01500448 28.34392268 143.95233246 33.328125 138.03125 C36.42544205 134.26815451 36.3440743 131.2621438 36.26953125 126.51171875 C35.86607391 122.75196415 34.38534695 120.92205001 32 118 C30.61410339 116.15396381 29.24008447 114.29897882 27.875 112.4375 C26.85019531 111.07431641 26.85019531 111.07431641 25.8046875 109.68359375 C22.91193079 105.38202695 21.76215675 101.81362213 21.65625 96.640625 C21.62813232 95.61549805 21.60001465 94.59037109 21.57104492 93.53417969 C21.5476001 92.45040039 21.52415527 91.36662109 21.5 90.25 C20.57415848 61.26677147 15.0903656 37.34416239 -6.3984375 16.6953125 C-37.93909937 -10.23475428 -83.84638863 -8.3679447 -114.1328125 19.2265625 Z M-92.70166016 74.34521484 C-93.61117432 75.26874756 -93.61117432 75.26874756 -94.5390625 76.2109375 C-95.20164062 76.87867187 -95.86421875 77.54640625 -96.546875 78.234375 C-97.57554688 79.29398437 -97.57554688 79.29398437 -98.625 80.375 C-99.31851563 81.07367188 -100.01203125 81.77234375 -100.7265625 82.4921875 C-105.77688625 87.25151299 -105.77688625 87.25151299 -107.01953125 93.82421875 C-106.16917727 117.85172077 -98.44261655 139.88580092 -81 157 C-70.74035889 166.72400274 -70.74035889 166.72400274 -58.06640625 170.875 C-42.77185251 166.51069422 -29.57744975 150.95940715 -21.953125 137.5078125 C-15.97379778 126.03465898 -11.77570737 114.19313869 -11.9375 101.1875 C-11.94201172 100.49462891 -11.94652344 99.80175781 -11.95117188 99.08789062 C-11.96286844 97.39188932 -11.98080076 95.69593297 -12 94 C-14.26832599 92.865837 -15.56626294 92.86224641 -18.0859375 92.82421875 C-42.81298788 92.20871601 -67.12150725 86.91899517 -88 73 C-90.96928685 72.68992247 -90.96928685 72.68992247 -92.70166016 74.34521484 Z M-75 183 C-74.70230003 192.24619094 -74.70230003 192.24619094 -70 200 C-65.64938655 203.93626932 -62.08222994 204.63883919 -56.3984375 204.3828125 C-51.49971018 203.60093094 -48.90416809 201.00191599 -45.6875 197.4375 C-43.36441568 192.70529121 -43.18555489 188.21409237 -43 183 C-46.23318188 184.25577011 -49.32934361 185.65281316 -52.4375 187.1875 C-56.48114349 188.95659403 -58.69886867 189.49222924 -63 188 C-65.64519285 186.7450713 -68.24633868 185.43945825 -70.828125 184.05859375 C-72.89694852 182.85395436 -72.89694852 182.85395436 -75 183 Z M-28 199 C-28.37825928 199.69585205 -28.75651855 200.3917041 -29.14624023 201.10864258 C-34.03240591 209.96542367 -40.0958023 215.36239703 -49 220 C-47.69324957 225.95297416 -44.60327934 229.26455201 -40 233 C-33.98636059 236.65534944 -27.84889519 236.79447184 -21 236 C-14.35345016 234.20881115 -9.83253562 229.56235576 -6 224 C-4.10920103 220.19961928 -3.7288125 217.1019057 -3.75 212.875 C-3.74484375 211.84117187 -3.7396875 210.80734375 -3.734375 209.7421875 C-3.80323618 206.78392723 -3.80323618 206.78392723 -6 204 C-8.30109533 203.12534755 -8.30109533 203.12534755 -11.0078125 202.61328125 C-11.99394531 202.39736328 -12.98007813 202.18144531 -13.99609375 201.95898438 C-15.54490234 201.63897461 -15.54490234 201.63897461 -17.125 201.3125 C-18.16527344 201.08755859 -19.20554688 200.86261719 -20.27734375 200.63085938 C-22.84943705 200.0763255 -25.42342012 199.53322735 -28 199 Z M-101.4375 201.3125 C-102.41783203 201.52583984 -103.39816406 201.73917969 -104.40820312 201.95898438 C-105.34470703 202.17490234 -106.28121094 202.39082031 -107.24609375 202.61328125 C-108.10904053 202.80704346 -108.9719873 203.00080566 -109.86108398 203.20043945 C-112.3517753 203.89375339 -112.3517753 203.89375339 -114 207 C-114.93099025 214.30719091 -114.59715395 221.04546912 -110 227 C-105.38354101 231.86703923 -101.00915341 235.52443146 -94.16796875 236.3359375 C-86.24024974 236.43983945 -80.84135857 235.6470486 -74.9921875 230.09375 C-72.01487223 226.86330267 -69.77809907 224.41251118 -69 220 C-69.64066406 219.6596875 -70.28132813 219.319375 -70.94140625 218.96875 C-79.84986078 213.97682913 -85.30881306 208.00707893 -90 199 C-93.75913111 199 -97.79068769 200.47901114 -101.4375 201.3125 Z M-167.95703125 223.7578125 C-177.73719004 234.49167702 -179.17953085 247.05022738 -179.09765625 260.96875 C-179.0962413 261.88966431 -179.09482635 262.81057861 -179.09336853 263.75939941 C-179.08781407 266.67296734 -179.07527025 269.58645568 -179.0625 272.5 C-179.05747911 274.48697805 -179.05291723 276.47395731 -179.04882812 278.4609375 C-179.03871458 283.30734628 -179.01913059 288.15358506 -179 293 C-168.44 293 -157.88 293 -147 293 C-147 282.44 -147 271.88 -147 261 C-141.72 261 -136.44 261 -131 261 C-131 271.56 -131 282.12 -131 293 C-83.48 293 -35.96 293 13 293 C13 282.44 13 271.88 13 261 C18.28 261 23.56 261 29 261 C29 271.56 29 282.12 29 293 C36.26 293 43.52 293 51 293 C53.54376912 287.25680988 53.54376912 287.25680988 56.08544922 281.51269531 C56.40529785 280.79178711 56.72514648 280.07087891 57.0546875 279.328125 C57.54171143 278.22839355 57.54171143 278.22839355 58.03857422 277.10644531 C59 275 59 275 60.10498047 273.00097656 C61.12120759 270.72901872 61.2580709 269.13615389 61.265625 266.65625 C61.26989502 265.82786621 61.27416504 264.99948242 61.27856445 264.14599609 C61.26442505 262.83622803 61.26442505 262.83622803 61.25 261.5 C61.24250732 260.6023291 61.23501465 259.7046582 61.22729492 258.77978516 C60.99102692 244.13116912 58.37123849 232.87697514 48.1015625 221.97265625 C39.30141438 213.71229417 24.96070246 209 13 209 C12.97421875 209.81082031 12.9484375 210.62164062 12.921875 211.45703125 C12.30672113 223.46651254 9.62306707 233.27819552 1 242 C-9.85368328 251.23641259 -20.01891877 253.03653326 -33.90136719 252.20263672 C-43.27809642 251.29725221 -50.30847845 246.36107604 -57 240 C-57.495 239.01 -57.495 239.01 -58 238 C-58.66 238 -59.32 238 -60 238 C-60.515625 238.70125 -61.03125 239.4025 -61.5625 240.125 C-67.20171261 246.77637897 -75.24641513 251.38421724 -83.97607422 252.18017578 C-96.91312965 252.97854748 -107.67159181 251.65043913 -117.9296875 243.046875 C-128.03333 233.05761336 -130.3825335 222.77589056 -131 209 C-144.4402193 209 -158.25513508 214.65691874 -167.95703125 223.7578125 Z M96 252 C95.38640625 252.52851563 94.7728125 253.05703125 94.140625 253.6015625 C79.84211861 266.87874701 70.17804129 285.42573825 65 304 C64.6803125 305.08667969 64.360625 306.17335938 64.03125 307.29296875 C59.76762991 324.44614401 60.01174215 345.04394609 65 362 C65.3403125 363.22074219 65.680625 364.44148437 66.03125 365.69921875 C74.71884035 394.25673704 95.09242997 417.77804405 121.15039062 432.015625 C147.12676883 445.84043452 177.30478262 448.32937762 205.47631836 440.23535156 C222.10115969 435.03143852 236.95284823 425.36497182 250 414 C250.61359375 413.47148437 251.2271875 412.94296875 251.859375 412.3984375 C266.15788139 399.12125299 275.82195871 380.57426175 281 362 C281.3196875 360.91332031 281.639375 359.82664062 281.96875 358.70703125 C286.23237009 341.55385599 285.98825785 320.95605391 281 304 C280.6596875 302.77925781 280.319375 301.55851562 279.96875 300.30078125 C271.28115965 271.74326296 250.90757003 248.22195595 224.84960938 233.984375 C181.46780627 210.89627704 132.08960669 220.56345581 96 252 Z M-154 315 C-159.36008585 320.39864762 -162.27261914 325.00084032 -162.375 332.8125 C-162.22475225 339.62373127 -160.8313374 344.01497832 -156.12890625 348.97265625 C-148.23704922 356.23793862 -141.68176119 357 -131 357 C-131 341.16 -131 325.32 -131 309 C-139.98686393 309 -146.87483628 309.14153205 -154 315 Z M-115 309 C-115 324.84 -115 340.68 -115 357 C-93.88 357 -72.76 357 -51 357 C-51 341.16 -51 325.32 -51 309 C-72.12 309 -93.24 309 -115 309 Z M-35 309 C-35 324.84 -35 340.68 -35 357 C-7.94 357 19.12 357 47 357 C46.505 353.04 46.505 353.04 46 349 C45.91305106 346.50112029 45.86944767 344.00039093 45.8671875 341.5 C45.86623077 340.82001953 45.86527405 340.14003906 45.86428833 339.43945312 C45.86361355 338.01432196 45.86541831 336.5891876 45.86962891 335.1640625 C45.87498725 333.0051369 45.86965988 330.84641927 45.86328125 328.6875 C45.86394216 327.29166622 45.86522358 325.89583256 45.8671875 324.5 C45.86831543 323.2521875 45.86944336 322.004375 45.87060547 320.71875 C46.00707127 316.79677449 46.51324442 312.89404466 47 309 C19.94 309 -7.12 309 -35 309 Z M-147 373 C-147 388.84 -147 404.68 -147 421 C-141.72 421 -136.44 421 -131 421 C-131 410.44 -131 399.88 -131 389 C-115.16 389 -99.32 389 -83 389 C-83 394.28 -83 399.56 -83 405 C-77.72 405 -72.44 405 -67 405 C-67 394.44 -67 383.88 -67 373 C-93.4 373 -119.8 373 -147 373 Z " fill="#000000" transform="translate(203,43)"/>
<path d="M0 0 C19.41513413 15.83036047 34.05409201 37.67987498 37 63 C39.00706443 91.38316441 34.11130766 116.2402984 15.84375 138.64453125 C-0.57892148 157.46699451 -22.83614019 171.43272251 -48.21777344 173.22753906 C-76.8329536 174.49950262 -101.20094475 168.80835389 -123.1875 149.625 C-141.72962913 132.23989973 -154.23970686 110.00534464 -155.3828125 84.2890625 C-156.09445376 55.78869783 -149.21659255 31.57486407 -129.3359375 10.37109375 C-94.83017582 -24.65398542 -39.47352935 -30.18232772 0 0 Z M-117 22 C-133.18115275 38.83936913 -138.56951323 60.15434883 -138.26953125 82.8984375 C-137.8396734 96.71741459 -132.47285032 108.04407988 -126 120 C-123.84338089 117.23801412 -122.07856481 114.43344676 -120.375 111.375 C-112.71637736 98.54775026 -101.60077171 89.01906493 -88 83 C-89.15835143 79.86124129 -90.33320463 77.34595316 -92.4375 74.75 C-99.02915614 65.56458568 -99.07611705 54.93121728 -98 44 C-95.98856643 33.9069137 -90.30487965 26.19640136 -82.125 20.125 C-71.28881717 13.15426149 -59.28673148 12.14926348 -46.70703125 14.65625 C-35.0519326 18.47004815 -27.66575806 26.46548169 -21.90234375 37.0078125 C-18.09513877 46.03885688 -18.56658452 58.96255028 -21.625 68.125 C-23.44290373 72.36895512 -25.86473663 75.91321366 -28.828125 79.44140625 C-30.20032037 80.94142585 -30.20032037 80.94142585 -30 83 C-29.20078125 83.37769531 -28.4015625 83.75539063 -27.578125 84.14453125 C-11.88613067 92.00894625 -0.30808284 103.86131706 7 120 C15.52162416 112.61627818 19.33391397 97.10023501 20.22753906 86.23291016 C21.37855892 64.03415295 16.78623227 43.21792033 2 26 C1.50371094 25.36191406 1.00742187 24.72382813 0.49609375 24.06640625 C-12.68294226 7.77521234 -32.94605029 -0.5634442 -53.3125 -2.8125 C-77.67946515 -4.22337374 -99.71127446 5.27657339 -117 22 Z M-78.7734375 40.15625 C-82.70554427 46.06693278 -82.69863277 52.12115424 -82 59 C-80.22657567 65.64472914 -75.5533353 70.17367959 -70 74 C-64.00112996 76.94062257 -57.1171647 77.09883788 -50.6875 75.3828125 C-44.55867139 72.67750925 -39.76047208 67.59136305 -36.828125 61.609375 C-34.92194143 55.60309848 -34.93561313 48.49708442 -37.5 42.6875 C-40.98037258 36.75476525 -46.4356193 32.06836256 -53 30 C-64.72394962 28.57391138 -71.30742361 31.31382015 -78.7734375 40.15625 Z M-93 105 C-93.70769531 105.50015625 -94.41539062 106.0003125 -95.14453125 106.515625 C-102.7205803 112.43301242 -109.78835569 122.6322882 -112 132 C-111.85577092 135.24034661 -111.39276804 136.55486288 -109.2421875 138.9921875 C-92.61698318 152.21553483 -71.30490397 158.73369426 -50.125 156.375 C-34.89502367 154.34616262 -18.5477048 148.48443946 -7.27734375 137.73828125 C-5.70540045 135.91107308 -5.70540045 135.91107308 -5.6875 132.6875 C-10.7270412 118.528789 -19.09713987 107.891134 -32 100 C-52.62231526 90.40982232 -74.40416313 91.3377525 -93 105 Z " fill="#000000" transform="translate(435,299)"/>
<path d="M0 0 C1.57982017 -0.00543108 3.15963526 -0.01255924 4.73944092 -0.02124023 C8.99985097 -0.03935951 13.25987033 -0.03245363 17.52028656 -0.01972389 C21.99677009 -0.00953673 26.47322206 -0.01900534 30.94970703 -0.02526855 C38.46457878 -0.03252841 45.97929286 -0.02300105 53.49414062 -0.00390625 C62.15968781 0.01785931 70.82485843 0.01080676 79.4903965 -0.01121187 C86.95487992 -0.0294134 94.41925054 -0.03190104 101.88374901 -0.0214572 C106.3312738 -0.0152483 110.77862208 -0.01431438 115.22613525 -0.02760315 C119.40916663 -0.03923055 123.59171652 -0.0310115 127.77469635 -0.00802612 C129.30200657 -0.00277556 130.82935792 -0.00418954 132.35665131 -0.01307678 C145.67825696 -0.08339723 156.18342282 2.0941591 166.0546875 11.51757812 C174.76938621 20.64644074 177.67189891 30.63891249 177.57226562 43.05664062 C177.5792749 44.15248474 177.58628418 45.24832886 177.59350586 46.37738037 C177.61097628 49.96604459 177.59950146 53.5539072 177.5859375 57.14257812 C177.58863554 59.65641428 177.59252056 62.17024942 177.59753418 64.68408203 C177.60341442 69.93920935 177.59530085 75.1941319 177.57617188 80.44921875 C177.55440848 86.49730604 177.56146197 92.54485369 177.5834775 98.59292793 C177.60392017 104.446515 177.60162507 110.29989944 177.58995056 116.15350342 C177.58729423 118.62847979 177.59051426 121.10347006 177.59986877 123.57843018 C177.61009926 127.0454892 177.59444127 130.51153173 177.57226562 133.97851562 C177.58036255 134.98767029 177.58845947 135.99682495 177.59680176 137.03656006 C177.4650164 148.23478518 173.79928731 157.40491813 166.0546875 165.51757812 C158.79048902 172.45220994 150.36195841 176.74777119 140.18212891 176.80957031 C138.08961416 176.74359321 135.99756843 176.6611907 133.90625 176.56445312 C131.57688894 176.52044316 129.2474542 176.48020168 126.91796875 176.44335938 C123.31056947 176.3677479 119.71039524 176.26899205 116.10595703 176.10302734 C98.85844897 175.3646963 88.62610681 177.69890929 75.61108398 189.37182617 C74.86469666 190.06362473 74.11830933 190.75542328 73.3493042 191.46818542 C69.61570827 194.8027747 65.56106356 197.67296517 61.4921875 200.58007812 C59.94660519 201.70979648 58.40217409 202.84109308 56.859375 203.97460938 C56.08432617 204.5438916 55.30927734 205.11317383 54.51074219 205.69970703 C51.84962587 207.66935634 49.20452556 209.65911844 46.5625 211.65429688 C45.19847046 212.6838147 45.19847046 212.6838147 43.80688477 213.73413086 C42.05269064 215.06032518 40.30047582 216.38914287 38.55053711 217.72094727 C37.7591333 218.3189917 36.96772949 218.91703613 36.15234375 219.53320312 C35.45633057 220.06204102 34.76031738 220.59087891 34.04321289 221.13574219 C27.76518434 225.49837467 21.53284576 225.44516526 14.0546875 224.51757812 C8.2694547 222.23114997 4.93648185 218.94965024 1.90615845 213.52232361 C0.45276027 210.10037076 0.56026685 206.84513856 0.6640625 203.17773438 C0.66972229 202.41077744 0.67538208 201.6438205 0.68121338 200.85362244 C0.70342256 198.42844499 0.75358488 196.00480118 0.8046875 193.58007812 C0.8247727 191.92580274 0.84301992 190.27150396 0.859375 188.6171875 C0.90323591 184.58340264 0.97215113 180.55074946 1.0546875 176.51757812 C-0.68167969 176.54476929 -0.68167969 176.54476929 -2.453125 176.57250977 C-3.99218354 176.58717305 -5.53124637 176.60139101 -7.0703125 176.61523438 C-8.21113281 176.63487244 -8.21113281 176.63487244 -9.375 176.65490723 C-20.09074845 176.72707687 -28.22188888 172.89060067 -35.9453125 165.51757812 C-44.66001121 156.38871551 -47.56252391 146.39624376 -47.46289062 133.97851562 C-47.4698999 132.88267151 -47.47690918 131.78682739 -47.48413086 130.65777588 C-47.50160128 127.06911166 -47.49012646 123.48124905 -47.4765625 119.89257812 C-47.47926054 117.37874197 -47.48314556 114.86490683 -47.48815918 112.35107422 C-47.49403942 107.0959469 -47.48592585 101.84102435 -47.46679688 96.5859375 C-47.44503348 90.53785021 -47.45208697 84.49030256 -47.4741025 78.44222832 C-47.49454517 72.58864125 -47.49225007 66.73525681 -47.48057556 60.88165283 C-47.47791923 58.40667646 -47.48113926 55.93168619 -47.49049377 53.45672607 C-47.50072426 49.98966705 -47.48506627 46.52362452 -47.46289062 43.05664062 C-47.47098755 42.04748596 -47.47908447 41.0383313 -47.48742676 39.99859619 C-47.3556414 28.80037107 -43.68991231 19.63023812 -35.9453125 11.51757812 C-25.38187679 1.43339091 -14.08149767 -0.08193949 0 0 Z M-25.1953125 25.95507812 C-31.01683068 33.09897772 -31.09523033 41.0161917 -31.09057617 49.8684082 C-31.09393478 50.7911705 -31.0972934 51.7139328 -31.10075378 52.66465759 C-31.11022766 55.70548867 -31.11220514 58.74626447 -31.11328125 61.78710938 C-31.11649641 63.90931724 -31.11986068 66.03152489 -31.12336731 68.1537323 C-31.12934974 72.59964512 -31.13120813 77.04553852 -31.13061523 81.49145508 C-31.13051369 87.17393217 -31.14416228 92.85628411 -31.16138744 98.53873158 C-31.17253435 102.92177395 -31.17453361 107.30478632 -31.17400551 111.68784142 C-31.1751817 113.78209553 -31.17958315 115.87635051 -31.18733788 117.97059059 C-31.19719167 120.90666972 -31.19423844 123.84248052 -31.18823242 126.77856445 C-31.19385193 127.6344516 -31.19947144 128.49033875 -31.20526123 129.37216187 C-31.15813861 138.48843689 -30.03055987 146.46865395 -23.3046875 153.14648438 C-16.61380753 159.18282174 -10.05986376 160.66335528 -1.109375 160.61523438 C0.48583984 160.61040039 0.48583984 160.61040039 2.11328125 160.60546875 C3.75490234 160.59290039 3.75490234 160.59290039 5.4296875 160.58007812 C6.54730469 160.57556641 7.66492188 160.57105469 8.81640625 160.56640625 C11.56255554 160.55467057 14.30859336 160.53825175 17.0546875 160.51757812 C17.04421387 161.8347583 17.03374023 163.15193848 17.02294922 164.5090332 C16.98678467 169.389865 16.96379991 174.27068491 16.94482422 179.15161133 C16.93475856 181.26523835 16.92110493 183.37885142 16.90380859 185.49243164 C16.8795852 188.52819255 16.86821012 191.56376955 16.859375 194.59960938 C16.84905243 195.54657181 16.83872986 196.49353424 16.82809448 197.4691925 C16.82794342 198.349879 16.82779236 199.23056549 16.82763672 200.13793945 C16.82097488 201.30042961 16.82097488 201.30042961 16.81417847 202.48640442 C16.93625485 204.83069358 16.93625485 204.83069358 19.0546875 207.51757812 C25.27319334 207.23447503 28.64113757 204.11965273 33.2421875 200.33007812 C34.85240641 199.04011736 36.46444247 197.75242218 38.078125 196.46679688 C38.90280273 195.80728027 39.72748047 195.14776367 40.57714844 194.46826172 C44.43674213 191.4294212 48.39703672 188.53458093 52.3671875 185.64257812 C60.45642793 179.73283972 68.43592876 173.68826527 76.37817383 167.58251953 C77.2214624 166.93589355 78.06475098 166.28926758 78.93359375 165.62304688 C79.6819751 165.04707764 80.43035645 164.4711084 81.20141602 163.87768555 C84.27761883 161.62007445 86.13913838 161.3842215 89.91235352 161.34399414 C90.92423233 161.3305043 91.93611115 161.31701447 92.97865295 161.30311584 C94.07753342 161.29267746 95.17641388 161.28223907 96.30859375 161.27148438 C98.63086286 161.23852567 100.95312839 161.20531439 103.27539062 161.171875 C106.93983318 161.12460293 110.60426339 161.08021724 114.26879883 161.04077148 C117.80305738 161.00083501 121.33700771 160.94932072 124.87109375 160.89648438 C125.9558046 160.88807022 127.04051544 160.87965607 128.15809631 160.87098694 C137.90912228 160.71403785 146.48204909 160.13030746 153.68359375 152.87695312 C160.66290839 145.14084533 161.20524013 137.22633751 161.19995117 127.16674805 C161.20330978 126.24398575 161.2066684 125.32122345 161.21012878 124.37049866 C161.21960266 121.32966758 161.22158014 118.28889178 161.22265625 115.24804688 C161.22587141 113.12583901 161.22923568 111.00363136 161.23274231 108.88142395 C161.23872474 104.43551113 161.24058313 99.98961773 161.23999023 95.54370117 C161.23988869 89.86122408 161.25353728 84.17887214 161.27076244 78.49642467 C161.28190935 74.1133823 161.28390861 69.73036993 161.28338051 65.34731483 C161.2845567 63.25306072 161.28895815 61.15880574 161.29671288 59.06456566 C161.30656667 56.12848653 161.30361344 53.19267573 161.29760742 50.2565918 C161.30322693 49.40070465 161.30884644 48.5448175 161.31463623 47.66299438 C161.26751361 38.54671936 160.13993487 30.5665023 153.4140625 23.88867188 C146.62316437 17.76210074 139.9893251 16.39840291 130.92692566 16.38386536 C129.72004593 16.37960037 128.5131662 16.37533539 127.26971436 16.37094116 C125.95891907 16.37139435 124.64812378 16.37184753 123.29760742 16.37231445 C121.892623 16.36931976 120.48763939 16.36591652 119.08265686 16.36213684 C115.2767397 16.35332382 111.47084504 16.35095985 107.66491866 16.35032105 C105.28383066 16.34960898 102.90274834 16.34747166 100.52166176 16.34482384 C92.20543684 16.33557909 83.88922793 16.33148783 75.57299805 16.33227539 C67.83635568 16.33287583 60.09978312 16.32232836 52.3631584 16.30653173 C45.70817145 16.29343061 39.05320723 16.28809258 32.39820749 16.2887308 C28.42913978 16.28898505 24.46013413 16.2861745 20.49107933 16.27555275 C16.75558215 16.26582848 13.0202058 16.26582207 9.28470421 16.27306938 C7.27187892 16.27460339 5.25905354 16.26629866 3.24624634 16.25762939 C-8.11702313 16.29684734 -17.19606793 17.08844559 -25.1953125 25.95507812 Z " fill="#000000" transform="translate(326.9453125,7.482421875)"/>
<path d="M0 0 C5.28 0 10.56 0 16 0 C16 5.28 16 10.56 16 16 C18.31 16 20.62 16 23 16 C29.67984794 17.81310158 34.04613763 22.54564139 38 28 C40.50380643 32.46330711 40 34.33066462 40 40 C34.39 40 28.78 40 23 40 C22.34 38.35 21.68 36.7 21 35 C17.48334056 33.00357694 14.25650251 32.71411238 10.26171875 32.5859375 C9.19501953 32.54726562 8.12832031 32.50859375 7.02929688 32.46875 C5.92650391 32.4378125 4.82371094 32.406875 3.6875 32.375 C2.56537109 32.33632812 1.44324219 32.29765625 0.28710938 32.2578125 C-2.47509852 32.16377989 -5.237304 32.07812659 -8 32 C-7.74412595 33.77305664 -7.46972261 35.54344608 -7.1875 37.3125 C-7.03667969 38.29863281 -6.88585937 39.28476563 -6.73046875 40.30078125 C-5.95228758 43.17630632 -5.35498656 44.23803669 -3 46 C-0.04551915 46.98482695 1.95935755 47.13728112 5.04296875 47.17578125 C6.03490234 47.19962891 7.02683594 47.22347656 8.04882812 47.24804688 C10.12154335 47.29061041 12.19451969 47.3220785 14.26757812 47.34179688 C21.93658245 47.55468725 27.40792697 48.85224262 33.2421875 53.96484375 C33.78101563 54.61582031 34.31984375 55.26679687 34.875 55.9375 C35.70644531 56.91009766 35.70644531 56.91009766 36.5546875 57.90234375 C39.80273457 62.61640126 40.24200278 66.59666251 40.1953125 72.26953125 C40.1924826 72.95053391 40.18965271 73.63153656 40.18673706 74.33317566 C40.17560525 76.49313455 40.15051457 78.65266794 40.125 80.8125 C40.11496111 82.28319711 40.10583685 83.75390076 40.09765625 85.22460938 C40.0773963 88.81669925 40.03823667 92.40787732 40 96 C32.08 96 24.16 96 16 96 C16 101.28 16 106.56 16 112 C10.72 112 5.44 112 0 112 C0 106.72 0 101.44 0 96 C-2.31 96 -4.62 96 -7 96 C-13.67984794 94.18689842 -18.04613763 89.45435861 -22 84 C-24.50380643 79.53669289 -24 77.66933538 -24 72 C-18.39 72 -12.78 72 -7 72 C-6.34 73.65 -5.68 75.3 -5 77 C-1.48334056 78.99642306 1.74349749 79.28588762 5.73828125 79.4140625 C6.80498047 79.45273438 7.87167969 79.49140625 8.97070312 79.53125 C10.07349609 79.5621875 11.17628906 79.593125 12.3125 79.625 C13.43462891 79.66367188 14.55675781 79.70234375 15.71289062 79.7421875 C18.47509852 79.83622011 21.237304 79.92187341 24 80 C23.74412595 78.22694336 23.46972261 76.45655392 23.1875 74.6875 C23.03667969 73.70136719 22.88585937 72.71523437 22.73046875 71.69921875 C21.95228758 68.82369368 21.35498656 67.76196331 19 66 C16.04551915 65.01517305 14.04064245 64.86271888 10.95703125 64.82421875 C9.96509766 64.80037109 8.97316406 64.77652344 7.95117188 64.75195312 C5.87845665 64.70938959 3.80548031 64.6779215 1.73242188 64.65820312 C-5.93658245 64.44531275 -11.40792697 63.14775738 -17.2421875 58.03515625 C-17.78101563 57.38417969 -18.31984375 56.73320313 -18.875 56.0625 C-19.42929687 55.41410156 -19.98359375 54.76570313 -20.5546875 54.09765625 C-23.80273457 49.38359874 -24.24200278 45.40333749 -24.1953125 39.73046875 C-24.1924826 39.04946609 -24.18965271 38.36846344 -24.18673706 37.66682434 C-24.17560525 35.50686545 -24.15051457 33.34733206 -24.125 31.1875 C-24.11496111 29.71680289 -24.10583685 28.24609924 -24.09765625 26.77539062 C-24.0773963 23.18330075 -24.03823667 19.59212268 -24 16 C-16.08 16 -8.16 16 0 16 C0 10.72 0 5.44 0 0 Z " fill="#000000" transform="translate(384,40)"/>
<path d="M0 0 C5.28 0 10.56 0 16 0 C16 5.28 16 10.56 16 16 C10.72 16 5.44 16 0 16 C0 10.72 0 5.44 0 0 Z " fill="#000000" transform="translate(456,136)"/>
<path d="M0 0 C5.28 0 10.56 0 16 0 C16 5.28 16 10.56 16 16 C10.72 16 5.44 16 0 16 C0 10.72 0 5.44 0 0 Z " fill="#000000" transform="translate(456,104)"/>
<path d="M0 0 C5.28 0 10.56 0 16 0 C16 5.28 16 10.56 16 16 C10.72 16 5.44 16 0 16 C0 10.72 0 5.44 0 0 Z " fill="#000000" transform="translate(312,104)"/>
<path d="M0 0 C5.28 0 10.56 0 16 0 C16 5.28 16 10.56 16 16 C10.72 16 5.44 16 0 16 C0 10.72 0 5.44 0 0 Z " fill="#000000" transform="translate(456,72)"/>
<path d="M0 0 C5.28 0 10.56 0 16 0 C16 5.28 16 10.56 16 16 C10.72 16 5.44 16 0 16 C0 10.72 0 5.44 0 0 Z " fill="#000000" transform="translate(312,72)"/>
<path d="M0 0 C5.28 0 10.56 0 16 0 C16 5.28 16 10.56 16 16 C10.72 16 5.44 16 0 16 C0 10.72 0 5.44 0 0 Z " fill="#000000" transform="translate(312,40)"/>
</svg>
