<?xml version="1.0" encoding="UTF-8"?>
<svg version="1.1" xmlns="http://www.w3.org/2000/svg" width="512" height="512">
<path d="M0 0 C3.4375 0.625 3.4375 0.625 5.62059784 2.51224422 C8.24937867 7.01592796 7.99153471 10.92484934 7.94543457 16.05409241 C7.95479451 17.64651116 7.95479451 17.64651116 7.96434355 19.27109998 C7.98032032 22.8346853 7.96765013 26.39759104 7.95507812 29.96118164 C7.96049736 32.51384887 7.96761889 35.06651298 7.97631836 37.61917114 C7.99268614 43.83832305 7.99025911 50.05722273 7.9786678 56.27637804 C7.969631 61.33481071 7.96841055 66.39318931 7.97276306 71.45162773 C7.97337599 72.17185489 7.97398893 72.89208205 7.97462043 73.63413427 C7.97589937 75.09739484 7.97719622 76.5606554 7.9785108 78.02391594 C7.98992027 91.74980063 7.97680013 105.47557852 7.95530933 119.20144569 C7.9374646 130.96206889 7.94052 142.72253401 7.95898438 154.4831543 C7.98043061 168.1493588 7.9887936 181.81546945 7.97653532 195.48168844 C7.97526119 196.94167958 7.9740037 198.40167074 7.97276306 199.86166191 C7.97183741 200.93906585 7.97183741 200.93906585 7.97089306 202.03823553 C7.9674494 207.08315664 7.97324776 212.12801793 7.98268127 217.17292976 C7.99512681 223.97820448 7.9861591 230.78313666 7.96310425 237.58839798 C7.95783168 240.08120799 7.95930591 242.57404315 7.96815491 245.06684303 C8.06671689 275.6628403 8.06671689 275.6628403 -3.5625 287.625 C-12.38200084 295.82108498 -21.89436063 298.2287848 -33.69381714 298.1396637 C-34.87812478 298.14660922 -36.06243243 298.15355475 -37.28262818 298.16071075 C-40.54352141 298.17575982 -43.80382211 298.17307361 -47.06471467 298.16255772 C-50.59176649 298.15553259 -54.11872737 298.1715887 -57.64575195 298.18455505 C-64.54531293 298.20614579 -71.44470864 298.20608076 -78.34429227 298.19792951 C-83.95514173 298.19161737 -89.56594317 298.19277765 -95.17679214 298.19920158 C-95.97682733 298.20010324 -96.77686252 298.20100489 -97.60114119 298.20193387 C-99.22666709 298.20378517 -100.85219297 298.20564773 -102.47771885 298.20752143 C-117.70535304 298.22408301 -132.93289447 298.21539499 -148.16052307 298.19853585 C-162.07429329 298.18384337 -175.98784746 298.19846379 -189.90158986 298.22730602 C-204.20794492 298.25673993 -218.51420041 298.26766048 -232.82058442 298.25812382 C-234.4405817 298.25710132 -236.060579 298.25610671 -237.68057632 298.2551403 C-238.47752988 298.25466391 -239.27448343 298.25418752 -240.0955871 298.2536967 C-245.69462144 298.25153767 -251.29356097 298.26130941 -256.89257431 298.27591133 C-263.72342978 298.29347815 -270.55401004 298.29325543 -277.3848549 298.27055968 C-280.86598758 298.2594561 -284.34663621 298.25616539 -287.82774734 298.27486038 C-291.61136146 298.29083604 -295.39366265 298.27579425 -299.17721558 298.25318909 C-300.26381529 298.26502482 -301.350415 298.27686054 -302.46994197 298.28905493 C-313.51193823 298.15561518 -322.70232769 294.42145965 -330.66015625 286.72265625 C-341.46719226 274.80606829 -341.02625036 261.09283843 -340.99609375 245.8828125 C-341.00065978 243.86644312 -341.0059666 241.8500753 -341.01197815 239.83370972 C-341.02087728 235.62605425 -341.0185191 231.41858897 -341.00854492 227.2109375 C-340.99700459 221.81710791 -341.01736024 216.42392808 -341.04646206 211.03018379 C-341.06478564 206.87464231 -341.06454022 202.7192581 -341.05882454 198.56368637 C-341.05867115 196.57414711 -341.06473034 194.58459731 -341.07711601 192.59509659 C-341.09196757 189.82095271 -341.08139568 187.04803095 -341.06420898 184.27392578 C-341.07387695 183.45310013 -341.08354492 182.63227448 -341.09350586 181.78657532 C-341.04621457 178.1475187 -340.89321947 176.05960089 -338.65614319 173.11984253 C-336.4026866 171.51089466 -335.30341988 171.05714664 -332.5625 171.0625 C-331.9025 171.04058594 -331.2425 171.01867187 -330.5625 170.99609375 C-327.3450367 172.00783514 -326.35270071 173.81287673 -324.5625 176.625 C-324.19203463 179.58270134 -324.04776425 182.16109097 -324.09594727 185.11206055 C-324.09364105 185.95504196 -324.09133484 186.79802338 -324.08895874 187.66654968 C-324.0863334 189.49278766 -324.09275383 191.31905623 -324.10721016 193.14523888 C-324.12914257 196.04294119 -324.12536372 198.93960198 -324.11473083 201.83735657 C-324.09308446 209.03710434 -324.11034687 216.23662084 -324.13623047 223.43634033 C-324.15770363 229.51742152 -324.15947096 235.59783302 -324.13331413 241.67890358 C-324.12898757 244.52080676 -324.15353502 247.36152313 -324.17884827 250.20329285 C-324.19718061 264.36742919 -324.19718061 264.36742919 -317.00514221 276.24589539 C-309.73676565 282.16790985 -300.12744234 281.91772439 -291.21459961 281.87896729 C-290.10253364 281.88208727 -288.99046766 281.88520725 -287.84470272 281.88842177 C-284.13469511 281.89637108 -280.42485245 281.89009 -276.71484375 281.88378906 C-274.04834517 281.88650028 -271.38185779 281.88998988 -268.71536255 281.89440918 C-262.23447241 281.90328349 -255.75362871 281.90138994 -249.27273679 281.8955839 C-244.00366921 281.89105968 -238.73461462 281.89045779 -233.46554565 281.89263153 C-232.71446531 281.892938 -231.96338497 281.89324446 -231.18954462 281.89356022 C-229.663546 281.89419969 -228.13754739 281.89484812 -226.61154878 281.8955054 C-212.31588166 281.90120294 -198.02024022 281.89465984 -183.72457731 281.88390467 C-171.46904128 281.87496968 -159.21354315 281.87652188 -146.95800781 281.88574219 C-132.71207461 281.89645499 -118.46616391 281.90065368 -104.22022724 281.89451766 C-102.69996961 281.89388059 -101.17971198 281.89325185 -99.65945435 281.89263153 C-98.91153765 281.89232298 -98.16362096 281.89201443 -97.39304012 281.89169653 C-92.13277929 281.88997262 -86.87253278 281.89287813 -81.61227417 281.89759064 C-75.19823475 281.9032107 -68.78424425 281.9016594 -62.37021041 281.89102915 C-59.10022064 281.88578755 -55.8303288 281.88477382 -52.56033707 281.89032745 C-49.01027718 281.89580045 -45.46044576 281.88892719 -41.91040039 281.87896729 C-40.8844171 281.88342873 -39.85843382 281.88789017 -38.80136013 281.89248681 C-31.44355574 281.85250715 -23.35962339 281.65452957 -17.25 277.0625 C-16.63511719 276.62808594 -16.02023437 276.19367188 -15.38671875 275.74609375 C-9.79141973 269.24021074 -8.98257895 262.02551357 -9.0771637 253.74371338 C-9.07319027 252.68191132 -9.06921685 251.62010927 -9.06512302 250.52613139 C-9.05656633 246.98623332 -9.07632637 243.44707193 -9.09594727 239.90722656 C-9.09539829 237.36231894 -9.09302214 234.81741115 -9.08895874 232.27250671 C-9.08378852 226.80176087 -9.09041654 221.33123027 -9.10721016 215.86051178 C-9.13104844 207.94547144 -9.12801831 200.03060901 -9.11758172 192.11554775 C-9.10089841 179.26500755 -9.09830179 166.41451124 -9.1081543 153.56396484 C-9.10902871 152.4117126 -9.10902871 152.4117126 -9.10992079 151.23618254 C-9.1166539 142.65954802 -9.1257322 134.08291729 -9.13623047 125.50628662 C-9.13997086 122.39237476 -9.14363035 119.27846282 -9.1472168 116.16455078 C-9.14810771 115.39611045 -9.14899863 114.62767013 -9.14991654 113.83594373 C-9.164203 101.02691313 -9.15909485 88.21796732 -9.13929409 75.40894485 C-9.12796581 67.51205497 -9.13375533 59.61553256 -9.16157293 51.71868172 C-9.18155951 45.67365297 -9.176132 39.62892701 -9.16126633 33.58387184 C-9.15940535 31.10261717 -9.1661644 28.6213392 -9.18206978 26.14013481 C-9.20256497 22.75905933 -9.19254396 19.37941117 -9.17481995 15.99835205 C-9.18822168 15.01129973 -9.20162342 14.0242474 -9.21543127 13.0072844 C-9.15979023 8.40965986 -9.06153413 6.29507412 -6.24688625 2.515728 C-3.5625 0.625 -3.5625 0.625 0 0 Z " fill="#000000" transform="translate(422.5625,214.375)"/>
<path d="M0 0 C1.25850769 -0.01283524 2.51701538 -0.02567047 3.81365967 -0.03889465 C5.1898967 -0.04706344 6.5661382 -0.05450691 7.94238281 -0.0612793 C8.98427639 -0.06739259 8.98427639 -0.06739259 10.04721832 -0.07362938 C13.72516073 -0.09447432 17.40306603 -0.10878168 21.08105469 -0.11816406 C24.86841357 -0.12921331 28.65518247 -0.16359964 32.44233322 -0.20333576 C35.36441086 -0.22956003 38.28634929 -0.23786108 41.20853424 -0.24144554 C42.60391465 -0.24629813 43.99928939 -0.25787421 45.39455414 -0.27648354 C58.9640274 -0.44618814 58.9640274 -0.44618814 64.89550781 4.17700195 C69.84977538 9.52239591 70.03910443 13.84415551 70.0090332 20.87109375 C70.00917923 21.75910675 70.00932526 22.64711975 70.00947571 23.56204224 C70.00877849 26.50012649 70.00099499 29.43814751 69.99316406 32.3762207 C69.99129921 34.41217514 69.98987562 36.44813003 69.98887634 38.48408508 C69.9850565 43.84511553 69.97523074 49.20611892 69.96417236 54.56713867 C69.9539468 60.03669875 69.94937626 65.5062632 69.94433594 70.97583008 C69.93360802 81.70956593 69.91653796 92.44328169 69.89550781 103.17700195 C71.04148437 103.14219727 72.18746094 103.10739258 73.36816406 103.0715332 C74.8980972 103.04337492 76.42804635 103.01607697 77.95800781 102.98950195 C78.71017578 102.96436523 79.46234375 102.93922852 80.23730469 102.91333008 C86.45887239 102.8325305 91.27701109 103.84944931 96.07519531 108.11450195 C96.63464844 108.79512695 97.19410156 109.47575195 97.77050781 110.17700195 C98.34542969 110.85762695 98.92035156 111.53825195 99.51269531 112.23950195 C103.67375814 118.06969168 102.20078404 127.1445484 102.24560547 134.05371094 C102.26212885 135.91874705 102.28937102 137.78372078 102.32763672 139.6484375 C102.38273023 142.34969642 102.40433019 145.04947371 102.41894531 147.7512207 C102.44161469 148.57547043 102.46428406 149.39972015 102.48764038 150.24894714 C102.46110933 157.60812711 99.66842262 162.40408715 94.52050781 167.55200195 C87.85142994 171.68047873 81.01136785 171.46936487 73.39575195 171.45166016 C71.6871122 171.45932655 71.6871122 171.45932655 69.94395447 171.46714783 C66.18947046 171.48101483 62.43517059 171.48008929 58.68066406 171.4777832 C56.0642439 171.4816715 53.44782436 171.48600645 50.83140564 171.49076843 C45.35153579 171.49896734 39.87171754 171.49808263 34.3918457 171.49267578 C28.07235774 171.48663607 21.75309243 171.49895208 15.43364245 171.52024585 C9.33554779 171.54003232 3.23755675 171.54303019 -2.86056709 171.53951073 C-5.44687994 171.54002349 -8.03319638 171.54525278 -10.61948967 171.55532265 C-14.23828069 171.56768451 -17.85655874 171.56089638 -21.4753418 171.54931641 C-23.07078323 171.56078201 -23.07078323 171.56078201 -24.69845581 171.57247925 C-33.74469271 171.50862713 -40.57745491 169.70403923 -47.10449219 163.17700195 C-50.33033283 158.07701021 -50.54592002 153.89355358 -50.50292969 148.05200195 C-50.50579987 147.18687988 -50.50867004 146.32175781 -50.5116272 145.43041992 C-50.51366117 143.60831037 -50.50817812 141.78617864 -50.49560547 139.96411133 C-50.47954199 137.18561675 -50.49547654 134.40857665 -50.51464844 131.63012695 C-50.51266589 129.8540821 -50.50882197 128.07803814 -50.50292969 126.30200195 C-50.50900238 125.47684082 -50.51507507 124.65167969 -50.52133179 123.80151367 C-50.44940864 117.86138137 -49.33038181 113.61313988 -45.20214844 109.0949707 C-44.53054687 108.52391602 -43.85894531 107.95286133 -43.16699219 107.36450195 C-42.49796875 106.78055664 -41.82894531 106.19661133 -41.13964844 105.5949707 C-37.91191369 103.34608833 -34.86426081 103.05003401 -30.99511719 103.0793457 C-30.24101562 103.08256836 -29.48691406 103.08579102 -28.70996094 103.08911133 C-27.93265625 103.09749023 -27.15535156 103.10586914 -26.35449219 103.11450195 C-25.56171875 103.11901367 -24.76894531 103.12352539 -23.95214844 103.12817383 C-22.0028971 103.13991631 -20.05368481 103.1578505 -18.10449219 103.17700195 C-18.11337463 102.0524913 -18.12225708 100.92798065 -18.13140869 99.76939392 C-18.21256791 89.16129071 -18.27249291 78.55325067 -18.31174088 67.94490719 C-18.33259717 62.49129717 -18.36087939 57.0379382 -18.40625 51.58447266 C-18.44977707 46.31952516 -18.47364402 41.05481885 -18.48400116 35.78970528 C-18.49138017 33.78307869 -18.50578972 31.77646499 -18.52741241 29.76994133 C-18.5565374 26.954738 -18.56044437 24.14052557 -18.55859375 21.32519531 C-18.57297485 20.49944504 -18.58735596 19.67369476 -18.60217285 18.82292175 C-18.5618257 13.13397319 -17.35540623 9.86887036 -14.10449219 5.17700195 C-9.48734347 0.89769338 -6.18956841 0.05493384 0 0 Z M-2.10449219 16.17700195 C-2.10449219 51.81700195 -2.10449219 87.45700195 -2.10449219 124.17700195 C0.39025752 125.42437681 2.07328385 125.30396522 4.86425781 125.30639648 C5.89873047 125.30954865 6.93320313 125.31270081 7.99902344 125.31594849 C9.11986328 125.31392426 10.24070312 125.31190002 11.39550781 125.30981445 C13.11543945 125.31124954 13.11543945 125.31124954 14.87011719 125.31271362 C17.29785212 125.31339506 19.72558887 125.3115433 22.15332031 125.30737305 C25.87992425 125.30202432 29.60640765 125.3073193 33.33300781 125.3137207 C35.68717475 125.31305992 38.04134161 125.31177874 40.39550781 125.30981445 C41.51634766 125.31183868 42.6371875 125.31386292 43.79199219 125.31594849 C44.82646484 125.31279633 45.8609375 125.30964417 46.92675781 125.30639648 C47.84005859 125.30560089 48.75335938 125.3048053 49.69433594 125.3039856 C51.93889032 125.31987662 51.93889032 125.31987662 53.89550781 124.17700195 C53.89550781 88.53700195 53.89550781 52.89700195 53.89550781 16.17700195 C51.4007581 14.9296271 49.71773177 15.05003869 46.92675781 15.04760742 C45.37504883 15.04287918 45.37504883 15.04287918 43.79199219 15.03805542 C42.67115234 15.04007965 41.5503125 15.04210388 40.39550781 15.04418945 C39.24888672 15.04323273 38.10226562 15.042276 36.92089844 15.04129028 C34.49316351 15.04060885 32.06542676 15.0424606 29.63769531 15.04663086 C25.91109138 15.05197959 22.18460798 15.0466846 18.45800781 15.0402832 C16.10384088 15.04094399 13.74967402 15.04222517 11.39550781 15.04418945 C10.27466797 15.04216522 9.15382813 15.04014099 7.99902344 15.03805542 C6.96455078 15.04120758 5.93007812 15.04435974 4.86425781 15.04760742 C3.95095703 15.04840302 3.03765625 15.04919861 2.09667969 15.05001831 C-0.14787469 15.03412728 -0.14787469 15.03412728 -2.10449219 16.17700195 Z M-34.10449219 121.17700195 C-34.50436341 125.73802193 -34.4335161 130.31328434 -34.42016602 134.88989258 C-34.41700416 137.16837285 -34.44046736 139.44555716 -34.46582031 141.72387695 C-34.46809306 143.16658364 -34.46879691 144.60929384 -34.46777344 146.05200195 C-34.47075439 147.36942383 -34.47373535 148.6868457 -34.47680664 150.04418945 C-34.35394287 151.07801758 -34.2310791 152.1118457 -34.10449219 153.17700195 C-30.90614594 155.30923278 -30.10557537 155.42765152 -26.43603516 155.43096924 C-25.47703308 155.43660889 -24.51803101 155.44224854 -23.52996826 155.44805908 C-22.47948303 155.44401062 -21.4289978 155.43996216 -20.34667969 155.43579102 C-18.68539032 155.44104797 -18.68539032 155.44104797 -16.99053955 155.44641113 C-13.32012716 155.45523226 -9.64990663 155.44937784 -5.97949219 155.44262695 C-3.43505822 155.44397349 -0.89062449 155.44591393 1.65380859 155.44842529 C6.99026167 155.45137708 12.32664562 155.44726718 17.66308594 155.43774414 C23.83372241 155.42685965 30.00422673 155.43038526 36.17486 155.44139695 C42.1095655 155.45156395 48.0442299 155.45049107 53.97894287 155.44463348 C56.50518818 155.44329657 59.03143684 155.44494614 61.55767822 155.44959259 C65.0844423 155.45465526 68.61095037 155.44695099 72.13769531 155.43579102 C73.71342316 155.44186371 73.71342316 155.44186371 75.32098389 155.44805908 C76.759487 155.43959961 76.759487 155.43959961 78.22705078 155.43096924 C79.06106415 155.43021519 79.89507751 155.42946114 80.75436401 155.42868423 C83.19335659 155.30616041 83.19335659 155.30616041 85.89550781 153.17700195 C86.34753392 149.90928112 86.34753392 149.90928112 86.25878906 146.05200195 C86.25928757 145.34930176 86.25978607 144.64660156 86.26029968 143.92260742 C86.25795842 142.4364133 86.24822669 140.95021528 86.23168945 139.46411133 C86.20809846 137.18575691 86.21112715 134.90857242 86.21777344 132.63012695 C86.79867349 125.28724343 86.79867349 125.28724343 83.89550781 119.17700195 C80.53806669 118.93322312 80.53806669 118.93322312 76.77050781 119.05200195 C75.48917969 119.07004883 74.20785156 119.0880957 72.88769531 119.10668945 C71.90027344 119.12989258 70.91285156 119.1530957 69.89550781 119.17700195 C69.79753906 119.98524414 69.69957031 120.79348633 69.59863281 121.6262207 C68.06496834 132.58663316 68.06496834 132.58663316 63.89550781 136.17700195 C59.57637533 138.69458016 56.43349568 139.55663475 51.45043945 139.58105469 C50.19215836 139.59373886 48.93387726 139.60642303 47.63746643 139.61949158 C46.27686396 139.61743985 44.91626262 139.61445159 43.55566406 139.6105957 C42.14611053 139.61516226 40.73655922 139.62046924 39.32701111 139.6264801 C36.37912934 139.63539237 33.43151874 139.63300997 30.48364258 139.62304688 C26.71982301 139.61156097 22.9569422 139.63177111 19.19324589 139.66096401 C16.2839928 139.67937641 13.37496259 139.67902362 10.46566582 139.67332649 C9.07868572 139.67317388 7.69168993 139.67916813 6.3047657 139.69161797 C-7.25880973 139.79623017 -7.25880973 139.79623017 -13.10449219 135.17700195 C-16.9587129 130.00423205 -17.81537764 125.55197775 -18.10449219 119.17700195 C-20.39590505 119.12315674 -22.68767407 119.08428108 -24.97949219 119.05200195 C-26.25566406 119.02879883 -27.53183594 119.0055957 -28.84667969 118.98168945 C-32.19042556 118.82058671 -32.19042556 118.82058671 -34.10449219 121.17700195 Z " fill="#000000" transform="translate(230.1044921875,-0.177001953125)"/>
<path d="M0 0 C18.58152552 14.35339397 29.44824624 33.688377 33.59375 56.73046875 C33.8662663 58.86896475 34.03225087 60.97160719 34.125 63.125 C34.16496094 63.87523437 34.20492187 64.62546875 34.24609375 65.3984375 C34.83481876 86.80032325 27.71314401 107.47222975 13.5625 123.5 C12.09091512 125.04890544 10.61240684 126.59128196 9.125 128.125 C8.58617187 128.73730469 8.04734375 129.34960938 7.4921875 129.98046875 C-5.39427586 144.129676 -26.07470321 152.1138916 -44.875 153.125 C-66.49488984 154.11475175 -88.18094627 148.59508292 -104.66259766 134.1472168 C-107.14220749 131.87523359 -109.51159223 129.51862179 -111.875 127.125 C-112.7 126.29871094 -113.525 125.47242188 -114.375 124.62109375 C-128.88623892 109.34997576 -135.51607796 88.96366531 -136.125 68.125 C-135.5333565 46.79103128 -128.08716572 27.07361454 -113.875 11.125 C-113.20984375 10.36574219 -112.5446875 9.60648438 -111.859375 8.82421875 C-82.59354051 -22.55525934 -34.04824949 -23.65658966 0 0 Z M-97.875 18.125 C-98.49761719 18.65480469 -99.12023437 19.18460938 -99.76171875 19.73046875 C-111.86743578 30.74803144 -118.85151064 48.00504261 -119.875 64.125 C-120.03967618 84.5860158 -113.59559274 101.96677006 -99.328125 116.76171875 C-96.91460035 119.22700637 -96.91460035 119.22700637 -93.875 121.125 C-93.84921875 120.08601563 -93.8234375 119.04703125 -93.796875 117.9765625 C-93.40024505 106.89088859 -92.29662952 97.90932544 -84.14453125 89.6953125 C-77.31393061 84.9691482 -70.92881983 83.51258382 -62.72265625 83.55859375 C-61.78248154 83.55239517 -60.84230682 83.54619659 -59.87364197 83.53981018 C-57.8979495 83.53275 -55.92219705 83.535819 -53.9465332 83.54858398 C-50.94825191 83.56245028 -47.95309686 83.52832084 -44.95507812 83.49023438 C-25.0725205 83.40868691 -25.0725205 83.40868691 -16.76831055 91.06811523 C-8.2235149 99.79294525 -8.2788401 109.6503709 -7.875 121.125 C6.82410174 109.12573327 15.82308637 93.52443228 17.82983398 74.47558594 C19.47799301 54.73551202 12.69179198 36.85410849 0.1015625 21.6875 C-10.58447532 10.24668628 -26.4016126 1.03082008 -42.27172852 -0.03613281 C-64.16104574 -0.40644486 -81.08830593 3.03209849 -97.875 18.125 Z M-76.875 105.125 C-77.89473129 108.18419388 -77.99033602 110.24918025 -77.97265625 113.44921875 C-77.96943359 114.47724609 -77.96621094 115.50527344 -77.96289062 116.56445312 C-77.95451172 117.63630859 -77.94613281 118.70816406 -77.9375 119.8125 C-77.93298828 120.89595703 -77.92847656 121.97941406 -77.92382812 123.09570312 C-77.91203743 125.77219085 -77.89558063 128.44856777 -77.875 131.125 C-61.72586478 137.84032571 -46.83863673 138.79865502 -29.875 134.125 C-27.84818485 133.18053172 -25.83769001 132.19637666 -23.875 131.125 C-23.78763264 127.39598186 -23.73448518 123.66722835 -23.6875 119.9375 C-23.66236328 118.88240234 -23.63722656 117.82730469 -23.61132812 116.74023438 C-23.59682617 115.20786133 -23.59682617 115.20786133 -23.58203125 113.64453125 C-23.55846558 112.23844604 -23.55846558 112.23844604 -23.53442383 110.80395508 C-24.08902131 106.44151909 -26.05558206 103.99088074 -29.02783203 100.85009766 C-32.79859273 98.56539562 -36.14406289 98.51346619 -40.4296875 98.5234375 C-41.24946075 98.51486725 -42.06923401 98.506297 -42.91384888 98.49746704 C-44.64353757 98.4860116 -46.37332258 98.48495712 -48.10302734 98.49365234 C-50.73574083 98.49996581 -53.36393708 98.45306632 -55.99609375 98.40234375 C-57.68228604 98.39779617 -59.36849032 98.39639152 -61.0546875 98.3984375 C-61.83407684 98.38001801 -62.61346619 98.36159851 -63.41647339 98.34262085 C-69.41311332 98.44301257 -73.02045582 100.50730692 -76.875 105.125 Z " fill="#000000" transform="translate(306.875,207.875)"/>
<path d="M0 0 C1.07577593 -0.00445668 1.07577593 -0.00445668 2.17328471 -0.0090034 C4.57677256 -0.0176759 6.98021051 -0.01919742 9.38371277 -0.02069092 C11.10691433 -0.0253201 12.83011486 -0.03034489 14.55331421 -0.03573608 C19.23521583 -0.04885196 23.91710312 -0.05530339 28.59902024 -0.05974674 C31.52448802 -0.06267861 34.4499519 -0.06678362 37.37541771 -0.07125092 C46.52975058 -0.08492333 55.6840745 -0.0945914 64.83841687 -0.09845281 C75.40362781 -0.10293392 85.9687094 -0.12048537 96.53388101 -0.1494534 C104.70215902 -0.17107175 112.87040064 -0.18115716 121.03870696 -0.18249393 C125.9165597 -0.18354179 130.79429081 -0.18944568 135.67211342 -0.20731354 C140.26121057 -0.22379697 144.85009468 -0.2259484 149.43921089 -0.21717453 C151.12140219 -0.21640432 152.80360495 -0.22074479 154.48576736 -0.23063278 C156.7867441 -0.24336268 159.08696743 -0.23747035 161.38793945 -0.22705078 C162.67417615 -0.22851734 163.96041285 -0.2299839 165.28562641 -0.2314949 C171.37365603 0.39770106 176.51385698 2.76985368 180.88444519 7.14044189 C184.69675284 13.7244998 184.33141027 20.24656034 184.25944519 27.70294189 C184.27104675 28.90885986 184.28264832 30.11477783 184.29460144 31.35723877 C184.29073425 32.52448486 184.28686707 33.69173096 184.28288269 34.89434814 C184.2794989 35.94952637 184.27611511 37.00470459 184.27262878 38.09185791 C183.49320954 44.21299509 180.42879809 48.15027838 175.88444519 52.14044189 C172.27953891 54.52057474 168.72852001 54.42920735 164.5478363 54.41459656 C163.8068566 54.41983324 163.0658769 54.42506992 162.30244327 54.43046528 C159.81832947 54.44547273 157.33442153 54.44617059 154.8502655 54.44683838 C153.06957145 54.45445946 151.2888807 54.46288686 149.50819397 54.47206116 C144.6691987 54.49402025 139.83026662 54.50280715 134.99122715 54.5078876 C131.96725019 54.51153001 128.9432898 54.51776952 125.91931915 54.52488899 C115.36732251 54.54938999 104.81537507 54.56243645 94.26335144 54.565979 C84.43170279 54.56961308 74.60036655 54.59949763 64.76881337 54.64138359 C56.32535459 54.67609298 47.88199929 54.69152757 39.43846965 54.69222504 C34.39674334 54.69301774 29.35533508 54.70175292 24.31368256 54.7302227 C19.5693396 54.75641384 14.82557813 54.75860269 10.08119583 54.74256706 C8.34297797 54.74075331 6.6047266 54.74743669 4.86658096 54.76338577 C-10.96921987 54.89979699 -10.96921987 54.89979699 -16.74151993 50.55186558 C-23.09062365 44.02999668 -22.72851233 36.29110502 -22.61555481 27.64044189 C-22.63102356 26.45579346 -22.64649231 25.27114502 -22.66242981 24.05059814 C-22.62746266 16.20921501 -22.01739803 10.17063522 -16.33430481 4.30059814 C-15.48352356 3.7572583 -15.48352356 3.7572583 -14.61555481 3.20294189 C-14.04836731 2.82266846 -13.48117981 2.44239502 -12.89680481 2.05059814 C-8.70774637 -0.08986373 -4.64862677 0.01076028 0 0 Z M-6.11555481 17.14044189 C-6.21436278 18.61696853 -6.24634726 20.09811425 -6.24836731 21.57794189 C-6.24965637 22.47255127 -6.25094543 23.36716064 -6.25227356 24.28887939 C-6.24840637 25.22989502 -6.24453918 26.17091064 -6.24055481 27.14044189 C-6.244422 28.08145752 -6.24828918 29.02247314 -6.25227356 29.99200439 C-6.2509845 30.88661377 -6.24969543 31.78122314 -6.24836731 32.70294189 C-6.24723938 33.52923096 -6.24611145 34.35552002 -6.24494934 35.20684814 C-6.32820288 37.14723229 -6.32820288 37.14723229 -5.11555481 38.14044189 C-2.90293672 38.2396559 -0.68708551 38.26676603 1.52775574 38.26742554 C2.58153553 38.26976552 2.58153553 38.26976552 3.65660381 38.27215278 C6.02814473 38.2761651 8.39962246 38.27297226 10.77116394 38.26983643 C12.46424904 38.27119036 14.15733385 38.27297025 15.85041809 38.27514648 C20.4618565 38.2797217 25.07327264 38.2779309 29.68471146 38.2747674 C34.49958102 38.27224425 39.31444861 38.27458121 44.12931824 38.27615356 C52.2166427 38.27797539 60.30395805 38.2755686 68.39128113 38.27081299 C77.75538329 38.26537034 87.11946369 38.26713299 96.48356533 38.27263939 C104.50816504 38.27717015 112.53275817 38.27782126 120.55735874 38.27520072 C125.35677002 38.27363774 130.15617104 38.27344476 134.95558167 38.27673721 C139.4665924 38.27961538 143.97757494 38.27764124 148.48858261 38.27184296 C150.14909697 38.27051506 151.80961367 38.27090996 153.47012711 38.27310562 C155.72716221 38.275816 157.98410548 38.27243742 160.24113464 38.26742554 C161.50730118 38.26704851 162.77346771 38.26667149 164.07800293 38.26628304 C166.78883613 38.46095832 166.78883613 38.46095832 167.88444519 37.14044189 C167.98325316 35.66391525 168.01523764 34.18276954 168.01725769 32.70294189 C168.01919128 31.36102783 168.01919128 31.36102783 168.02116394 29.99200439 C168.01729675 29.05098877 168.01342957 28.10997314 168.00944519 27.14044189 C168.01331238 26.19942627 168.01717957 25.25841064 168.02116394 24.28887939 C168.01987488 23.39427002 168.01858582 22.49966064 168.01725769 21.57794189 C168.0155658 20.3385083 168.0155658 20.3385083 168.01383972 19.07403564 C168.09709326 17.1336515 168.09709326 17.1336515 166.88444519 16.14044189 C164.67182711 16.04122789 162.4559759 16.01411776 160.24113464 16.01345825 C159.18735485 16.01111827 159.18735485 16.01111827 158.11228657 16.00873101 C155.74074565 16.00471869 153.36926792 16.00791153 150.99772644 16.01104736 C149.30464134 16.00969342 147.61155653 16.00791353 145.91847229 16.0057373 C141.30703388 16.00116209 136.69561774 16.00295289 132.08417892 16.00611639 C127.26930936 16.00863954 122.45444177 16.00630258 117.63957214 16.00473022 C109.55224768 16.0029084 101.46493233 16.00531519 93.37760925 16.0100708 C84.01350709 16.01551345 74.64942669 16.0137508 65.28532505 16.0082444 C57.26072534 16.00371364 49.23613221 16.00306253 41.21153164 16.00568306 C36.41212037 16.00724605 31.61271934 16.00743903 26.81330872 16.00414658 C22.30229798 16.00126841 17.79131544 16.00324254 13.28030777 16.00904083 C11.61979342 16.01036872 9.95927671 16.00997382 8.29876328 16.00777817 C6.04172817 16.00506779 3.7847849 16.00844637 1.52775574 16.01345825 C0.2615892 16.01383528 -1.00457733 16.0142123 -2.30911255 16.01460075 C-5.01994574 15.81992547 -5.01994574 15.81992547 -6.11555481 17.14044189 Z " fill="#000000" transform="translate(175.1155548095703,380.85955810546875)"/>
<path d="M0 0 C0.79409775 -0.0065712 1.5881955 -0.0131424 2.40635681 -0.01991272 C5.02212631 -0.03955191 7.63783885 -0.05128294 10.25366211 -0.0612793 C11.59630033 -0.06739259 11.59630033 -0.06739259 12.96606255 -0.07362938 C17.69742473 -0.09444301 22.42875826 -0.10876899 27.16015625 -0.11816406 C32.0485159 -0.12926124 36.93642446 -0.16371229 41.82462406 -0.20333576 C45.58467977 -0.22944361 49.34462655 -0.23785034 53.10476494 -0.24144554 C54.90732329 -0.24632108 56.70987647 -0.25796253 58.51234627 -0.27648354 C61.03073538 -0.30076728 63.54793653 -0.29993093 66.06640625 -0.29296875 C66.81093048 -0.30577881 67.55545471 -0.31858887 68.32254028 -0.33178711 C71.78201745 -0.29688329 73.62884182 -0.08437925 76.40769958 2.05403137 C78.24958211 4.55931501 78.81702988 6.07174437 78.96850586 9.17700195 C77.90451512 12.98963542 77.34334076 13.92711202 73.96850586 16.17700195 C71.4137198 16.37432742 68.9663014 16.45724339 66.41113281 16.44824219 C65.64325943 16.45346893 64.87538605 16.45869568 64.08424377 16.46408081 C62.41623796 16.4743231 60.74820017 16.48010162 59.08016396 16.4819622 C56.43538653 16.48562534 53.79098428 16.50235267 51.14628601 16.52272034 C43.62656656 16.57812215 36.10679069 16.6087445 28.58691406 16.63330078 C23.98623212 16.64922979 19.38581373 16.67951044 14.78526878 16.71806526 C13.03631591 16.72967455 11.28731576 16.73564525 9.53832436 16.73574638 C7.08288949 16.73593975 4.62817395 16.75430296 2.17285156 16.77636719 C1.45826782 16.77179001 0.74368408 16.76721283 0.00744629 16.76249695 C-6.02107206 16.84805535 -11.52882634 18.13213924 -16.27368164 22.0090332 C-16.81250977 22.66258789 -17.35133789 23.31614258 -17.90649414 23.98950195 C-18.46079102 24.63532227 -19.01508789 25.28114258 -19.58618164 25.9465332 C-23.48042931 31.95630461 -23.31301558 37.97922869 -23.27632141 44.88734436 C-23.27858598 45.9670009 -23.28085056 47.04665745 -23.28318375 48.15903085 C-23.28848128 51.77714163 -23.27964725 55.39508132 -23.27099609 59.01318359 C-23.27210892 61.60690872 -23.27416663 64.20063359 -23.27709961 66.7943573 C-23.28231687 72.3796766 -23.28083341 77.96496118 -23.27532387 83.55027962 C-23.26710391 92.37765967 -23.27834487 101.20496503 -23.29252625 110.03233337 C-23.29712697 113.05366976 -23.30157737 116.07500634 -23.30596447 119.09634304 C-23.30761168 120.22881134 -23.30761168 120.22881134 -23.30929217 121.3841578 C-23.32145891 129.97208535 -23.32901655 138.5600153 -23.33496094 147.14794922 C-23.335509 147.93276696 -23.33605706 148.7175847 -23.33662172 149.52618479 C-23.34508788 162.2550231 -23.34173899 174.98384029 -23.33580659 187.71267874 C-23.33019209 200.78379266 -23.34370665 213.85479999 -23.37335938 226.92588133 C-23.39091075 234.98760296 -23.39252201 243.04901669 -23.37371423 251.11073696 C-23.36075283 257.28435112 -23.37361298 263.45766175 -23.39614105 269.63124275 C-23.40120309 272.16569794 -23.39766568 274.70018669 -23.38500786 277.23461533 C-23.3689824 280.68812669 -23.38347062 284.14019767 -23.40571594 287.59364319 C-23.39367844 288.60219661 -23.38164095 289.61075004 -23.36923867 290.64986569 C-23.43077893 295.31821847 -23.50471352 297.47755873 -26.38310528 301.29939938 C-29.03149414 303.17700195 -29.03149414 303.17700195 -32.03149414 303.80200195 C-36.21968009 302.92946321 -37.45676255 301.59939852 -40.03149414 298.17700195 C-40.7708735 294.63572929 -40.69749656 291.1513653 -40.6529541 287.54463196 C-40.65934292 286.46119056 -40.66573174 285.37774917 -40.67231417 284.26147622 C-40.68759791 280.62397642 -40.66707869 276.98755987 -40.64672852 273.35009766 C-40.65022877 270.74492532 -40.65588625 268.13975511 -40.6635437 265.53459167 C-40.67807386 259.18773866 -40.66583125 252.84120545 -40.64443046 246.49438272 C-40.6204102 239.09875714 -40.62213563 231.70320471 -40.62473637 224.30754878 C-40.62842739 211.10551957 -40.60759766 197.90364082 -40.57348633 184.70166016 C-40.54042813 171.90246779 -40.5262223 159.10343343 -40.5324707 146.30419922 C-40.53924369 132.36187459 -40.53674616 118.41961618 -40.5171113 104.4773013 C-40.51607182 103.73903299 -40.51503233 103.00076468 -40.51396134 102.24012461 C-40.51187048 100.75747928 -40.50975951 99.27483398 -40.50762817 97.79218871 C-40.50074671 92.64265076 -40.50006098 87.49313327 -40.50151062 82.34359169 C-40.50310569 75.40211285 -40.48813354 68.46082575 -40.46228409 61.51939583 C-40.45513356 58.97414818 -40.45303328 56.42888049 -40.45640182 53.88362503 C-40.46012822 50.40364374 -40.44532757 46.92420847 -40.42590332 43.44429016 C-40.43123125 42.44183693 -40.43655917 41.43938369 -40.44204855 40.40655309 C-40.3258221 28.29949983 -36.5472054 18.89600609 -28.40649414 9.98950195 C-20.39391997 2.26580617 -10.79604333 0.039097 0 0 Z " fill="#000000" transform="translate(122.031494140625,65.822998046875)"/>
<path d="M0 0 C1.16205963 -0.00810448 1.16205963 -0.00810448 2.34759521 -0.01637268 C4.90245076 -0.02885319 7.45617723 -0.01236653 10.01098633 0.00561523 C11.79592447 0.00546015 13.58086294 0.00396963 15.36579895 0.00120544 C19.1074614 -0.00017852 22.84874057 0.01237266 26.59033203 0.03515625 C31.36375263 0.06343793 36.13653161 0.06083154 40.90999889 0.04806614 C44.59828571 0.04107444 48.28642698 0.04893958 51.97469521 0.06132317 C53.73318229 0.06581112 55.49168517 0.06619792 57.25017357 0.06225777 C72.34045231 0.04428354 83.88699317 1.65568854 95.34301758 12.12670898 C103.49100629 20.5794453 105.29779831 30.54462308 105.33251953 41.80249023 C105.33909073 42.73153168 105.34566193 43.66057312 105.35243225 44.61776733 C105.37209797 47.68324876 105.38380958 50.74868149 105.39379883 53.81420898 C105.39787436 54.86250885 105.40194988 55.91080872 105.40614891 56.99087524 C105.42697563 62.53387249 105.44129503 68.07684519 105.45068359 73.61987305 C105.46177286 79.34661486 105.49621155 85.07297079 105.53585529 90.79957581 C105.56197129 95.20390556 105.57037071 99.60814234 105.57396507 104.01254272 C105.57883984 106.12408063 105.59047903 108.23561414 105.60900307 110.34707642 C105.63329932 113.29867487 105.63244742 116.24926032 105.62548828 119.20092773 C105.63829834 120.07276703 105.6511084 120.94460632 105.66430664 121.84286499 C105.62909304 125.93739753 105.47478777 127.99208412 103.25114441 131.54150391 C101.00344123 133.64395799 100.18255358 134.18583078 97.15551758 134.12670898 C96.49551758 134.13959961 95.83551758 134.15249023 95.15551758 134.16577148 C91.93683567 133.09706851 90.94863092 131.34765794 89.15551758 128.50170898 C88.58004038 125.47646372 88.62194607 122.50421159 88.65722656 119.43212891 C88.65170776 118.52741348 88.64618896 117.62269806 88.64050293 116.69056702 C88.63119219 114.73012141 88.6310701 112.76961533 88.63909721 110.80916405 C88.65173405 107.70200337 88.6404298 104.5957302 88.62306213 101.48860168 C88.59635 96.00896991 88.59076661 90.52955557 88.59216309 85.04986572 C88.59439036 76.29016641 88.58018083 67.53073714 88.53657722 58.77114296 C88.52676603 55.71782273 88.53544371 52.66492928 88.54527283 49.61161804 C88.53912521 47.72756678 88.53221234 45.84351781 88.52441406 43.95947266 C88.53213333 43.11712067 88.5398526 42.27476868 88.54780579 41.40689087 C88.49357852 35.02961096 87.48162771 29.34859004 83.32348633 24.25952148 C82.66993164 23.72069336 82.01637695 23.18186523 81.34301758 22.62670898 C80.69719727 22.07241211 80.05137695 21.51811523 79.38598633 20.94702148 C74.3034726 17.6536238 69.21735526 17.21194268 63.30175781 17.24633789 C62.53838104 17.24271744 61.77500427 17.23909698 60.98849487 17.23536682 C59.34017057 17.22850256 57.69182368 17.22596179 56.04348564 17.227314 C53.43289297 17.22828307 50.82270767 17.21529361 48.21217346 17.19833374 C40.79333593 17.15216617 33.37454279 17.12744497 25.95556641 17.12084961 C21.40973629 17.11583496 16.86433579 17.09159387 12.3186512 17.05552292 C10.5895451 17.04572971 8.86037989 17.04339038 7.1312542 17.04869461 C4.71366257 17.05576606 2.29735324 17.03848488 -0.12011719 17.01586914 C-0.83142288 17.0240416 -1.54272858 17.03221405 -2.27558899 17.04063416 C-7.04837959 16.96127616 -9.50249971 15.89910201 -12.84448242 12.50170898 C-13.50854492 10.50170898 -13.50854492 10.50170898 -13.46948242 8.50170898 C-13.48237305 7.84170898 -13.49526367 7.18170898 -13.50854492 6.50170898 C-11.45620664 0.32054899 -5.63006955 -0.07521018 0 0 Z " fill="#000000" transform="translate(324.844482421875,65.498291015625)"/>
<path d="M0 0 C6.22561769 4.78893668 11.82788822 10.72972497 13.18359375 18.6796875 C14.21560232 29.70519677 12.85768656 37.35687724 5.93359375 45.9921875 C1.24222099 51.06776752 -4.90858315 54.37329006 -11.85546875 54.91796875 C-22.95107588 55.14761639 -29.90260811 53.18467223 -38.08984375 45.6171875 C-44.15863884 38.8069559 -45.18605877 31.16219639 -45.0859375 22.32421875 C-44.46474712 13.92464442 -41.21586242 7.99564974 -34.9921875 2.375 C-25.3049786 -5.17302273 -10.7155167 -6.396784 0 0 Z M-28.19140625 19.4921875 C-29.65436271 24.61253513 -29.50233401 28.33323672 -27.12890625 32.9921875 C-23.55411416 37.1466756 -21.37864614 38.50610529 -15.87890625 39.1171875 C-11.60135495 38.93962877 -9.08224167 37.48982496 -5.81640625 34.6796875 C-2.93037809 31.21645371 -2.28183477 28.19208665 -2.4609375 23.671875 C-3.19585425 19.55311078 -5.60712507 16.75774881 -8.65234375 14.04296875 C-16.21071423 9.28146821 -23.38143883 13.1517759 -28.19140625 19.4921875 Z " fill="#000000" transform="translate(271.81640625,225.3203125)"/>
<path d="M0 0 C0.95015488 -0.0071553 1.90030975 -0.01431061 2.8792572 -0.02168274 C6.01496691 -0.03856979 9.14924712 -0.019168 12.28491211 0.00219727 C14.46536884 0.00136864 16.64582551 -0.0010905 18.82627869 -0.00511169 C23.39349189 -0.00796962 27.96021467 0.00673276 32.52734375 0.03417969 C38.38432416 0.06828221 44.24042872 0.06223724 50.09745121 0.04351711 C54.59874281 0.03295443 59.09983022 0.04187804 63.60110283 0.05690193 C65.76088289 0.06208819 67.92068423 0.06159658 70.0804615 0.05535698 C73.09707724 0.04991296 76.11243393 0.07025372 79.12890625 0.09765625 C80.0230423 0.09113037 80.91717834 0.08460449 81.83840942 0.07788086 C87.88540118 0.17138971 87.88540118 0.17138971 91.05003357 2.53944397 C92.60880332 4.78843721 93.06755238 5.91928503 93.06225586 8.63110352 C93.08416992 9.29110352 93.10608398 9.95110352 93.12866211 10.63110352 C92.10774814 13.87773676 90.35744349 14.84024675 87.49975586 16.63110352 C84.39803602 17.21081429 81.34704502 17.16772197 78.19897461 17.1328125 C76.80541245 17.14091698 76.80541245 17.14091698 75.38369751 17.14918518 C72.31789122 17.16167519 69.25302349 17.14517932 66.18725586 17.12719727 C64.05403596 17.12735225 61.92081577 17.12884108 59.78759766 17.13160706 C55.31880227 17.13299118 50.85032779 17.12043054 46.3815918 17.09765625 C40.65485963 17.06927184 34.92866066 17.0720089 29.20188904 17.08474636 C24.79752045 17.09170299 20.39327499 17.08391438 15.98892212 17.07148933 C13.87741569 17.0669747 11.76589605 17.06663814 9.65438843 17.07055473 C6.70282926 17.07346673 3.75200357 17.05696007 0.80053711 17.03515625 C-0.07130219 17.0396579 -0.94314148 17.04415955 -1.84140015 17.04879761 C-6.53620039 16.99120545 -9.69766811 16.70154308 -13.50024414 13.63110352 C-14.94455269 10.74248642 -14.8771292 8.8346265 -14.50024414 5.63110352 C-10.33899712 -0.10457514 -6.56364828 -0.08602452 0 0 Z " fill="#000000" transform="translate(167.500244140625,451.368896484375)"/>
<path d="M0 0 C2.22860987 0.00097224 4.45377195 -0.04065957 6.68188477 -0.08496094 C8.10570575 -0.09016873 9.52953864 -0.09285612 10.95336914 -0.09277344 C12.24235107 -0.09986328 13.53133301 -0.10695313 14.859375 -0.11425781 C19.16826637 0.65600581 20.63999085 2.09214334 23.30102539 5.50097656 C23.87312763 9.00510276 23.74143237 10.7250214 21.98852539 13.81347656 C17.9591974 17.84280455 11.87611465 16.66704422 6.56860352 16.68652344 C5.87839111 16.68644287 5.18817871 16.6863623 4.47705078 16.6862793 C2.37454974 16.6884651 0.27257422 16.70663202 -1.82983398 16.72558594 C-3.17032699 16.72852032 -4.51082247 16.73050482 -5.85131836 16.73144531 C-7.06811279 16.7355542 -8.28490723 16.73966309 -9.53857422 16.74389648 C-12.55515036 16.51203142 -14.20298303 16.14740997 -16.69897461 14.50097656 C-18.78056481 11.82464631 -18.69485052 10.38343989 -18.57397461 6.93847656 C-17.69897461 3.50097656 -17.69897461 3.50097656 -16.09521484 1.81542969 C-11.28363478 -0.82395361 -5.37895525 -0.01658891 0 0 Z " fill="#000000" transform="translate(335.698974609375,451.4990234375)"/>
<path d="M0 0 C0.85464844 -0.01546875 1.70929688 -0.0309375 2.58984375 -0.046875 C8.81452725 -0.00803142 8.81452725 -0.00803142 12.03515625 2.37890625 C13.78039236 4.90600813 14.42485148 6.41891086 14.5 9.5 C12.87844371 12.98634601 11.73546708 14.34302194 8.5 16.5 C5.65862728 16.77487822 2.96752275 16.91589299 0.125 16.9375 C-0.63039063 16.97037109 -1.38578125 17.00324219 -2.1640625 17.03710938 C-6.39165692 17.07775932 -8.03597764 16.85601195 -11.50390625 14.1953125 C-13.5 11.5 -13.5 11.5 -14.0625 7.9375 C-13.5 4.5 -13.5 4.5 -12.05859375 2.31640625 C-8.1907966 -0.42943447 -4.6284594 -0.08377302 0 0 Z " fill="#000000" transform="translate(289.5,451.5)"/>
</svg>
