<?xml version="1.0" encoding="UTF-8"?>
<svg version="1.1" xmlns="http://www.w3.org/2000/svg" width="512" height="512">
<path d="M0 0 C0.80125809 -0.00960754 1.60251617 -0.01921509 2.42805481 -0.02911377 C3.29057358 -0.03336365 4.15309235 -0.03761353 5.04174805 -0.04199219 C5.933311 -0.04769226 6.82487396 -0.05339233 7.74345398 -0.05926514 C9.63055232 -0.06871068 11.51766712 -0.07524735 13.40478516 -0.07910156 C16.282115 -0.08879525 19.15872681 -0.11981774 22.03588867 -0.15136719 C23.8711709 -0.15789876 25.70645822 -0.16314863 27.54174805 -0.16699219 C28.39819412 -0.17933899 29.2546402 -0.19168579 30.13703918 -0.20440674 C35.17722938 -0.18574899 38.62474268 0.36467917 42.9909668 3.16113281 C47.5683251 8.10962827 48.13779668 11.93281368 48.08862305 18.45410156 C48.08650063 19.51314445 48.08650063 19.51314445 48.08433533 20.59358215 C48.07874444 22.84530907 48.06619367 25.09693602 48.0534668 27.34863281 C48.04845062 28.87662617 48.04388791 30.40462108 48.03979492 31.93261719 C48.028778 35.67549416 48.01151967 39.41829654 47.9909668 43.16113281 C49.33281288 43.14780914 49.33281288 43.14780914 50.70176697 43.13421631 C59.16069329 43.05383818 67.61949006 42.99305079 76.07871151 42.95388412 C80.42698997 42.93307066 84.77495104 42.90486832 89.12304688 42.859375 C93.32465771 42.81569289 97.52596459 42.79194884 101.72778511 42.78162384 C103.32527 42.77427236 104.92273956 42.7599171 106.52009392 42.73821259 C116.61864651 42.60653891 124.06454914 43.38977612 132.7409668 48.91113281 C139.90812195 56.07828797 142.196061 64.06531555 142.27530253 73.97440428 C142.27240043 75.48463497 142.27240043 75.48463497 142.2694397 77.02537537 C142.2752321 78.10941416 142.2810245 79.19345296 142.28699243 80.31034142 C142.30397617 83.93698641 142.30686759 87.56350402 142.30981445 91.19018555 C142.31911373 93.79217337 142.3292824 96.39415822 142.34025574 98.99613953 C142.36249712 104.5950765 142.37752914 110.19399529 142.38762283 115.79296684 C142.40222698 123.88806812 142.42776865 131.98310603 142.45595412 140.07817007 C142.5013906 153.21282249 142.53801839 166.34748405 142.5690918 179.48217773 C142.59929023 192.23902999 142.63364643 204.9958599 142.67358398 217.75268555 C142.67727631 218.9327772 142.67727631 218.9327772 142.68104322 220.13670909 C142.69341808 224.08360967 142.70587456 228.03051 142.71837163 231.9774102 C142.82189234 264.70528743 142.91111111 297.43318914 142.9909668 330.16113281 C143.48884703 327.921928 143.98179647 325.68162644 144.47265625 323.44087219 C144.74769485 322.19342381 145.02273346 320.94597544 145.30610657 319.66072559 C146.10637794 315.5713891 146.29408757 312.05047004 146.1784668 307.89160156 C146.161427 306.85462883 146.161427 306.85462883 146.14404297 305.79670715 C146.10827141 303.64668714 146.05242779 301.49806044 145.9909668 299.34863281 C145.45267839 280.28852373 145.45267839 280.28852373 148.9909668 274.16113281 C155.3042443 268.90006823 161.08501497 268.60086851 168.9909668 269.16113281 C177.26830684 270.59328256 183.62226687 273.96575806 188.90112305 280.54003906 C201.8814867 299.47318096 202.29676302 327.04086671 198.9909668 349.16113281 C198.6609668 349.82113281 198.3309668 350.48113281 197.9909668 351.16113281 C199.27148926 351.14018555 200.55201172 351.11923828 201.87133789 351.09765625 C206.6609359 351.02478947 211.45048575 350.97916435 216.24047852 350.94140625 C218.30631778 350.92139656 220.37210117 350.89417998 222.43774414 350.859375 C225.42177182 350.81038565 228.40504525 350.78805717 231.3894043 350.77050781 C232.75565445 350.7395401 232.75565445 350.7395401 234.14950562 350.70794678 C241.63597698 350.70537696 248.50557716 352.35159597 254.4284668 357.12597656 C254.9440918 357.77695312 255.4597168 358.42792969 255.9909668 359.09863281 C256.5272168 359.74703125 257.0634668 360.39542969 257.6159668 361.06347656 C260.45912935 365.40091489 261.26731763 368.99636992 261.2409668 374.16113281 C261.24612305 375.17175781 261.2512793 376.18238281 261.2565918 377.22363281 C260.98389848 380.23930008 260.19012188 382.40307613 258.9909668 385.16113281 C259.24718901 389.13257716 261.80910163 391.95651835 263.9909668 395.16113281 C266.04372523 401.3194081 266.18720732 408.90271645 263.9440918 415.01269531 C262.2234591 418.11995553 260.50414107 420.64795854 257.9909668 423.16113281 C258.4859668 424.27488281 258.9809668 425.38863281 259.4909668 426.53613281 C261.6547256 432.44485877 262.18421735 437.93798477 259.97143555 443.91503906 C258.10153311 447.79607524 256.34634534 451.36348475 252.9909668 454.16113281 C252.3309668 454.16113281 251.6709668 454.16113281 250.9909668 454.16113281 C251.3209668 455.15113281 251.6509668 456.14113281 251.9909668 457.16113281 C253.98038216 464.27436615 253.50409052 470.66464211 249.9909668 477.16113281 C247.5534668 479.97363281 247.5534668 479.97363281 244.9909668 482.16113281 C244.4134668 482.71800781 243.8359668 483.27488281 243.2409668 483.84863281 C236.05151159 488.04248168 227.00289217 487.49022573 218.95465088 487.62527466 C208.80119471 487.79958738 198.72041285 488.1545076 188.6159668 489.22363281 C164.79173801 491.57755625 141.34935042 491.47171185 118.2565918 484.79394531 C110.86537507 482.32011468 110.86537507 482.32011468 103.48706055 483.21191406 C101.72891819 484.74982982 100.43329712 486.33754957 98.9909668 488.16113281 C95.37376736 489.36686596 92.02155129 489.36134314 88.25268555 489.39941406 C87.49429886 489.40748581 86.73591217 489.41555756 85.95454407 489.4238739 C84.3499275 489.43769463 82.74528178 489.44842577 81.140625 489.45629883 C79.50446931 489.46781762 77.86835117 489.4882681 76.23242188 489.51782227 C73.8639176 489.56060784 71.49652885 489.57668226 69.12768555 489.58691406 C68.40248215 489.60442215 67.67727875 489.62193024 66.93009949 489.63996887 C61.79351241 489.61820859 58.95488098 488.36949125 54.9909668 485.16113281 C50.4107354 480.08574127 49.84429181 476.29323334 49.87744141 469.66040039 C49.8772606 468.50013226 49.8772606 468.50013226 49.87707615 467.31642437 C49.87782248 464.81280834 49.88543801 462.30926677 49.89331055 459.80566406 C49.89478083 458.25988806 49.89580101 456.71411156 49.8963623 455.16833496 C49.90160516 449.43675999 49.91556636 443.70519567 49.9284668 437.97363281 C49.9490918 425.16550781 49.9697168 412.35738281 49.9909668 399.16113281 C6.4309668 399.16113281 -37.1290332 399.16113281 -82.0090332 399.16113281 C-82.9990332 405.10113281 -82.9990332 405.10113281 -84.0090332 411.16113281 C-86.9472866 416.33501379 -89.15554913 419.78890687 -94.0090332 423.16113281 C-93.3832617 427.20614947 -92.0770113 430.43062227 -90.27856445 434.09863281 C-89.72233398 435.24203125 -89.16610352 436.38542969 -88.59301758 437.56347656 C-88.00279516 438.76282939 -87.41229953 439.96204781 -86.8215332 441.16113281 C-85.11118047 444.65984753 -83.40411921 448.15998723 -81.70678711 451.66503906 C-80.56661429 454.01293592 -79.41240305 456.35406285 -78.24487305 458.68847656 C-77.69653809 459.81382812 -77.14820313 460.93917969 -76.58325195 462.09863281 C-76.08784912 463.09765625 -75.59244629 464.09667969 -75.08203125 465.12597656 C-73.82987636 468.66790821 -73.7320684 471.42892769 -74.0090332 475.16113281 C-75.3215332 477.59863281 -75.3215332 477.59863281 -78.0090332 479.16113281 C-82.90406311 479.76333333 -87.68255764 479.39695069 -92.5246582 478.53613281 C-96.25026787 477.95551832 -99.27097069 477.61388399 -103.0090332 478.16113281 C-106.89621602 481.27087906 -109.35021374 484.99187761 -112.0090332 489.16113281 C-116.47758666 494.89540954 -116.47758666 494.89540954 -119.0090332 496.16113281 C-122.28498837 496.5172149 -124.23211444 496.71836507 -126.96118164 494.76098633 C-129.95796217 490.95641839 -131.29695893 486.788421 -132.8996582 482.25097656 C-133.24913513 481.2871254 -133.59861206 480.32327423 -133.9586792 479.33021545 C-134.69333692 477.29716781 -135.42257174 475.26215343 -136.14672852 473.2253418 C-137.25771778 470.1023305 -138.38579481 466.98591181 -139.5168457 463.87011719 C-140.22879248 461.89326684 -140.93976374 459.91606483 -141.6496582 457.93847656 C-141.98709045 457.00406235 -142.32452271 456.06964813 -142.67218018 455.10691833 C-143.13331207 453.80525475 -143.13331207 453.80525475 -143.60375977 452.47729492 C-143.87593323 451.7143663 -144.14810669 450.95143768 -144.42852783 450.16539001 C-145.0090332 448.16113281 -145.0090332 448.16113281 -145.0090332 445.16113281 C-149.6290332 445.16113281 -154.2490332 445.16113281 -159.0090332 445.16113281 C-159.37125977 446.42183594 -159.73348633 447.68253906 -160.10668945 448.98144531 C-162.38380477 456.55936456 -164.97237963 464.03106762 -167.56982422 471.50390625 C-168.15742878 473.20110327 -168.74006366 474.90002855 -169.31787109 476.60058594 C-170.16077073 479.08051419 -171.01870635 481.5547737 -171.88012695 484.02832031 C-172.26158119 485.16429153 -172.26158119 485.16429153 -172.65074158 486.32321167 C-174.10907611 490.4496192 -175.41799795 493.42132852 -179.0090332 496.16113281 C-182.3215332 496.84863281 -182.3215332 496.84863281 -186.0090332 496.16113281 C-189.77192965 493.51928404 -192.45057663 489.97667385 -195.02856445 486.21191406 C-198.82460935 480.41767242 -198.82460935 480.41767242 -204.79418945 477.68066406 C-207.91995746 477.98953442 -210.92611919 478.56407638 -214.0090332 479.16113281 C-216.36037416 479.30340317 -218.71601011 479.38755138 -221.0715332 479.41113281 C-222.13500977 479.43691406 -223.19848633 479.46269531 -224.29418945 479.48925781 C-227.0090332 479.16113281 -227.0090332 479.16113281 -228.88012695 478.14550781 C-230.68313348 474.97620915 -230.39966261 471.68637276 -230.0090332 468.16113281 C-229.17395918 465.40430866 -227.97217836 462.90121157 -226.68481445 460.32910156 C-226.3415361 459.61184402 -225.99825775 458.89458649 -225.64457703 458.15559387 C-224.55132194 455.87929723 -223.43717929 453.61402559 -222.3215332 451.34863281 C-221.59156376 449.84087226 -220.86303569 448.33241298 -220.13598633 446.82324219 C-218.73706684 443.92174869 -217.3314656 441.02364418 -215.92163086 438.12744141 C-213.5236754 433.18112829 -211.24293314 428.18349512 -209.0090332 423.16113281 C-209.63608154 422.86094238 -210.26312988 422.56075195 -210.90917969 422.25146484 C-216.00761092 419.60414548 -219.73610479 414.08165329 -221.5637207 408.73535156 C-222.29421417 404.51258671 -222.12631044 400.23964185 -221.89916992 395.97192383 C-221.71435818 391.19645815 -222.43101563 388.1842275 -225.0090332 384.16113281 C-226.83049124 382.29509016 -226.83049124 382.29509016 -228.8840332 380.78613281 C-233.76653087 376.73986403 -237.00113006 372.18484225 -239.0090332 366.16113281 C-239.75795158 356.73546009 -240.15165327 347.94449687 -234.0090332 340.16113281 C-231.50441366 337.71549175 -228.95063805 335.45180055 -226.21606445 333.26660156 C-223.72054986 330.88592481 -222.8562565 329.49258712 -222.0090332 326.16113281 C-221.97003264 323.56759543 -222.01436849 321.05741383 -222.1340332 318.47363281 C-222.30837822 309.34127455 -220.66622852 302.75934358 -214.4465332 295.78613281 C-207.34908558 289.35285001 -199.99318903 287.86234222 -190.6965332 288.16113281 C-189.38040039 288.24363281 -188.06426758 288.32613281 -186.70825195 288.41113281 C-181.64370111 288.06886116 -178.79970486 286.09453916 -175.3918457 282.41503906 C-174.97676758 281.856875 -174.56168945 281.29871094 -174.1340332 280.72363281 C-170.22479471 275.93995939 -165.17260794 272.26968942 -159.0090332 271.16113281 C-150.01936252 270.36859258 -142.36829445 270.52980622 -135.0090332 276.16113281 C-132.55844542 278.66277451 -130.30044847 281.2185925 -128.11450195 283.95410156 C-125.0368456 287.18021629 -122.33066381 288.07821998 -117.89575195 288.35644531 C-116.84000977 288.33324219 -115.78426758 288.31003906 -114.6965332 288.28613281 C-113.62790039 288.26808594 -112.55926758 288.25003906 -111.45825195 288.23144531 C-110.65000977 288.20824219 -109.84176758 288.18503906 -109.0090332 288.16113281 C-109.01179858 287.02530038 -109.01456396 285.88946795 -109.01741314 284.71921635 C-109.08402375 257.0767703 -109.13331619 229.43433466 -109.16446972 201.79182529 C-109.16754919 199.1301784 -109.17065319 196.46853155 -109.17382812 193.80688477 C-109.17461506 193.14532908 -109.17540199 192.48377339 -109.17621277 191.80217057 C-109.18844573 181.76433042 -109.20957259 171.72653456 -109.23535156 161.6887207 C-109.26526134 150.03689521 -109.28461 138.38510813 -109.29129869 126.73324531 C-109.29520824 120.56418124 -109.30439132 114.39522704 -109.32622337 108.2261982 C-109.34661332 102.41749874 -109.35286186 96.60895424 -109.34835625 90.8002224 C-109.34918032 88.67058088 -109.3551309 86.54093408 -109.36664963 84.41132355 C-109.38163285 81.49782748 -109.37796544 78.58491222 -109.36979675 75.67140198 C-109.37853528 74.83382703 -109.3872738 73.99625208 -109.39627713 73.13329607 C-109.32711088 63.97118278 -106.62056283 55.68735238 -100.0090332 49.16113281 C-93.75682152 44.85405366 -88.57625495 43.03451109 -80.96728516 43.04760742 C-80.25483643 43.0474614 -79.5423877 43.04731537 -78.80834961 43.04716492 C-76.4546402 43.0478613 -74.10101003 43.05564089 -71.74731445 43.06347656 C-70.11492455 43.06534171 -68.48253409 43.06676516 -66.85014343 43.06776428 C-62.55441746 43.0715818 -58.25872531 43.08140557 -53.9630127 43.09246826 C-49.57926898 43.10269882 -45.19551979 43.10726543 -40.81176758 43.11230469 C-32.2108406 43.12302851 -23.60994111 43.14009577 -15.0090332 43.16113281 C-15.03259888 41.75420166 -15.03259888 41.75420166 -15.05664062 40.31884766 C-15.10795285 36.81879076 -15.14547192 33.31913711 -15.17382812 29.81884766 C-15.18885864 28.30771554 -15.20928884 26.79662664 -15.23535156 25.28564453 C-15.2719901 23.10601094 -15.28881659 20.92695706 -15.30200195 18.74707031 C-15.32556763 16.78326416 -15.32556763 16.78326416 -15.34960938 14.77978516 C-14.86241983 9.60335257 -13.31478759 6.36895562 -9.5090332 2.84863281 C-6.27867615 0.6681418 -3.81236839 0.0369966 0 0 Z M-0.0090332 15.16113281 C-0.0090332 31.33113281 -0.0090332 47.50113281 -0.0090332 64.16113281 C10.8809668 64.16113281 21.7709668 64.16113281 32.9909668 64.16113281 C32.9909668 47.99113281 32.9909668 31.82113281 32.9909668 15.16113281 C22.1009668 15.16113281 11.2109668 15.16113281 -0.0090332 15.16113281 Z M-91.0090332 62.16113281 C-94.29559861 67.28416824 -94.43992442 71.55270673 -94.40344238 77.43557739 C-94.40953349 78.36076451 -94.41562459 79.28595163 -94.42190027 80.23917472 C-94.43852907 83.33454258 -94.43375463 86.42949904 -94.42895508 89.52490234 C-94.43629526 91.7458743 -94.44488134 93.96684244 -94.45462036 96.18780518 C-94.47684523 102.21648557 -94.47976671 108.24502933 -94.47787285 114.27374506 C-94.47775324 119.30398585 -94.48631293 124.33419759 -94.49465036 129.36443031 C-94.51498607 141.90507942 -94.51603313 154.44566187 -94.50884324 166.98631679 C-94.503263 177.87942673 -94.52411597 188.77230184 -94.55720371 199.66535689 C-94.59092165 210.85269818 -94.60563681 222.03995356 -94.60148668 233.22735298 C-94.59941521 239.50743596 -94.60496066 245.78728483 -94.62937927 252.06732559 C-94.65156907 257.96895881 -94.6498332 263.87010109 -94.62945175 269.77173615 C-94.62602844 271.94056704 -94.63118722 274.10943052 -94.64543533 276.27821732 C-94.66351156 279.23294311 -94.65096551 282.18598246 -94.63049316 285.14065552 C-94.64301101 286.00426575 -94.65552886 286.86787598 -94.66842604 287.75765622 C-94.63041382 292.74001433 -94.63041382 292.74001433 -91.56687164 296.58355522 C-90.72278496 297.10415583 -89.87869827 297.62475643 -89.0090332 298.16113281 C-84.31709564 305.02131425 -82.82866461 311.78013647 -83.1027832 319.95800781 C-83.29914987 326.01264683 -83.27958074 329.47394649 -79.0090332 334.16113281 C-77.51092537 335.39260494 -76.01073314 336.62154357 -74.5090332 337.84863281 C-68.76275381 342.81864382 -66.63270545 348.31679493 -65.6730957 355.77050781 C-65.34924212 363.79211185 -67.18370683 370.36378502 -72.4465332 376.47363281 C-74.90704864 379.09928352 -77.46356155 381.61566116 -80.0090332 384.16113281 C-37.1090332 384.16113281 5.7909668 384.16113281 49.9909668 384.16113281 C50.3209668 377.89113281 50.6509668 371.62113281 50.9909668 365.16113281 C56.06508427 356.28142723 56.06508427 356.28142723 61.9909668 354.16113281 C65.71972656 353.65942383 65.71972656 353.65942383 69.68237305 353.66503906 C70.39070786 353.66358383 71.09904266 353.6621286 71.82884216 353.66062927 C73.31546168 353.66227819 74.80210007 353.67372579 76.28857422 353.69458008 C78.55144354 353.72360686 80.81197432 353.71515546 83.07495117 353.70214844 C97.59432827 353.76449428 97.59432827 353.76449428 102.9909668 359.16113281 C110.17158084 358.94236859 121.782414 356.36968561 126.9909668 351.16113281 C127.09047729 349.65511293 127.12019687 348.14443126 127.12239456 346.63512897 C127.12623571 345.65103717 127.13007685 344.66694537 127.1340344 343.6530326 C127.13316791 342.55889979 127.13230143 341.46476699 127.13140869 340.33747864 C127.13437981 339.18521229 127.13735094 338.03294594 127.14041209 336.84576243 C127.14761547 333.63295154 127.1502732 330.42017314 127.15100956 327.20735538 C127.15285538 323.74777871 127.16040044 320.28821374 127.16714478 316.8286438 C127.18074949 309.25622921 127.18675648 301.6838199 127.19115543 294.11139512 C127.19391493 289.38505519 127.19815181 284.65871731 127.20265961 279.93237877 C127.21485636 266.85292724 127.22515403 253.77347736 127.2285347 240.69402027 C127.22875426 239.85623078 127.22897383 239.01844129 127.22920005 238.15526424 C127.22941833 237.31543481 127.22963661 236.47560539 127.2298615 235.61032659 C127.23030497 233.90843062 127.23075153 232.20653464 127.23120117 230.50463867 C127.2314226 229.66043406 127.23164403 228.81622944 127.23187217 227.94644286 C127.23581924 214.27059848 127.25326863 200.59480741 127.27656069 186.91898362 C127.30026779 172.88642686 127.3127363 158.85389686 127.31390262 144.82131976 C127.31481988 136.93931502 127.32058477 129.05737969 127.33872223 121.17539406 C127.35411476 114.46242951 127.35924882 107.7495558 127.35098413 101.03657696 C127.34707423 97.6110325 127.34802346 94.18567101 127.36204147 90.760149 C127.37468729 87.046509 127.36892377 83.33334145 127.35845947 79.6197052 C127.36651588 78.536726 127.37457228 77.4537468 127.38287282 76.33795005 C127.34677519 70.87590205 127.15983623 66.83325761 123.9909668 62.16113281 C119.6325923 58.43300216 116.55370041 57.66609502 110.8840332 57.70703125 C109.85859406 57.70615509 109.85859406 57.70615509 108.81243896 57.70526123 C106.57193705 57.70802911 104.33279629 57.73905601 102.0925293 57.77050781 C100.53169481 57.7779749 98.9708509 57.78366563 97.41000366 57.78765869 C93.31628202 57.8028784 89.22313458 57.84212774 85.12963867 57.88647461 C80.94677496 57.92750697 76.76381782 57.94568664 72.58081055 57.96582031 C64.38393345 58.00862633 56.1875217 58.07683227 47.9909668 58.16113281 C47.84401367 59.48177734 47.84401367 59.48177734 47.6940918 60.82910156 C47.54456055 61.99054688 47.3950293 63.15199219 47.2409668 64.34863281 C47.10174805 65.4971875 46.9625293 66.64574219 46.8190918 67.82910156 C45.71265408 72.28094766 43.85850002 74.94084462 40.01010132 77.45547485 C37.78819205 78.23199962 36.03608968 78.4273354 33.68481445 78.45166016 C32.84359039 78.46441986 32.00236633 78.47717957 31.13565063 78.49032593 C30.23454559 78.49255157 29.33344055 78.49477722 28.4050293 78.49707031 C27.4704892 78.50372711 26.5359491 78.51038391 25.5730896 78.51724243 C23.59781866 78.52735829 21.62251361 78.53205978 19.6472168 78.53173828 C16.63361951 78.53610722 13.62149216 78.57242626 10.6081543 78.61035156 C8.68628429 78.61622088 6.76440735 78.6201895 4.8425293 78.62207031 C3.94547272 78.63644135 3.04841614 78.65081238 2.12417603 78.6656189 C-3.42677308 78.62531767 -6.60442812 77.86478999 -11.0090332 74.16113281 C-13.96631688 70.79594794 -14.23648294 67.80737969 -14.58325195 63.47753906 C-14.66534912 62.48310791 -14.74744629 61.48867676 -14.83203125 60.46411133 C-14.89044189 59.70412842 -14.94885254 58.94414551 -15.0090332 58.16113281 C-24.03220598 58.06833061 -33.05521373 57.99731631 -42.07876015 57.95388412 C-46.26906859 57.93303563 -50.45904979 57.90476865 -54.64916992 57.859375 C-58.69515562 57.81581862 -62.74082715 57.79197511 -66.78702927 57.78162384 C-68.32838255 57.77424995 -69.86971922 57.75985024 -71.41093826 57.73821259 C-73.57503256 57.70904671 -75.73783946 57.70518205 -77.90209961 57.70703125 C-79.13231842 57.6981488 -80.36253723 57.68926636 -81.6300354 57.68011475 C-85.78170793 58.27112711 -87.83060223 59.44231966 -91.0090332 62.16113281 Z M161.9909668 284.16113281 C161.97638428 285.07701172 161.96180176 285.99289062 161.94677734 286.93652344 C161.88478694 290.41850018 161.81048272 293.89980446 161.72851562 297.38134766 C161.69578073 298.87246207 161.66759936 300.36368518 161.64453125 301.85498047 C161.32102099 322.2430101 158.4806573 340.84876808 144.03393555 356.24707031 C133.63984912 366.31332841 120.65684197 369.89054682 106.9909668 374.16113281 C106.9909668 404.85113281 106.9909668 435.54113281 106.9909668 467.16113281 C112.2709668 468.15113281 117.5509668 469.14113281 122.9909668 470.16113281 C125.71028282 470.82605832 128.42311457 471.52104952 131.1159668 472.28613281 C138.01065441 474.23233566 144.22685546 475.28762187 151.40893555 475.29394531 C152.10682693 475.29490204 152.80471832 475.29585876 153.52375793 475.29684448 C154.99533173 475.29752184 156.46690859 475.29569871 157.93847656 475.29150391 C160.15461201 475.28619001 162.37054103 475.291443 164.58666992 475.29785156 C176.35491297 475.50596471 176.35491297 475.50596471 187.9909668 474.16113281 C188.6509668 473.50113281 189.3109668 472.84113281 189.9909668 472.16113281 C189.97255063 469.9809598 189.97255063 469.9809598 189.5534668 467.53613281 C189.0963878 464.05530045 189.02820723 461.28164906 189.7409668 457.84863281 C190.43082687 454.05392862 190.43082687 454.05392862 187.7409668 451.53613281 C186.8334668 450.75238281 185.9259668 449.96863281 184.9909668 449.16113281 C181.68225493 443.37088705 180.4521059 438.84300793 180.9909668 432.16113281 C181.99002287 429.5724855 183.09277813 427.08357106 184.3112793 424.59082031 C185.19716086 421.4240483 184.45273459 420.04139237 182.9909668 417.16113281 C182.6197168 416.39800781 182.2484668 415.63488281 181.8659668 414.84863281 C181.4328418 414.01332031 181.4328418 414.01332031 180.9909668 413.16113281 C177.54959866 414.46921946 174.39773671 416.00747318 171.1784668 417.78613281 C166.41424166 420.18957773 163.28417961 420.90403987 157.9909668 420.16113281 C155.9909668 419.03613281 155.9909668 419.03613281 154.9909668 417.16113281 C154.56618094 413.08318856 154.67814093 411.63037162 156.9909668 408.16113281 C159.0925293 407.20410156 159.0925293 407.20410156 161.6159668 406.34863281 C170.11455512 403.07900301 175.0801723 398.82801638 179.7644043 391.01660156 C182.87390756 383.77759874 183.20639649 376.81569599 182.9909668 369.03613281 C182.87111736 361.04844027 183.20984512 353.23570081 183.9909668 345.28613281 C186.85639579 316.18790782 186.85639579 316.18790782 176.6784668 289.66113281 C172.1838777 285.4801197 168.04555068 283.97451893 161.9909668 284.16113281 Z M-165.8840332 294.72363281 C-170.00191396 299.44708427 -175.80753652 302.35539091 -182.0090332 303.16113281 C-184.46797806 303.13114568 -186.92663509 303.06584755 -189.3840332 302.97363281 C-195.41654941 302.87221533 -199.30239134 303.20327488 -204.0090332 307.16113281 C-207.16626314 311.30684129 -207.26422134 314.21828797 -207.0090332 319.34863281 C-206.74326097 329.74792066 -208.84862151 337.45500845 -216.0090332 345.16113281 C-217.82083071 346.82843113 -219.65952668 348.40810117 -221.59106445 349.93457031 C-223.50500971 351.59015933 -223.95772647 352.80588241 -224.31762695 355.29785156 C-224.56003367 360.09456636 -224.50547807 363.2725467 -221.3215332 367.03613281 C-219.44356558 368.94495906 -217.64265478 370.42027853 -215.4465332 371.97363281 C-209.72767502 377.10594144 -207.51175597 384.14909089 -207.0402832 391.64550781 C-207.00803662 394.24135793 -207.10333406 396.81708997 -207.1965332 399.41113281 C-207.2333122 404.09677638 -206.27351825 406.63892526 -203.0090332 410.16113281 C-198.31980829 413.08759476 -194.57571558 413.44906335 -189.1965332 413.16113281 C-179.97432091 412.9402289 -173.50918828 414.10864006 -166.63793945 420.46972656 C-164.40838107 422.78483155 -162.35399833 425.2165564 -160.3684082 427.74316406 C-157.94156541 430.27461215 -155.54643623 430.19097778 -152.1340332 430.41113281 C-148.21937686 430.32556655 -146.11016195 429.70564871 -143.0090332 427.16113281 C-141.2238305 425.16864354 -139.49497898 423.13352039 -137.76293945 421.09472656 C-133.53926858 416.43834108 -129.02356219 414.56472811 -123.0090332 413.16113281 C-119.604059 413.11426001 -116.27642058 413.20309349 -112.88208008 413.41503906 C-107.70184938 413.58423007 -105.00967277 412.38552888 -101.0090332 409.16113281 C-97.33288813 405.35822412 -96.97985164 401.25159415 -97.05200195 396.08300781 C-97.12354492 394.51292969 -97.12354492 394.51292969 -97.1965332 392.91113281 C-97.22644628 384.14660258 -95.20624073 378.06427402 -89.0090332 371.78613281 C-87.68345672 370.56929502 -86.35015885 369.36081161 -85.0090332 368.16113281 C-81.13068684 364.69139794 -80.18298672 362.57390451 -79.85668945 357.46191406 C-80.17682426 352.62705762 -82.48166643 349.55419126 -85.91918945 346.41894531 C-87.31074601 345.24847718 -88.70658789 344.0830847 -90.10668945 342.92285156 C-93.823008 339.48125061 -96.13196408 335.16303196 -97.0090332 330.16113281 C-97.00347368 327.72328305 -96.95750302 325.28538158 -96.8840332 322.84863281 C-96.81170005 317.21543474 -96.90708089 312.97450709 -100.0090332 308.16113281 C-104.2640605 304.21744897 -106.55394399 303.06429711 -112.31567383 303.27832031 C-121.17134321 303.57053305 -129.18423409 303.14506169 -136.31762695 297.25488281 C-138.31344651 295.29202174 -140.16406627 293.26497038 -142.0090332 291.16113281 C-145.38639218 287.63911972 -147.28399188 286.0026584 -152.1965332 285.72363281 C-158.77224637 285.78706413 -162.18192462 289.66408441 -165.8840332 294.72363281 Z M200.9909668 370.16113281 C199.6600352 373.56083093 199.6600352 373.56083093 199.9909668 377.16113281 C202.71993789 380.82668572 204.23452287 382.03210498 208.78393555 382.80810547 C210.24842366 382.84088095 211.71374678 382.84506846 213.1784668 382.82519531 C213.95859131 382.82997894 214.73871582 382.83476257 215.54248047 382.83969116 C217.18646265 382.84308289 218.83051295 382.83393113 220.47436523 382.81298828 C222.98403975 382.78620673 225.48924309 382.81275482 227.9987793 382.84472656 C229.60035162 382.84142233 231.20192117 382.8350158 232.8034668 382.82519531 C233.54943115 382.83531647 234.29539551 382.84543762 235.06396484 382.85586548 C239.02362271 382.76724769 240.82386203 382.29306773 243.9675293 379.81103516 C246.20553009 377.29521701 246.20553009 377.29521701 246.5534668 374.09863281 C245.87275164 370.54378701 244.7902422 369.38408681 241.9909668 367.16113281 C238.97528389 365.65329136 235.84412646 365.9569217 232.53393555 365.92285156 C231.42396965 365.91074394 231.42396965 365.91074394 230.2915802 365.89839172 C228.72387025 365.88455398 227.15613021 365.87383043 225.58837891 365.8659668 C223.19790047 365.84877259 220.80881221 365.80488932 218.41870117 365.76074219 C216.89462279 365.75061326 215.37053266 365.74209778 213.84643555 365.73535156 C213.13480759 365.71784348 212.42317963 365.70033539 211.68998718 365.68229675 C206.84637246 365.70332495 204.33171363 366.64544491 200.9909668 370.16113281 Z M65.9909668 368.16113281 C64.79911689 369.13426454 64.79911689 369.13426454 64.86791897 370.92400455 C64.86884076 371.69738887 64.86976255 372.47077318 64.87071228 373.26759338 C64.86933762 374.15245422 64.86796295 375.03731506 64.86654663 375.94898987 C64.87014191 376.92722214 64.87373718 377.90545441 64.87744141 378.91333008 C64.87729538 379.93760101 64.87714935 380.96187195 64.8769989 382.0171814 C64.87769851 385.42065511 64.88549317 388.82407485 64.89331055 392.22753906 C64.89517455 394.58023549 64.89659854 396.93293231 64.89759827 399.28562927 C64.90142481 405.49169986 64.91125624 411.69774721 64.92230225 417.90380859 C64.93251345 424.23111659 64.93709526 430.55842833 64.94213867 436.88574219 C64.95287839 449.31088427 64.97047629 461.73600298 64.9909668 474.16113281 C73.9009668 474.16113281 82.8109668 474.16113281 91.9909668 474.16113281 C91.9909668 439.18113281 91.9909668 404.20113281 91.9909668 368.16113281 C83.4109668 368.16113281 74.8309668 368.16113281 65.9909668 368.16113281 Z M195.9909668 399.16113281 C194.11694418 401.65982963 193.98790562 403.01419621 194.0534668 406.16113281 C195.28623656 410.10599605 196.44848776 411.02869824 199.9909668 413.16113281 C203.30662623 413.73504474 206.57044529 413.69818834 209.9284668 413.65722656 C210.88615967 413.65868179 211.84385254 413.66013702 212.83056641 413.66163635 C214.85118661 413.65997967 216.87181973 413.64844425 218.89233398 413.62768555 C221.98044585 413.59873146 225.06684003 413.60708166 228.1550293 413.62011719 C230.12118345 413.61387934 232.0873322 413.60548804 234.0534668 413.59472656 C235.43489868 413.59913002 235.43489868 413.59913002 236.84423828 413.60362244 C241.68146299 413.53264093 245.0952247 413.36757547 248.9909668 410.16113281 C250.55526927 407.03252786 250.34723963 404.60510356 249.9909668 401.16113281 C247.85270768 398.67004848 246.10964173 397.3456731 242.82614136 396.80401611 C240.14188489 396.66413751 237.48717491 396.65936529 234.79956055 396.70019531 C233.81729996 396.70111176 232.83503937 396.7020282 231.82301331 396.70297241 C229.75110019 396.70900256 227.67919556 396.72473089 225.60742188 396.74951172 C222.43611545 396.7860447 219.26597744 396.79053073 216.09448242 396.79003906 C214.07949837 396.79986977 212.06452222 396.81152656 210.04956055 396.82519531 C208.62757607 396.82853378 208.62757607 396.82853378 207.17686462 396.8319397 C205.85012474 396.85107925 205.85012474 396.85107925 204.49658203 396.87060547 C203.33339699 396.88204086 203.33339699 396.88204086 202.14671326 396.89370728 C199.70102803 397.19710041 198.09142658 397.88807186 195.9909668 399.16113281 Z M-195.0090332 429.16113281 C-196.49631747 431.55721966 -197.64824013 433.7309804 -198.77856445 436.28613281 C-199.10443039 436.98883301 -199.43029633 437.6915332 -199.76603699 438.41552734 C-200.80032943 440.65719696 -201.81056133 442.90886538 -202.8215332 445.16113281 C-203.51995395 446.6774261 -204.21980816 448.19305999 -204.92114258 449.70800781 C-205.58322648 451.15013073 -206.24407697 452.59282069 -206.90356445 454.03613281 C-207.37219658 455.0611792 -207.37219658 455.0611792 -207.85029602 456.10693359 C-209.46770056 459.5000564 -209.46770056 459.5000564 -210.0090332 463.16113281 C-209.03063477 463.04511719 -208.05223633 462.92910156 -207.04418945 462.80957031 C-196.46392309 462.08133172 -196.46392309 462.08133172 -192.0090332 465.38769531 C-189.8121544 467.88734908 -187.83918629 470.38366472 -186.0090332 473.16113281 C-182.76485416 471.53904329 -182.24297461 468.08568004 -181.0480957 464.83691406 C-180.77508636 464.09789352 -180.50207703 463.35887299 -180.22079468 462.59745789 C-179.64666898 461.02953078 -179.07701804 459.4599591 -178.51147461 457.88891602 C-177.64045926 455.49132147 -176.73355567 453.10932934 -175.82543945 450.72558594 C-175.27236996 449.20102348 -174.72151551 447.67565528 -174.1730957 446.14941406 C-173.89623932 445.43981033 -173.61938293 444.7302066 -173.33413696 443.99909973 C-172.47389398 441.70036368 -172.47389398 441.70036368 -172.0090332 438.16113281 C-174.53205586 433.18426599 -177.99624018 429.66752932 -183.0090332 427.16113281 C-187.54758669 426.90423356 -191.03029346 426.88424364 -195.0090332 429.16113281 Z M-129.9465332 432.97363281 C-132.30937692 435.91702696 -132.30937692 435.91702696 -131.79003906 438.91577148 C-130.43249995 444.55683663 -128.34967317 449.94108447 -126.34375 455.3762207 C-125.56859937 457.48160137 -124.80697411 459.5915572 -124.04614258 461.70214844 C-123.55671552 463.03903281 -123.06650883 464.37563208 -122.57543945 465.71191406 C-122.13143799 466.92532471 -121.68743652 468.13873535 -121.22998047 469.38891602 C-120.31038328 472.27641608 -120.31038328 472.27641608 -118.0090332 473.16113281 C-117.52692383 472.52304687 -117.04481445 471.88496094 -116.5480957 471.22753906 C-115.91645508 470.40125 -115.28481445 469.57496094 -114.6340332 468.72363281 C-114.00754883 467.89992188 -113.38106445 467.07621094 -112.7355957 466.22753906 C-111.0090332 464.16113281 -111.0090332 464.16113281 -109.0090332 463.16113281 C-106.45745665 463.08945931 -103.93430349 463.06804839 -101.3840332 463.09863281 C-100.32442383 463.10540039 -100.32442383 463.10540039 -99.2434082 463.11230469 C-97.49858045 463.12409406 -95.75379621 463.14202957 -94.0090332 463.16113281 C-97.05556189 455.41180599 -100.19828346 447.71177749 -103.5715332 440.09863281 C-104.03366211 438.95974609 -104.49579102 437.82085937 -104.97192383 436.64746094 C-106.42090768 433.44132099 -107.71088181 430.82862996 -110.0090332 428.16113281 C-117.71922507 425.33860272 -124.33461408 427.16292636 -129.9465332 432.97363281 Z M195.9909668 432.16113281 C194.73765663 435.41973925 194.75816774 436.63427179 196.1784668 439.84863281 C198.17255602 442.39281561 198.98958975 443.07052589 201.9909668 444.16113281 C204.79462732 444.3653225 207.49611712 444.46521947 210.29956055 444.46191406 C211.5051638 444.46834175 211.5051638 444.46834175 212.73512268 444.47489929 C214.43212951 444.48063274 216.12916092 444.48115011 217.82617188 444.47680664 C220.41603724 444.47364797 223.0047583 444.4971125 225.59448242 444.52246094 C227.24617369 444.52473424 228.89786803 444.52543728 230.54956055 444.52441406 C231.32053574 444.53362381 232.09151093 444.54283356 232.885849 444.55232239 C237.43627401 444.51336095 240.39613521 444.01448592 243.9909668 441.16113281 C246.33619615 438.27600303 246.33619615 438.27600303 245.8659668 434.66113281 C245.29584435 431.25059848 245.29584435 431.25059848 243.51245117 429.46948242 C239.6766102 427.47913853 236.03428694 427.71305152 231.7722168 427.72753906 C230.87732544 427.72229721 229.98243408 427.71705536 229.0604248 427.71165466 C227.17090898 427.70523944 225.2813532 427.70656501 223.3918457 427.71508789 C220.50098645 427.7236033 217.6120999 427.69482174 214.72143555 427.66308594 C212.88419656 427.66147394 211.04695407 427.66205143 209.2097168 427.66503906 C208.34608521 427.65380508 207.48245361 427.64257111 206.59265137 427.6309967 C201.70166256 427.68780697 198.98701825 427.87379897 195.9909668 432.16113281 Z M205.16308594 460.56713867 C203.7425486 462.49896293 203.20865713 463.76653915 202.9909668 466.16113281 C203.81204323 468.69900542 204.47394988 469.83739459 206.74511719 471.25952148 C211.08687336 473.0025485 215.81109871 472.48792807 220.4284668 472.47363281 C221.46551758 472.48974609 222.50256836 472.50585938 223.57104492 472.52246094 C230.83882766 472.65847236 230.83882766 472.65847236 236.9909668 469.16113281 C238.23773686 466.26406574 238.23773686 466.26406574 237.9909668 463.16113281 C235.8546848 460.30684331 234.6526938 459.27620847 231.10595703 458.65942383 C230.01484619 458.66127686 228.92373535 458.66312988 227.79956055 458.66503906 C226.01195312 458.66407227 226.01195312 458.66407227 224.18823242 458.66308594 C222.94750977 458.68306641 221.70678711 458.70304687 220.4284668 458.72363281 C219.18387695 458.71654297 217.93928711 458.70945312 216.65698242 458.70214844 C210.54785034 458.36052739 210.54785034 458.36052739 205.16308594 460.56713867 Z " fill="#000000" transform="translate(243.009033203125,7.8388671875)"/>
<path d="M0 0 C7.1265231 5.70121848 13.08166967 13.09439286 14.8125 22.25 C15.67952831 34.331542 14.02646143 43.39091937 6.8125 53.25 C6.1525 54.24 5.4925 55.23 4.8125 56.25 C5.69164062 56.50523437 6.57078125 56.76046875 7.4765625 57.0234375 C20.2095002 61.70510312 30.66760074 73.48348974 36.8125 85.25 C40.99757235 95.23145163 42.99631376 104.1197355 43.0625 114.875 C43.083125 115.720625 43.10375 116.56625 43.125 117.4375 C43.1635649 123.55003726 43.1635649 123.55003726 41.546875 126.7734375 C38.44235852 129.4164718 35.02538914 129.37567034 31.07521057 129.38371277 C29.65160217 129.39011024 29.65160217 129.39011024 28.19923401 129.39663696 C27.16483688 129.39618378 26.13043976 129.39573059 25.06469727 129.39526367 C23.96999115 129.39862228 22.87528503 129.4019809 21.74740601 129.40544128 C18.12456125 129.41494919 14.50176271 129.41689424 10.87890625 129.41796875 C8.36311321 129.42118116 5.84732036 129.42454522 3.33152771 129.42805481 C-1.94345398 129.43404547 -7.21842393 129.43593754 -12.4934082 129.43530273 C-18.5861965 129.43470186 -24.67889628 129.44525737 -30.77166218 129.4610464 C-36.63854799 129.47570705 -42.50539881 129.47929057 -48.3723011 129.47869301 C-50.86619491 129.47987433 -53.36008935 129.48430456 -55.85397148 129.49202538 C-59.33949031 129.5018067 -62.82478033 129.49895456 -66.31030273 129.49291992 C-67.34267563 129.49853943 -68.37504852 129.50415894 -69.43870544 129.50994873 C-70.39059753 129.50575424 -71.34248962 129.50155975 -72.32322693 129.49723816 C-73.14672355 129.49778293 -73.97022017 129.49832769 -74.81867123 129.49888897 C-77.61112051 129.20549089 -79.6822949 128.51507594 -82.1875 127.25 C-86.71601685 120.45722473 -84.72470183 108.62086942 -83.7578125 100.75390625 C-79.90422498 83.22246177 -68.97211623 69.08723492 -54.1875 59.25 C-48.86491935 56.25 -48.86491935 56.25 -46.1875 56.25 C-46.65800781 55.63253906 -47.12851563 55.01507813 -47.61328125 54.37890625 C-55.36757102 43.83114563 -57.38021101 35.43916475 -56.1875 22.25 C-54.2395113 12.08149899 -48.05553352 5.20527724 -40.1875 -1.1875 C-26.56030298 -8.28499845 -13.26503632 -7.28276504 0 0 Z M-37.1875 17.25 C-41.14813134 22.05933806 -41.61234863 26.23038222 -41.515625 32.33203125 C-40.85256346 38.22854282 -38.46599209 42.29815898 -33.98046875 46.140625 C-28.19497486 50.04013899 -23.09709914 51.55262935 -16.1875 50.25 C-8.99199433 48.06062016 -4.50854106 43.25907093 -0.8125 36.875 C0.71818141 30.44613807 0.41408177 24.92088067 -2.84765625 19.10546875 C-5.97934089 14.76858769 -10.21604688 11.25876058 -15.1875 9.25 C-24.73197726 8.13984177 -30.68525252 10.04480685 -37.1875 17.25 Z M-55.44921875 79.3125 C-64.82563153 89.7635129 -69.1875 100.26113203 -69.1875 114.25 C-37.1775 114.25 -5.1675 114.25 27.8125 114.25 C27.8125 99.60173934 22.6442177 88.18426065 12.42578125 77.83203125 C-7.21823044 60.97171204 -36.64958996 61.27773834 -55.44921875 79.3125 Z " fill="#000000" transform="translate(280.1875,108.75)"/>
<path d="M0 0 C10.93702849 8.48003613 18.03855162 18.34637971 20.5703125 32.09765625 C22.14718791 45.90370369 18.62905234 58.50226419 10.1015625 69.43359375 C1.71567187 78.67677803 -10.20181603 84.19589372 -22.5703125 85.2109375 C-35.73970518 85.69869278 -47.75432297 81.54306593 -57.578125 72.671875 C-68.08103644 61.61251792 -71.62758848 49.88258841 -71.25 34.91015625 C-70.45024895 22.40154999 -64.21227132 11.3720144 -55 3 C-38.94654146 -8.71652703 -17.11100999 -11.33070719 0 0 Z M-51 21 C-56.01245397 28.54520188 -56.75499255 36.14798593 -56 45 C-54.03793743 53.61058033 -48.88551747 60.92637865 -41.3984375 65.63671875 C-33.2110245 69.85118355 -25.52325557 71.56143336 -16.5 68.875 C-7.50648355 65.48477391 -1.51569521 60.5131959 3 52 C6.47647388 44.25417222 6.95457147 35.99232006 4 28 C-0.32677033 18.65133885 -6.5250465 13.00053592 -16 9 C-29.67185969 4.93539306 -41.9176084 10.71900281 -51 21 Z " fill="#000000" transform="translate(116,327)"/>
<path d="M0 0 C1.04608429 -0.0087616 2.09216858 -0.01752319 3.16995239 -0.02655029 C6.62544312 -0.04854447 10.07965266 -0.03399033 13.53515625 -0.01708984 C15.93742112 -0.02045794 18.33968433 -0.0253105 20.74194336 -0.03158569 C25.77571849 -0.0389571 30.8090499 -0.02824215 35.84277344 -0.00488281 C42.29611021 0.02360425 48.74840731 0.00720184 55.20170593 -0.02274513 C60.16198566 -0.04081033 65.12201877 -0.03506345 70.08230591 -0.02210617 C72.46176272 -0.01877005 74.84124191 -0.0228664 77.22067261 -0.03450394 C80.54615611 -0.04719899 83.86995456 -0.02785191 87.1953125 0 C88.17936066 -0.01012115 89.16340881 -0.02024231 90.17727661 -0.03067017 C94.78974289 0.04092101 96.93889208 0.16309141 100.74780273 2.96084595 C102.59765625 5.64697266 102.59765625 5.64697266 102.59765625 9.27197266 C101.61176675 12.59934972 101.25262919 13.61904261 98.59765625 15.64697266 C96.52177525 16.02728939 96.52177525 16.02728939 94.08778381 16.03465271 C93.16388351 16.04455734 92.23998322 16.05446198 91.28808594 16.06466675 C90.27657471 16.0601651 89.26506348 16.05566345 88.22290039 16.05102539 C87.15599472 16.05788864 86.08908905 16.06475189 84.98985291 16.07182312 C81.45403837 16.09016297 77.91866451 16.08624324 74.3828125 16.08056641 C71.93045405 16.08512479 69.47809687 16.09042933 67.02574158 16.09645081 C61.88177303 16.10539609 56.73795962 16.10294263 51.59399414 16.09301758 C44.99492844 16.08152715 38.39639777 16.10173399 31.79740238 16.13093472 C26.73169032 16.14926189 21.66610729 16.14901116 16.60037041 16.1432972 C14.16705004 16.14314355 11.73372116 16.14922337 9.30043221 16.16158867 C5.90054685 16.17643033 2.50166028 16.16587082 -0.89819336 16.14868164 C-2.41242386 16.16318359 -2.41242386 16.16318359 -3.95724487 16.17797852 C-10.75130671 16.10588152 -10.75130671 16.10588152 -14.0236969 13.79920959 C-15.94945888 10.79285879 -16.04619148 9.15236583 -15.40234375 5.64697266 C-11.12562552 -0.36756047 -6.80270076 -0.06996729 0 0 Z " fill="#000000" transform="translate(241.40234375,333.35302734375)"/>
<path d="M0 0 C1.60057755 -0.01292336 1.60057755 -0.01292336 3.23348999 -0.02610779 C6.76397897 -0.0488283 10.29367818 -0.04201768 13.82421875 -0.03295898 C16.2751489 -0.03819163 18.72607702 -0.04446678 21.17700195 -0.05174255 C26.31503777 -0.06215789 31.45279682 -0.05756841 36.59082031 -0.04296875 C43.18213127 -0.02577473 49.77257106 -0.04927912 56.36378479 -0.08445835 C61.4252299 -0.10639494 66.48646534 -0.10499992 71.54794312 -0.09669304 C73.97847449 -0.09587157 76.40902095 -0.10277208 78.83950806 -0.11746407 C82.23469975 -0.13484108 85.6283101 -0.12042288 89.0234375 -0.09765625 C90.53531143 -0.11519455 90.53531143 -0.11519455 92.07772827 -0.13308716 C98.8538086 -0.04041821 98.8538086 -0.04041821 102.16333008 2.84632874 C104.02893557 6.56417597 103.74961635 8.60130195 102.51171875 12.53344727 C97.98808426 16.49855871 92.88908144 15.97047086 87.20117188 15.95336914 C86.16484116 15.96183868 85.12851044 15.97030823 84.06077576 15.97903442 C80.63804832 16.00241762 77.21576998 16.00342634 73.79296875 16.00219727 C71.41312479 16.00929724 69.03328255 16.016996 66.65344238 16.02526855 C61.66686238 16.03871586 56.68044072 16.04028058 51.69384766 16.03442383 C45.30110267 16.02852299 38.90911589 16.05913506 32.51651764 16.09954071 C27.60259908 16.12537631 22.6888642 16.12829893 17.77488708 16.12464905 C15.4177408 16.12634369 13.06058635 16.1360191 10.70350647 16.15379333 C7.40924114 16.17590368 4.1165252 16.16632068 0.82226562 16.14868164 C-0.15243179 16.16194489 -1.12712921 16.17520813 -2.13136292 16.18887329 C-6.73998421 16.13147407 -8.8236261 16.03516783 -12.59753418 13.18640137 C-14.48828125 10.53344727 -14.48828125 10.53344727 -15.05078125 7.47094727 C-13.46644154 -0.80282678 -6.95787883 -0.04504966 0 0 Z " fill="#000000" transform="translate(240.48828125,254.466552734375)"/>
<path d="M0 0 C0.87189972 -0.00571014 1.74379944 -0.01142029 2.64212036 -0.01730347 C3.59078979 -0.01842133 4.53945923 -0.01953918 5.51687622 -0.02069092 C6.52219391 -0.02565582 7.5275116 -0.03062073 8.56329346 -0.03573608 C11.8891366 -0.05034174 15.21493206 -0.05715662 18.540802 -0.06268311 C20.85241701 -0.0684353 23.164032 -0.07419302 25.47564697 -0.07995605 C30.32272565 -0.0904611 35.16978776 -0.09630721 40.01687622 -0.09979248 C46.22662214 -0.1052801 52.43614912 -0.12931613 58.64582634 -0.15776443 C63.42078288 -0.17638949 68.19568662 -0.18159632 72.97067642 -0.18312836 C75.26000289 -0.18615504 77.54932842 -0.19418407 79.83861923 -0.20731354 C83.04143698 -0.22437298 86.24371894 -0.22249396 89.44656372 -0.21600342 C90.39118469 -0.2252182 91.33580566 -0.23443298 92.30905151 -0.243927 C97.48242616 -0.21109507 101.15488481 0.19793519 105.6111145 3.14044189 C107.03153271 5.98127831 106.92563722 7.99521467 106.6111145 11.14044189 C105.24710083 13.30340576 105.24710083 13.30340576 102.6111145 15.14044189 C99.12022122 15.74851689 95.65865075 15.68642442 92.12283325 15.65802002 C91.05578156 15.6650293 89.98872986 15.67203857 88.88934326 15.67926025 C85.35883636 15.69687904 81.82912969 15.68520307 78.2986145 15.67169189 C75.8476852 15.67438567 73.39675694 15.67826714 70.9458313 15.68328857 C65.8077884 15.68918892 60.67002354 15.68060302 55.53201294 15.66192627 C48.94079965 15.6391369 42.35023784 15.65225705 35.75904846 15.67621613 C30.69761228 15.69065933 25.63633095 15.68607479 20.57489014 15.67570496 C18.14436771 15.67303361 15.71383129 15.6763217 13.2833252 15.68562317 C9.88830234 15.69576397 6.4943395 15.68032082 3.09939575 15.65802002 C1.58752182 15.67016541 1.58752182 15.67016541 0.04510498 15.68255615 C-6.73432162 15.59991351 -6.73432162 15.59991351 -10.01705933 13.29559326 C-11.88921595 10.35441822 -11.88837869 8.5655381 -11.3888855 5.14044189 C-10.04610104 2.65629066 -9.2670773 1.42599469 -6.55381584 0.54375076 C-4.31882848 0.12739084 -2.27258131 0.0089485 0 0 Z " fill="#000000" transform="translate(237.38888549804688,293.85955810546875)"/>
<path d="M0 0 C1.7634375 -0.01643555 1.7634375 -0.01643555 3.5625 -0.03320312 C13.53722506 0.05180874 13.53722506 0.05180874 18 4.5625 C18.5625 8.0625 18.5625 8.0625 18 11.5625 C15.82701701 14.46413241 14.64451879 15.44983676 11.0390625 16.08007812 C9.91242188 16.08458984 8.78578125 16.08910156 7.625 16.09375 C6.39265625 16.09890625 5.1603125 16.1040625 3.890625 16.109375 C2.60671875 16.09390625 1.3228125 16.0784375 0 16.0625 C-1.92585938 16.08570313 -1.92585938 16.08570313 -3.890625 16.109375 C-5.12296875 16.10421875 -6.3553125 16.0990625 -7.625 16.09375 C-9.31496094 16.08698242 -9.31496094 16.08698242 -11.0390625 16.08007812 C-14.63337604 15.45178453 -15.81388126 14.43471567 -18 11.5625 C-18.72954455 7.75265626 -18.39035569 6.164409 -16.27734375 2.90625 C-11.95383531 -1.18788235 -5.54528441 -0.11248658 0 0 Z " fill="#000000" transform="translate(193,333.4375)"/>
<path d="M0 0 C1.23234375 -0.00515625 2.4646875 -0.0103125 3.734375 -0.015625 C5.66023437 0.00757813 5.66023437 0.00757813 7.625 0.03125 C8.90890625 0.01578125 10.1928125 0.0003125 11.515625 -0.015625 C12.74796875 -0.01046875 13.9803125 -0.0053125 15.25 0 C16.93996094 0.00676758 16.93996094 0.00676758 18.6640625 0.01367188 C22.26951879 0.64391324 23.45201701 1.62961759 25.625 4.53125 C26.1875 8.03125 26.1875 8.03125 25.625 11.53125 C23.37605775 14.34117562 21.52093191 15.40902169 17.95141602 15.89599609 C14.66671263 16.03482636 11.41201135 16.02697706 8.125 15.96875 C6.99707031 15.97583984 5.86914062 15.98292969 4.70703125 15.99023438 C-4.70989641 15.91779647 -4.70989641 15.91779647 -9.375 12.53125 C-10.79541821 9.69041359 -10.68952272 7.67647722 -10.375 4.53125 C-7.30784774 0.44048187 -4.99624519 0.02000785 0 0 Z " fill="#000000" transform="translate(185.375,254.46875)"/>
<path d="M0 0 C0.98935547 -0.01224609 1.97871094 -0.02449219 2.99804688 -0.03710938 C3.95646484 -0.03904297 4.91488281 -0.04097656 5.90234375 -0.04296875 C6.77238037 -0.04707764 7.64241699 -0.05118652 8.53881836 -0.05541992 C12.50209158 0.32606957 15.24287366 1.36787366 18.0625 4.1875 C18.38544908 7.67535005 18.55510464 10.21719523 16.94897461 13.38085938 C14.22903486 15.98569361 12.28588799 15.70445314 8.56640625 15.71875 C6.64538086 15.72648437 6.64538086 15.72648437 4.68554688 15.734375 C4.019021 15.72599609 3.35249512 15.71761719 2.66577148 15.70898438 C0.63468442 15.68760195 -1.39285221 15.70876308 -3.42382812 15.734375 C-4.70580078 15.72921875 -5.98777344 15.7240625 -7.30859375 15.71875 C-8.48349365 15.71423828 -9.65839355 15.70972656 -10.86889648 15.70507812 C-14.53915957 15.08601871 -15.72982599 14.13596609 -17.9375 11.1875 C-18.43602036 7.76907468 -18.33433108 5.9216375 -16.6875 2.875 C-12.441147 -1.21969753 -5.50316688 0.00357117 0 0 Z " fill="#000000" transform="translate(192.9375,293.8125)"/>
<path d="M0 0 C3.37882179 2.3933321 4.67073608 4.03278722 6 7.9375 C6 11.81045073 5.14268559 13.78597162 3 17 C0.69415934 19.04231601 -0.86198798 19.94559305 -3.9609375 20.09375 C-7.38837851 19.83892167 -9.5532491 19.29783393 -12.4375 17.375 C-14.56005795 14.14871191 -14.93354451 11.85441842 -15 8 C-12.12885865 0.39147542 -7.68780716 -1.30827595 0 0 Z " fill="#000000" transform="translate(264,31)"/>
</svg>
