<?xml version="1.0" encoding="UTF-8"?>
<svg version="1.1" xmlns="http://www.w3.org/2000/svg" width="512" height="512">
<path d="M0 0 C1.21228775 -0.00860046 2.4245755 -0.01720093 3.67359924 -0.02606201 C5.01426654 -0.03049701 6.35493429 -0.03479539 7.69560242 -0.03897095 C9.11026203 -0.04687669 10.52491966 -0.05514593 11.9395752 -0.06375122 C16.58568914 -0.0899359 21.23181188 -0.10528404 25.87797546 -0.11953735 C27.48238314 -0.12490014 29.08679077 -0.13027766 30.69119835 -0.13566971 C37.3730062 -0.15730099 44.0548117 -0.17603135 50.7366457 -0.1872921 C60.28149004 -0.20348753 69.82592448 -0.23655451 79.37061435 -0.29369295 C86.09698827 -0.3325707 92.82325345 -0.35194625 99.54973668 -0.35721266 C103.55831109 -0.36084434 107.56644801 -0.37262837 111.57489967 -0.4053154 C115.35651316 -0.43570872 119.13743172 -0.44159879 122.91914177 -0.42993164 C124.94281975 -0.42961064 126.96645686 -0.45387105 128.98997498 -0.47930908 C145.06929762 -0.37172851 159.07748816 5.32673619 170.82719421 16.40390015 C182.28917201 28.54131592 188.27547119 43.51106131 188.15556335 60.20321655 C188.14945551 61.58176601 188.14352792 62.96031628 188.13775635 64.33886719 C188.13074801 65.41838087 188.13074801 65.41838087 188.1235981 66.51970291 C188.10425858 70.36393475 188.1196372 74.20809085 188.12992859 78.05233765 C188.14218885 82.9289785 188.14366812 87.80473777 188.10136414 92.6812439 C188.06795304 96.63858178 188.07339105 100.59419234 188.10493279 104.55152512 C188.10985211 106.05460078 188.10059769 107.55779393 188.0767231 109.06068802 C187.61256802 117.15698476 187.61256802 117.15698476 190.84503174 124.14117432 C192.88616872 125.41700961 194.83994967 126.28621899 197.07719421 127.15390015 C203.68435569 133.11788661 207.55095669 140.1046601 208.21977234 149.06381226 C208.75314658 160.93002844 208.23305253 171.82184132 200.62406921 181.59140015 C195.03276924 187.2391779 188.02679713 191.19384212 179.99125671 191.34921265 C178.56143729 191.33609504 177.13167888 191.31250467 175.70219421 191.27890015 C174.96613953 191.26987671 174.23008484 191.26085327 173.47172546 191.2515564 C171.67340541 191.22820159 169.8752551 191.1923385 168.07719421 191.15390015 C168.05141296 192.03948608 168.02563171 192.92507202 167.99906921 193.8374939 C166.71486846 221.8856059 155.50246921 246.66078221 135.04203796 266.10702515 C116.23848 283.15390015 116.23848 283.15390015 107.07719421 283.15390015 C107.07719421 289.09390015 107.07719421 295.03390015 107.07719421 301.15390015 C114.13989256 301.23385811 121.19942181 301.25414923 128.26249695 301.22103882 C130.66096783 301.21797151 133.05951648 301.23072777 135.45780945 301.26010132 C151.08040174 302.07106523 151.08040174 302.07106523 164.72953796 295.88046265 C166.20206347 294.32670284 167.65452303 292.7534337 169.07719421 291.15390015 C171.55009426 289.37375147 174.14691877 287.91046548 176.82719421 286.46640015 C177.50201843 286.09684204 178.17684265 285.72728394 178.87211609 285.3465271 C207.97473592 269.76116557 242.55620016 266.23050876 274.22563171 275.80331421 C289.88485588 280.80233233 303.47891141 288.68892656 316.07719421 299.15390015 C316.89961609 299.82292358 317.72203796 300.49194702 318.56938171 301.1812439 C324.52367742 306.21870168 329.34801826 311.97026308 334.07719421 318.15390015 C334.68434265 318.94538452 335.29149109 319.7368689 335.91703796 320.55233765 C345.02676094 332.9878325 350.94904909 346.37560931 355.07719421 361.15390015 C355.58959656 362.97534546 355.58959656 362.97534546 356.11235046 364.83358765 C363.20714766 395.52271041 357.13817216 428.4948614 341.19535828 455.37216187 C337.89964756 460.62371139 334.04932979 465.40434354 330.07719421 470.15390015 C329.29602234 471.10007202 328.51485046 472.0462439 327.71000671 473.02108765 C308.95782494 494.72443245 281.36127331 508.38456119 253.07719421 512.15390015 C248.06671456 512.434239 243.06181641 512.43753753 238.04512024 512.42805481 C236.54600966 512.43251504 235.04690144 512.43783164 233.54779661 512.44392353 C229.45491436 512.45801776 225.36210836 512.45976848 221.26920533 512.45932662 C216.84525137 512.46098226 212.42132816 512.47406187 207.99739075 512.48551941 C198.34098998 512.50830211 188.68461128 512.51628135 179.02818727 512.52134585 C172.99823843 512.52460786 166.96829593 512.531133 160.93835068 512.53834724 C144.23756682 512.55789702 127.53678885 512.57431317 110.83599281 512.57722378 C109.76886168 512.57741135 108.70173054 512.57759892 107.6022621 512.57779217 C105.43909097 512.57815841 103.27591983 512.57852211 101.1127487 512.57888328 C99.50210968 512.5791575 99.50210968 512.5791575 97.8589325 512.57943726 C96.24632678 512.57970808 96.24632678 512.57970808 94.60114317 512.57998437 C77.1520102 512.58353178 59.70300018 512.61059673 42.2539099 512.64793514 C24.33266424 512.68597716 6.41147972 512.70538091 -11.50980723 512.70568329 C-21.56974954 512.70626845 -31.62954478 512.71479945 -41.68944931 512.74368095 C-50.24749416 512.76813881 -58.80533818 512.77551504 -67.36340849 512.76043343 C-71.73072605 512.75324398 -76.09764652 512.75420952 -80.46492004 512.77684402 C-84.46066018 512.79735546 -88.45569593 512.79490815 -92.45142777 512.77396918 C-93.89869367 512.77045938 -95.34600961 512.77544712 -96.79320984 512.78967362 C-98.7569981 512.80773843 -100.72101048 512.79210676 -102.68480492 512.77472591 C-104.32251793 512.7759476 -104.32251793 512.7759476 -105.99331605 512.77719396 C-109.91264435 511.94329683 -111.42956061 510.21926896 -113.92280579 507.15390015 C-114.54921818 504.25357246 -114.54921818 504.25357246 -114.55099487 500.99694824 C-114.56364883 499.75804337 -114.5763028 498.51913849 -114.58934021 497.24269104 C-114.57802426 495.87731515 -114.5661968 494.51194342 -114.5539093 493.14657593 C-114.55905022 491.70220562 -114.5663328 490.25784159 -114.57559204 488.81349182 C-114.59410942 484.89324813 -114.58115921 480.9736846 -114.56150174 477.05346918 C-114.54508504 472.93783975 -114.55393379 468.82225243 -114.559021 464.706604 C-114.56354368 457.78462926 -114.547674 450.86292452 -114.51972961 443.94100952 C-114.48780334 435.9720573 -114.48764354 428.00359541 -114.50494438 420.03460896 C-114.5209014 412.34217274 -114.5140092 404.64991385 -114.49700737 396.9574852 C-114.49018722 393.69868033 -114.49111735 390.44001978 -114.49855232 387.18121719 C-114.50630644 383.32488655 -114.49379743 379.46910163 -114.46670341 375.61286354 C-114.45990796 374.20980128 -114.45962449 372.80668715 -114.46691895 371.4036274 C-114.55242971 352.78704275 -109.37585983 336.06847796 -96.21577454 322.4234314 C-95.45909485 321.67448608 -94.70241516 320.92554077 -93.92280579 320.15390015 C-92.927005 319.10782593 -92.927005 319.10782593 -91.91108704 318.0406189 C-87.45514544 313.66955238 -82.62530488 310.66776375 -77.11030579 307.84140015 C-76.48309631 307.51575073 -75.85588684 307.19010132 -75.20967102 306.85458374 C-62.99170205 300.91471411 -50.86567929 300.74135173 -37.59468079 300.8609314 C-35.75095467 300.86653823 -33.90722404 300.87080318 -32.06349182 300.87379456 C-27.24992673 300.88515781 -22.43664041 300.91454997 -17.6231842 300.94790649 C-12.69575266 300.97879277 -7.76827533 300.99233926 -2.84077454 301.00741577 C6.79866974 301.0394292 16.43790865 301.09052035 26.07719421 301.15390015 C26.0661131 298.23468324 26.01503734 295.32551201 25.94047546 292.4078064 C25.94148254 291.58333008 25.94248962 290.75885376 25.94352722 289.90939331 C25.86489198 287.52812596 25.71438479 285.45130039 25.07719421 283.15390015 C22.04891599 280.36712779 19.49071139 279.18353611 15.69047546 277.6343689 C-5.14496684 269.09746875 -19.38560086 247.1180599 -27.92280579 227.15390015 C-32.35195928 215.54872943 -34.42716473 203.56673412 -33.92280579 191.15390015 C-34.96179016 191.2003064 -36.00077454 191.24671265 -37.07124329 191.29452515 C-47.67805833 191.62949061 -55.65473485 190.81175358 -64.23530579 183.96640015 C-69.69589549 178.8374252 -73.54451658 172.29758982 -74.09980774 164.74716187 C-74.16666864 161.84097685 -74.20770932 158.93572779 -74.23530579 156.02890015 C-74.26430969 155.0337439 -74.2933136 154.03858765 -74.32319641 153.01327515 C-74.40262378 143.65306544 -72.10843036 135.65475109 -65.64155579 128.69296265 C-62.47875346 125.86081692 -58.32930713 122.15390015 -53.92280579 122.15390015 C-53.93946037 120.83537048 -53.93946037 120.83537048 -53.95645142 119.49020386 C-54.05735209 111.136504 -54.13312132 102.78301381 -54.18186665 94.42884064 C-54.20777122 90.13559104 -54.24281036 85.84285207 -54.30000305 81.54989624 C-54.35501743 77.39362193 -54.38436948 73.23783333 -54.397192 69.08122253 C-54.40630927 67.50903188 -54.42410608 65.93686261 -54.45145607 64.36488342 C-54.71518141 48.55322286 -51.56942036 35.06686277 -41.92280579 22.15390015 C-41.4858136 21.52354858 -41.04882141 20.89319702 -40.59858704 20.2437439 C-31.6045093 8.38668646 -14.71020887 0.07780815 0 0 Z M-21.92280579 31.15390015 C-29.00963579 39.30096456 -33.05668682 47.92918747 -33.03633118 58.75839233 C-33.0364772 59.41246567 -33.03662323 60.066539 -33.03677368 60.74043274 C-33.0360792 62.8939144 -33.02830862 65.04730866 -33.02046204 67.20077515 C-33.01859621 68.69721428 -33.01717308 70.19365403 -33.01617432 71.69009399 C-33.01236213 75.62248429 -33.00254296 79.55483747 -32.99147034 83.48721313 C-32.98122827 87.50240578 -32.97667071 91.51760444 -32.97163391 95.5328064 C-32.9609195 103.40652132 -32.9438587 111.28020611 -32.92280579 119.15390015 C-21.7694329 119.22363343 -10.61611251 119.27682945 0.53743458 119.30933666 C5.71735182 119.32494419 10.89711911 119.34609213 16.07695007 119.38021851 C21.08255154 119.4129879 26.08800942 119.43079005 31.09370995 119.43853188 C32.9965357 119.44404397 34.89935424 119.45480719 36.8021183 119.47109032 C54.74930639 119.61846629 69.28475904 117.37517488 82.81938171 104.5406189 C91.86811328 94.97526425 95.3696808 84.24284186 96.77519226 71.39828491 C97.29554526 67.43959614 97.61950565 65.64205051 100.42485046 62.6499939 C102.91869223 61.24330553 104.25916123 60.58571863 107.07719421 60.59140015 C108.03625671 60.55852905 108.03625671 60.55852905 109.01469421 60.5249939 C112.43040096 61.56652569 113.89976938 63.36737992 116.07719421 66.15390015 C116.71755536 69.01958872 117.11818454 71.57225544 117.38969421 74.46640015 C119.05230293 87.03618457 124.01445092 98.65625479 133.60453796 107.2593689 C143.94553418 115.18256505 154.01811149 119.25474619 167.07719421 119.15390015 C167.14707635 110.99934729 167.20019757 102.84492207 167.23263073 94.69014263 C167.2482065 90.90248127 167.26929429 87.11502659 167.30351257 83.32748413 C167.33639806 79.6640352 167.35410785 76.00078355 167.36182594 72.33719826 C167.36731763 70.94792391 167.37803962 69.55865888 167.39438438 68.16946983 C167.55070713 54.31698385 165.50644029 42.55602368 156.10844421 31.92733765 C144.878174 21.0632719 131.8081201 20.00259135 116.97660828 20.00863647 C115.78527283 20.00527786 114.59393738 20.00191925 113.36650085 19.99845886 C110.11832852 19.99061998 106.87019468 19.98728323 103.62201405 19.98664308 C101.58629652 19.98592911 99.55058557 19.98378824 97.51486969 19.98114586 C90.39468973 19.97191129 83.2745284 19.96780852 76.15434265 19.96859741 C69.54697124 19.96919739 62.93968167 19.95865638 56.33233094 19.94285375 C50.63521008 19.92972007 44.93811577 19.92441596 39.24097991 19.92505282 C35.84919966 19.92530614 32.45749222 19.92254782 29.06572723 19.91187477 C25.27553626 19.90201662 21.48555299 19.90497603 17.69535828 19.91098022 C16.59157837 19.90536072 15.48779846 19.89974121 14.35057068 19.89395142 C1.16081939 19.94672715 -12.03790231 21.54357732 -21.92280579 31.15390015 Z M106.07719421 108.15390015 C104.50521318 109.93682641 104.50521318 109.93682641 102.88969421 112.21640015 C91.10739981 127.67612525 75.19756513 136.13190618 56.07719421 139.15390015 C50.58653928 139.57288387 45.12055595 139.64229232 39.61625671 139.6656189 C38.08925483 139.68251561 36.56226642 139.7006723 35.03529358 139.72001648 C31.06694255 139.76698205 27.09864614 139.79713354 23.13011169 139.82345581 C19.06027939 139.85353527 14.99063467 139.89996938 10.92094421 139.94491577 C2.97312092 140.03033853 -4.97472054 140.09795071 -12.92280579 140.15390015 C-12.99289287 147.73506601 -13.04591073 155.31619751 -13.0782423 162.89761543 C-13.0937745 166.41952231 -13.11477892 169.94120454 -13.14912415 173.46298218 C-13.18852268 177.52924524 -13.20261754 181.5952793 -13.21577454 185.66171265 C-13.23125839 186.90188141 -13.24674225 188.14205017 -13.26269531 189.4197998 C-13.26685807 211.46854387 -5.13355435 231.6356807 10.27250671 247.40390015 C26.35252735 263.17038278 46.5200617 271.10848986 69.04008484 271.19735718 C90.38942077 270.74191832 110.11313676 261.04946015 125.07719421 246.15390015 C142.17218974 227.6249494 147.27847993 206.12765865 147.17485046 181.5874939 C147.17343552 180.31285782 147.17202057 179.03822174 147.17056274 177.72496033 C147.16593929 174.36638448 147.15698346 171.00787898 147.14585876 167.64932251 C147.1355565 164.2100993 147.1310464 160.77086877 147.12602234 157.33163452 C147.1150361 150.60570393 147.09833024 143.87980609 147.07719421 137.15390015 C146.17986069 136.81485153 145.28252716 136.47580292 144.35800171 136.1264801 C143.18340897 135.67944229 142.00881622 135.23240448 140.79862976 134.77182007 C139.63317123 134.32964645 138.46771271 133.88747284 137.26693726 133.43190002 C125.13001575 128.56913083 115.00334285 119.12030215 108.07719421 108.15390015 C107.41719421 108.15390015 106.75719421 108.15390015 106.07719421 108.15390015 Z M-50.92280579 144.15390015 C-53.60649432 147.6752248 -53.29005265 151.83880739 -53.29780579 156.09140015 C-53.32229797 156.79458374 -53.34679016 157.49776733 -53.37202454 158.22225952 C-53.39280922 161.91846926 -53.0450104 163.96455844 -51.02436829 167.0953064 C-45.54555972 172.46209471 -44.12718317 170.15390015 -33.92280579 170.15390015 C-33.92280579 160.58390015 -33.92280579 151.01390015 -33.92280579 141.15390015 C-45.17964525 140.12490864 -45.17964525 140.12490864 -50.92280579 144.15390015 Z M168.07719421 141.15390015 C168.07719421 150.72390015 168.07719421 160.29390015 168.07719421 170.15390015 C179.10824985 171.21647822 179.10824985 171.21647822 183.76469421 167.84140015 C187.18387008 163.86776333 187.25725693 160.87266588 187.32719421 155.77890015 C187.35297546 154.65741577 187.37875671 153.5359314 187.40531921 152.38046265 C187.03798715 148.76836402 186.26587539 147.0228471 184.07719421 144.15390015 C179.31052755 139.95390015 179.31052755 139.95390015 168.07719421 141.15390015 Z M47.07719421 290.15390015 C46.96008442 294.15364996 46.88963932 298.15295295 46.82719421 302.15390015 C46.79367859 303.27925171 46.76016296 304.40460327 46.72563171 305.5640564 C46.63238864 313.53633882 47.5526462 319.0695246 52.82328796 325.17733765 C58.49098163 329.70625683 62.58511306 331.79976921 70.07719421 331.15390015 C76.28798749 329.08363572 81.31125653 326.10382175 84.73075867 320.39169312 C86.19942898 316.85996045 86.42452126 314.46679357 86.37016296 310.66171265 C86.360495 309.46288452 86.35082703 308.2640564 86.34086609 307.02890015 C86.31572937 305.79140015 86.29059265 304.55390015 86.26469421 303.27890015 C86.25115906 302.01819702 86.2376239 300.7574939 86.22367859 299.45858765 C86.18842857 296.3565856 86.13914925 293.2554648 86.07719421 290.15390015 C85.49977478 290.18942993 84.92235535 290.22495972 84.32743835 290.26156616 C71.80662625 291.00435773 59.57873149 291.23161888 47.07719421 290.15390015 Z M207.07719421 296.15390015 C206.00719177 296.52394165 206.00719177 296.52394165 204.91557312 296.90145874 C195.10108446 300.40986384 186.4110569 304.81740951 178.07719421 311.15390015 C177.05883484 311.92733765 176.04047546 312.70077515 174.99125671 313.49765015 C159.48302204 325.84173618 148.23267097 342.36474635 142.07719421 361.15390015 C141.45651062 363.0236853 141.45651062 363.0236853 140.82328796 364.9312439 C135.4165489 383.13779566 136.11518113 404.19356788 142.07719421 422.15390015 C142.28618347 422.79182495 142.49517273 423.42974976 142.710495 424.08700562 C151.254494 449.48860267 170.28818015 470.34164616 194.17192078 482.27059937 C203.62410422 486.65271107 213.71030518 489.97210472 224.07719421 491.15390015 C225.10457703 491.28667358 226.13195984 491.41944702 227.19047546 491.5562439 C253.26429938 494.2327956 279.06729657 486.45419639 299.53813171 470.23202515 C300.37602234 469.5462439 301.21391296 468.86046265 302.07719421 468.15390015 C302.72945984 467.6537439 303.38172546 467.15358765 304.05375671 466.63827515 C317.80897141 455.70947443 327.68368827 438.65461841 333.07719421 422.15390015 C333.28747253 421.52741577 333.49775085 420.9009314 333.71440125 420.25546265 C341.45742957 396.22326072 338.21835086 368.60852695 327.10014343 346.18319702 C322.0453238 336.57831864 315.67184588 328.83950573 308.07719421 321.15390015 C307.09492859 320.06335327 307.09492859 320.06335327 306.09281921 318.95077515 C292.1195711 303.78323233 268.72690499 293.2349207 248.18730164 291.97689819 C234.02365557 291.68803209 220.57312581 291.47163817 207.07719421 296.15390015 Z M-83.97358704 340.5406189 C-91.60638659 350.69044443 -93.5274071 361.16783956 -93.37690735 373.63339233 C-93.37749146 374.92261597 -93.37807556 376.2118396 -93.37867737 377.54013062 C-93.37981327 381.03540678 -93.3564894 384.53012076 -93.32838154 388.0252676 C-93.30317763 391.69272866 -93.30101107 395.36020617 -93.29627991 399.02774048 C-93.28390538 405.95482678 -93.25115969 412.88165703 -93.21088195 419.80863118 C-93.15757795 429.18166626 -93.13617407 438.55477261 -93.11287308 447.9279213 C-93.07539334 462.67010559 -92.9956665 477.41174988 -92.92280579 492.15390015 C-61.90280579 492.15390015 -30.88280579 492.15390015 1.07719421 492.15390015 C-5.0028408 476.9538126 -11.10467689 461.78812323 -17.42781067 446.69122314 C-18.71277206 443.62090371 -19.99361927 440.54889558 -21.27339172 437.47640991 C-24.92425653 428.7133912 -28.57841463 419.9521262 -32.28285217 411.21159363 C-33.61394914 408.06674987 -34.93587834 404.91810685 -36.25593567 401.76861572 C-36.86035099 400.33336068 -37.4692214 398.89997246 -38.08283997 397.46862793 C-38.92102183 395.51280226 -39.74383115 393.55116365 -40.56343079 391.5874939 C-41.25227356 389.96412109 -41.25227356 389.96412109 -41.95503235 388.30795288 C-43.26220407 384.04777341 -43.55861299 380.11430569 -42.17280579 375.84140015 C-40.58605547 373.69928722 -39.40525461 373.14070235 -36.92280579 372.15390015 C-33.9901886 371.83505249 -33.9901886 371.83505249 -30.62593079 371.73983765 C-29.42065735 371.70116577 -28.21538391 371.6624939 -26.97358704 371.62265015 C-25.09220032 371.5762439 -25.09220032 371.5762439 -23.17280579 371.52890015 C-21.26821594 371.47089233 -21.26821594 371.47089233 -19.32514954 371.41171265 C-16.19118009 371.31745793 -13.0572163 371.23184849 -9.92280579 371.15390015 C-11.93449247 364.78853383 -14.29759591 358.65539746 -16.93452454 352.5249939 C-17.30761246 351.64988663 -17.68070038 350.77477936 -18.06509399 349.87315369 C-19.24352285 347.11114204 -20.42682395 344.35124988 -21.61030579 341.59140015 C-22.41596897 339.70547109 -23.22131057 337.81940462 -24.02632141 335.93319702 C-25.98810445 331.33850211 -27.9542563 326.74569987 -29.92280579 322.15390015 C-33.71432162 322.06560953 -37.50556744 322.01308069 -41.29780579 321.96640015 C-42.35870422 321.94126343 -43.41960266 321.91612671 -44.51264954 321.89022827 C-60.98612816 321.73863184 -73.28427004 328.10028997 -83.97358704 340.5406189 Z M-6.92280579 322.15390015 C-4.54201777 329.38990867 -4.54201777 329.38990867 -1.74629211 336.3789978 C-1.34610367 337.29669952 -0.94591522 338.21440125 -0.53359985 339.15991211 C-0.11160812 340.11956879 0.31038361 341.07922546 0.74516296 342.06796265 C1.64738745 344.14846129 2.54906397 346.22919762 3.45024109 348.31015015 C4.86014859 351.55586702 6.27384802 354.79973843 7.69706726 358.03964233 C9.07876474 361.19005539 10.44436237 364.34705349 11.80766296 367.50546265 C12.23572739 368.46916779 12.66379181 369.43287292 13.10482788 370.42578125 C15.74134125 376.57555052 17.06809413 381.35545046 15.32719421 388.02890015 C14.07719421 390.15390015 14.07719421 390.15390015 12.40629578 390.76693726 C9.44760948 391.25850096 6.55982895 391.37490722 3.56156921 391.4703064 C2.31117859 391.51220093 1.06078796 391.55409546 -0.22749329 391.59725952 C-1.52944641 391.63657593 -2.83139954 391.67589233 -4.17280579 391.71640015 C-6.1489386 391.78117554 -6.1489386 391.78117554 -8.16499329 391.84725952 C-11.41749367 391.95331932 -14.6700697 392.05538038 -17.92280579 392.15390015 C-11.75776613 407.94383221 -5.2400232 423.56550603 1.42115784 439.15100098 C7.36236845 453.05425676 13.1771501 467.00438594 18.87504578 481.00912476 C19.15310059 481.69007202 19.4311554 482.37101929 19.71763611 483.07260132 C20.46322459 484.89891913 21.20586595 486.72643932 21.94828796 488.55404663 C22.8370384 491.03606614 22.8370384 491.03606614 24.07719421 492.15390015 C26.75507395 492.24902958 29.4070829 492.27945293 32.08525085 492.26742554 C32.92420395 492.26757156 33.76315704 492.26771759 34.62753296 492.26786804 C37.41416466 492.26716864 40.20073038 492.259375 42.98735046 492.2515564 C44.91406213 492.24969231 46.84077427 492.24826836 48.76748657 492.24726868 C53.84906819 492.24344274 58.93062141 492.23361181 64.01219177 492.2225647 C69.19336055 492.21235221 74.3745339 492.20777141 79.55570984 492.20272827 C89.72955047 492.1919896 99.90336998 492.17491227 110.07719421 492.15390015 C110.42074416 491.34630139 110.42074416 491.34630139 110.77123451 490.5223875 C111.45285751 488.92006478 112.13448171 487.31774256 112.8161068 485.71542072 C113.5887812 483.89905316 114.36144678 482.08268185 115.13410378 480.26630688 C116.72909099 476.51680864 118.32412981 472.76733258 119.91966248 469.01806641 C121.00131725 466.47631632 122.08232503 463.9342922 123.16313171 461.3921814 C123.51996033 460.55408936 123.87678894 459.71599731 124.24443054 458.85250854 C125.19272713 456.62132017 126.1353795 454.38782931 127.07719421 452.15390015 C127.49130554 451.18500854 127.90541687 450.21611694 128.33207703 449.21786499 C129.98927599 444.62744558 127.34195187 440.07787356 125.6516571 435.77597046 C116.11211788 411.31511031 114.17911917 382.47702813 122.07719421 357.15390015 C122.29150085 356.46344604 122.5058075 355.77299194 122.72660828 355.06161499 C126.02735271 344.81104986 130.84644365 335.53155206 136.07719421 326.15390015 C136.73719421 324.83390015 137.39719421 323.51390015 138.07719421 322.15390015 C127.51719421 322.15390015 116.95719421 322.15390015 106.07719421 322.15390015 C104.09719421 326.11390015 102.11719421 330.07390015 100.07719421 334.15390015 C93.46459339 342.89598259 85.40782839 349.02581348 74.37406921 350.90390015 C63.5512773 352.0818911 52.83018771 350.86588394 43.70219421 344.40390015 C35.95921863 337.86719865 32.43196538 331.73439672 28.07719421 322.15390015 C16.52719421 322.15390015 4.97719421 322.15390015 -6.92280579 322.15390015 Z M142.07719421 468.15390015 C140.57152912 471.77657308 139.07362875 475.40240563 137.57719421 479.02890015 C137.1479364 480.06143921 136.71867859 481.09397827 136.27641296 482.1578064 C135.87035828 483.14393921 135.46430359 484.13007202 135.04594421 485.14608765 C134.66889343 486.0572937 134.29184265 486.96849976 133.90336609 487.90731812 C132.96214503 490.06780341 132.96214503 490.06780341 133.07719421 492.15390015 C144.95719421 492.15390015 156.83719421 492.15390015 169.07719421 492.15390015 C165.66435981 488.74106574 162.57797735 485.88915952 158.82719421 482.96640015 C153.95318252 479.04872363 149.87636433 474.80318544 145.85453796 470.0249939 C145.26801453 469.40753296 144.68149109 468.79007202 144.07719421 468.15390015 C143.41719421 468.15390015 142.75719421 468.15390015 142.07719421 468.15390015 Z " fill="#000000" transform="translate(133.9228057861328,-0.153900146484375)"/>
<path d="M0 0 C6.57764192 5.9139785 10.04416797 12.89526131 10.57446289 21.7331543 C10.80247981 31.11489379 8.56093001 38.63547755 2.359375 45.9296875 C-3.38282075 51.32305827 -10.71717418 54.31787518 -18.5 55.1015625 C-21 55 -21 55 -24 54.1484375 C-27.65761263 53.13731862 -30.20778712 52.57816474 -34 53 C-39.20344316 56.30616873 -43.13140582 61.27664279 -47 66 C-46.57001709 66.4959668 -46.14003418 66.99193359 -45.69702148 67.50292969 C-44.6363296 68.73053945 -43.58300423 69.96453401 -42.53515625 71.203125 C-41.43014319 72.49652451 -40.28849144 73.75894246 -39.125 75 C-37.35714439 78.14285441 -37.57305801 80.46248066 -38 84 C-41.07692308 89.53846154 -41.07692308 89.53846154 -44 91 C-47.11360694 91.56845936 -49.89318907 91.63424529 -53 91 C-55.33908183 89.36141378 -57.2146636 87.60337431 -59.17578125 85.53125 C-61.11367046 83.5713848 -61.11367046 83.5713848 -65 84 C-67.68300437 86.1972546 -67.68300437 86.1972546 -70.25 89 C-71.14203125 89.928125 -72.0340625 90.85625 -72.953125 91.8125 C-73.96632813 92.8953125 -73.96632813 92.8953125 -75 94 C-74.40251953 94.65355469 -74.40251953 94.65355469 -73.79296875 95.3203125 C-66 104.08029197 -66 104.08029197 -66 110.5625 C-67.22188185 114.76271886 -68.48961349 116.40536649 -72 119 C-76.32458076 120.36144209 -78.20748508 120.38595289 -82.3046875 118.390625 C-86.29590653 115.98519809 -89.48895266 112.99074913 -92.75 109.6875 C-93.31332031 109.14416016 -93.87664062 108.60082031 -94.45703125 108.04101562 C-98.18958759 104.30404728 -100.34136054 101.03558167 -102 96 C-100.85596037 85.51297004 -89.79227128 77.78733303 -82.62109375 70.9453125 C-80.11223132 68.51926887 -77.6122135 66.0841202 -75.11079311 63.65040779 C-72.50912995 61.12292578 -69.8975362 58.60745026 -67.26342773 56.11376953 C-64.69379032 53.67983146 -62.15477912 51.21741954 -59.63368416 48.73327255 C-58.21031265 47.34634725 -56.75649835 45.99088613 -55.30235291 44.63626099 C-50.5658752 40.20576167 -50.5658752 40.20576167 -48.87797546 34.24847412 C-49.38580256 31.71148257 -50.12124403 29.4280896 -51 27 C-51.43658293 17.68623083 -49.21186678 9.70926819 -42.94921875 2.70703125 C-31.02825952 -8.5962617 -13.36532948 -10.19985671 0 0 Z M-27 17 C-29.64260627 20.63358362 -30.11940078 22.21726156 -29.4375 26.6875 C-27.95438124 30.1051215 -27.26022727 31.32331169 -24 33 C-20.54739897 34.2720109 -19.28998581 34.11371993 -15.8125 32.75 C-12.79602121 31.14189118 -12.79602121 31.14189118 -11 28 C-10.30873061 22.0742926 -10.30873061 22.0742926 -13.1875 17.0625 C-18.43259148 13.21609958 -21.56335628 13.33617489 -27 17 Z " fill="#000000" transform="translate(417,335)"/>
<path d="M0 0 C2.02456848 1.29572383 4.02678947 2.6273318 6 4 C10.3385626 4.61979466 12.21092578 4.56111944 15.8125 2 C20.22100445 -0.76612044 23.92284731 -0.9377104 29 0 C32.125 1.875 32.125 1.875 34 5 C34.68448323 8.47945643 34.70136971 11.52189611 34 15 C30.29815871 20.20571431 23.40523023 24.86966525 17 26 C6.56088264 26.99121427 -1.1151884 26.08128392 -10 20 C-13.07960724 17.38153877 -14.54542995 15.67351454 -15 11.625 C-15.27278125 7.95154578 -14.97290228 6.94767337 -13.1875 3.5 C-9.41752966 -0.80853753 -5.47404709 -0.71440954 0 0 Z " fill="#000000" transform="translate(191,215)"/>
<path d="M0 0 C5.57894737 3.15789474 5.57894737 3.15789474 7 6 C7.28978025 9.09725123 7.27782438 12.20325265 7.3125 15.3125 C7.34150391 16.16779297 7.37050781 17.02308594 7.40039062 17.90429688 C7.44245737 22.08184846 7.36478334 24.39410187 5.16796875 28.04296875 C2.36415873 30.57397563 0.41971021 30.95248564 -3.3125 31.375 C-8.22547279 30.87537565 -9.58883085 29.49238747 -13 26 C-14.19667203 22.40998391 -14.20538881 19.4095161 -14.25 15.625 C-14.27578125 14.31789063 -14.3015625 13.01078125 -14.328125 11.6640625 C-13.98491533 7.83155454 -13.30668392 6.02579401 -11 3 C-7.33060635 0.12398876 -4.62619262 -0.66088466 0 0 Z " fill="#000000" transform="translate(204,381)"/>
<path d="M0 0 C2.38312703 1.89428046 3.6500559 3.30011179 5 6 C5.17776132 8.9520035 5.27764035 11.85872598 5.3125 14.8125 C5.34150391 15.62009766 5.37050781 16.42769531 5.40039062 17.25976562 C5.44409359 21.36448237 5.34206816 23.45621743 3.10546875 27.01171875 C-0.38924223 30.31191892 -3.0791783 30.39298166 -7.73828125 30.35546875 C-11.35701199 29.78672178 -12.88030223 27.84834388 -15 25 C-16.18813473 21.43559582 -16.24187953 18.44525218 -16.3125 14.6875 C-16.34988281 13.39199219 -16.38726562 12.09648437 -16.42578125 10.76171875 C-15.8743969 5.89031389 -14.0488958 2.68302155 -10.25 -0.4375 C-6.71038384 -1.32240404 -3.49439302 -1.01172365 0 0 Z " fill="#000000" transform="translate(206,432)"/>
</svg>
