<?xml version="1.0" encoding="UTF-8"?>
<svg version="1.1" xmlns="http://www.w3.org/2000/svg" width="512" height="512">
<path d="M0 0 C8.70791314 6.64285248 14.86379783 15.83953923 16.35546875 26.796875 C17.36686537 40.61929553 14.18385964 49.51541306 6.35546875 60.796875 C7.46921875 61.209375 8.58296875 61.621875 9.73046875 62.046875 C10.46910156 62.32917969 11.20773437 62.61148438 11.96875 62.90234375 C13.49737802 63.47526653 15.03616237 64.02218339 16.5859375 64.53515625 C28.38418072 68.70505461 38.43392783 77.09263524 48.48046875 84.359375 C49.23884033 84.9066626 49.99721191 85.4539502 50.77856445 86.01782227 C54.25784597 88.533622 57.71965858 91.0655366 61.140625 93.66015625 C62.274505 94.49771351 63.40860413 95.33497421 64.54296875 96.171875 C65.50589844 96.90148437 66.46882813 97.63109375 67.4609375 98.3828125 C73.39461468 101.28158597 79.4075114 98.23806683 85.2890625 96.22070312 C86.21847656 95.89521484 87.14789063 95.56972656 88.10546875 95.234375 C89.97383112 94.58312454 91.84356915 93.93580348 93.71484375 93.29296875 C94.53436523 93.00607178 95.35388672 92.7191748 96.19824219 92.42358398 C98.35546875 91.796875 98.35546875 91.796875 101.35546875 91.796875 C101.19046875 91.178125 101.02546875 90.559375 100.85546875 89.921875 C99.09070155 78.89208 99.09070155 78.89208 101.77734375 74.44140625 C105.76910213 69.75876661 108.857373 67.04668457 115.10546875 66.421875 C119.76741774 66.56077851 123.62282154 68.01042778 127.35546875 70.796875 C129.11545374 72.73572284 130.72628376 74.74280757 132.35546875 76.796875 C133.04060547 76.61511719 133.72574219 76.43335938 134.43164062 76.24609375 C137.57034911 75.41956012 140.7127776 74.60812783 143.85546875 73.796875 C144.933125 73.51070313 146.01078125 73.22453125 147.12109375 72.9296875 C160.61043783 69.47509938 160.61043783 69.47509938 167.54296875 71.921875 C172.03143056 74.91418287 175.28002738 78.76687517 177.35546875 83.796875 C178.15155306 88.72837071 178.48007596 93.61998258 176.140625 98.1484375 C168.7125124 107.20199591 157.37040872 111.18007721 146.79296875 115.296875 C133.57730482 120.55982144 121.32012435 126.99543167 109.05126953 134.21191406 C74.46701268 154.54527717 74.46701268 154.54527717 57.96875 151.33203125 C53.70583836 150.0747327 50.24819741 148.18027033 46.58203125 145.6796875 C45.78619629 145.13973145 44.99036133 144.59977539 44.17041016 144.04345703 C43.57147949 143.63208496 42.97254883 143.22071289 42.35546875 142.796875 C42.34960251 143.62515305 42.34373627 144.45343109 42.33769226 145.30680847 C42.27974351 153.11971309 42.20765435 160.9323325 42.11975384 168.74495983 C42.07506195 172.76134922 42.0358034 176.77763746 42.0090332 180.79418945 C41.98298814 184.67176804 41.94257774 188.54895712 41.89228249 192.42629433 C41.8756218 193.90417949 41.86410253 195.38213202 41.85785484 196.86009789 C41.8482046 198.93343124 41.82013705 201.00576996 41.7878418 203.07885742 C41.77673874 204.25800217 41.76563568 205.43714691 41.75419617 206.65202332 C41.31540885 210.11283631 40.42867959 212.01704026 38.35546875 214.796875 C35.90908203 216.02006836 34.32176786 215.92804759 31.58621216 215.93731689 C30.0762114 215.94588211 30.0762114 215.94588211 28.53570557 215.95462036 C27.42709167 215.95573822 26.31847778 215.95685608 25.17626953 215.95800781 C23.42982651 215.96545517 23.42982651 215.96545517 21.64810181 215.97305298 C17.78232236 215.98770234 13.91658394 215.99448098 10.05078125 216 C8.0491936 216.00429681 6.04760595 216.00859412 4.04601848 216.0129745 C-1.53196614 216.02479031 -7.10994079 216.03232458 -12.68793666 216.0357697 C-19.9042837 216.04025107 -27.12044138 216.05780195 -34.33673084 216.0867703 C-39.91301229 216.10837894 -45.48924044 216.11847354 -51.06556332 216.11981082 C-54.39687033 216.12085944 -57.72795862 216.12822037 -61.0592308 216.14463043 C-64.77514864 216.16162955 -68.49060235 216.15982551 -72.20654297 216.15332031 C-73.3111084 216.1625351 -74.41567383 216.17174988 -75.55371094 216.1812439 C-77.07217117 216.17289017 -77.07217117 216.17289017 -78.62130737 216.16436768 C-79.49994383 216.16583424 -80.37858028 216.1673008 -81.28384209 216.1688118 C-84.17914561 215.71264419 -85.53400661 214.80599009 -87.64453125 212.796875 C-88.76331552 209.44052218 -88.80338713 206.84399146 -88.84985352 203.3059082 C-88.85975311 202.6519809 -88.86965271 201.99805359 -88.87985229 201.3243103 C-88.91140908 199.1654623 -88.93620157 197.00659229 -88.9609375 194.84765625 C-88.98151206 193.34978162 -89.00250867 191.85191272 -89.02391052 190.35404968 C-89.07907934 186.4134893 -89.12851146 182.47287697 -89.17675781 178.53222656 C-89.22701076 174.51036969 -89.28267702 170.48858816 -89.33789062 166.46679688 C-89.44540871 158.57688664 -89.54686773 150.68691334 -89.64453125 142.796875 C-90.39798828 143.28551025 -91.15144531 143.77414551 -91.92773438 144.27758789 C-93.41176758 145.23266235 -93.41176758 145.23266235 -94.92578125 146.20703125 C-95.90611328 146.8400415 -96.88644531 147.47305176 -97.89648438 148.12524414 C-105.24295925 152.59408862 -113.21012274 152.76942625 -121.50390625 151.28515625 C-137.49222061 147.03955464 -152.04880118 137.18540181 -166.25756836 129.00683594 C-176.53920828 123.10511085 -186.85193399 118.04694049 -197.89453125 113.734375 C-219.75459532 105.15493129 -219.75459532 105.15493129 -224.64453125 95.796875 C-225.70334487 90.31295069 -225.60637717 84.90097259 -223.01953125 79.859375 C-220.06076898 76.04412891 -217.02199871 72.98560873 -212.64453125 70.796875 C-205.01042897 70.29984291 -198.43112256 71.83002958 -191.08203125 73.796875 C-189.97794922 74.08304687 -188.87386719 74.36921875 -187.73632812 74.6640625 C-185.03637465 75.36534912 -182.33942821 76.07644752 -179.64453125 76.796875 C-178.89816406 75.85585938 -178.15179688 74.91484375 -177.3828125 73.9453125 C-173.86708588 69.73831217 -170.000259 67.4138756 -164.5625 66.4140625 C-159.42032244 66.11910012 -156.50002457 67.54112508 -152.64453125 70.796875 C-149.76535765 73.42568567 -147.85797904 75.28576169 -147.30078125 79.23046875 C-147.24999635 83.50274835 -147.53945628 87.65284388 -148.64453125 91.796875 C-147.83097168 91.95796753 -147.83097168 91.95796753 -147.00097656 92.12231445 C-140.45643765 93.48774708 -134.3087963 95.54415954 -128.04296875 97.84960938 C-122.41025705 99.86835765 -122.41025705 99.86835765 -116.64453125 98.796875 C-114.07729319 97.406922 -114.07729319 97.406922 -111.45703125 95.546875 C-110.40773438 94.82757813 -109.3584375 94.10828125 -108.27734375 93.3671875 C-104.09753806 90.42895447 -99.96689229 87.42282823 -95.83203125 84.421875 C-92.77366783 82.20775065 -89.71157581 79.99895919 -86.64453125 77.796875 C-85.96390625 77.30799805 -85.28328125 76.81912109 -84.58203125 76.31542969 C-76.21811881 70.36195035 -68.43336444 66.06890838 -58.64453125 62.796875 C-56.97350462 62.14121333 -55.30525974 61.47819951 -53.64453125 60.796875 C-54.11503906 60.11882812 -54.58554688 59.44078125 -55.0703125 58.7421875 C-62.28835369 47.95248618 -64.91799428 38.86434224 -63.64453125 25.796875 C-61.34643906 14.42952614 -55.08953384 5.46753558 -45.64453125 -1.203125 C-31.2859755 -10.13668228 -14.0419437 -9.01899087 0 0 Z M-43.64453125 16.796875 C-48.50981597 23.78589511 -49.82729021 30.39246275 -48.64453125 38.796875 C-46.81881255 46.42405508 -42.06846746 51.49746941 -35.64453125 55.796875 C-28.56803803 59.20202142 -22.01243143 59.4978984 -14.5859375 57.14453125 C-7.69357913 54.22905022 -2.62445119 48.50922489 0.85546875 41.984375 C2.3437411 32.49663877 2.02486684 24.82852229 -3.64453125 16.796875 C-8.35400848 11.3901208 -13.96889358 8.4097013 -21.05859375 7.48046875 C-29.95020311 7.05378161 -37.48892667 10.36147021 -43.64453125 16.796875 Z M-86.28515625 96.07128906 C-90.0863057 98.8513516 -93.92446133 101.57802632 -97.76953125 104.296875 C-98.44322754 104.77656738 -99.11692383 105.25625977 -99.81103516 105.75048828 C-101.10775824 106.66724284 -102.41188371 107.57362768 -103.72363281 108.46875 C-105.01536832 109.36186657 -106.28338645 110.29018924 -107.52636719 111.25 C-112.06246961 114.5305535 -115.75094205 115.60467072 -121.35205078 115.33007812 C-127.85928802 114.2762589 -134.01291362 112.09523778 -140.20825195 109.88964844 C-142.59466426 109.04238984 -144.99026104 108.22665221 -147.38867188 107.4140625 C-148.92120596 106.88202833 -150.45313111 106.34823616 -151.984375 105.8125 C-152.69480453 105.57065979 -153.40523407 105.32881958 -154.13719177 105.07965088 C-158.16661355 103.62556939 -160.96447262 102.17653065 -163.64453125 98.796875 C-165.17358118 93.88207164 -164.07454288 90.62316424 -162.64453125 85.796875 C-162.90952729 83.46379052 -162.90952729 83.46379052 -163.64453125 81.796875 C-164.32515625 82.704375 -165.00578125 83.611875 -165.70703125 84.546875 C-169.01975533 88.44256449 -172.37872639 91.47857043 -177.6484375 91.9921875 C-184.56694636 91.58309306 -191.33631447 89.382406 -197.95605469 87.43774414 C-203.75312808 85.78955143 -203.75312808 85.78955143 -209.64453125 86.796875 C-209.97453125 87.786875 -210.30453125 88.776875 -210.64453125 89.796875 C-204.61155825 95.10275844 -198.05773499 97.96738069 -190.61987305 100.86230469 C-187.35568137 102.13715172 -184.11084666 103.45908598 -180.8671875 104.78515625 C-180.23156891 105.0449527 -179.59595032 105.30474915 -178.94107056 105.57241821 C-171.18967754 108.76983456 -163.90379047 112.62167992 -156.64453125 116.796875 C-155.81518066 117.27157227 -154.98583008 117.74626953 -154.13134766 118.23535156 C-150.50793777 120.31019998 -146.88549594 122.38666324 -143.26806641 124.47192383 C-127.4748796 134.38559875 -127.4748796 134.38559875 -109.64453125 136.796875 C-102.03302087 134.17000694 -95.23994265 129.08967232 -88.55078125 124.6875 C-84.52901118 122.07118721 -82.47908272 121.40221774 -77.64453125 121.796875 C-75.98014832 122.85517883 -75.98014832 122.85517883 -74.64453125 124.796875 C-74.33510073 127.31593147 -74.20703097 129.59275306 -74.2121582 132.11401367 C-74.19674752 133.24454525 -74.19674752 133.24454525 -74.18102551 134.39791584 C-74.1511419 136.83697342 -74.14159664 139.2756284 -74.1328125 141.71484375 C-74.11734865 143.22092094 -74.1005522 144.72698507 -74.08239746 146.23303223 C-74.02444858 151.81666882 -73.99230906 157.40054914 -73.95703125 162.984375 C-73.85390625 175.4625 -73.75078125 187.940625 -73.64453125 200.796875 C-40.64453125 200.796875 -7.64453125 200.796875 26.35546875 200.796875 C26.56557932 175.92040577 26.56557932 175.92040577 26.7434082 151.04370117 C26.79333496 146.23303223 26.79333496 146.23303223 26.82048035 143.9811554 C26.83663292 142.40800042 26.84691931 140.8347786 26.85258484 139.2615509 C26.8623039 136.87867474 26.8906168 134.49667369 26.9230957 132.11401367 C26.92166974 131.41281245 26.92024378 130.71161123 26.9187746 129.98916149 C26.97433458 127.14101901 27.04778977 125.2344265 28.71208191 122.86763 C31.40319566 121.11422451 33.20331583 121.36430032 36.35546875 121.796875 C38.97615496 122.95023857 41.32914691 124.43237564 43.73046875 125.984375 C44.38950195 126.39494141 45.04853516 126.80550781 45.72753906 127.22851562 C47.61184592 128.40539401 49.48492528 129.59827942 51.35546875 130.796875 C58.11300124 135.07265884 63.10753749 137.86946563 71.35546875 136.796875 C79.93618427 133.94676537 87.79291512 129.5283954 95.60546875 125.046875 C96.69956055 124.42852783 97.79365234 123.81018066 98.92089844 123.1730957 C103.5636022 120.54659119 108.19345746 117.90067371 112.79296875 115.19921875 C122.50930963 109.52942804 132.57940612 105.11884972 142.95849609 100.79736328 C146.27355317 99.41366967 149.57069302 98.00140196 152.85546875 96.546875 C153.81453125 96.12921875 154.77359375 95.7115625 155.76171875 95.28125 C158.8244346 93.52849093 160.96687018 91.37586911 163.35546875 88.796875 C162.69546875 87.806875 162.03546875 86.816875 161.35546875 85.796875 C154.39283391 86.49313848 147.96105121 88.15206255 141.24609375 90.06835938 C130.96113294 92.90416449 130.96113294 92.90416449 126.1953125 90.87890625 C122.12592264 88.16319433 118.66101155 85.41231244 115.35546875 81.796875 C115.49984375 82.993125 115.64421875 84.189375 115.79296875 85.421875 C115.87933594 86.15277344 115.96570313 86.88367188 116.0546875 87.63671875 C116.34747857 89.98358142 116.34747857 89.98358142 117.10546875 92.984375 C117.42821803 96.61530443 116.57959634 97.95919497 114.35546875 100.796875 C111.02298783 103.75630605 107.29204389 105.09158861 103.1328125 106.49609375 C102.43209122 106.7360054 101.73136993 106.97591705 101.00941467 107.22309875 C99.52724222 107.72703019 98.04367682 108.2268808 96.55883789 108.72290039 C94.31869965 109.4757278 92.08838857 110.25368495 89.85742188 111.03320312 C71.97115384 117.14516333 71.97115384 117.14516333 64.11645508 113.8605957 C61.88101459 112.57391033 59.8567214 111.15575699 57.79296875 109.609375 C56.65359863 108.80439575 56.65359863 108.80439575 55.49121094 107.9831543 C53.09312416 106.27978271 50.72351595 104.54170075 48.35546875 102.796875 C46.80061289 101.67030861 45.24463434 100.54528998 43.6875 99.421875 C41.40413932 97.77212209 39.1217277 96.12119937 36.84350586 94.46435547 C22.27227489 83.89008855 8.08671145 74.1157389 -10.64453125 74.796875 C-10.1313752 84.28769647 -8.84342814 93.52289034 -7.2553196 102.87766838 C-6.84171546 105.3198622 -6.43685321 107.76336649 -6.03434753 110.20741272 C-4.89086282 117.14538864 -3.73720305 124.08159444 -2.56567383 131.01489258 C-1.84539428 135.28132724 -1.13926268 139.54990441 -0.44202232 143.82016182 C-0.17505566 145.43772833 0.09726759 147.05442058 0.37514305 148.67014885 C0.76236053 150.92387346 1.13151544 153.17989209 1.49682617 155.43725586 C1.7114299 156.71708847 1.92603363 157.99692108 2.1471405 159.3155365 C2.44120736 164.22963855 1.40531108 167.43194758 -1.58056641 171.31396484 C-4.12316617 173.95470189 -6.68106724 176.5760048 -9.26953125 179.171875 C-10.14738281 180.09871094 -11.02523437 181.02554688 -11.9296875 181.98046875 C-19.28351663 189.39985951 -19.28351663 189.39985951 -23.609375 190.03515625 C-29.33915555 189.24723901 -33.38582957 184.08158349 -37.1652832 180.09936523 C-38.5819312 178.60948022 -40.02825005 177.15436165 -41.48242188 175.70117188 C-49.08237039 167.9070444 -49.08237039 167.9070444 -49.64453125 162.796875 C-49.36926714 160.0876114 -49.01813172 157.475803 -48.56469727 154.79711914 C-48.37472168 153.6107914 -48.37472168 153.6107914 -48.1809082 152.40049744 C-47.76143516 149.79297427 -47.3298106 147.18760968 -46.8984375 144.58203125 C-46.60464618 142.76523607 -46.31176698 140.94829317 -46.01976013 139.13121033 C-45.24953369 134.34998335 -44.46963747 129.57038997 -43.68688965 124.79119873 C-42.43555212 117.14581613 -41.19534976 109.49864713 -39.96183586 101.85037041 C-39.5296776 99.18304577 -39.09125679 96.51680387 -38.65223694 93.8506012 C-38.38585392 92.20911226 -38.11968359 90.56758878 -37.85375977 88.92602539 C-37.6690638 87.82002487 -37.6690638 87.82002487 -37.4806366 86.69168091 C-36.83792663 82.68459888 -36.52147836 78.85419204 -36.64453125 74.796875 C-56.15335543 73.20431792 -71.4807089 85.18242195 -86.28515625 96.07128906 Z M-24.64453125 93.796875 C-25.95397068 101.77613997 -27.2582575 109.75622306 -28.55604553 117.73739052 C-29.15887444 121.4436702 -29.76344807 125.14964735 -30.37207031 128.85498047 C-30.95978365 132.43342612 -31.54283368 136.01260364 -32.12271118 139.59232712 C-32.34432401 140.95527382 -32.56759205 142.3179525 -32.79257202 143.68034744 C-33.1083347 145.59427775 -33.417573 147.50928095 -33.7265625 149.42431641 C-33.90421143 150.51241608 -34.08186035 151.60051575 -34.26489258 152.72158813 C-34.64707621 155.81749063 -34.86230891 158.68316804 -34.64453125 161.796875 C-32.49377018 164.67190743 -32.49377018 164.67190743 -29.64453125 167.171875 C-28.71640625 168.04585938 -27.78828125 168.91984375 -26.83203125 169.8203125 C-26.11015625 170.47257812 -25.38828125 171.12484375 -24.64453125 171.796875 C-19.57456335 169.48506119 -15.76000812 166.443114 -12.64453125 161.796875 C-12.33755948 159.14804138 -12.33755948 159.14804138 -12.78491211 156.34667969 C-12.91026337 155.28767456 -13.03561462 154.22866943 -13.1647644 153.13757324 C-13.32308746 152.03514282 -13.48141052 150.9327124 -13.64453125 149.796875 C-13.79407257 148.73150513 -13.94361389 147.66613525 -14.09768677 146.56848145 C-14.60341733 143.16480022 -15.15128619 139.77021696 -15.7109375 136.375 C-15.90928696 135.14900085 -16.10763641 133.92300171 -16.31199646 132.65985107 C-16.9393847 128.7881477 -17.57309758 124.91751146 -18.20703125 121.046875 C-18.63700562 118.40379728 -19.06552844 115.76048675 -19.49414062 113.1171875 C-20.53945943 106.67629312 -21.5899568 100.23626006 -22.64453125 93.796875 C-23.30453125 93.796875 -23.96453125 93.796875 -24.64453125 93.796875 Z " fill="#000000" transform="translate(268.64453125,252.203125)"/>
<path d="M0 0 C1.93291139 1.59448352 3.8079704 3.26053556 5.63452148 4.97583008 C6.15331344 5.46097234 6.67210539 5.9461146 7.20661831 6.44595814 C12.66577436 11.5736996 18.02485803 16.8054373 23.34765625 22.07421875 C23.85143736 22.57267618 24.35521847 23.07113361 24.87426567 23.58469582 C27.52627364 26.21035684 30.17485508 28.83942358 32.82104492 31.47094727 C34.99128484 33.62774003 37.16862331 35.77697474 39.35229492 37.92016602 C42.0227743 40.54120925 44.68065464 43.1744295 47.33007622 45.81675148 C48.33088887 46.81089498 49.33591663 47.80081547 50.3453846 48.78616905 C56.55728031 54.85768818 61.51283503 59.7465733 62.21484375 68.7578125 C61.41918412 75.54893552 59.62935237 79.62716981 54.4375 84.3125 C50.64781888 86.93612539 47.80771645 87.1153849 43.3125 87.0625 C42.31863281 87.05347656 41.32476562 87.04445313 40.30078125 87.03515625 C39.54152344 87.02355469 38.78226563 87.01195312 38 87 C38.02094727 88.26070313 38.04189453 89.52140625 38.06347656 90.8203125 C38.13620087 95.52413451 38.18191736 100.2279074 38.21972656 104.93212891 C38.23976836 106.96313857 38.26700947 108.99409106 38.30175781 111.02490234 C38.35060414 113.95424556 38.37304343 116.882822 38.390625 119.8125 C38.42159271 121.16142334 38.42159271 121.16142334 38.45318604 122.53759766 C38.45528639 128.51828109 37.40138839 133.01231807 34 138 C28.90010697 142.85111776 24.65038366 143.15371951 17.87597656 143.17700195 C17.04797546 143.18357315 16.21997437 143.19014435 15.36688232 143.19691467 C12.62479562 143.21663598 9.88276367 143.22830808 7.140625 143.23828125 C6.20331291 143.24235678 5.26600082 143.2464323 4.30028534 143.25063133 C-0.66146118 143.27148776 -5.62318007 143.28579096 -10.58496094 143.29516602 C-15.70400163 143.30622555 -20.82260706 143.34062145 -25.94149399 143.38033772 C-29.88267818 143.40651214 -33.82375882 143.41485862 -37.76502228 143.41844749 C-39.65162341 143.42331182 -41.53821996 143.43492144 -43.42473602 143.45348549 C-46.06963862 143.47789317 -48.71341715 143.47690902 -51.35839844 143.4699707 C-52.51982361 143.48918579 -52.51982361 143.48918579 -53.70471191 143.50878906 C-59.23298229 143.45612468 -62.44594706 142.16761401 -67 139 C-70.37633966 134.64629886 -72.12965703 131.21304789 -72.11352539 125.7121582 C-72.11344986 124.85149246 -72.11337433 123.99082672 -72.11329651 123.1040802 C-72.10813522 122.17899155 -72.10297394 121.25390289 -72.09765625 120.30078125 C-72.0962413 119.35059616 -72.09482635 118.40041107 -72.09336853 117.4214325 C-72.08776875 114.38508971 -72.07521632 111.34882052 -72.0625 108.3125 C-72.05748497 106.25455836 -72.05292207 104.19661556 -72.04882812 102.13867188 C-72.0377994 97.09241954 -72.02053493 92.04622225 -72 87 C-72.75490723 87.01305176 -73.50981445 87.02610352 -74.28759766 87.03955078 C-75.77332275 87.05477783 -75.77332275 87.05477783 -77.2890625 87.0703125 C-78.76173584 87.08989014 -78.76173584 87.08989014 -80.26416016 87.10986328 C-85.52548904 86.89858379 -88.159692 84.85940591 -91.75 81.1875 C-95.76425902 75.50063306 -96.22126531 71.32139113 -95.6796875 64.5625 C-94.14826934 58.78887752 -89.84822162 54.58923592 -85.74755859 50.44116211 C-85.2363446 49.9216246 -84.72513062 49.4020871 -84.19842529 48.86680603 C-82.52046361 47.16491165 -80.83509202 45.47062082 -79.1484375 43.77734375 C-77.96734705 42.58727379 -76.78632815 41.39713283 -75.6053772 40.20692444 C-73.1327107 37.71781043 -70.65572141 35.23308635 -68.17626953 32.75073242 C-65.01735477 29.58644052 -61.8749078 26.4063216 -58.73624229 23.22196102 C-56.30305491 20.75886788 -53.85852882 18.30726521 -51.41084671 15.85858345 C-50.24825774 14.69181851 -49.08974362 13.52097715 -47.93561935 12.34583855 C-34.5924601 -1.22077162 -18.64064319 -10.19375486 0 0 Z M-41.68359375 27.25 C-42.79041415 28.35225206 -43.89760343 29.45413383 -45.00514221 30.55566406 C-47.31210379 32.85373706 -49.61336626 35.15733529 -51.91088867 37.46484375 C-54.85354495 40.41904306 -57.81185975 43.35698974 -60.77479458 46.29083252 C-63.05950273 48.55719946 -65.33483531 50.83279858 -67.60753059 53.11120605 C-68.69489814 54.19872676 -69.78536685 55.28315605 -70.8789959 56.36437988 C-72.40364378 57.87414199 -73.9149768 59.39610692 -75.42358398 60.921875 C-76.28547836 61.78393555 -77.14737274 62.64599609 -78.03538513 63.53417969 C-80.10437225 66.13099932 -80.67983007 67.73414341 -81 71 C-79.68 71.66 -78.36 72.32 -77 73 C-70.49995327 67.54425614 -64.5753873 61.6167603 -58.65625 55.54296875 C-56.67010701 53.52198138 -54.68044428 51.50446582 -52.69140625 49.48632812 C-49.58268592 46.32970801 -46.47884182 43.16865025 -43.39013672 39.99243164 C-40.87179158 37.40358988 -38.3388287 34.82986572 -35.79570007 32.26537514 C-34.83663204 31.29279493 -33.8829749 30.31484564 -32.93513489 29.33131981 C-23.34357119 19.38827099 -23.34357119 19.38827099 -16 19 C-10.76408085 20.81584824 -7.59562035 22.91410336 -3.66308594 26.91455078 C-3.1792041 27.4010611 -2.69532227 27.88757141 -2.19677734 28.38882446 C-0.61652443 29.98194844 0.94926669 31.58853639 2.515625 33.1953125 C3.61841693 34.31065975 4.72225517 35.42497335 5.8270874 36.53829956 C8.72132864 39.45903948 11.60419106 42.39073124 14.48388672 45.32580566 C19.10421272 50.03267496 23.73831121 54.72589208 28.37883759 59.41283798 C29.99620562 61.05064768 31.60657916 62.69510871 33.21636963 64.34036255 C34.20423682 65.34188232 35.19232305 66.34318609 36.18066406 67.34423828 C37.04113342 68.22121368 37.90160278 69.09818909 38.78814697 70.0017395 C40.9197718 72.19621299 40.9197718 72.19621299 44 73 C44.99 72.34 45.98 71.68 47 71 C46.54433032 66.21587093 44.66255104 64.16147207 41.31591797 60.81420898 C40.82958389 60.32247192 40.34324982 59.83073486 39.84217834 59.32409668 C38.23526611 57.70470094 36.61431311 56.10023936 34.9921875 54.49609375 C33.86629586 53.37004705 32.74107161 52.24333269 31.6164856 51.11598206 C29.25712463 48.75523704 26.89094626 46.40161323 24.51953125 44.05297852 C21.49155282 41.05330274 18.47929627 38.0384129 15.47183037 35.01818752 C13.14906151 32.6884347 10.81893427 30.36615588 8.48648453 28.04609871 C7.37374651 26.93785457 6.26306137 25.82754503 5.1545372 24.71508598 C3.59708198 23.15469399 2.03017154 21.60443531 0.46044922 20.05639648 C-0.42699982 19.17435043 -1.31444885 18.29230438 -2.22879028 17.38352966 C-6.53178925 13.68250133 -11.0598457 10.42772021 -16.9375 10.4375 C-17.70964844 10.41558594 -18.48179687 10.39367188 -19.27734375 10.37109375 C-28.55593477 12.51435509 -35.21454112 20.75739018 -41.68359375 27.25 Z M-43.14428711 56.32885742 C-55.08452661 68.40999319 -59.71529835 78.56579754 -59.83544922 95.60083008 C-60.55662849 113.38840085 -60.55662849 113.38840085 -55 129 C-52.57169939 129.19815184 -50.25745981 129.27283267 -47.828125 129.25878906 C-47.08977417 129.2622937 -46.35142334 129.26579834 -45.59069824 129.26940918 C-43.14370392 129.27823049 -40.6969974 129.27237604 -38.25 129.265625 C-36.55371037 129.26697154 -34.85742112 129.26891197 -33.16113281 129.27142334 C-29.6034783 129.27437514 -26.04592412 129.27007519 -22.48828125 129.26074219 C-17.92148859 129.24934759 -13.354931 129.25590677 -8.78814697 129.26788712 C-5.28464986 129.27510422 -1.78120874 129.27281848 1.72229004 129.26763153 C3.40645373 129.26629462 5.09062246 129.2679442 6.77478027 129.27259064 C9.12603274 129.27765347 11.47690123 129.26994933 13.828125 129.25878906 C14.52844849 129.26283752 15.22877197 129.26688599 15.95031738 129.27105713 C19.91901624 129.33760936 19.91901624 129.33760936 23 127 C27.08825235 110.82274537 29.26926659 85.81064164 21.28204346 70.7635498 C12.00934835 57.01768336 -2.10465817 44.0742148 -16 35 C-24.54420817 35 -37.28319944 50.76379946 -43.14428711 56.32885742 Z " fill="#000000" transform="translate(262,48)"/>
<path d="M0 0 C11.62474166 9.69126306 17.82161006 24.51320138 19.22265625 39.359375 C19.67533444 51.40455125 16.11966807 61.76528963 10.23046875 72.0390625 C8.69120005 74.81343585 8.69120005 74.81343585 9.68286133 76.94848633 C11.17598389 79.27410429 12.80459558 80.91982591 14.84375 82.78515625 C15.97103516 83.82833008 15.97103516 83.82833008 17.12109375 84.89257812 C17.90613281 85.60865234 18.69117188 86.32472656 19.5 87.0625 C21.05457897 88.48816889 22.6067701 89.91644711 24.15625 91.34765625 C24.84525391 91.97679932 25.53425781 92.60594238 26.24414062 93.25415039 C28.94758574 95.94218377 29.95204825 97.62323626 30.4375 101.4375 C30 105 30 105 27.9375 107.5 C24.07158348 109.47408503 22.18093824 109.0100953 18 108 C15.43286133 106.03466797 15.43286133 106.03466797 13.08203125 103.4921875 C12.22029297 102.58855469 11.35855469 101.68492187 10.47070312 100.75390625 C9.59349609 99.80386719 8.71628906 98.85382813 7.8125 97.875 C6.05991857 95.98643147 4.29611182 94.10819775 2.51953125 92.2421875 C1.74714111 91.4054248 0.97475098 90.56866211 0.17895508 89.70654297 C-1.81767007 87.74951868 -1.81767007 87.74951868 -4.11157227 88.15112305 C-7.73948656 89.78192563 -11.22530867 91.65798512 -14.734375 93.52734375 C-27.26642338 99.17875791 -43.47781609 98.87932266 -56.25 94.1875 C-70.99633536 87.81976428 -81.32892718 77.49864117 -87.921875 62.90625 C-93.01385289 49.18004874 -92.77848644 33.91394184 -87.5625 20.28125 C-85.23832678 15.40048624 -82.40151514 11.18530946 -79 7 C-78.37222656 6.16726562 -77.74445313 5.33453125 -77.09765625 4.4765625 C-57.40380921 -18.77464611 -22.56837429 -17.3866413 0 0 Z M-64 13 C-64.63679688 13.59683594 -65.27359375 14.19367188 -65.9296875 14.80859375 C-73.09947408 22.20916745 -76.69727328 31.69097918 -77.125 41.9296875 C-76.6265974 54.17170148 -72.14948172 64.45726818 -63.1875 72.875 C-53.33065058 80.80995407 -42.84312748 83.88720961 -30.3359375 82.58984375 C-19.75681447 80.71929624 -12.29937046 75.71609327 -5 68 C-4.47535156 67.44570313 -3.95070313 66.89140625 -3.41015625 66.3203125 C2.39871729 59.22253997 4.79432133 48.82790854 4.375 39.8125 C2.84011687 28.3008765 -1.65057019 18.74014109 -10.3203125 10.90234375 C-26.84215227 -1.60856707 -48.77902062 -1.53454305 -64 13 Z " fill="#000000" transform="translate(453,211)"/>
<path d="M0 0 C11.31201243 9.58538704 18.86286043 21.70769178 20.83203125 36.55078125 C21.83337179 53.53505736 18.42093068 68.26117906 7.14453125 81.36328125 C-3.00734475 91.91029015 -16.26191036 98.52368251 -30.97119141 98.84326172 C-48.48805182 98.97638336 -61.87267148 94.28598215 -74.77734375 82.15234375 C-85.8413808 70.11206814 -90.13175423 55.65046664 -89.484375 39.59765625 C-88.42524395 23.39560854 -80.69070168 11.40071239 -69.01171875 0.546875 C-49.74004298 -15.61759217 -19.58344358 -15.65357543 0 0 Z M-64.48046875 16.80078125 C-73.10108948 27.11411496 -75.06595877 37.33241027 -74.38574219 50.42236328 C-73.34291351 60.61449382 -66.63970869 69.95374219 -58.96875 76.3984375 C-54.03777957 79.90088945 -48.99683905 82.0162653 -43.16796875 83.55078125 C-42.32234375 83.77765625 -41.47671875 84.00453125 -40.60546875 84.23828125 C-27.98682072 85.85605664 -17.97465225 81.5693635 -7.54296875 74.86328125 C1.21694936 66.33388731 5.9490664 56.24388786 6.33203125 44.05078125 C5.95736451 31.73673441 1.0840841 21.28330174 -7.85546875 12.80078125 C-24.99446807 -1.3718528 -49.41036436 0.797631 -64.48046875 16.80078125 Z " fill="#000000" transform="translate(118.16796875,209.44921875)"/>
<path d="M0 0 C2.375 1.8125 2.375 1.8125 4 4 C4 4.99 4 5.98 4 7 C4.58007812 7.03738281 5.16015625 7.07476562 5.7578125 7.11328125 C10.78424856 7.53629815 14.64706809 8.23960415 19 11 C21.32749345 14.49124017 21.50299316 15.89222251 21 20 C19.4375 22.375 19.4375 22.375 17 24 C13.18110728 24.43232748 10.42193958 24.12982756 6.75 23 C0.96671868 21.45779165 -5.27244168 21.09081389 -11 23 C-7.20891773 24.70211857 -3.80454965 25.39180136 0.3125 25.875 C8.65960933 27.09169729 14.45083471 29.44189557 20 36 C21.676194 41.02858199 21.60642735 45.34030411 19.8125 50.25 C16.1579884 55.79477622 12.12269204 57.52541525 5.890625 59.09375 C5.26671875 59.3928125 4.6428125 59.691875 4 60 C3.33516227 61.96663215 3.33516227 61.96663215 3 64 C0.32204282 66.15724328 -1.15892809 67.04005104 -4.625 66.875 C-7.17752412 65.93459638 -8.40017261 65.18923749 -10 63 C-10 62.01 -10 61.02 -10 60 C-11.155 59.9175 -12.31 59.835 -13.5 59.75 C-18.14042459 59.17925259 -22.09921459 57.57782577 -26 55 C-27.52491998 51.95016004 -27.23562548 49.3576631 -27 46 C-25.47471489 43.59165509 -24.44337798 43.1283063 -21.71875 42.33984375 C-18.58006444 41.94750806 -16.68099655 42.46277247 -13.6875 43.4375 C-6.81941368 45.45263165 -1.71532594 45.89612854 5 43 C4.15405273 42.85751831 4.15405273 42.85751831 3.29101562 42.7121582 C0.69054838 42.26357228 -1.90436953 41.78824407 -4.5 41.3125 C-5.386875 41.16361328 -6.27375 41.01472656 -7.1875 40.86132812 C-14.6722967 39.45792874 -20.33054561 36.93639983 -25.5 31.25 C-27.46038345 27.00250253 -27.81774984 23.60087537 -27 19 C-24.303981 13.70781456 -20.72800361 10.29904934 -15.375 7.75 C-13 7 -13 7 -10 7 C-9.896875 6.21625 -9.79375 5.4325 -9.6875 4.625 C-8.35016378 -0.48119285 -4.61848486 -0.56552876 0 0 Z " fill="#000000" transform="translate(87,220)"/>
<path d="M0 0 C3.27658971 1.28819497 6.1954132 3.03051686 9.1875 4.875 C10.01902588 5.37386719 10.85055176 5.87273437 11.70727539 6.38671875 C26.75501811 15.57440438 39.83941715 27.28400591 52 40 C52.825 40.845625 53.65 41.69125 54.5 42.5625 C56.57491801 45.93424177 56.56495922 48.11590535 56 52 C54.4375 54.4375 54.4375 54.4375 52 56 C48.8203125 56.5859375 48.8203125 56.5859375 45 56 C42.08163685 53.74674678 39.81357169 50.99280134 37.4375 48.1875 C24.96498293 34.23095156 9.59284656 22.43136245 -7.265625 14.1328125 C-9.45224415 12.70461531 -10.64197802 11.22260118 -12 9 C-11.87426834 5.9195743 -11.45859649 3.80928792 -9.9375 1.125 C-6.75630731 -0.72214414 -3.5332637 -0.52476082 0 0 Z " fill="#000000" transform="translate(321,145)"/>
<path d="M0 0 C2.72842172 1.58424487 2.95540222 2.86323348 3.9375 5.875 C4.02096541 10.04827069 2.86603002 11.01550133 0 14 C-2.40484711 15.47056965 -4.74974588 16.78445821 -7.25 18.0625 C-23.63022467 26.88551458 -38.92789401 39.14220964 -50.73046875 53.57421875 C-52.68723617 55.77181908 -53.93231516 55.99264295 -56.875 56.3125 C-60 56 -60 56 -62.375 54.4375 C-64.64840752 51.02738872 -64.48094041 49.05002448 -64 45 C-62.49675763 42.51375575 -60.56872341 40.58784943 -58.5 38.5625 C-57.66698364 37.71075195 -57.66698364 37.71075195 -56.81713867 36.84179688 C-55.71249986 35.71581316 -54.60092201 34.59658768 -53.48193359 33.48486328 C-52.29814305 32.29873246 -51.15200381 31.0750653 -50.01953125 29.83984375 C-40.64496481 19.73590601 -28.70464233 11.71859056 -16.9375 4.6875 C-16.16494873 4.2133667 -15.39239746 3.7392334 -14.59643555 3.25073242 C-9.45154946 0.28336385 -5.9380901 -0.60552892 0 0 Z " fill="#000000" transform="translate(177,145)"/>
<path d="M0 0 C1.11761719 -0.02835938 2.23523438 -0.05671875 3.38671875 -0.0859375 C6.3125 0.375 6.3125 0.375 8.1796875 2.2109375 C9.73195711 5.17630772 9.79399938 7.07329 9.3125 10.375 C6.39584965 14.0534108 3.97972178 14.99660597 -0.5625 15.875 C-6.0219904 17.13028429 -10.49345888 18.22289425 -13.859375 23.05859375 C-15.9743053 26.86700085 -16.94217386 30.39634488 -17.625 34.6875 C-18.4058871 39.10120968 -18.4058871 39.10120968 -20.9375 41.5625 C-24.35684714 42.57276166 -26.2985843 42.48008121 -29.6875 41.375 C-31.88911825 39.6137054 -32.53806616 38.26237875 -33.00390625 35.49609375 C-33.49516952 26.63750766 -30.06064675 18.05672417 -24.5234375 11.2265625 C-17.54198517 4.18569356 -9.98966365 0.11602397 0 0 Z " fill="#000000" transform="translate(414.6875,218.625)"/>
</svg>
