<?xml version="1.0" encoding="UTF-8"?>
<svg version="1.1" xmlns="http://www.w3.org/2000/svg" width="512" height="512">
<path d="M0 0 C0.81136414 0.00154083 1.62272827 0.00308167 2.4586792 0.00466919 C31.91663674 0.13727155 60.35560553 6.67078887 86.125 21.375 C86.74729492 21.71998535 87.36958984 22.0649707 88.01074219 22.42041016 C128.81263168 45.12619446 157.29531986 83.35884618 170.41992188 127.87939453 C173.4280303 138.52651515 173.4280303 138.52651515 173.125 143.375 C173.846875 142.653125 174.56875 141.93125 175.3125 141.1875 C176.240625 140.259375 177.16875 139.33125 178.125 138.375 C178.929375 137.50875 179.73375 136.6425 180.5625 135.75 C185.24535821 131.40978995 189.48750198 129.73266477 195.8125 129.95703125 C200.89950997 130.87647393 204.79084536 133.56238991 207.82421875 137.68359375 C209.30966101 140.75707639 209.55808314 142.84901581 209.5625 146.25 C209.59150391 147.73113281 209.59150391 147.73113281 209.62109375 149.2421875 C208.54485202 156.03861164 203.89250586 161.15712379 199.625 166.3125 C195.26759513 171.66074465 191.04712825 177.08415134 186.9375 182.625 C171.43450727 203.44833796 171.43450727 203.44833796 165 205.25 C153.31436941 205.62695583 145.80167976 198.84949149 137.09277344 191.93408203 C134.75901111 190.08502419 132.39757109 188.27467856 130.03076172 186.46826172 C128.44761146 185.25773157 126.87220737 184.0370929 125.296875 182.81640625 C123.09519847 181.11292432 120.87473176 179.43804631 118.640625 177.77734375 C103.24201682 166.28610273 103.24201682 166.28610273 102.0625 158.375 C101.87772407 153.69164083 102.65421843 150.4398342 105.125 146.375 C109.20794198 142.19432803 112.48238951 140.2152891 118.3125 140.0625 C123.51369278 140.1301358 126.99376657 141.21045695 131.125 144.375 C131.92550781 144.97699219 132.72601563 145.57898438 133.55078125 146.19921875 C135.76559531 147.89735768 137.9534792 149.62202629 140.125 151.375 C138.24747268 134.86570803 132.04072078 119.83721331 124.125 105.375 C123.63257813 104.46363281 123.14015625 103.55226563 122.6328125 102.61328125 C114.94321549 89.12390344 104.25803099 76.06185539 92.125 66.375 C91.37766602 65.77582764 91.37766602 65.77582764 90.61523438 65.16455078 C69.44023741 48.3875335 44.07429403 37.38335493 17.125 34.375 C16.46580566 34.29668945 15.80661133 34.21837891 15.12744141 34.13769531 C-21.1223404 30.11287105 -58.59000283 41.63465915 -87.20751953 64.02734375 C-98.28739077 72.98208595 -108.57711183 83.28918394 -116.125 95.4375 C-118.73612634 99.46144541 -121.17754258 102.03796278 -125.875 103.375 C-130.75170685 103.97844862 -135.14073798 104.05362427 -139.75 102.25 C-144.55222332 98.01274413 -147.62829178 94.28615694 -148.1875 87.6875 C-147.85777685 73.68694797 -132.00149508 59.97061399 -122.875 50.375 C-122.29492188 49.74207031 -121.71484375 49.10914063 -121.1171875 48.45703125 C-111.62265708 38.41382193 -99.70698873 30.40617075 -87.875 23.375 C-87.30233398 23.0337207 -86.72966797 22.69244141 -86.13964844 22.34082031 C-59.91452557 6.97051555 -30.22165442 -0.08722482 0 0 Z " fill="#000000" transform="translate(254.875,80.625)"/>
<path d="M0 0 C6.37617607 2.85641858 11.81601003 7.78562482 17.25927734 12.10253906 C19.44196943 13.82594724 21.64542986 15.52117311 23.85253906 17.21313477 C24.92753346 18.03728629 26.00110404 18.8632983 27.07324219 19.69116211 C29.8518373 21.83646278 32.64369528 23.96033664 35.4609375 26.0546875 C50.84827675 37.54113299 50.84827675 37.54113299 52.02734375 45.44921875 C52.21211968 50.13257792 51.43562532 53.38438455 48.96484375 57.44921875 C44.88190177 61.62989072 41.60745424 63.60892965 35.77734375 63.76171875 C30.57615097 63.69408295 27.09607718 62.6137618 22.96484375 59.44921875 C22.16433594 58.84722656 21.36382812 58.24523437 20.5390625 57.625 C18.32424844 55.92686107 16.13636455 54.20219246 13.96484375 52.44921875 C15.84237107 68.95851072 22.04912297 83.98700544 29.96484375 98.44921875 C30.45726562 99.36058594 30.9496875 100.27195312 31.45703125 101.2109375 C39.14662826 114.70031531 49.83181276 127.76236336 61.96484375 137.44921875 C62.46306641 137.84866699 62.96128906 138.24811523 63.47460938 138.65966797 C84.61406926 155.4085291 110.03700789 166.51961475 136.96484375 169.44921875 C138.01019287 169.56668457 138.01019287 169.56668457 139.07666016 169.68652344 C174.37215798 173.34466736 212.24454126 163.20698357 240.02734375 140.82421875 C241.68620768 139.3807251 243.33259451 137.92274035 244.96484375 136.44921875 C245.81175781 135.72089844 246.65867187 134.99257813 247.53125 134.2421875 C255.67828436 127.13996365 262.63724841 119.58201679 268.58984375 110.57421875 C271.89233646 105.66940811 274.21732106 102.33202791 279.96484375 100.44921875 C284.85211103 99.8700917 289.22009065 99.76648927 293.83984375 101.57421875 C298.64206707 105.81147462 301.71813553 109.53806181 302.27734375 116.13671875 C301.9476206 130.13727078 286.09133883 143.85360476 276.96484375 153.44921875 C276.09472656 154.39861328 276.09472656 154.39861328 275.20703125 155.3671875 C265.71250083 165.41039682 253.79683248 173.418048 241.96484375 180.44921875 C241.39217773 180.79049805 240.81951172 181.13177734 240.22949219 181.48339844 C213.867087 196.93416312 184.14192923 203.9058642 153.77734375 203.76171875 C152.95991699 203.7595636 152.14249023 203.75740845 151.30029297 203.75518799 C139.30364458 203.70442933 127.65583458 203.38755445 115.96484375 200.44921875 C115.12115234 200.23990723 114.27746094 200.0305957 113.40820312 199.81494141 C67.32741492 188.07879257 28.07960209 161.12075687 2.96484375 120.44921875 C-6.74481702 104.07849522 -20.27024902 80.21070303 -19.03515625 60.44921875 C-21.54805101 62.89231088 -23.86936939 65.21711715 -25.91015625 68.07421875 C-29.60688861 72.2058608 -33.56430832 73.2857912 -38.97265625 73.88671875 C-44.94375824 73.62004818 -49.37011675 71.11425825 -53.53515625 66.94921875 C-55.72139827 61.84798737 -55.97200472 56.91187195 -55.03515625 51.44921875 C-52.48810745 46.24899412 -49.21358175 41.95545425 -45.53515625 37.51171875 C-41.17773499 32.16345398 -36.95771842 26.73975996 -32.84765625 21.19921875 C-29.3192582 16.46685281 -25.77352881 11.75590297 -22.09765625 7.13671875 C-21.09412109 5.87408203 -21.09412109 5.87408203 -20.0703125 4.5859375 C-14.42295744 -1.34324334 -7.75911901 -2.09987674 0 0 Z " fill="#000000" transform="translate(103.03515625,227.55078125)"/>
</svg>
