<?xml version="1.0" encoding="UTF-8"?>
<svg version="1.1" xmlns="http://www.w3.org/2000/svg" width="512" height="512">
<path d="M0 0 C2.5 1.328125 2.5 1.328125 5 3.25 C5.95261719 3.98089844 6.90523437 4.71179688 7.88671875 5.46484375 C11.87013237 8.66964059 15.73935355 12.00843115 19.59570312 15.36425781 C23.63707704 18.87248631 27.7676738 22.2254443 32 25.5 C37.39776336 29.68034737 42.59556807 34.0439196 47.75 38.51953125 C51.74367828 41.96942745 55.82817385 45.2685087 60 48.5 C65.45885043 52.73039886 70.7319214 57.13544941 75.9543457 61.65356445 C81.21948091 66.20669377 86.59353852 70.61573508 92 75 C93.83403254 76.499145 95.66735981 77.99915322 97.5 79.5 C100.1789992 81.69225146 102.85824208 83.88419468 105.5390625 86.07421875 C114.79736311 93.64029221 124.02078911 101.24866939 133.24804688 108.85253906 C143.36275966 117.18998395 143.36275966 117.18998395 153.5 125.5 C155.33345823 126.99984733 157.166775 128.4998676 159 130 C159.97501465 130.79688232 159.97501465 130.79688232 160.96972656 131.60986328 C161.68354492 132.19364746 162.39736328 132.77743164 163.1328125 133.37890625 C163.86894775 133.98009277 164.60508301 134.5812793 165.36352539 135.20068359 C166.8656141 136.43731627 168.35971636 137.68371702 169.84545898 138.93994141 C172.85635188 141.48120176 175.69300486 143.81797633 179.08984375 145.83203125 C181.95026117 147.61696787 183.22750497 149.13740562 185 152 C185.47851562 154.78173828 185.47851562 154.78173828 185.53125 157.8203125 C185.55243896 158.90779785 185.57362793 159.9952832 185.59545898 161.11572266 C185.54698955 166.09263573 185.31631228 171.0327256 185 176 C179.72 176 174.44 176 169 176 C169.020625 173.69 169.04125 171.38 169.0625 169 C168.89953536 165.14975462 168.5965719 161.90371782 166.421875 158.609375 C164.05942084 156.52691541 161.60303473 154.77349619 159 153 C157.34196801 151.73379149 155.70700351 150.44113314 154.07226562 149.14501953 C152.89044571 148.20815508 151.70415864 147.27690065 150.51367188 146.35107422 C145.5607155 142.49597903 140.7925389 138.45327757 136.046875 134.34741211 C130.78122678 129.79407919 125.40686847 125.38459496 120 121 C118.16596746 119.500855 116.33264019 118.00084678 114.5 116.5 C111.8210008 114.30774854 109.14175792 112.11580532 106.4609375 109.92578125 C97.20263689 102.35970779 87.97921089 94.75133061 78.75195312 87.14746094 C68.63724034 78.81001605 68.63724034 78.81001605 58.5 70.5 C50.22970288 63.74134329 41.99451918 56.93987962 33.75195312 50.14746094 C15.95777234 35.47316998 15.95777234 35.47316998 -2 21 C-6.06960159 22.36853859 -8.58458283 24.18107528 -11.6875 27.125 C-15.81286538 30.94523481 -20.04939237 34.50938871 -24.4609375 37.9921875 C-34.77877068 46.15121251 -44.84900519 54.63491001 -55 63 C-63.35237745 69.88291053 -71.70546251 76.76458492 -80.0859375 83.61328125 C-86.73645916 89.06029028 -93.36587529 94.53304319 -100 100 C-108.35237745 106.88291053 -116.70546251 113.76458492 -125.0859375 120.61328125 C-131.73645916 126.06029028 -138.36587529 131.53304319 -145 137 C-147.95815573 139.43771565 -150.91646721 141.87524198 -153.875 144.3125 C-154.93195068 145.18334229 -154.93195068 145.18334229 -156.01025391 146.07177734 C-161.02701125 150.20343283 -166.05526779 154.32063234 -171.09375 158.42578125 C-172.8903854 159.85872965 -172.8903854 159.85872965 -174 161 C-174.11012732 163.51635788 -174.15496069 166.00586207 -174.15821838 168.52320862 C-174.16315636 169.32035575 -174.16809434 170.11750289 -174.17318195 170.938806 C-174.18863427 173.63050712 -174.19693837 176.32218426 -174.20532227 179.01391602 C-174.21489472 180.93522353 -174.22490442 182.85652891 -174.23532104 184.77783203 C-174.26244473 190.01106339 -174.28341375 195.24430384 -174.30332303 200.47756696 C-174.32513672 205.94021606 -174.35254792 211.40283691 -174.37937927 216.86546326 C-174.4293688 227.21750177 -174.47428432 237.56955591 -174.51740164 247.92162508 C-174.56672063 259.70378857 -174.62165849 271.48592373 -174.67708123 283.26805985 C-174.79099734 307.51201368 -174.89761598 331.75599496 -175 356 C-164.44 356 -153.88 356 -143 356 C-143 317.72 -143 279.44 -143 240 C-146.63 240 -150.26 240 -154 240 C-157.1875 238.5625 -157.1875 238.5625 -159 236 C-159.68607836 232.85787643 -159.92656646 230.09582205 -159 227 C-155.28752618 223.36209972 -152.89016743 222.49916129 -147.73779297 222.49206543 C-146.47602234 222.48078613 -145.21425171 222.46950684 -143.91424561 222.45788574 C-142.52355726 222.46566227 -141.1328712 222.4738549 -139.7421875 222.48242188 C-138.27174181 222.47699936 -136.80130156 222.46987596 -135.33087158 222.46118164 C-131.34322007 222.44296048 -127.35598295 222.45001062 -123.36832428 222.46269798 C-119.19329215 222.47283199 -115.01829526 222.46343119 -110.84326172 222.45715332 C-103.83229204 222.44987807 -96.82149095 222.45946135 -89.81054688 222.47851562 C-81.70735348 222.50028422 -73.60456266 222.49323276 -65.50137901 222.47121 C-58.54156234 222.45305246 -51.58186679 222.45049939 -44.62203407 222.46096468 C-40.46635973 222.46719769 -36.31087456 222.46804062 -32.1552124 222.45481873 C-28.24804611 222.44325559 -24.34139836 222.45129388 -20.43428802 222.47439575 C-19.00121674 222.47968045 -17.56810175 222.47817308 -16.13504791 222.46934509 C-14.17745024 222.45839849 -12.2197571 222.47456638 -10.26220703 222.49206543 C-9.16715851 222.49357353 -8.07210999 222.49508163 -6.94387817 222.49663544 C-3.30006236 223.11968016 -1.61627825 224.43627569 1 227 C1.92656646 230.09582205 1.68607836 232.85787643 1 236 C-0.8125 238.5625 -0.8125 238.5625 -4 240 C-7.63 240 -11.26 240 -15 240 C-15 278.28 -15 316.56 -15 356 C40.44 356 95.88 356 153 356 C153 341.48 153 326.96 153 312 C141.18321791 312.15772382 141.18321791 312.15772382 129.3671875 312.36035156 C127.86980336 312.37204988 126.37240635 312.38223899 124.875 312.390625 C124.11703125 312.41108887 123.3590625 312.43155273 122.578125 312.45263672 C116.04711452 312.45684484 110.86674242 310.52947861 105.94140625 306.18359375 C105.48636719 305.60738281 105.03132813 305.03117187 104.5625 304.4375 C104.08941406 303.85871094 103.61632812 303.27992188 103.12890625 302.68359375 C100.35656562 298.54906499 100.83114897 294.02099718 100.80712891 289.24926758 C100.79895142 288.35459778 100.79077393 287.45992798 100.78234863 286.53814697 C100.7575119 283.57361518 100.74098167 280.60913127 100.7265625 277.64453125 C100.72123882 276.63123938 100.71591515 275.6179475 100.71043015 274.57394981 C100.68370417 269.20905692 100.66432875 263.84418724 100.64990234 258.47924805 C100.63656955 254.0434911 100.60872798 249.60819487 100.56787109 245.17260742 C100.51850728 239.81338131 100.4937764 234.45457277 100.48667526 229.09512901 C100.47996991 227.05582816 100.46476656 225.01653635 100.44078445 222.97736549 C100.40906768 220.11698813 100.40910615 217.25821305 100.41650391 214.39770508 C100.40009857 213.56156174 100.38369324 212.7254184 100.36679077 211.86393738 C100.431244 205.7492296 102.20572183 201.77888311 106 197 C112.6158038 190.5538322 119.84175331 190.70546671 128.56982422 190.7253418 C129.7282785 190.72023087 130.88673279 190.71511993 132.08029175 190.70985413 C135.90514307 190.69596801 139.72981399 190.69691426 143.5546875 190.69921875 C145.54416632 190.69631409 147.53364521 190.69340458 149.52312291 190.689812 C155.77633856 190.67873225 162.02949413 190.67827055 168.28271484 190.68432617 C174.71862806 190.69036322 181.1543225 190.67805842 187.5901984 190.6567561 C193.12926618 190.63910104 198.66826457 190.63314494 204.20735943 190.63639385 C207.509656 190.63820089 210.81176248 190.63430258 214.11404037 190.62167931 C217.79999302 190.60931892 221.48544191 190.61610497 225.17138672 190.62768555 C226.25528687 190.62004181 227.33918701 190.61239807 228.45593262 190.60452271 C235.30861898 190.65201846 241.5351077 191.11704907 247.0234375 195.68359375 C247.46945312 196.26238281 247.91546875 196.84117187 248.375 197.4375 C248.83648437 198.01371094 249.29796875 198.58992187 249.7734375 199.18359375 C250.17820312 199.78300781 250.58296875 200.38242187 251 201 C251.34963303 201.51398346 251.69926605 202.02796692 252.05949402 202.55752563 C253.48678046 206.26415869 253.28613274 209.97849041 253.2746582 213.89599609 C253.2823246 215.24303871 253.2823246 215.24303871 253.29014587 216.61729431 C253.30404628 219.5860765 253.30308462 222.55462663 253.30078125 225.5234375 C253.30466821 227.58843065 253.30900288 229.653423 253.31376648 231.71841431 C253.32122987 236.04765412 253.32093674 240.37681239 253.31567383 244.70605469 C253.3098821 250.24995887 253.32680258 255.79352865 253.3500185 261.33737755 C253.36476186 265.60279284 253.36562666 269.86812774 253.36250877 274.133564 C253.36302178 276.17726936 253.36825566 278.22097924 253.37832069 280.26465988 C253.39067792 283.12506475 253.38389733 285.98482012 253.37231445 288.84521484 C253.37995819 289.68697769 253.38760193 290.52874054 253.39547729 291.39601135 C253.34403389 297.15312976 252.33723626 301.40799391 248.3515625 305.828125 C247.78179687 306.29734375 247.21203125 306.7665625 246.625 307.25 C245.77808594 307.96929687 245.77808594 307.96929687 244.9140625 308.703125 C239.93987571 312.07339033 235.28372476 312.27292369 229.41796875 312.1953125 C228.69565063 312.19329834 227.97333252 312.19128418 227.22912598 312.18920898 C224.54851875 312.17879886 221.86800254 312.15087645 219.1875 312.125 C213.185625 312.08375 207.18375 312.0425 201 312 C201 326.52 201 341.04 201 356 C205.95 356 210.9 356 216 356 C223.39144085 358.46381362 228.55218193 363.32982079 232.1875 370.265625 C233.2391009 373.80466648 233.21586251 377.160526 233.125 380.8125 C233.11597656 381.50537109 233.10695313 382.19824219 233.09765625 382.91210938 C233.07426157 384.60822395 233.03839641 386.30415871 233 388 C233.99 387.95359375 234.98 387.9071875 236 387.859375 C250.36233644 387.3791753 250.36233644 387.3791753 256 392 C260.8900404 396.66599473 264.6150657 401.04811563 265.29052734 407.98266602 C265.33948783 411.50966333 265.37129673 415.03513761 265.375 418.5625 C265.39949219 419.79419922 265.42398438 421.02589844 265.44921875 422.29492188 C265.45308594 423.47763672 265.45695313 424.66035156 265.4609375 425.87890625 C265.46915527 426.9572876 265.47737305 428.03566895 265.48583984 429.14672852 C264.85738863 432.83753725 263.99758273 433.77058485 261 436 C258.08929519 436.39191054 255.55782986 436.53755941 252.64782715 436.50336456 C251.79346982 436.50917833 250.93911249 436.51499209 250.05886555 436.52098203 C247.17633135 436.53565972 244.29463833 436.52166066 241.41210938 436.50793457 C239.33260409 436.51254041 237.25310205 436.51889118 235.17360687 436.52684355 C229.44388556 436.54360347 223.71442937 436.53526025 217.98470688 436.52289867 C211.8114819 436.51387771 205.63830369 436.5278032 199.46508789 436.53881836 C188.06561315 436.55560886 176.66624697 436.55410901 165.26677489 436.54317249 C154.73667871 436.53311935 144.20661367 436.53047921 133.67651367 436.53526306 C132.97865035 436.5355686 132.28078703 436.53587414 131.56177634 436.53618894 C128.7290851 436.53743425 125.89639388 436.53870784 123.06370267 436.540028 C96.4784206 436.55227032 69.89319263 436.54116014 43.30791891 436.51964041 C19.67660445 436.50065727 -3.9546238 436.50235576 -27.5859375 436.52148438 C-54.12187778 436.54289226 -80.65777024 436.55140218 -107.19371796 436.53903532 C-110.02131652 436.53775241 -112.84891509 436.53650105 -115.67651367 436.53526306 C-116.37276582 436.53494675 -117.06901797 436.53463044 -117.78636867 436.53430455 C-128.31112411 436.52975025 -138.83584504 436.53508395 -149.3605957 436.54518127 C-161.3249731 436.55660237 -173.28924863 436.5534069 -185.25362206 436.5320583 C-191.36240802 436.52151871 -197.47101865 436.51747552 -203.57980347 436.53065491 C-209.16578634 436.54252444 -214.75143043 436.53610639 -220.33738232 436.5147447 C-222.36423499 436.51025548 -224.39111596 436.51259643 -226.41795063 436.52224785 C-229.16165651 436.53431639 -231.90418405 436.52203461 -234.64782715 436.50336456 C-235.84323514 436.51741156 -235.84323514 436.51741156 -237.06279278 436.53174233 C-240.60070356 436.48323661 -242.61442758 436.28745402 -245.48966217 434.14389372 C-247.49031636 431.30400594 -247.51652366 429.44190812 -247.53125 425.984375 C-247.53640625 424.81519531 -247.5415625 423.64601563 -247.546875 422.44140625 C-247.53140625 421.22324219 -247.5159375 420.00507813 -247.5 418.75 C-247.51546875 417.54730469 -247.5309375 416.34460938 -247.546875 415.10546875 C-247.51045162 406.81004293 -246.55533997 401.05718716 -241.03515625 394.7578125 C-240.05869141 393.94957031 -240.05869141 393.94957031 -239.0625 393.125 C-238.41410156 392.57070313 -237.76570312 392.01640625 -237.09765625 391.4453125 C-232.24180429 388.0995672 -227.96909239 387.73115177 -222.1875 387.875 C-221.49462891 387.88402344 -220.80175781 387.89304687 -220.08789062 387.90234375 C-218.39177605 387.92573843 -216.69584129 387.96160359 -215 388 C-215.04640625 387.01 -215.0928125 386.02 -215.140625 385 C-215.6208247 370.63766356 -215.6208247 370.63766356 -211 365 C-207.29873316 361.12101054 -203.34983608 357.23457756 -198 356 C-195.66677475 355.97754115 -193.33320468 355.97549727 -191 356 C-191.01106152 354.95877833 -191.02212303 353.91755667 -191.03351974 352.84478283 C-191.30012741 327.48851083 -191.49720806 302.13242097 -191.62174606 276.77504253 C-191.68357585 264.5122001 -191.76784229 252.25028454 -191.90527344 239.98803711 C-192.02502741 229.29791711 -192.10233284 218.60846844 -192.12906194 207.9176963 C-192.14468292 202.25861822 -192.18128577 196.60146031 -192.26876068 190.94299889 C-192.35051236 185.61131417 -192.37528223 180.28233094 -192.35729218 174.95007896 C-192.36058061 172.99851774 -192.38428288 171.04686174 -192.4304657 169.09584427 C-192.77848368 153.62866834 -192.77848368 153.62866834 -188.40171051 148.45881081 C-185.52973971 145.59797547 -182.34435301 143.28803903 -179 141 C-177.42844961 139.74037586 -175.86395195 138.47179765 -174.3125 137.1875 C-173.51328125 136.56101563 -172.7140625 135.93453125 -171.890625 135.2890625 C-168.07176056 132.26493472 -164.31855377 129.16408055 -160.5625 126.0625 C-159.07426017 124.83458521 -157.58597968 123.6067197 -156.09765625 122.37890625 C-155.03635498 121.50322998 -155.03635498 121.50322998 -153.95361328 120.60986328 C-151.47431339 118.56681111 -148.9881283 116.532288 -146.5 114.5 C-138.98156039 108.35577669 -131.49323 102.1749163 -124 96 C-115.64762255 89.11708947 -107.29453749 82.23541508 -98.9140625 75.38671875 C-92.26354084 69.93970972 -85.63412471 64.46695681 -79 59 C-70.64762255 52.11708947 -62.29453749 45.23541508 -53.9140625 38.38671875 C-50.22898274 35.36850999 -46.55179602 32.34079026 -42.875 29.3125 C-42.15489746 28.72001465 -41.43479492 28.1275293 -40.69287109 27.51708984 C-36.95928942 24.44388079 -33.23199876 21.36353412 -29.515625 18.26953125 C-25.36581469 14.81891609 -21.19695112 11.39314115 -17 8 C-16.43458496 7.54238281 -15.86916992 7.08476563 -15.28662109 6.61328125 C-13.80975354 5.43215063 -12.31187278 4.27742725 -10.8125 3.125 C-10.01457031 2.50882813 -9.21664062 1.89265625 -8.39453125 1.2578125 C-5.31366914 -0.36051963 -3.44063126 -0.45518079 0 0 Z M118 209 C116.81000691 212.56997927 116.85240318 215.81382652 116.85473633 219.52905273 C116.85137772 220.29359772 116.8480191 221.0581427 116.84455872 221.84585571 C116.83505384 224.37511822 116.83310589 226.90431449 116.83203125 229.43359375 C116.82881855 231.19092333 116.82545447 232.94825265 116.82194519 234.70558167 C116.81595523 238.39007182 116.81410518 242.07453852 116.81469727 245.7590332 C116.81479893 250.48140013 116.80114204 255.20361683 116.78392506 259.92594814 C116.77280996 263.55561515 116.7707779 267.18524577 116.77130699 270.81492805 C116.77012632 272.55605653 116.76569964 274.29718592 116.75797462 276.03829765 C116.74818382 278.4728233 116.75104902 280.90702189 116.75708008 283.34155273 C116.75146057 284.06116684 116.74584106 284.78078094 116.74005127 285.52220154 C116.76509623 289.49812712 117.16081797 291.32163595 119 295 C157.28 295 195.56 295 235 295 C237.10995062 290.78009876 237.27849764 287.89750882 237.24291992 283.34155273 C237.24576744 282.19210678 237.24576744 282.19210678 237.24867249 281.0194397 C237.25237215 278.49071975 237.24168813 275.9622881 237.23046875 273.43359375 C237.22927643 271.6752984 237.2288239 269.9170024 237.2290802 268.15870667 C237.22751676 264.47596238 237.21923725 260.79331549 237.20581055 257.1105957 C237.18880847 252.38707328 237.18499667 247.66365774 237.18575573 242.9401083 C237.18548399 239.31048052 237.18000241 235.68087617 237.17275429 232.05125618 C237.16956971 230.30930827 237.1676007 228.5673577 237.16686058 226.82540703 C237.1646955 224.39324279 237.15594795 221.96119253 237.14526367 219.52905273 C237.14594345 218.44659523 237.14594345 218.44659523 237.14663696 217.3422699 C237.12696672 214.28420949 236.97521162 211.92563487 236 209 C233.60202077 207.80101038 232.12263602 207.87422357 229.44506836 207.87301636 C228.48599579 207.87019653 227.52692322 207.86737671 226.53878784 207.86447144 C225.48313629 207.86649567 224.42748474 207.8685199 223.33984375 207.87060547 C221.67636398 207.86797699 221.67636398 207.86797699 219.97927856 207.86529541 C216.29866998 207.86087958 212.61810911 207.86381396 208.9375 207.8671875 C206.38924144 207.86651438 203.84098295 207.86554429 201.29272461 207.86428833 C195.9461195 207.86281172 190.59953162 207.86486992 185.25292969 207.86962891 C179.06699104 207.87507131 172.88108536 207.87330857 166.69514751 207.8678025 C160.75030428 207.86272233 154.80547132 207.86325419 148.86062622 207.86618423 C146.32797237 207.86685323 143.79531767 207.86602604 141.26266479 207.86370468 C137.72847233 207.86117656 134.19434392 207.86502107 130.66015625 207.87060547 C129.6045047 207.86858124 128.54885315 207.86655701 127.46121216 207.86447144 C126.0226033 207.86870117 126.0226033 207.86870117 124.55493164 207.87301636 C123.71869766 207.87339338 122.88246368 207.87377041 122.02088928 207.87415886 C119.92988235 207.87224192 119.92988235 207.87224192 118 209 Z M-127 240 C-127 278.28 -127 316.56 -127 356 C-95.32 356 -63.64 356 -31 356 C-31 317.72 -31 279.44 -31 240 C-62.68 240 -94.36 240 -127 240 Z M169 312 C169 326.52 169 341.04 169 356 C174.28 356 179.56 356 185 356 C185 341.48 185 326.96 185 312 C179.72 312 174.44 312 169 312 Z M-197 375 C-199.78060181 379.4236847 -199 382.36124631 -199 388 C-61.72 388 75.56 388 217 388 C217.25313245 380.19282089 217.25313245 380.19282089 214 374 C210.02255582 371.91038453 206.60305787 371.74871118 202.15457249 371.74552441 C201.47525137 371.74231793 200.79593025 371.73911145 200.09602365 371.73580781 C197.81511514 371.7274931 195.5344682 371.73343715 193.2535553 371.73930359 C191.60359427 371.73628358 189.95363464 371.73239485 188.3036775 371.72771102 C183.76590436 371.71740296 179.22820997 371.71961997 174.69043028 371.72389162 C169.79805176 371.72635374 164.90569246 371.7173511 160.01332092 371.70985413 C150.42737289 371.69709097 140.84145286 371.69531543 131.25549776 371.69765439 C123.46580939 371.69943583 115.67612953 371.69769164 107.88644218 371.69342995 C106.77870748 371.69283476 105.67097277 371.69223957 104.52967034 371.69162634 C102.27947239 371.69041462 100.02927445 371.68920049 97.77907651 371.68798397 C76.66681431 371.67710229 55.55456807 371.67927395 34.44230496 371.68536881 C15.11820853 371.69053905 -4.20583751 371.67928082 -23.52992397 371.66027059 C-43.36183364 371.64091002 -63.19371945 371.63263303 -83.02563864 371.63639385 C-94.16380157 371.63830853 -105.30192159 371.6357923 -116.44007683 371.62167931 C-125.92156542 371.60978725 -135.4029847 371.60833616 -144.88447421 371.62046947 C-149.72365909 371.62637335 -154.56271706 371.62741603 -159.40189362 371.61546707 C-163.83015169 371.60465964 -168.2581761 371.60765003 -172.68642301 371.62172876 C-174.29000349 371.62438991 -175.89360197 371.62196494 -177.49716484 371.61399289 C-179.67463704 371.60391745 -181.85129216 371.61228177 -184.02873135 371.62526989 C-185.23884772 371.62521487 -186.44896409 371.62515986 -187.69575065 371.62510318 C-191.40755596 372.04624089 -193.82149161 373.06512061 -197 375 Z M-229 407 C-231.78060181 411.4236847 -231 414.36124631 -231 420 C-72.6 420 85.8 420 249 420 C249.25313245 412.19282089 249.25313245 412.19282089 246 406 C241.82718805 403.74323672 237.78702884 403.71761141 233.15506077 403.74552441 C232.36768374 403.74231793 231.5803067 403.73911145 230.76906976 403.73580781 C228.12059554 403.72748123 225.47234588 403.73344137 222.8238678 403.73930359 C220.90991979 403.73628412 218.99597299 403.73239567 217.08202833 403.72771102 C211.81455782 403.71739595 206.5471551 403.71962175 201.27967894 403.72389162 C195.60201821 403.72635247 189.92437407 403.71735268 184.24671936 403.70985413 C173.12071035 403.69708744 161.99472545 403.69531587 150.86871035 403.69765439 C141.82806874 403.69943544 132.78743447 403.6976925 123.74679375 403.69342995 C122.46143592 403.69283476 121.17607809 403.69223957 119.85177002 403.69162634 C117.24080408 403.69041463 114.62983814 403.68920049 112.01887219 403.68798397 C94.48123152 403.68019368 76.94359532 403.6762798 59.40595341 403.68030071 C58.71998764 403.68045709 58.03402187 403.68061346 57.32726926 403.68077458 C53.85043229 403.68158038 50.37359534 403.68242615 46.89675839 403.68328788 C45.8609707 403.68354451 45.8609707 403.68354451 44.80425802 403.68380633 C43.40784843 403.68415298 42.01143884 403.68450151 40.61502925 403.68485192 C18.88339213 403.69020998 -2.84820443 403.68227683 -24.57983398 403.66381836 C-48.98907279 403.64310991 -73.39828035 403.63240449 -97.80752951 403.63639385 C-110.73421346 403.63830897 -123.66086044 403.63578807 -136.58753777 403.62167931 C-147.59149177 403.60979091 -158.59538606 403.60833202 -169.59934085 403.62046947 C-175.21622182 403.62637593 -180.83299343 403.62740894 -186.44986725 403.61546707 C-191.58867648 403.60466833 -196.72728424 403.60763961 -201.86608381 403.62172876 C-203.72807443 403.62439232 -205.59008055 403.62195753 -207.45205604 403.61399289 C-209.97802248 403.60393546 -212.50328197 403.61226692 -215.02921963 403.62526989 C-215.75644459 403.61796054 -216.48366956 403.6106512 -217.23293164 403.60312036 C-221.87395826 403.65282821 -225.06104453 404.54432394 -229 407 Z " fill="#000000" transform="translate(247,60)"/>
<path d="M0 0 C4.8673005 1.50443834 8.42680929 5.33141803 12.1484375 8.6640625 C13.73357113 10.0185763 15.32832275 11.36114183 16.92407227 12.703125 C18.60117229 14.11438237 20.27161611 15.53323045 21.94140625 16.953125 C25.61603609 20.06854834 29.34355019 23.11696774 33.078125 26.16015625 C42.6502722 33.96644932 52.18540844 41.81454183 61.59692383 49.81396484 C67.99545896 55.24566884 74.43279846 60.62733322 81.1484375 65.6640625 C81.4784375 57.0840625 81.8084375 48.5040625 82.1484375 39.6640625 C80.4984375 39.3340625 78.8484375 39.0040625 77.1484375 38.6640625 C74.90872892 37.06007906 74.2525417 36.22744993 73.75 33.5078125 C73.75773437 32.734375 73.76546875 31.9609375 73.7734375 31.1640625 C73.76570313 30.390625 73.75796875 29.6171875 73.75 28.8203125 C74.2427813 26.15349608 75.0207924 25.30224933 77.1484375 23.6640625 C80.51978566 22.54027978 83.09763227 22.5233873 86.65185547 22.50292969 C87.30750488 22.49796478 87.9631543 22.49299988 88.63867188 22.48788452 C90.80600029 22.47328897 92.97325553 22.46646544 95.140625 22.4609375 C96.64893597 22.45518408 98.15724692 22.44942637 99.66555786 22.44366455 C102.82798605 22.43316211 105.99038886 22.42731444 109.15283203 22.42382812 C113.20034199 22.41834369 117.24751551 22.39431387 121.29491997 22.36585617 C124.41078667 22.34721102 127.52657261 22.34202321 130.64249039 22.34049225 C132.13439906 22.33746962 133.62630644 22.32945422 135.11816025 22.31630707 C137.20777579 22.29920592 139.29657288 22.30113609 141.38623047 22.30761719 C143.168022 22.30214874 143.168022 22.30214874 144.98580933 22.29656982 C148.47508777 22.70201877 150.35442987 23.57139585 153.1484375 25.6640625 C154.74744897 28.86208544 154.64916531 32.19326422 154.1484375 35.6640625 C152.3984375 38.1640625 152.3984375 38.1640625 150.1484375 39.6640625 C148.8284375 39.6640625 147.5084375 39.6640625 146.1484375 39.6640625 C145.97732074 50.03532008 145.87731986 60.40466048 145.86603069 70.77739429 C145.85859662 75.59516213 145.82743834 80.41025415 145.74047852 85.22729492 C145.65731672 89.88375274 145.63854365 94.53657751 145.66285133 99.19367027 C145.66107066 100.96267244 145.63677919 102.73181116 145.58875084 104.50016212 C145.12461087 115.11166467 145.12461087 115.11166467 149.9491272 124.11557007 C153.11938172 127.00334405 156.56795801 129.31366243 160.1484375 131.6640625 C161.99873212 133.14308952 163.83541109 134.63958018 165.6484375 136.1640625 C166.5353125 136.8859375 167.4221875 137.6078125 168.3359375 138.3515625 C171.46643662 140.92552844 174.5600716 143.53985716 177.6484375 146.1640625 C182.40700901 150.20523699 187.20533541 154.19102805 192.046875 158.1328125 C196.7907275 161.99698904 201.50454709 165.89789096 206.22363281 169.79223633 C206.91811523 170.36482178 207.61259766 170.93740723 208.328125 171.52734375 C208.98651367 172.07084473 209.64490234 172.6143457 210.32324219 173.17431641 C211.89543847 174.45756169 213.49239983 175.71035678 215.09375 176.95703125 C217.1484375 178.6640625 217.1484375 178.6640625 218.1484375 180.6640625 C218.71715788 187.7161952 218.71715788 187.7161952 216.6484375 191.1640625 C213.86554057 192.83380066 211.66502724 193.47923613 208.40234375 193.29296875 C203.45339109 191.91206515 199.89425519 188.01836817 196.1484375 184.6640625 C194.56299431 183.30928417 192.96793004 181.96646207 191.37182617 180.62426758 C189.70004893 179.21739933 188.03528978 177.80254187 186.37109375 176.38671875 C183.49114838 173.94470983 180.57734083 171.54726041 177.6484375 169.1640625 C173.5851327 165.85782176 169.57544441 162.49589821 165.5859375 159.1015625 C161.81754811 155.89667059 158.02597722 152.73718556 154.1484375 149.6640625 C149.69590049 146.13522847 145.36157771 142.48176921 141.03515625 138.80078125 C136.71881746 135.1329065 132.3436459 131.54279929 127.94921875 127.96875 C124.88067963 125.44373175 121.85803938 122.86921481 118.8359375 120.2890625 C114.39992147 116.50613758 109.88243107 112.85873513 105.2734375 109.2890625 C99.52816595 104.83354579 94.01748309 100.15262845 88.54785156 95.36425781 C84.06729359 91.44464606 79.5064036 87.64418129 74.87890625 83.8984375 C71.82877177 81.40247624 68.83258758 78.84866379 65.8359375 76.2890625 C61.40002027 72.50602804 56.88242488 68.85873034 52.2734375 65.2890625 C46.52816595 60.83354579 41.01748309 56.15262845 35.54785156 51.36425781 C31.07712024 47.45324246 26.5258775 43.66136815 21.91015625 39.921875 C17.62358307 36.41743469 13.41057897 32.82721869 9.19140625 29.2421875 C7.68513672 27.96601562 7.68513672 27.96601562 6.1484375 26.6640625 C5.63877441 26.17744141 5.12911133 25.69082031 4.60400391 25.18945312 C2.34906991 23.1022177 0.84419155 21.71775413 -2.28125 21.4765625 C-6.09383769 23.23800119 -8.89417346 25.84621566 -11.9765625 28.6640625 C-13.31924838 29.86057019 -14.66300445 31.055878 -16.0078125 32.25 C-16.66394531 32.83620117 -17.32007813 33.42240234 -17.99609375 34.02636719 C-20.43687771 36.18068019 -22.94553231 38.24190573 -25.4765625 40.2890625 C-29.47895496 43.53135669 -33.42743235 46.82809237 -37.3515625 50.1640625 C-44.0017518 55.81281153 -50.75277699 61.33230118 -57.5234375 66.8359375 C-63.07200533 71.35818065 -68.56071045 75.94289529 -74.01513672 80.57763672 C-78.31625219 84.22664347 -82.67484556 87.80036508 -87.05078125 91.359375 C-90.11932037 93.88439325 -93.14196062 96.45891019 -96.1640625 99.0390625 C-100.60007853 102.82198742 -105.11756893 106.46938987 -109.7265625 110.0390625 C-115.47183405 114.49457921 -120.98251691 119.17549655 -126.45214844 123.96386719 C-130.93270641 127.88347894 -135.4935964 131.68394371 -140.12109375 135.4296875 C-143.17122823 137.92564876 -146.16741242 140.47946121 -149.1640625 143.0390625 C-153.59997973 146.82209696 -158.11757512 150.46939466 -162.7265625 154.0390625 C-168.47233929 158.49497103 -173.98157527 163.17824511 -179.4543457 167.96386719 C-183.91124022 171.85922203 -188.41161168 175.68411311 -193.03125 179.38671875 C-195.17222947 181.11551519 -197.26968251 182.8713298 -199.359375 184.66015625 C-200.58549956 185.68281697 -201.81205741 186.70495842 -203.0390625 187.7265625 C-203.59730713 188.21656738 -204.15555176 188.70657227 -204.73071289 189.21142578 C-207.85068332 191.76691733 -210.02893666 192.98005031 -214.12109375 193.06640625 C-217.8515625 192.6640625 -217.8515625 192.6640625 -220.3515625 191.1640625 C-222.04115279 188.34807869 -222.3700437 186.02900114 -222.48046875 182.76171875 C-220.83895637 177.28661226 -213.9972771 173.09134958 -209.7265625 169.4140625 C-209.06350098 168.84123535 -208.40043945 168.2684082 -207.71728516 167.67822266 C-203.07030462 163.67762241 -198.35846625 159.76609432 -193.59375 155.90625 C-190.48155887 153.36152392 -187.41436508 150.76780334 -184.3515625 148.1640625 C-177.7013732 142.51531347 -170.95034801 136.99582382 -164.1796875 131.4921875 C-158.63111967 126.96994435 -153.14241455 122.38522971 -147.68798828 117.75048828 C-143.38687281 114.10148153 -139.02827944 110.52775992 -134.65234375 106.96875 C-131.58380463 104.44373175 -128.56116438 101.86921481 -125.5390625 99.2890625 C-121.10304647 95.50613758 -116.58555607 91.85873513 -111.9765625 88.2890625 C-106.23129095 83.83354579 -100.72060809 79.15262845 -95.25097656 74.36425781 C-90.77041859 70.44464606 -86.2095286 66.64418129 -81.58203125 62.8984375 C-78.53189677 60.40247624 -75.53571258 57.84866379 -72.5390625 55.2890625 C-68.10314527 51.50602804 -63.58554988 47.85873034 -58.9765625 44.2890625 C-53.23129095 39.83354579 -47.72060809 35.15262845 -42.25097656 30.36425781 C-37.77945281 26.45254924 -33.22868699 22.65869156 -28.609375 18.921875 C-25.98280556 16.77151078 -23.39538577 14.58269861 -20.81567383 12.37670898 C-18.17445997 10.12296846 -15.51279512 7.89412595 -12.8515625 5.6640625 C-11.81322266 4.76880859 -11.81322266 4.76880859 -10.75390625 3.85546875 C-7.43384667 1.18580808 -4.34578397 -0.31635975 0 0 Z M98.1484375 39.6640625 C97.80068945 45.27697356 97.50399167 50.85185945 97.32446289 56.46704102 C97.24964441 58.36807414 97.14772507 60.26826205 97.0168457 62.16625977 C96.06351139 72.92046659 96.06351139 72.92046659 99.57144165 82.78128052 C103.03607706 86.57501058 107.00327633 89.54098287 111.26667786 92.37892151 C114.08782657 94.30561489 116.6198991 96.50188619 119.2109375 98.7265625 C122.76962023 101.65558889 126.27068948 104.07889716 130.1484375 106.6640625 C130.1484375 84.5540625 130.1484375 62.4440625 130.1484375 39.6640625 C119.5884375 39.6640625 109.0284375 39.6640625 98.1484375 39.6640625 Z " fill="#000000" transform="translate(245.8515625,15.3359375)"/>
<path d="M0 0 C1.33285034 -0.01051392 1.33285034 -0.01051392 2.69262695 -0.02124023 C5.6183229 -0.03878886 8.54304489 -0.02720857 11.46875 -0.01367188 C13.50846542 -0.01636769 15.54817959 -0.02025085 17.58789062 -0.02526855 C21.85819765 -0.03115936 26.1281695 -0.02261394 30.3984375 -0.00390625 C35.86619751 0.01888287 41.33317211 0.00575757 46.80090332 -0.01819611 C51.01145319 -0.03266525 55.22181752 -0.02804293 59.43237305 -0.01768494 C61.44816176 -0.01502075 63.46396743 -0.01827656 65.47973633 -0.02760315 C68.29944337 -0.03778699 71.11788682 -0.02224194 73.9375 0 C74.76677002 -0.00809692 75.59604004 -0.01619385 76.45043945 -0.02453613 C81.74342582 0.05262914 84.83974023 0.91576783 88.96875 4.51757812 C93.25627871 9.43267539 93.54709386 13.32532856 93.48632812 19.54882812 C93.4933374 20.43739502 93.50034668 21.32596191 93.50756836 22.24145508 C93.52511698 25.16715102 93.51353669 28.09187301 93.5 31.01757812 C93.50269581 33.05729355 93.50657898 35.09700772 93.51159668 37.13671875 C93.51748749 41.40702577 93.50894207 45.67699763 93.49023438 49.94726562 C93.46744526 55.41502564 93.48057055 60.88200023 93.50452423 66.34973145 C93.51899337 70.56028132 93.51437105 74.77064565 93.50401306 78.98120117 C93.50134887 80.99698988 93.50460469 83.01279556 93.51393127 85.02856445 C93.52411511 87.8482715 93.50857006 90.66671495 93.48632812 93.48632812 C93.49442505 94.31559814 93.50252197 95.14486816 93.51086426 95.99926758 C93.43369899 101.29225394 92.5705603 104.38856835 88.96875 108.51757812 C84.05365274 112.80510683 80.16099956 113.09592198 73.9375 113.03515625 C73.04893311 113.04216553 72.16036621 113.0491748 71.24487305 113.05639648 C68.3191771 113.07394511 65.39445511 113.06236482 62.46875 113.04882812 C60.42903458 113.05152394 58.38932041 113.0554071 56.34960938 113.0604248 C52.07930235 113.06631561 47.8093305 113.05777019 43.5390625 113.0390625 C38.07130249 113.01627338 32.60432789 113.02939868 27.13659668 113.05335236 C22.92604681 113.0678215 18.71568248 113.06319918 14.50512695 113.05284119 C12.48933824 113.050177 10.47353257 113.05343281 8.45776367 113.0627594 C5.63805663 113.07294324 2.81961318 113.05739819 0 113.03515625 C-0.82927002 113.04325317 -1.65854004 113.0513501 -2.51293945 113.05969238 C-7.80592582 112.98252711 -10.90224023 112.11938842 -15.03125 108.51757812 C-19.31877871 103.60248086 -19.60959386 99.70982769 -19.54882812 93.48632812 C-19.5558374 92.59776123 -19.56284668 91.70919434 -19.57006836 90.79370117 C-19.58761698 87.86800523 -19.57603669 84.94328324 -19.5625 82.01757812 C-19.56519581 79.9778627 -19.56907898 77.93814853 -19.57409668 75.8984375 C-19.57998749 71.62813048 -19.57144207 67.35815862 -19.55273438 63.08789062 C-19.52994526 57.62013061 -19.54307055 52.15315602 -19.56702423 46.6854248 C-19.58149337 42.47487493 -19.57687105 38.2645106 -19.56651306 34.05395508 C-19.56384887 32.03816637 -19.56710469 30.02236069 -19.57643127 28.0065918 C-19.58661511 25.18688475 -19.57107006 22.3684413 -19.54882812 19.54882812 C-19.55692505 18.71955811 -19.56502197 17.89028809 -19.57336426 17.03588867 C-19.49619899 11.74290231 -18.6330603 8.6465879 -15.03125 4.51757812 C-10.11615274 0.23004942 -6.22349956 -0.06076573 0 0 Z M-3.03125 16.51757812 C-3.03125 27.07757813 -3.03125 37.63757813 -3.03125 48.51757812 C7.52875 48.51757812 18.08875 48.51757812 28.96875 48.51757812 C28.96875 37.95757812 28.96875 27.39757812 28.96875 16.51757812 C18.40875 16.51757812 7.84875 16.51757812 -3.03125 16.51757812 Z M44.96875 16.51757812 C44.96875 27.07757813 44.96875 37.63757813 44.96875 48.51757812 C55.52875 48.51757812 66.08875 48.51757812 76.96875 48.51757812 C76.96875 37.95757812 76.96875 27.39757812 76.96875 16.51757812 C66.40875 16.51757812 55.84875 16.51757812 44.96875 16.51757812 Z M-3.03125 64.51757812 C-3.03125 75.07757813 -3.03125 85.63757813 -3.03125 96.51757812 C7.52875 96.51757812 18.08875 96.51757812 28.96875 96.51757812 C28.96875 85.95757812 28.96875 75.39757812 28.96875 64.51757812 C18.40875 64.51757812 7.84875 64.51757812 -3.03125 64.51757812 Z M44.96875 64.51757812 C44.96875 75.07757813 44.96875 85.63757813 44.96875 96.51757812 C55.52875 96.51757812 66.08875 96.51757812 76.96875 96.51757812 C76.96875 85.95757812 76.96875 75.39757812 76.96875 64.51757812 C66.40875 64.51757812 55.84875 64.51757812 44.96875 64.51757812 Z " fill="#000000" transform="translate(207.03125,147.482421875)"/>
<path d="M0 0 C5.22058969 2.99700519 9.15212204 7.28475153 11.375 12.9375 C12.42437553 21.80748473 11.74705402 28.68522708 6.375 35.9375 C7.2 36.576875 8.025 37.21625 8.875 37.875 C11.82380051 41.48728062 12.13131441 43.31142657 11.859375 47.84375 C11.375 49.9375 11.375 49.9375 9.25 52.5 C5.71656332 54.26671834 4.28063538 54.68858373 0.375 53.9375 C-1.958609 52.59285541 -4.12401277 51.09903895 -6.31640625 49.53515625 C-10.75186558 46.46560825 -15.3505218 44.11348741 -20.625 42.9375 C-20.56699219 43.54078125 -20.50898438 44.1440625 -20.44921875 44.765625 C-20.08136243 51.28193704 -20.08136243 51.28193704 -22.75 54.5 C-26.13339538 56.19169769 -27.89324414 56.55945931 -31.625 55.9375 C-34.27099609 54.44628906 -34.27099609 54.44628906 -36.625 51.9375 C-37.13309418 48.86899462 -37.32751399 46.3640412 -37.2890625 43.296875 C-37.29384613 42.45586243 -37.29862976 41.61484985 -37.30355835 40.74835205 C-37.30695711 38.96974823 -37.29775612 37.19108192 -37.27685547 35.41259766 C-37.25021994 32.70981744 -37.27653096 30.0112404 -37.30859375 27.30859375 C-37.30528703 25.57551176 -37.29887538 23.84243236 -37.2890625 22.109375 C-37.30424423 20.91051666 -37.30424423 20.91051666 -37.31973267 19.68743896 C-37.17115065 12.45391575 -34.32221191 7.56555263 -29.1875 2.5625 C-21.27528377 -2.45500297 -8.903208 -2.79519321 0 0 Z M-19.625 16.9375 C-20.09023063 18.83283342 -20.09023063 18.83283342 -20.25 21 C-20.37375 22.299375 -20.4975 23.59875 -20.625 24.9375 C-14.65802221 26.95902803 -14.65802221 26.95902803 -8.625 25.9375 C-6.70833333 24.85416667 -6.70833333 24.85416667 -5.625 22.9375 C-5.37451364 19.81200983 -5.37451364 19.81200983 -5.625 16.9375 C-8.11254786 15.69372607 -9.85155301 15.80443765 -12.625 15.8125 C-13.9553125 15.80863281 -13.9553125 15.80863281 -15.3125 15.8046875 C-17.65176966 15.78622098 -17.65176966 15.78622098 -19.625 16.9375 Z " fill="#000000" transform="translate(436.625,284.0625)"/>
</svg>
