<?xml version="1.0" encoding="UTF-8"?>
<svg version="1.1" xmlns="http://www.w3.org/2000/svg" width="512" height="512">
<path d="M0 0 C1.50306702 -0.01925285 1.50306702 -0.01925285 3.03649902 -0.03889465 C4.11564575 -0.04628159 5.19479248 -0.05366852 6.30664062 -0.0612793 C7.42671509 -0.06935104 8.54678955 -0.07742279 9.70080566 -0.08573914 C12.07460997 -0.09956934 14.44843407 -0.11029625 16.82226562 -0.11816406 C19.23508585 -0.12965214 21.64788129 -0.1500531 24.06054688 -0.1796875 C27.55941931 -0.22265527 31.05753606 -0.23857696 34.55664062 -0.2487793 C36.15106995 -0.27504143 36.15106995 -0.27504143 37.77770996 -0.30183411 C51.55677587 -0.26259233 62.08621254 4.76190614 72.02929688 14.12231445 C81.72075827 24.46266419 85.14841683 37.21254129 85.02539062 51.11450195 C85.02087891 51.79834961 85.01636719 52.48219727 85.01171875 53.18676758 C85.00008623 54.85021799 84.98215757 56.51362245 84.96289062 58.17700195 C86.05428345 58.36951538 86.05428345 58.36951538 87.16772461 58.56591797 C89.83118076 59.14820732 92.16133124 59.93602037 94.68554688 60.9543457 C95.55373047 61.30303711 96.42191406 61.65172852 97.31640625 62.01098633 C98.21037109 62.37514648 99.10433594 62.73930664 100.02539062 63.11450195 C100.92322266 63.47479492 101.82105469 63.83508789 102.74609375 64.20629883 C109.48073296 66.92519035 109.48073296 66.92519035 112.12353516 68.30541992 C113.92946748 69.34571717 113.92946748 69.34571717 115.98242188 69.0324707 C118.50437475 67.94310644 119.80550062 66.52004127 121.65039062 64.48950195 C131.2351942 54.62227323 142.75317006 49.90626771 156.46289062 48.92700195 C175.72233523 49.29525137 187.54336073 58.88008109 200.50732422 71.9597168 C202.70158952 74.1656408 204.92591158 76.3376474 207.15429688 78.5090332 C219.68734779 90.92385693 226.8278563 102.1025763 228.27539062 120.05200195 C227.81458504 134.10657231 222.40539703 145.29432788 212.70898438 155.06787109 C209.25322504 158.5861246 209.25322504 158.5861246 207.96289062 163.17700195 C208.61027315 165.55284172 208.61027315 165.55284172 209.76367188 167.9855957 C210.36405273 169.35361328 210.36405273 169.35361328 210.9765625 170.74926758 C211.40517578 171.69479492 211.83378906 172.64032227 212.27539062 173.61450195 C213.10509788 175.48807582 213.93453372 177.36176991 214.76367188 179.2355957 C215.13661377 180.06373779 215.50955566 180.89187988 215.89379883 181.74511719 C218.96289062 188.72644246 218.96289062 188.72644246 218.96289062 192.17700195 C219.9296875 192.15379883 220.89648438 192.1305957 221.89257812 192.10668945 C238.35819327 191.8784532 251.65676831 194.53383572 263.96289062 206.17700195 C271.41712415 214.09531227 277.01665899 224.19234833 277.13989258 235.22998047 C277.15272781 236.23525284 277.16556305 237.24052521 277.17878723 238.27626038 C277.18986763 239.89968605 277.18986763 239.89968605 277.20117188 241.5559082 C277.20924362 242.67835434 277.21731537 243.80080048 277.22563171 244.95726013 C277.23946084 247.33526064 277.25018823 249.71328089 277.25805664 252.09130859 C277.26955337 254.51096454 277.28996821 256.93059559 277.31958008 259.35009766 C277.36248865 262.85637558 277.37846076 266.36189948 277.38867188 269.8684082 C277.40617996 270.93652237 277.42368805 272.00463654 277.44172668 273.1051178 C277.40719113 285.23256767 272.97132651 296.6592004 264.70507812 305.6262207 C253.58537445 316.1707673 241.24816472 320.37421677 226.02539062 320.23950195 C225.34154297 320.23499023 224.65769531 320.23047852 223.953125 320.22583008 C222.28967459 320.21419756 220.62627013 320.1962689 218.96289062 320.17700195 C218.83454834 320.90459717 218.70620605 321.63219238 218.57397461 322.38183594 C217.99168526 325.04529209 217.20387221 327.37544257 216.18554688 329.8996582 C215.83685547 330.7678418 215.48816406 331.63602539 215.12890625 332.53051758 C214.76474609 333.42448242 214.40058594 334.31844727 214.02539062 335.23950195 C213.48495117 336.58625 213.48495117 336.58625 212.93359375 337.96020508 C210.21470223 344.69484429 210.21470223 344.69484429 208.83447266 347.33764648 C207.79417541 349.14357881 207.79417541 349.14357881 208.10742188 351.1965332 C209.19678614 353.71848608 210.61985131 355.01961194 212.65039062 356.86450195 C222.51761935 366.44930553 227.23362487 377.96728139 228.21289062 391.67700195 C227.84464121 410.93644656 218.25981149 422.75747206 205.18017578 435.72143555 C202.97425178 437.91570084 200.80224518 440.14002291 198.63085938 442.3684082 C186.83611433 454.27488519 175.06013489 463.07899098 157.59179688 463.20043945 C142.29111468 462.56360931 130.53851139 457.40026951 120.08789062 446.11450195 C119.34925781 445.23084961 119.34925781 445.23084961 118.59570312 444.3293457 C116.97369525 442.9066895 116.97369525 442.9066895 114.64013672 443.49389648 C112.12308707 444.13612746 109.8776052 444.9299243 107.49414062 445.9543457 C106.26630859 446.47738281 106.26630859 446.47738281 105.01367188 447.01098633 C104.17191406 447.37514648 103.33015625 447.73930664 102.46289062 448.11450195 C99.99712174 449.16991145 97.53096911 450.22441392 95.06445312 451.27807617 C93.39387998 451.99264986 91.72496756 452.71110585 90.05664062 453.4309082 C87.96289062 454.17700195 87.96289062 454.17700195 84.96289062 454.17700195 C84.98609375 455.14379883 85.00929688 456.1105957 85.03320312 457.10668945 C85.26143937 473.5723046 82.60605686 486.87087963 70.96289062 499.17700195 C63.04458031 506.63123547 52.94754425 512.23077032 41.90991211 512.35400391 C40.90463974 512.36683914 39.89936737 512.37967438 38.8636322 512.39289856 C37.78134842 512.40028549 36.69906464 512.40767242 35.58398438 512.4152832 C34.46153824 512.42335495 33.3390921 512.4314267 32.18263245 512.43974304 C29.80463194 512.45357216 27.42661168 512.46429955 25.04858398 512.47216797 C22.62892804 512.48366469 20.20929698 512.50407954 17.78979492 512.53369141 C14.283517 512.57659998 10.77799309 512.59257209 7.27148438 512.6027832 C6.20337021 512.62029129 5.13525604 512.63779938 4.03477478 512.65583801 C-8.09267509 512.62130245 -19.51930782 508.18543783 -28.48632812 499.91918945 C-39.03087472 488.79948577 -43.23432419 476.46227605 -43.09960938 461.23950195 C-43.09509766 460.5556543 -43.09058594 459.87180664 -43.0859375 459.16723633 C-43.07430498 457.50378592 -43.05637632 455.84038146 -43.03710938 454.17700195 C-43.62234375 454.05325195 -44.20757812 453.92950195 -44.81054688 453.80200195 C-52.271651 452.0095445 -58.95891947 449.11078102 -65.84130859 445.7824707 C-66.58525879 445.43313477 -67.32920898 445.08379883 -68.09570312 444.72387695 C-69.09041626 444.24192871 -69.09041626 444.24192871 -70.10522461 443.75024414 C-72.48425139 443.04432289 -73.73261033 443.31454695 -76.03710938 444.17700195 C-77.93037792 445.8197993 -77.93037792 445.8197993 -79.72460938 447.86450195 C-89.65129878 458.08369049 -101.23291904 462.64353435 -115.45507812 463.27075195 C-134.42960876 462.77414483 -145.84747371 453.24197733 -158.58154297 440.39428711 C-160.77580827 438.18836311 -163.00013033 436.0163565 -165.22851562 433.8449707 C-177.76156654 421.43014698 -184.90207505 410.25142761 -186.34960938 392.30200195 C-185.88880379 378.2474316 -180.47961578 367.05967602 -170.78320312 357.28613281 C-168.19782673 354.65134581 -166.49562472 352.87595289 -166.03710938 349.17700195 C-166.56977699 347.19058039 -166.56977699 347.19058039 -167.58398438 345.2355957 C-167.93332031 344.49164551 -168.28265625 343.74769531 -168.64257812 342.98120117 C-169.02027344 342.20019043 -169.39796875 341.41917969 -169.78710938 340.61450195 C-172.90741606 333.92176802 -175.5024271 327.43477022 -177.03710938 320.17700195 C-178.00390625 320.20020508 -178.97070312 320.2234082 -179.96679688 320.24731445 C-196.43241202 320.4755507 -209.73098706 317.82016819 -222.03710938 306.17700195 C-229.4913429 298.25869164 -235.09087774 288.16165558 -235.21411133 277.12402344 C-235.22694656 276.11875107 -235.2397818 275.1134787 -235.25300598 274.07774353 C-235.26039291 272.99545975 -235.26777985 271.91317596 -235.27539062 270.7980957 C-235.28346237 269.67564957 -235.29153412 268.55320343 -235.29985046 267.39674377 C-235.31367959 265.01874327 -235.32440698 262.64072301 -235.33227539 260.26269531 C-235.34377212 257.84303936 -235.36418696 255.42340831 -235.39379883 253.00390625 C-235.4367074 249.49762833 -235.45267951 245.99210442 -235.46289062 242.4855957 C-235.48039871 241.41748154 -235.4979068 240.34936737 -235.51594543 239.24888611 C-235.48140988 227.12143624 -231.04554526 215.69480351 -222.77929688 206.7277832 C-211.6595932 196.18323661 -199.32238347 191.97978714 -184.09960938 192.11450195 C-183.07383789 192.12126953 -183.07383789 192.12126953 -182.02734375 192.12817383 C-180.36389334 192.13980635 -178.70048888 192.15773501 -177.03710938 192.17700195 C-176.85148437 191.29915039 -176.85148437 191.29915039 -176.66210938 190.40356445 C-174.86965193 182.94246033 -171.97088844 176.25519186 -168.64257812 169.37280273 C-168.11857422 168.25687744 -168.11857422 168.25687744 -167.58398438 167.1184082 C-167.26268555 166.45526611 -166.94138672 165.79212402 -166.61035156 165.10888672 C-165.90443031 162.72985994 -166.17465437 161.481501 -167.03710938 159.17700195 C-168.67990672 157.28373341 -168.67990672 157.28373341 -170.72460938 155.48950195 C-180.5918381 145.90469838 -185.30784362 134.38672252 -186.28710938 120.67700195 C-185.91885996 101.41755735 -176.33403024 89.59653185 -163.25439453 76.63256836 C-161.04847053 74.43830306 -158.87646393 72.21398099 -156.70507812 69.9855957 C-144.2902544 57.45254478 -133.11153503 50.31203628 -115.16210938 48.86450195 C-101.10753902 49.32530754 -89.91978344 54.73449555 -80.14624023 64.4309082 C-76.62792002 67.88567883 -76.62792002 67.88567883 -72.03710938 69.17700195 C-69.70968089 68.52968215 -69.70968089 68.52968215 -67.33398438 67.3762207 C-66.43550781 66.9759668 -65.53703125 66.57571289 -64.61132812 66.16333008 C-63.67933594 65.7347168 -62.74734375 65.30610352 -61.78710938 64.86450195 C-55.58034347 62.04046711 -49.72180195 59.59710683 -43.03710938 58.17700195 C-43.0603125 57.21020508 -43.08351562 56.2434082 -43.10742188 55.24731445 C-43.34530935 38.08543265 -40.16810675 25.06670838 -28.26367188 12.27075195 C-20.81300069 5.10301765 -10.40153299 0.11653026 0 0 Z M-6.91210938 35.42700195 C-13.56148001 44.03206983 -12.47134942 53.13752645 -12.4765625 63.5949707 C-12.65864866 75.81357995 -12.65864866 75.81357995 -17.03710938 81.17700195 C-18.98242188 82.5246582 -18.98242188 82.5246582 -21.16210938 83.23950195 C-22.04511719 83.54758789 -22.928125 83.85567383 -23.83789062 84.1730957 C-25.53192762 84.70467996 -27.22610648 85.23582173 -28.92138672 85.76342773 C-42.66703347 90.06368649 -56.62074551 95.1169658 -68.79882812 102.9543457 C-71.53555449 104.44927651 -73.43400488 104.57815171 -76.53710938 104.55200195 C-77.45492187 104.55973633 -78.37273437 104.5674707 -79.31835938 104.57543945 C-86.99256979 103.45077069 -91.95707761 96.36973332 -97.06640625 91.06958008 C-104.0747565 83.64044664 -104.0747565 83.64044664 -113.41210938 80.17700195 C-114.10046875 80.07387695 -114.78882812 79.97075195 -115.49804688 79.86450195 C-122.38632474 80.71229 -127.6780251 85.20629607 -132.40039062 89.97387695 C-133.23838448 90.80257294 -133.23838448 90.80257294 -134.0933075 91.64801025 C-135.26193088 92.80958332 -136.42553384 93.9762277 -137.58422852 95.14770508 C-139.34724587 96.92461982 -141.13300451 98.67616122 -142.921875 100.42700195 C-144.06199933 101.56617514 -145.20072046 102.70675479 -146.33789062 103.84887695 C-146.86602859 104.36375671 -147.39416656 104.87863647 -147.93830872 105.40911865 C-152.69616885 110.28756893 -154.94515116 115.28031817 -155.16210938 122.11450195 C-153.33610726 131.57319292 -143.71596808 138.65865785 -137.10498047 145.03662109 C-136.46641113 145.65786865 -135.8278418 146.27911621 -135.16992188 146.91918945 C-134.59129395 147.47461426 -134.01266602 148.03003906 -133.41650391 148.60229492 C-130.28985298 152.17165749 -130.64244965 156.7171661 -130.68896484 161.2121582 C-131.27321603 166.18771666 -133.57159479 169.92867529 -136.09960938 174.17700195 C-142.72337488 186.01678328 -147.1678366 198.12192525 -151.16210938 211.05200195 C-152.66943361 215.6774819 -154.12190391 218.26569532 -158.03710938 221.17700195 C-161.35781662 222.28390437 -163.93019841 222.33473942 -167.42773438 222.38793945 C-168.69488281 222.41629883 -169.96203125 222.4446582 -171.26757812 222.47387695 C-173.93170058 222.52847229 -176.59524715 222.57000975 -179.25976562 222.60668945 C-187.5163775 222.80745813 -193.13590126 223.16243205 -199.78710938 228.30200195 C-205.73673127 235.90429659 -205.51127827 244.74399583 -205.42822266 254.03344727 C-205.41213876 256.17309312 -205.42813588 258.31085084 -205.44726562 260.45043945 C-205.46091024 269.14673535 -205.30512707 277.00120156 -199.78710938 284.05200195 C-191.1820415 290.70137259 -182.07658488 289.611242 -171.61914062 289.61645508 C-159.40053138 289.79854124 -159.40053138 289.79854124 -154.03710938 294.17700195 C-152.68945312 296.12231445 -152.68945312 296.12231445 -151.97460938 298.30200195 C-151.51248047 299.62651367 -151.51248047 299.62651367 -151.04101562 300.9777832 C-150.50943137 302.6718202 -149.9782896 304.36599906 -149.45068359 306.0612793 C-145.15042484 319.80692605 -140.09714553 333.76063809 -132.25976562 345.9387207 C-130.76483482 348.67544707 -130.63595962 350.57389745 -130.66210938 353.67700195 C-130.654375 354.59481445 -130.64664063 355.51262695 -130.63867188 356.45825195 C-131.76334064 364.13246237 -138.84437801 369.09697019 -144.14453125 374.20629883 C-152.04066527 381.81721156 -152.04066527 381.81721156 -155.13484192 392.11628723 C-154.80212343 399.13173833 -150.93323041 404.03353089 -146.11914062 408.7590332 C-145.54306564 409.33989182 -144.96699066 409.92075043 -144.37345886 410.51921082 C-143.15997332 411.73607776 -141.94023477 412.94673829 -140.71459961 414.15136719 C-138.85432975 415.98484955 -137.02227251 417.84350599 -135.19140625 419.70629883 C-134.00225073 420.89214994 -132.81154493 422.07644888 -131.61914062 423.2590332 C-131.07925003 423.80904495 -130.53935944 424.3590567 -129.98310852 424.92573547 C-125.03946521 429.72244354 -120.13191657 432.07875411 -113.09960938 432.30200195 C-103.64091841 430.47599984 -96.55545348 420.85586066 -90.17749023 414.24487305 C-89.55624268 413.60630371 -88.93499512 412.96773438 -88.29492188 412.30981445 C-87.46178467 411.44187256 -87.46178467 411.44187256 -86.61181641 410.55639648 C-83.04245384 407.42974555 -78.49694523 407.78234223 -74.00195312 407.82885742 C-69.02639467 408.4131086 -65.28543603 410.71148737 -61.03710938 413.23950195 C-49.19732805 419.86326746 -37.09218608 424.30772917 -24.16210938 428.30200195 C-19.53662943 429.80932619 -16.948416 431.26179649 -14.03710938 435.17700195 C-12.93020696 438.4977092 -12.87937191 441.07009099 -12.82617188 444.56762695 C-12.7978125 445.83477539 -12.76945313 447.10192383 -12.74023438 448.4074707 C-12.68563904 451.07159316 -12.64410158 453.73513973 -12.60742188 456.3996582 C-12.4066532 464.65627008 -12.05167928 470.27579384 -6.91210938 476.92700195 C0.69018526 482.87662384 9.52988451 482.65117085 18.81933594 482.56811523 C20.95898179 482.55203134 23.09673951 482.56802846 25.23632812 482.5871582 C33.93262402 482.60080282 41.78709023 482.44501965 48.83789062 476.92700195 C55.48726126 468.32193407 54.39713067 459.21647746 54.40234375 448.7590332 C54.58442991 436.54042395 54.58442991 436.54042395 58.96289062 431.17700195 C60.90820312 429.8293457 60.90820312 429.8293457 63.08789062 429.11450195 C63.97089844 428.80641602 64.85390625 428.49833008 65.76367188 428.1809082 C67.45770887 427.64932394 69.15188773 427.11818217 70.84716797 426.59057617 C84.59281472 422.29031742 98.54652676 417.2370381 110.72460938 409.3996582 C113.46133574 407.9047274 115.35978613 407.7758522 118.46289062 407.80200195 C119.38070313 407.79426758 120.29851562 407.7865332 121.24414062 407.77856445 C128.91835104 408.90323322 133.88285886 415.98427059 138.9921875 421.28442383 C146.60310023 429.18055785 146.60310023 429.18055785 156.9021759 432.2747345 C163.917627 431.94201601 168.81941956 428.07312299 173.54492188 423.2590332 C174.12578049 422.68295822 174.7066391 422.10688324 175.30509949 421.51335144 C176.52196644 420.2998659 177.73262697 419.08012735 178.93725586 417.85449219 C180.77073823 415.99422233 182.62939466 414.16216509 184.4921875 412.33129883 C185.67803861 411.14214331 186.86233756 409.95143751 188.04492188 408.7590332 C188.8699395 407.94919731 188.8699395 407.94919731 189.71162415 407.1230011 C194.50833221 402.17935779 196.86464278 397.27180915 197.08789062 390.23950195 C195.26188851 380.78081099 185.64174933 373.69534605 179.03076172 367.31738281 C178.39219238 366.69613525 177.75362305 366.0748877 177.09570312 365.43481445 C176.5170752 364.87938965 175.93844727 364.32396484 175.34228516 363.75170898 C172.21563423 360.18234642 172.5682309 355.63683781 172.61474609 351.1418457 C173.19899728 346.16628725 175.49737604 342.42532861 178.02539062 338.17700195 C184.64915613 326.33722063 189.09361785 314.23207866 193.08789062 301.30200195 C194.59521486 296.67652201 196.04768516 294.08830858 199.96289062 291.17700195 C203.28359787 290.07009954 205.85597966 290.01926448 209.35351562 289.96606445 C210.62066406 289.93770508 211.8878125 289.9093457 213.19335938 289.88012695 C215.85748183 289.82553162 218.5210284 289.78399416 221.18554688 289.74731445 C229.44215875 289.54654578 235.06168251 289.19157186 241.71289062 284.05200195 C247.66251252 276.44970731 247.43705952 267.61000807 247.35400391 258.32055664 C247.33792001 256.18091078 247.35391713 254.04315306 247.37304688 251.90356445 C247.38669149 243.20726856 247.23090832 235.35280234 241.71289062 228.30200195 C233.10782275 221.65263132 224.00236613 222.74276191 213.54492188 222.73754883 C201.32631263 222.55546267 201.32631263 222.55546267 195.96289062 218.17700195 C194.61523438 216.23168945 194.61523438 216.23168945 193.90039062 214.05200195 C193.59230469 213.16899414 193.28421875 212.28598633 192.96679688 211.3762207 C192.43521262 209.68218371 191.90407085 207.98800484 191.37646484 206.29272461 C187.07620609 192.54707786 182.02292678 178.59336582 174.18554688 166.4152832 C172.69061607 163.67855684 172.56174087 161.78010645 172.58789062 158.67700195 C172.58015625 157.75918945 172.57242187 156.84137695 172.56445312 155.89575195 C173.68912189 148.22154154 180.77015926 143.25703372 186.0703125 138.14770508 C193.96644652 130.53679235 193.96644652 130.53679235 197.06062317 120.23771667 C196.72790468 113.22226557 192.85901166 108.32047302 188.04492188 103.5949707 C187.46884689 103.01411209 186.89277191 102.43325348 186.29924011 101.83479309 C185.08575457 100.61792614 183.86601602 99.40726561 182.64038086 98.20263672 C180.780111 96.36915435 178.94805376 94.51049792 177.1171875 92.64770508 C175.92803198 91.46185397 174.73732618 90.27755502 173.54492188 89.0949707 C172.73508598 88.26995308 172.73508598 88.26995308 171.90888977 87.42826843 C166.96524646 82.63156037 162.05769782 80.2752498 155.02539062 80.05200195 C145.56669966 81.87800407 138.48123473 91.49814325 132.10327148 98.10913086 C131.48202393 98.7477002 130.86077637 99.38626953 130.22070312 100.04418945 C129.38756592 100.91213135 129.38756592 100.91213135 128.53759766 101.79760742 C124.96823509 104.92425835 120.42272648 104.57166168 115.92773438 104.52514648 C110.95217592 103.9408953 107.21121728 101.64251653 102.96289062 99.11450195 C91.1231093 92.49073645 79.01796733 88.04627473 66.08789062 84.05200195 C61.46241068 82.54467772 58.87419725 81.09220742 55.96289062 77.17700195 C54.85598821 73.85629471 54.80515316 71.28391292 54.75195312 67.78637695 C54.72359375 66.51922852 54.69523437 65.25208008 54.66601562 63.9465332 C54.61142029 61.28241074 54.56988283 58.61886417 54.53320312 55.9543457 C54.33243445 47.69773383 53.97746053 42.07821007 48.83789062 35.42700195 C41.23559599 29.47738006 32.39589674 29.70283305 23.10644531 29.78588867 C20.96679946 29.80197257 18.82904174 29.78597545 16.68945312 29.7668457 C7.99315723 29.75320109 0.13869102 29.90898426 -6.91210938 35.42700195 Z " fill="#000000" transform="translate(235.037109375,-0.177001953125)"/>
<path d="M0 0 C27.89391759 -0.7466053 56.12815657 7.10905843 77.12890625 26.15625 C77.94230469 26.84074219 78.75570312 27.52523437 79.59375 28.23046875 C100.26439866 45.9709176 114.92879884 73.19360094 117.03515625 100.62890625 C117.0815625 101.87994141 117.0815625 101.87994141 117.12890625 103.15625 C117.18046875 104.43371094 117.23203125 105.71117187 117.28515625 107.02734375 C118.03176155 134.92126134 110.17609782 163.15550032 91.12890625 184.15625 C90.44441406 184.96964844 89.75992188 185.78304687 89.0546875 186.62109375 C71.22782119 207.39243349 44.17395296 221.881474 16.67578125 224.06640625 C-13.82029835 225.1421882 -43.28973301 218.6985773 -66.87109375 198.15625 C-67.69222656 197.46789062 -68.51335937 196.77953125 -69.359375 196.0703125 C-90.0015864 178.28526567 -104.66959431 151.13703016 -106.77734375 123.68359375 C-106.80828125 122.84957031 -106.83921875 122.01554687 -106.87109375 121.15625 C-106.92265625 119.87878906 -106.97421875 118.60132813 -107.02734375 117.28515625 C-107.77394905 89.39123866 -99.91828532 61.15699968 -80.87109375 40.15625 C-80.18660156 39.34285156 -79.50210938 38.52945313 -78.796875 37.69140625 C-61.05642615 17.02075759 -33.83374281 2.35635741 -6.3984375 0.25 C-4.26546458 0.1708789 -2.13270329 0.08608288 0 0 Z M-54.87109375 57.15625 C-70.35353553 75.05782331 -77.38944677 96.62994133 -75.87109375 120.15625 C-73.0377728 142.53279265 -62.49098071 162.24452522 -44.74609375 176.28125 C-26.86210404 189.85631513 -5.19941275 195.47698431 17.046875 192.66015625 C39.22776181 188.59174489 58.71030126 177.04670054 71.875 158.57421875 C84.29393406 140.22746792 88.89628021 118.36814784 85.00390625 96.59375 C81.93207442 83.0691571 76.6252471 72.08636259 68.12890625 61.15625 C67.17177734 59.92261719 67.17177734 59.92261719 66.1953125 58.6640625 C53.04682261 42.86400605 33.3530921 33.50944835 13.12890625 31.15625 C-13.01209324 29.70397225 -36.53311755 38.12456746 -54.87109375 57.15625 Z " fill="#000000" transform="translate(250.87109375,143.84375)"/>
</svg>
