<?xml version="1.0" encoding="UTF-8"?>
<svg version="1.1" xmlns="http://www.w3.org/2000/svg" width="512" height="512">
<path d="M0 0 C0.87914062 0.00128906 1.75828125 0.00257813 2.6640625 0.00390625 C9.44301091 1.08814728 14.78898962 5.72127046 20.1875 9.6875 C20.98486572 10.27160645 21.78223145 10.85571289 22.60375977 11.45751953 C24.16807722 12.60593289 25.73088172 13.75641065 27.29199219 14.90917969 C28.99577974 16.15926292 30.71804654 17.38412568 32.4453125 18.6015625 C37.15395299 22.00483731 39.88735696 24.58610406 41.375 30.4375 C41.58140402 33.78910819 41.55709225 37.08565374 41.375 40.4375 C54.93248716 45.12326745 67.77682821 45.54647019 81.97241211 45.40136719 C93.65779556 45.32704605 105.11228293 46.37668002 116.69140625 47.86328125 C122.39132546 48.53624468 127.07488051 48.06401451 132.69921875 46.984375 C144.24897172 45.26602706 156.15653463 45.36399255 167.8125 45.5 C179.33369748 45.60575751 190.4511589 44.29297333 201.375 40.4375 C201.32859375 39.8084375 201.2821875 39.179375 201.234375 38.53125 C201.19828125 37.6753125 201.1621875 36.819375 201.125 35.9375 C201.07859375 35.1021875 201.0321875 34.266875 200.984375 33.40625 C201.75412376 27.55615941 204.21922688 23.06979956 208.80859375 19.34765625 C210.1306936 18.38105399 211.46597853 17.43228099 212.8125 16.5 C213.86570435 15.7423938 213.86570435 15.7423938 214.94018555 14.96948242 C217.07366693 13.44184902 219.22287224 11.9387063 221.375 10.4375 C222.65435199 9.52703312 223.93303547 8.61562588 225.2109375 7.703125 C233.23089217 2.02822484 238.40817645 -0.47977634 248.375 0.4375 C256.06150763 2.31852916 259.95919322 8.34030315 264.375 14.4375 C265.39208172 15.81855411 266.4104062 17.19869348 267.4296875 18.578125 C269.18276299 20.95323496 270.93353875 23.32989834 272.67822266 25.71118164 C277.17342998 31.84160207 281.75334053 37.90199229 286.375 43.9375 C292.0287122 51.32377957 297.5897046 58.76944829 303.0859375 66.2734375 C307.44777201 72.21421662 311.89564067 78.08495738 316.375 83.9375 C323.83084009 93.6816768 331.15064846 103.520589 338.375 113.4375 C338.8592041 114.09266602 339.3434082 114.74783203 339.84228516 115.42285156 C344.52436087 121.82531789 344.94525031 126.67762322 344.375 134.4375 C341.65788036 143.67570678 331.27347834 149.36054633 323.8125 154.6875 C323.10464355 155.19490723 322.39678711 155.70231445 321.66748047 156.22509766 C314.34708372 161.35564661 307.61759603 166.03998162 298.375 164.4375 C292.87154955 162.55606447 288.65560177 159.29004159 284.375 155.4375 C278.0792882 163.29776931 278.0792882 163.29776931 275.6015625 172.34765625 C276.55056019 174.91186717 277.90454238 176.49320015 279.6875 178.5625 C285.95605643 186.49493251 288.15116935 193.69747313 287.8203125 203.84375 C286.62326039 213.50417055 282.45266811 222.6706277 275.375 229.4375 C268.48442643 234.33185156 261.42101597 236.58583872 253 237.0625 C251.13214844 237.17464844 251.13214844 237.17464844 249.2265625 237.2890625 C248.28554688 237.33804688 247.34453125 237.38703125 246.375 237.4375 C246.43300781 238.02015625 246.49101562 238.6028125 246.55078125 239.203125 C247.10062397 249.19455279 243.24109159 258.06022609 236.96484375 265.7578125 C228.25303922 274.96193031 217.54645361 276.0354816 205.375 276.4375 C203.04169549 276.44909694 200.70828612 276.45234279 198.375 276.4375 C197.97410156 277.3553125 197.57320313 278.273125 197.16015625 279.21875 C192.6218127 289.19250411 187.71197704 296.55230123 177.1875 300.9375 C156.70578659 306.77452774 134.50298721 300.75758945 115.22631836 293.54858398 C114.38979736 293.24637939 113.55327637 292.9441748 112.69140625 292.6328125 C111.95349854 292.35453613 111.21559082 292.07625977 110.45532227 291.78955078 C107.76433007 291.33415696 106.66646147 292.03561237 104.375 293.4375 C102.68813678 294.29292353 101.00060754 295.14703465 99.3125 296 C98.45527344 296.43441406 97.59804687 296.86882812 96.71484375 297.31640625 C89.72003254 300.66784334 80.9873538 300.41474635 73.48046875 298.82421875 C64.36567594 295.56585975 58.1835081 289.59978514 53.8125 281.0625 C51.375 275.84400407 51.375 275.84400407 51.375 273.4375 C50.79234375 273.43492187 50.2096875 273.43234375 49.609375 273.4296875 C39.85944839 272.9697853 31.5546234 269.23874968 24.875 262.0625 C20.75910517 256.98822633 17.82634785 251.82061238 16.375 245.4375 C15.54097656 245.35113281 14.70695312 245.26476562 13.84765625 245.17578125 C3.01713882 243.82351733 -4.26242196 240.70514681 -11.83203125 232.7578125 C-18.31918395 224.36267371 -20.52378217 214.83979855 -19.625 204.4375 C-18.91796875 202.3046875 -18.91796875 202.3046875 -18.0625 200.5 C-16.42261703 197.7043604 -16.42261703 197.7043604 -16.84814453 195.5065918 C-17.77169295 193.04679518 -19.00009351 191.34141821 -20.6171875 189.26953125 C-21.54422485 188.06441895 -21.54422485 188.06441895 -22.48999023 186.83496094 C-23.15329346 185.98192383 -23.81659668 185.12888672 -24.5 184.25 C-31.37534825 175.26759708 -37.64562386 166.03433655 -43.625 156.4375 C-44.34055054 157.06325928 -44.34055054 157.06325928 -45.07055664 157.70166016 C-45.69824951 158.24612793 -46.32594238 158.7905957 -46.97265625 159.3515625 C-47.59406494 159.89248535 -48.21547363 160.4334082 -48.85571289 160.99072266 C-52.79663822 164.21328696 -56.46998392 164.84087759 -61.53417969 164.68579102 C-68.71133474 163.8334829 -74.05354647 160.02220489 -79.5625 155.6875 C-80.25762695 155.15181396 -80.95275391 154.61612793 -81.66894531 154.06420898 C-83.04069624 153.00563078 -84.40946855 151.94317895 -85.77490234 150.87646484 C-87.34307929 149.65677166 -88.92942856 148.46049885 -90.51953125 147.26953125 C-95.36427402 143.62994837 -99.64582012 140.37503963 -101.625 134.4375 C-103.16450268 122.72558719 -97.97013359 116.43481959 -91.125 107.5 C-90.25312631 106.38630978 -89.38070578 105.27304751 -88.5078125 104.16015625 C-85.24869882 99.98491228 -82.12718496 95.71193365 -79 91.4375 C-73.94888847 84.54628129 -68.8185148 77.72199029 -63.625 70.9375 C-58.55843572 64.31806351 -53.55073767 57.66240449 -48.625 50.9375 C-42.9958862 43.25404152 -37.26769631 35.65152726 -31.46289062 28.09985352 C-28.32074626 24.00701888 -25.21683377 19.90076785 -22.2265625 15.6953125 C-21.69949707 14.96272217 -21.17243164 14.23013184 -20.62939453 13.4753418 C-19.66578 12.1300033 -18.71492404 10.77537749 -17.78076172 9.40942383 C-13.39406087 3.32567216 -7.67160073 -0.16972568 0 0 Z M-3.4296875 19.2109375 C-8.60216146 25.7106878 -13.50670786 32.3614641 -18.33569336 39.11889648 C-22.63728266 45.12213213 -27.06934082 51.01407586 -31.5625 56.875 C-36.6514779 63.51437901 -41.68303588 70.18793078 -46.625 76.9375 C-51.55053676 83.66257637 -56.55924163 90.31744034 -61.625 96.9375 C-66.96905593 103.93478584 -72.29892066 110.94189465 -77.5625 118 C-78.15998047 118.79148437 -78.75746094 119.58296875 -79.37304688 120.3984375 C-80.19192383 121.50251953 -80.19192383 121.50251953 -81.02734375 122.62890625 C-81.50679443 123.27029541 -81.98624512 123.91168457 -82.48022461 124.57250977 C-83.68064048 126.5281457 -84.19527468 128.19503604 -84.625 130.4375 C-81.75133843 132.52268434 -78.87583111 134.6053091 -76 136.6875 C-75.19175781 137.27402344 -74.38351563 137.86054688 -73.55078125 138.46484375 C-69.29535773 141.54397134 -65.0216518 144.56331339 -60.625 147.4375 C-57.31688988 146.043062 -55.67327778 144.55470771 -53.59375 141.6484375 C-52.7584375 140.49601562 -52.7584375 140.49601562 -51.90625 139.3203125 C-51.3184375 138.49273437 -50.730625 137.66515625 -50.125 136.8125 C-48.86524266 135.06983569 -47.60481569 133.32765527 -46.34375 131.5859375 C-45.40208984 130.27834473 -45.40208984 130.27834473 -44.44140625 128.94433594 C-41.87959501 125.40876096 -39.25675045 121.92114398 -36.625 118.4375 C-32.33313293 112.73856873 -28.09475058 107.0024851 -23.875 101.25 C-18.86344355 94.42314643 -13.77153739 87.66310975 -8.625 80.9375 C-1.16946827 71.19224096 6.12811704 61.3384755 13.375 51.4375 C14.48024103 49.93082251 15.58570579 48.42430911 16.69140625 46.91796875 C19.25442512 43.42581062 21.81538706 39.93215521 24.375 36.4375 C22.98739278 33.13605879 21.54393297 31.54045235 18.6015625 29.52734375 C17.8590625 29.01236328 17.1165625 28.49738281 16.3515625 27.96679688 C15.57554687 27.44150391 14.79953125 26.91621094 14 26.375 C12.47111225 25.32196573 10.94245888 24.26859108 9.4140625 23.21484375 C8.73553223 22.75327881 8.05700195 22.29171387 7.35791016 21.81616211 C5.375 20.4375 5.375 20.4375 3.31005859 18.76391602 C0.46660589 16.81482713 -0.95090324 16.77507591 -3.4296875 19.2109375 Z M237.828125 19.88671875 C237.1475 20.40556641 236.466875 20.92441406 235.765625 21.45898438 C235.05921875 22.00876953 234.3528125 22.55855469 233.625 23.125 C232.23495914 24.19216756 230.84433861 25.2585805 229.453125 26.32421875 C228.77701172 26.84419434 228.10089844 27.36416992 227.40429688 27.89990234 C224.44029494 30.14572575 221.41352061 32.29383166 218.375 34.4375 C219.67548376 38.05392461 221.21988901 40.82420534 223.578125 43.8515625 C224.22136719 44.68494141 224.86460937 45.51832031 225.52734375 46.37695312 C226.21957031 47.26318359 226.91179687 48.14941406 227.625 49.0625 C229.08983108 50.95994277 230.55334845 52.85840037 232.015625 54.7578125 C232.75103516 55.71204102 233.48644531 56.66626953 234.24414062 57.64941406 C237.34365234 61.70491633 240.36345447 65.81648363 243.375 69.9375 C248.29984116 76.66304781 253.3084987 83.31804811 258.375 89.9375 C264.02184708 97.31518144 269.57739774 104.75122637 275.06616211 112.24707031 C280.27377711 119.34113623 285.60221387 126.34034928 290.95898438 133.32226562 C294.51963341 137.96958273 298.00452288 142.65025802 301.375 147.4375 C304.71609924 146.81714421 306.83620955 145.60593223 309.5625 143.6015625 C310.34367187 143.03179687 311.12484375 142.46203125 311.9296875 141.875 C312.73664063 141.276875 313.54359375 140.67875 314.375 140.0625 C315.18195313 139.47210938 315.98890625 138.88171875 316.8203125 138.2734375 C320.35523383 135.68349514 323.87162996 133.06994799 327.375 130.4375 C326.75985225 126.95820861 325.43102284 124.89030643 323.26953125 122.12109375 C322.62290527 121.28433105 321.9762793 120.44756836 321.31005859 119.58544922 C320.60961426 118.69100098 319.90916992 117.79655273 319.1875 116.875 C317.71619663 114.97101836 316.24616851 113.06605066 314.77734375 111.16015625 C314.03597168 110.19996582 313.29459961 109.23977539 312.53076172 108.25048828 C309.38342107 104.14361863 306.30961544 99.98494166 303.25 95.8125 C302.67983154 95.03624268 302.10966309 94.25998535 301.5222168 93.46020508 C299.23444334 90.34304495 296.9503179 87.22321987 294.66601562 84.10351562 C287.3290174 74.08939148 279.9013287 64.15483988 272.35400391 54.2980957 C267.79298146 48.33065644 263.31315177 42.30924067 258.875 36.25 C253.33875369 28.70684456 253.33875369 28.70684456 247.6875 21.25 C247.10613281 20.49332031 246.52476562 19.73664063 245.92578125 18.95703125 C242.91316482 16.00512246 240.66829416 17.69432721 237.828125 19.88671875 Z M30.375 56.4375 C22.04338687 67.3064532 13.76627396 78.20759662 5.67626953 89.2578125 C1.23244677 95.31219047 -3.30762997 101.28844214 -7.875 107.25 C-12.84333204 113.73725596 -17.75813514 120.24734271 -22.43554688 126.94848633 C-25.04340499 130.68220641 -27.8198404 134.20226928 -30.859375 137.59375 C-31.88592402 139.56082206 -31.88592402 139.56082206 -30.96875 142.26953125 C-24.37920396 157.80476914 -13.49553816 171.66308228 -2.625 184.4375 C2.41182719 182.94006489 7.04936323 180.7956787 11.7890625 178.55859375 C19.56133844 175.1890421 28.20853961 175.40652009 36.1875 178.0625 C44.43478139 181.48007848 48.55553161 185.83221579 52.33203125 193.875 C53.47874144 196.69238534 54.44492256 199.54205531 55.375 202.4375 C56.24640625 202.44007813 57.1178125 202.44265625 58.015625 202.4453125 C67.93931743 202.76751031 75.96917809 204.6857633 83.5703125 211.3671875 C88.84254395 217.03649077 91.05534784 223.12167396 93.375 230.4375 C94.40947266 230.56705078 94.40947266 230.56705078 95.46484375 230.69921875 C101.57110461 231.6122262 106.24373739 233.06022886 111.5 236.31640625 C113.48193813 237.59283129 113.48193813 237.59283129 116.375 238.4375 C117.40234375 240.22265625 117.40234375 240.22265625 118.375 242.4375 C119.65782773 244.67145857 120.95132782 246.89859346 122.25390625 249.12109375 C126.68405083 258.27466774 124.00823857 268.1741429 121.375 277.4375 C135.20421084 283.82544014 154.44004589 289.35639985 169.4765625 285.1640625 C173.69334675 283.55023149 176.55922665 281.49011077 179.3125 277.9375 C180.5546244 275.56912207 180.5546244 275.56912207 180.17260742 273.36791992 C179.90939697 272.73088135 179.64618652 272.09384277 179.375 271.4375 C176.4523682 270.34189885 173.69928286 269.51276275 170.6875 268.75 C162.63723874 266.53320792 154.91345244 263.85641978 147.1875 260.6875 C146.22561768 260.29860596 145.26373535 259.90971191 144.27270508 259.5090332 C137.50402929 256.69555858 137.50402929 256.69555858 136.375 254.4375 C135.91474262 247.18844625 135.91474262 247.18844625 137.5625 244.5 C139.93842763 243.10721484 141.61355825 242.70905452 144.375 242.4375 C146.79910879 243.16797264 148.99153504 243.96269472 151.3125 244.9375 C164.91924137 250.31059848 178.77858777 254.93221601 193.125 257.875 C194.3020752 258.12080811 194.3020752 258.12080811 195.50292969 258.37158203 C204.12764853 260.01464788 213.41705011 260.77405013 221.375 256.4375 C225.11496281 253.1940633 228.21634367 249.30385658 229.375 244.4375 C229.51754038 241.42887977 229.49299891 238.44647214 229.375 235.4375 C225.78643685 234.19944571 222.17796904 233.07815255 218.53125 232.02734375 C208.23684169 229.04138901 198.06379557 225.80186362 188.0625 221.9375 C187.12019531 221.59452881 186.17789063 221.25155762 185.20703125 220.89819336 C178.78219013 218.32503973 178.78219013 218.32503973 176.72265625 213.8359375 C176.35587744 210.25057163 176.55998176 208.52303101 178.375 205.4375 C182.47419524 203.38790238 186.82677033 204.0012186 191.09716797 205.20458984 C194.19298654 206.28846167 197.25323059 207.44194589 200.3125 208.625 C202.54295067 209.45667414 204.77472962 210.28479455 207.0078125 211.109375 C208.63638184 211.71168945 208.63638184 211.71168945 210.29785156 212.32617188 C225.53802369 217.83023912 244.51500474 224.56123033 260.4375 218.4765625 C265.91132807 215.54100148 268.48550279 210.10599163 270.375 204.4375 C271.12277051 198.56216024 269.66264297 194.24179201 266.375 189.4375 C264.32862763 186.80863962 262.73244816 184.7869689 259.41577148 183.93310547 C257.08693895 183.67230111 254.77865579 183.53764892 252.4375 183.4375 C230.22935437 181.74710509 213.24138566 169.9419773 196.375 156.4375 C193.98241524 154.53754262 191.58599175 152.6424937 189.1875 150.75 C188.62442139 150.30527344 188.06134277 149.86054688 187.48120117 149.40234375 C163.73471722 130.75244935 142.16221373 119.36022639 111.375 121.4375 C100.98116652 122.68933525 91.20762949 126.47104628 81.41357422 129.99243164 C69.02298152 134.41314105 57.30840512 136.37129575 44.85546875 130.84765625 C35.12486434 125.31576933 28.88799283 116.97647849 25.375 106.4375 C24.95300321 100.95154179 25.77042134 97.28740509 28.375 92.4375 C31.74609503 88.60868371 34.66235685 86.55807484 39.3984375 84.7109375 C40.57446533 84.24139648 41.75049316 83.77185547 42.9621582 83.28808594 C43.58063629 83.04731323 44.19911438 82.80654053 44.83633423 82.55847168 C48.09148401 81.28957217 51.32919984 79.97794224 54.56640625 78.6640625 C55.2204393 78.39916016 55.87447235 78.13425781 56.54832458 77.86132812 C66.36736329 73.84912196 75.87716528 69.15060562 85.375 64.4375 C85.375 64.1075 85.375 63.7775 85.375 63.4375 C84.74746826 63.42291748 84.11993652 63.40833496 83.47338867 63.39331055 C72.63083226 63.11382758 61.84865804 62.78616362 51.125 61.0625 C50.4136792 60.94865967 49.7023584 60.83481934 48.96948242 60.7175293 C42.69169531 59.62874035 36.54053893 58.03149837 30.375 56.4375 Z M205.32739258 57.75878906 C191.47322868 61.45149605 178.30513686 62.54616973 164 62.4375 C137.6971046 62.25178526 114.62263101 66.60421488 91.3203125 79.1328125 C89.46363551 80.13038302 87.60686147 81.12777292 85.75 82.125 C84.80850098 82.63297119 83.86700195 83.14094238 82.89697266 83.66430664 C73.24289639 88.74644181 63.18566473 92.65998546 52.96240234 96.4284668 C51.7295752 96.89551025 50.49674805 97.36255371 49.2265625 97.84375 C47.56874756 98.45186523 47.56874756 98.45186523 45.87744141 99.07226562 C43.26102387 100.18599524 43.26102387 100.18599524 42.41162109 102.41601562 C42.34839779 105.90594226 44.25845946 107.77825676 46.375 110.4375 C50.48057336 114.4335914 54.63207561 117.68511616 60.5 117.9375 C68.04682178 117.79343439 74.99911589 114.74369529 82.03027344 112.25439453 C110.18110529 102.4467432 138.17420342 101.30264126 165.37060547 114.3984375 C176.24841392 119.87849526 185.83606922 126.9180616 195.375 134.4375 C195.97554199 134.90978027 196.57608398 135.38206055 197.19482422 135.86865234 C198.36698263 136.79118143 199.53870117 137.71426971 200.70996094 138.63793945 C203.59311684 140.9111343 206.48169887 143.17723417 209.375 145.4375 C209.97135254 145.90575195 210.56770508 146.37400391 211.18212891 146.85644531 C224.7678325 157.44917833 240.40777249 167.96304962 258.375 167.4375 C258.63152344 166.72207031 258.88804687 166.00664062 259.15234375 165.26953125 C262.46733121 156.64163459 266.9502707 149.84454689 272.375 142.4375 C273.365 140.9525 273.365 140.9525 274.375 139.4375 C274.02421387 138.96143311 273.67342773 138.48536621 273.31201172 137.99487305 C272.24460115 136.54624441 271.17722141 135.09759306 270.10986328 133.64892578 C268.85064438 131.94010391 267.59119757 130.23144995 266.33154297 128.52294922 C263.17937056 124.24695203 260.02989484 119.96907466 256.890625 115.68359375 C250.14416188 106.48325288 243.29796499 97.36805583 236.36279297 88.30908203 C231.12366941 81.45340219 225.98188765 74.53053885 220.890625 67.56445312 C216.79783834 61.86932663 216.79783834 61.86932663 212.375 56.4375 C209.89060361 56.4375 207.71221234 57.11537728 205.32739258 57.75878906 Z M-1.6796875 205.5859375 C-3.21949897 208.60193187 -3.01078256 211.03644509 -2.33984375 214.296875 C-0.3235146 220.33484425 3.7162621 224.60813105 9.375 227.4375 C12.50550285 228.04481755 15.25825557 228.16615868 18.375 227.4375 C20.15510166 225.69806056 21.30869037 223.84458735 22.63671875 221.7421875 C26.63713444 216.43826558 32.90325674 213.08532884 38.375 209.4375 C38.92892797 204.68954597 38.86760517 202.4044657 36.6875 198.125 C33.15560185 194.02036161 30.92377764 192.71678777 25.5625 191.75 C16.41057933 192.05762759 4.26994754 198.76410466 -1.6796875 205.5859375 Z M34.375 232.4375 C32.59821924 235.99106151 32.75575494 239.56571533 33.375 243.4375 C35.89593013 249.27936023 39.44711634 253.41870669 45.375 255.84375 C50.3984315 257.33508123 54.01416181 256.86382421 58.625 254.5625 C65.54384769 250.39451946 74.12725343 244.52938764 76.375 236.4375 C76.80054048 231.41966852 75.83206924 227.45340857 72.6875 223.5 C69.87432458 220.58563122 67.40924123 219.22680807 63.375 218.4375 C53.03470713 218.4375 41.87013838 225.66769759 34.375 232.4375 Z M85.24609375 253.78125 C82.09760774 258.25091699 77.68736386 261.09413559 73.30078125 264.2734375 C71.09521869 265.90478818 69.21315793 267.42397011 67.375 269.4375 C69.75808202 275.32511439 73.68045303 279.59022652 79.375 282.4375 C85.97015766 283.56038245 90.44658652 281.91122293 95.94140625 278.28515625 C101.36309211 274.16885222 106.30421117 270.09732337 108.375 263.4375 C108.27150368 256.91723168 107.0303527 253.98458868 102.375 249.4375 C98.79136688 247.31687587 95.72495222 246.70813223 91.5859375 246.80859375 C87.92009673 247.85135058 87.0261547 250.59428536 85.24609375 253.78125 Z " fill="#000000" transform="translate(134.625,193.5625)"/>
<path d="M0 0 C1.01320313 0.44472656 2.02640625 0.88945312 3.0703125 1.34765625 C9.75581679 4.4893406 15.37160725 8.24592068 21 13 C21.59167969 13.44730469 22.18335938 13.89460938 22.79296875 14.35546875 C30.54423267 20.40393785 36.62594339 29.25188678 41 38 C41 38.66 41 39.32 41 40 C41.88937508 39.99723462 42.77875015 39.99446924 43.69507599 39.99162006 C65.3453135 39.92533878 86.99553349 39.87570895 108.64585114 39.84456348 C119.11582587 39.82910106 129.58573283 39.80802343 140.05566406 39.77368164 C149.18229579 39.74376022 158.30887843 39.72442045 167.43555784 39.71773452 C172.26712337 39.71382692 177.09854848 39.70465644 181.93006897 39.68280983 C186.48052726 39.66240139 191.03078768 39.65617502 195.58128738 39.66067696 C197.24854738 39.65985371 198.91581419 39.65391405 200.58303452 39.64238358 C211.22593046 39.57240684 220.2269231 39.61120919 228.4609375 47.28125 C233.796812 53.24009462 235.23498292 60.13742461 235 68 C233.95122768 73.37237712 232.38396797 78.53144521 230.75 83.75 C230.33553512 85.13360515 229.92276397 86.51771883 229.51171875 87.90234375 C224.56140797 104.34656989 224.56140797 104.34656989 221.20214844 107.90380859 C216.34824679 110.31999689 210.5570088 109.59797857 205.25 109.625 C203.99960937 109.67011719 202.74921875 109.71523437 201.4609375 109.76171875 C195.51405999 109.80572313 191.11706436 109.83604571 186.484375 105.83203125 C185.29517384 104.58047497 184.13181329 103.3036837 183 102 C181.94423757 100.96314675 180.88214575 99.93268104 179.8125 98.91015625 C178.87234762 97.96356447 177.9347809 97.01439661 177 96.0625 C176.51144531 95.56943359 176.02289063 95.07636719 175.51953125 94.56835938 C174.34396475 93.38126771 173.17161174 92.19099502 172 91 C168.86594332 92.38596867 166.78165818 93.99071156 164.3984375 96.44140625 C163.74359375 97.10720703 163.08875 97.77300781 162.4140625 98.45898438 C161.74117188 99.15314453 161.06828125 99.84730469 160.375 100.5625 C159.03088131 101.94098537 157.68462847 103.31739401 156.3359375 104.69140625 C155.74345215 105.30185791 155.1509668 105.91230957 154.54052734 106.54125977 C150.65292461 110.22246838 145.60370139 109.51374946 140.53515625 109.45703125 C134.90376212 108.72899466 132.63423724 106.11927083 129 102 C127.52506145 100.51011101 126.02980918 99.04233039 124.53393555 97.57348633 C122.33259161 95.40507671 120.16691611 93.20276582 118 91 C114.86594332 92.38596867 112.78165818 93.99071156 110.3984375 96.44140625 C109.74359375 97.10720703 109.08875 97.77300781 108.4140625 98.45898438 C107.74117187 99.15314453 107.06828125 99.84730469 106.375 100.5625 C105.03088131 101.94098537 103.68462847 103.31739401 102.3359375 104.69140625 C101.74345215 105.30185791 101.1509668 105.91230957 100.54052734 106.54125977 C97.6548141 109.27376953 95.49311236 109.12218187 91.63232422 109.11352539 C90.51131317 109.11344986 89.39030212 109.11337433 88.23532104 109.11329651 C87.02071198 109.10813522 85.80610291 109.10297394 84.5546875 109.09765625 C83.31453888 109.0962413 82.07439026 109.09482635 80.79666138 109.09336853 C77.49881867 109.08871096 74.20102454 109.07972439 70.90319824 109.06866455 C67.53833613 109.05843731 64.17346692 109.05386809 60.80859375 109.04882812 C54.20571007 109.03778269 47.60285901 109.02103247 41 109 C40.69908447 109.94004883 40.39816895 110.88009766 40.08813477 111.84863281 C35.13982802 126.17951535 20.68561059 138.63106277 7.8359375 145.75390625 C-13.58059656 156.14952315 -36.0166433 157.88299449 -58.59350586 150.09228516 C-68.68186767 146.4072436 -76.95122156 141.05277576 -85 134 C-85.68835938 133.40703125 -86.37671875 132.8140625 -87.0859375 132.203125 C-102.19520395 118.22854654 -109.86526031 97.70315425 -110.92749023 77.50048828 C-111.63690978 56.09369366 -103.94265448 35.84944435 -89.80859375 19.84375 C-77.26289463 7.14101153 -61.76618117 -1.99223906 -44 -5 C-42.79150391 -5.22816406 -42.79150391 -5.22816406 -41.55859375 -5.4609375 C-28.1727597 -7.34626624 -12.33166171 -5.45095191 0 0 Z M-69 25 C-69.78117187 25.61875 -70.56234375 26.2375 -71.3671875 26.875 C-83.35615145 36.88598674 -91.76877904 51.69265639 -93.21899414 67.36694336 C-94.09913249 85.3904863 -90.88146727 101.23029356 -78.6875 115.1875 C-77.14439501 116.81033208 -75.58215138 118.4152117 -74 120 C-73.2884375 120.72316406 -72.576875 121.44632812 -71.84375 122.19140625 C-60.03606193 133.46432583 -44.20663691 138.39581469 -28.09375 138.21875 C-13.9089785 137.21578636 -2.19628501 132.51933729 9 124 C10.010625 123.278125 11.02125 122.55625 12.0625 121.8125 C19.57584968 115.29951132 24.69293338 106.35083264 28.7109375 97.3984375 C30 95 30 95 33 93 C35.38339233 92.86283875 35.38339233 92.86283875 38.23974609 93.0144043 C39.85036171 93.08500313 39.85036171 93.08500313 41.49351501 93.1570282 C42.65838943 93.21220108 43.82326385 93.26737396 45.0234375 93.32421875 C74.10927354 95.98271589 74.10927354 95.98271589 99.96801758 85.90861511 C103.82425665 82.07861311 107.01684377 77.70963758 109.74975586 73.02539062 C111 71 111 71 113 70 C116.27023334 69.47676266 118.78954883 69.26764941 121.7109375 71.03515625 C123.92390839 72.92439559 125.95091445 74.93194143 128 77 C129.2805824 78.26890327 130.56189913 79.53706566 131.84375 80.8046875 C135.58353117 84.51577583 139.29812525 88.25112879 143 92 C146.55038072 90.49287699 148.79113387 88.42833908 151.4765625 85.68359375 C152.311875 84.83732422 153.1471875 83.99105469 154.0078125 83.11914062 C154.87148438 82.23419922 155.73515625 81.34925781 156.625 80.4375 C158.34414185 78.68402618 160.06539013 76.93261425 161.7890625 75.18359375 C162.54912598 74.40556396 163.30918945 73.62753418 164.09228516 72.82592773 C166.56664755 70.45764563 167.70137516 70.04777998 171.125 69.5 C178.12483676 70.40320474 181.87904235 75.74034359 186.421875 80.8046875 C187.05029297 81.48200928 187.67871094 82.15933105 188.32617188 82.85717773 C189.5853132 84.21874413 190.81742043 85.60594321 192.01757812 87.01977539 C194.95204977 90.1722748 196.79820276 91.83333146 201.15820312 92.43798828 C204.1397569 92.44105212 207.03611783 92.31281322 210 92 C211.18545451 88.33914352 212.34487612 84.67052879 213.5 81 C213.83386719 79.97003906 214.16773438 78.94007812 214.51171875 77.87890625 C217.11409675 69.57561929 217.11409675 69.57561929 217 61 C214.24692096 58.08972681 212.57566489 57.08324203 208.5848074 56.50615788 C207.26722974 56.5089648 205.94965208 56.51177172 204.59214783 56.5146637 C203.85565854 56.51069027 203.11916926 56.50671685 202.36036211 56.50262302 C199.8973364 56.49404492 197.43536255 56.51384885 194.97241211 56.53344727 C193.20478676 56.53289846 191.43716117 56.53052333 189.66954041 56.52645874 C185.86570164 56.5212833 182.06215109 56.52835148 178.25834465 56.54471016 C172.24567574 56.56980878 166.233292 56.56355044 160.22059631 56.55223083 C145.28849143 56.52902196 130.3564688 56.54748439 115.42437744 56.57373047 C103.81582075 56.59366019 92.20749114 56.60228823 80.59893423 56.57679409 C74.61950373 56.56495943 68.64071937 56.57667476 62.66135585 56.6060468 C58.94522496 56.61928125 55.22934603 56.61189835 51.51322365 56.59876633 C49.78783777 56.59690632 48.06241829 56.60365614 46.3371048 56.61956978 C43.98433608 56.64008927 41.63361432 56.63003419 39.28086853 56.61231995 C37.30506758 56.61596479 37.30506758 56.61596479 35.28935146 56.61968327 C32 56 32 56 29.62233829 53.60919094 C28.12191568 51.19607581 26.85123124 48.83983099 25.6875 46.25 C18.08799869 30.60943614 4.75244365 19.81766941 -11.484375 14.0078125 C-31.58549981 8.24549006 -52.61547591 11.67021769 -69 25 Z " fill="#000000" transform="translate(194,21)"/>
<path d="M0 0 C6.47165754 5.29304441 10.88722093 12.0154579 12.484375 20.3046875 C13.29747749 30.2339198 11.64840624 38.3277059 5.484375 46.3046875 C-0.27349211 52.66864589 -6.36785815 56.81278978 -15.03125 57.640625 C-25.6652462 57.75185927 -34.02410148 56.44240758 -41.984375 49.0078125 C-48.98717548 41.2189834 -51.00926268 33.18444046 -50.82421875 22.84375 C-50.04899028 13.95315511 -46.04762377 7.2658002 -39.515625 1.3046875 C-27.64195088 -7.88104858 -12.49593348 -8.42117256 0 0 Z M-30.828125 16.8671875 C-33.92720724 21.34363963 -34.15777242 24.94139992 -33.515625 30.3046875 C-31.1525386 35.12174823 -28.33268573 37.9416011 -23.515625 40.3046875 C-18.85838255 41.12409461 -15.48821304 40.76345544 -11.203125 38.7421875 C-6.97332386 34.90585624 -4.8789273 31.52486823 -3.953125 25.8671875 C-4.69862468 21.14568951 -6.41757525 17.92451405 -9.515625 14.3046875 C-16.88119418 9.18081329 -24.85813485 10.25179301 -30.828125 16.8671875 Z " fill="#000000" transform="translate(174.515625,69.6953125)"/>
</svg>
