<?xml version="1.0" encoding="UTF-8"?>
<svg version="1.1" xmlns="http://www.w3.org/2000/svg" width="512" height="512">
<path d="M0 0 C1.61207785 -0.01064158 1.61207785 -0.01064158 3.25672293 -0.02149814 C6.86442222 -0.03912546 10.47105095 -0.02094796 14.07873535 -0.00291443 C16.66246533 -0.00805139 19.24619181 -0.01533097 21.82991028 -0.02459717 C28.12293792 -0.04297951 34.41565514 -0.03445771 40.70867312 -0.01650894 C45.82295017 -0.00248512 50.93714294 0.00141034 56.05143738 -0.00195122 C56.77923632 -0.00242866 57.50703526 -0.0029061 58.25688872 -0.00339801 C59.73538341 -0.00442434 61.21387809 -0.0054797 62.69237274 -0.00656378 C75.76702318 -0.01513203 88.84152373 0.00154816 101.9161377 0.03126526 C114.60402727 0.06010301 127.2917009 0.0671864 139.97961426 0.05177307 C153.79481545 0.0350133 167.60991411 0.03097439 181.42511797 0.04848343 C182.89818349 0.05032783 184.37124903 0.05216255 185.84431458 0.0539875 C186.56909708 0.05489959 187.29387958 0.05581168 188.04062518 0.05675141 C193.14894247 0.06235821 198.25720972 0.0590483 203.36552429 0.05244255 C210.24054711 0.04390519 217.11525291 0.05686183 223.99022484 0.08429146 C226.51660931 0.09119061 229.04302282 0.09125699 231.56940651 0.08407593 C235.01187221 0.07541698 238.45336758 0.09127847 241.89575195 0.11352539 C243.40376885 0.10116424 243.40376885 0.10116424 244.94225073 0.08855337 C249.26350065 0.14027555 251.77247542 0.22590118 255.54488373 2.47285557 C258.28862614 5.58042471 258.57459901 8.10276862 258.60900879 12.09620667 C258.61861633 12.99756851 258.62822388 13.89893036 258.63812256 14.8276062 C258.64449738 16.2854377 258.64449738 16.2854377 258.65100098 17.77272034 C258.65670105 18.77526352 258.66240112 19.7778067 258.66827393 20.81072998 C258.67772258 22.93322189 258.68425737 25.05572847 258.68811035 27.17823792 C258.69780709 30.41767635 258.72882846 33.65647793 258.76037598 36.89576721 C258.76690711 38.95891449 258.77215715 41.0220663 258.77600098 43.08522034 C258.78834778 44.05103531 258.80069458 45.01685028 258.81341553 46.01193237 C258.79611264 51.26327026 258.54792938 55.16301974 255.44787598 59.62818909 C251.81626138 61.24224002 249.59581378 61.88908404 245.69787598 61.00318909 C243.03395646 59.37523827 241.98834966 58.36134919 240.44787598 55.62818909 C240.19099608 52.72388107 240.09800306 50.04228077 240.15490723 47.14381409 C240.15915207 46.32822021 240.16339691 45.51262634 240.16777039 44.6723175 C240.18452882 42.07393525 240.222175 39.4763359 240.26037598 36.87818909 C240.27542652 35.11387739 240.28911428 33.34955351 240.3013916 31.58522034 C240.33186822 27.26566752 240.39059231 22.94780195 240.44787598 18.62818909 C229.55787598 18.62818909 218.66787598 18.62818909 207.44787598 18.62818909 C207.44787598 35.12818909 207.44787598 51.62818909 207.44787598 68.62818909 C213.38787598 68.62818909 219.32787598 68.62818909 225.44787598 68.62818909 C230.44787598 71.62818909 230.44787598 71.62818909 232.44787598 73.62818909 C233.23444784 80.48260102 233.23444784 80.48260102 230.56506348 84.37037659 C226.10882378 87.59807902 222.48574493 87.18646575 217.13537598 86.94068909 C216.20402832 86.91813049 215.27268066 86.8955719 214.31311035 86.87232971 C212.02303637 86.81360987 209.73629723 86.73155766 207.44787598 86.62818909 C207.48268066 87.85795471 207.51748535 89.08772034 207.55334473 90.35475159 C207.58149643 91.98755036 207.6087951 93.62036399 207.63537598 95.25318909 C207.6605127 96.06143127 207.68564941 96.86967346 207.71154785 97.70240784 C207.77339926 102.77422296 207.30470266 106.24726587 204.44787598 110.62818909 C201.51878347 112.44897632 199.82945199 112.64376362 196.38537598 112.50318909 C192.74151204 111.41778281 191.64066691 110.76074757 189.44787598 107.62818909 C188.94861602 104.03122196 189.07342062 100.50061085 189.19787598 96.87818909 C189.28037598 93.49568909 189.36287598 90.11318909 189.44787598 86.62818909 C178.22787598 86.62818909 167.00787598 86.62818909 155.44787598 86.62818909 C155.77787598 103.12818909 156.10787598 119.62818909 156.44787598 136.62818909 C158.42787598 137.61818909 160.40787598 138.60818909 162.44787598 139.62818909 C164.62009976 142.27263543 164.44680918 143.65805927 164.32287598 147.12818909 C163.37118587 150.93494951 162.61506468 152.36591144 159.44787598 154.62818909 C158.12787598 154.62818909 156.80787598 154.62818909 155.44787598 154.62818909 C155.38600098 155.55631409 155.32412598 156.48443909 155.26037598 157.44068909 C154.44787598 160.62818909 154.44787598 160.62818909 152.38537598 162.56568909 C148.17406013 164.08893099 145.81667716 163.68515711 141.44787598 162.62818909 C139.08498679 160.34152213 138.49173408 158.75976341 137.44787598 155.62818909 C126.55787598 155.29818909 115.66787598 154.96818909 104.44787598 154.62818909 C104.50588379 158.54049377 104.5638916 162.45279846 104.62365723 166.48365784 C104.66265171 170.27310662 104.69301149 174.06253304 104.72253418 177.85206604 C104.74767755 180.48563136 104.78179682 183.1191269 104.82507324 185.75245667 C104.88572808 189.53803217 104.91408868 193.32268506 104.93615723 197.10865784 C104.96196365 198.28590927 104.98777008 199.46316071 105.01435852 200.67608643 C105.01716143 208.8458294 105.01716143 208.8458294 102.1048584 212.84815979 C99.44787598 214.62818909 99.44787598 214.62818909 96.44787598 215.62818909 C95.99412598 216.59756409 95.54037598 217.56693909 95.07287598 218.56568909 C93.44787598 221.62818909 93.44787598 221.62818909 91.35534668 222.80738831 C87.64355303 223.85525548 84.12451961 223.87682091 80.30334473 223.82350159 C79.14866447 223.81925674 79.14866447 223.81925674 77.97065735 223.81492615 C75.52540173 223.80378066 73.08051986 223.7786869 70.63537598 223.75318909 C68.97196983 223.74315199 67.30855791 223.73402741 65.6451416 223.72584534 C61.5792436 223.70385982 57.51362304 223.66936923 53.44787598 223.62818909 C53.45834961 224.6977887 53.46882324 225.76738831 53.47961426 226.86940002 C53.51585004 230.84267319 53.53878948 234.81593178 53.55773926 238.7893219 C53.56778868 240.5080969 53.58143042 242.22685484 53.59875488 243.9455719 C53.62304988 246.4179455 53.63436965 248.89009278 53.64318848 251.36256409 C53.65867233 252.51278046 53.65867233 252.51278046 53.67446899 253.68623352 C53.67591428 260.57909969 53.67591428 260.57909969 51.44787598 263.62818909 C47.78005926 266.07340023 44.71334365 266.35056668 40.44787598 265.62818909 C38.01667975 263.75803814 36.80718425 262.34680564 35.44787598 259.62818909 C35.3611206 256.92925727 35.332297 254.25649678 35.35021973 251.55787659 C35.35163467 250.76164886 35.35304962 249.96542114 35.35450745 249.14506531 C35.36011253 246.59773529 35.37266584 244.05049262 35.38537598 241.50318909 C35.39039032 239.77792994 35.39495334 238.05266941 35.39904785 236.32740784 C35.40923345 232.09427405 35.42880778 227.86132955 35.44787598 223.62818909 C24.55787598 223.62818909 13.66787598 223.62818909 2.44787598 223.62818909 C2.44787598 240.12818909 2.44787598 256.62818909 2.44787598 273.62818909 C6.07787598 273.62818909 9.70787598 273.62818909 13.44787598 273.62818909 C16.57287598 275.19068909 16.57287598 275.19068909 18.44787598 277.62818909 C19.59676115 281.57748188 19.87916994 283.65777768 18.19787598 287.44068909 C16.44787598 289.62818909 16.44787598 289.62818909 13.44787598 291.62818909 C10.74865723 291.82350159 10.74865723 291.82350159 7.76037598 291.75318909 C6.76650879 291.73514221 5.7726416 291.71709534 4.74865723 291.69850159 C3.60977051 291.6636969 3.60977051 291.6636969 2.44787598 291.62818909 C2.48268066 292.85795471 2.51748535 294.08772034 2.55334473 295.35475159 C2.58149643 296.98755036 2.6087951 298.62036399 2.63537598 300.25318909 C2.6605127 301.06143127 2.68564941 301.86967346 2.71154785 302.70240784 C2.77310986 307.75049264 2.37402463 311.30959728 -0.55212402 315.62818909 C-4.18373862 317.24224002 -6.40418622 317.88908404 -10.30212402 317.00318909 C-12.86185824 315.43890707 -13.98064419 314.17586808 -15.55212402 311.62818909 C-15.93047285 309.17506748 -15.93047285 309.17506748 -15.93523407 306.37104893 C-15.94429071 305.30024918 -15.95334735 304.22944944 -15.96267843 303.12620121 C-15.95735051 301.950633 -15.95202258 300.77506478 -15.9465332 299.56387329 C-15.95262431 298.3144164 -15.95871541 297.06495951 -15.96499109 295.77764028 C-15.98142134 292.30738206 -15.97906651 288.83735055 -15.97361612 285.36706698 C-15.97094972 281.62532857 -15.98547034 277.88365112 -15.99771118 274.14193726 C-16.01878355 266.81079052 -16.02330502 259.47972283 -16.0215233 252.14854939 C-16.02021663 246.19091602 -16.02401491 240.23330735 -16.03144836 234.27567863 C-16.03354751 232.56081993 -16.03564511 230.84596121 -16.03774118 229.1311025 C-16.03878471 228.27762172 -16.03982824 227.42414095 -16.04090339 226.54479712 C-16.05981288 210.39701785 -16.05875333 194.24928399 -16.05193406 178.10149824 C-16.04635744 163.32257962 -16.0671878 148.5438343 -16.10029453 133.76495618 C-16.13401045 118.596634 -16.14920253 103.42839487 -16.1445775 88.2600345 C-16.14233076 79.74146919 -16.14760581 71.22306407 -16.17247009 62.70453072 C-16.19345613 55.45283685 -16.19710217 48.20139102 -16.1781705 40.94968707 C-16.16899598 37.24871172 -16.16792126 33.54819915 -16.18852615 29.84725952 C-16.21060305 25.8376398 -16.19406076 21.82911634 -16.17358398 17.81948853 C-16.18610183 16.64615103 -16.19861968 15.47281354 -16.21151686 14.26392037 C-16.15978849 9.56048798 -16.06862775 6.51389334 -13.67279053 2.40549469 C-9.10783129 -0.19437544 -5.17431391 -0.0609162 0 0 Z M2.44787598 18.62818909 C2.44787598 35.12818909 2.44787598 51.62818909 2.44787598 68.62818909 C13.33787598 68.62818909 24.22787598 68.62818909 35.44787598 68.62818909 C35.44787598 52.12818909 35.44787598 35.62818909 35.44787598 18.62818909 C24.55787598 18.62818909 13.66787598 18.62818909 2.44787598 18.62818909 Z M53.44787598 18.62818909 C53.44787598 35.12818909 53.44787598 51.62818909 53.44787598 68.62818909 C64.33787598 68.62818909 75.22787598 68.62818909 86.44787598 68.62818909 C86.44787598 52.12818909 86.44787598 35.62818909 86.44787598 18.62818909 C75.55787598 18.62818909 64.66787598 18.62818909 53.44787598 18.62818909 Z M104.44787598 18.62818909 C104.44787598 35.12818909 104.44787598 51.62818909 104.44787598 68.62818909 C115.33787598 68.62818909 126.22787598 68.62818909 137.44787598 68.62818909 C137.44787598 52.12818909 137.44787598 35.62818909 137.44787598 18.62818909 C126.55787598 18.62818909 115.66787598 18.62818909 104.44787598 18.62818909 Z M155.44787598 18.62818909 C155.44787598 35.12818909 155.44787598 51.62818909 155.44787598 68.62818909 C166.66787598 68.62818909 177.88787598 68.62818909 189.44787598 68.62818909 C189.44787598 52.12818909 189.44787598 35.62818909 189.44787598 18.62818909 C178.22787598 18.62818909 167.00787598 18.62818909 155.44787598 18.62818909 Z M2.44787598 86.62818909 C2.44787598 103.12818909 2.44787598 119.62818909 2.44787598 136.62818909 C13.33787598 136.62818909 24.22787598 136.62818909 35.44787598 136.62818909 C35.44787598 120.12818909 35.44787598 103.62818909 35.44787598 86.62818909 C24.55787598 86.62818909 13.66787598 86.62818909 2.44787598 86.62818909 Z M53.44787598 86.62818909 C53.44787598 103.12818909 53.44787598 119.62818909 53.44787598 136.62818909 C64.33787598 136.62818909 75.22787598 136.62818909 86.44787598 136.62818909 C86.44787598 120.12818909 86.44787598 103.62818909 86.44787598 86.62818909 C75.55787598 86.62818909 64.66787598 86.62818909 53.44787598 86.62818909 Z M104.44787598 86.62818909 C104.44787598 103.12818909 104.44787598 119.62818909 104.44787598 136.62818909 C115.33787598 136.62818909 126.22787598 136.62818909 137.44787598 136.62818909 C137.44787598 120.12818909 137.44787598 103.62818909 137.44787598 86.62818909 C126.55787598 86.62818909 115.66787598 86.62818909 104.44787598 86.62818909 Z M2.44787598 154.62818909 C2.44787598 171.45818909 2.44787598 188.28818909 2.44787598 205.62818909 C13.33787598 205.62818909 24.22787598 205.62818909 35.44787598 205.62818909 C35.44787598 188.79818909 35.44787598 171.96818909 35.44787598 154.62818909 C24.55787598 154.62818909 13.66787598 154.62818909 2.44787598 154.62818909 Z M53.44787598 154.62818909 C53.44787598 171.45818909 53.44787598 188.28818909 53.44787598 205.62818909 C64.33787598 205.62818909 75.22787598 205.62818909 86.44787598 205.62818909 C86.44787598 188.79818909 86.44787598 171.96818909 86.44787598 154.62818909 C75.55787598 154.62818909 64.66787598 154.62818909 53.44787598 154.62818909 Z " fill="#000000" transform="translate(83.5521240234375,84.37181091308594)"/>
<path d="M0 0 C1.18810776 -0.0127597 2.37621552 -0.02551941 3.60032654 -0.03866577 C5.52691856 -0.04200424 5.52691856 -0.04200424 7.49243164 -0.04541016 C8.8104628 -0.05206696 10.12849396 -0.05872375 11.48646545 -0.06558228 C14.27649206 -0.07755455 17.06639484 -0.08126313 19.85644531 -0.08007812 C23.42892895 -0.07987484 27.00061792 -0.10718579 30.57291317 -0.14162254 C33.98359834 -0.16922676 37.39413614 -0.16804031 40.80493164 -0.17041016 C42.08730209 -0.18478119 43.36967255 -0.19915222 44.69090271 -0.21395874 C45.88216263 -0.20780548 47.07342255 -0.20165222 48.30078125 -0.1953125 C49.34874374 -0.19816254 50.39670624 -0.20101257 51.47642517 -0.20394897 C54.21508789 0.29052734 54.21508789 0.29052734 56.56910706 1.89901733 C58.77076521 5.09789269 58.61888948 7.1954877 58.46508789 11.04052734 C58.42899414 12.21099609 58.39290039 13.38146484 58.35571289 14.58740234 C58.30930664 15.47943359 58.26290039 16.37146484 58.21508789 17.29052734 C59.00800232 17.2816449 59.80091675 17.27276245 60.61785889 17.26361084 C68.09237973 17.183444 75.56669197 17.12255273 83.04153061 17.08327866 C86.88440041 17.06240851 90.72691482 17.03410228 94.56958008 16.98876953 C98.27839904 16.94528989 101.98687631 16.92138592 105.69593048 16.91101837 C107.11055124 16.90363067 108.52515341 16.88920391 109.9396286 16.86760712 C111.92156212 16.83855119 113.90383989 16.83689326 115.88598633 16.83642578 C117.01405701 16.82754333 118.14212769 16.81866089 119.30438232 16.80950928 C122.88596525 17.40139535 124.02299081 18.4511793 126.21508789 21.29052734 C127.31420338 24.5878738 127.32903349 27.02011479 127.31274414 30.48974609 C127.30952148 31.69824219 127.30629883 32.90673828 127.30297852 34.15185547 C127.29459961 35.41449219 127.2862207 36.67712891 127.27758789 37.97802734 C127.27307617 39.25226562 127.26856445 40.52650391 127.26391602 41.83935547 C127.25211662 44.98979298 127.23565386 48.14013683 127.21508789 51.29052734 C127.99547424 51.2816449 128.7758606 51.27276245 129.57989502 51.26361084 C136.93668609 51.18344059 144.29326518 51.12255104 151.65037918 51.08327866 C155.43271784 51.06240939 159.21469536 51.03410486 162.99682617 50.98876953 C166.64729101 50.94528661 170.29740865 50.92138526 173.94811249 50.91101837 C175.34040543 50.90363125 176.73267952 50.88920559 178.12482452 50.86760712 C180.075622 50.83854693 182.02676935 50.83689322 183.9777832 50.83642578 C185.64324188 50.82310211 185.64324188 50.82310211 187.34234619 50.80950928 C190.87836718 51.40158826 192.01056933 52.52725725 194.21508789 55.29052734 C195.40897108 57.67829371 195.3543767 59.17895018 195.3762207 61.84448242 C195.38582825 62.789189 195.39543579 63.73389557 195.40533447 64.70722961 C195.41170929 66.24312996 195.41170929 66.24312996 195.41821289 67.81005859 C195.42391296 68.86078049 195.42961304 69.91150238 195.43548584 70.99406433 C195.44494441 73.22088613 195.45147321 75.44772198 195.45532227 77.67456055 C195.4650186 81.07869986 195.49603059 84.48223319 195.52758789 87.88623047 C195.53411875 90.04833625 195.5393689 92.21044636 195.54321289 94.37255859 C195.56173309 95.8993499 195.56173309 95.8993499 195.58062744 97.45698547 C195.55256308 106.37970926 195.55256308 106.37970926 192.21508789 110.29052734 C189.05712682 111.86950788 185.60838153 112.10980905 182.21508789 111.29052734 C179.62608723 109.30643564 177.54316196 107.69808897 176.77662659 104.40936279 C176.63712612 102.159755 176.65261006 99.96122005 176.72680664 97.70849609 C176.73388138 96.89431717 176.74095612 96.08013824 176.74824524 95.24128723 C176.77613191 92.65258092 176.83885473 90.06607461 176.90258789 87.47802734 C176.92767839 85.71829306 176.95049025 83.95852471 176.97094727 82.19873047 C177.02593917 77.89515438 177.11216797 73.59321324 177.21508789 69.29052734 C175.55992267 69.29467541 175.55992267 69.29467541 173.87131977 69.29890728 C147.03976187 69.36546383 120.20821466 69.41478461 93.37659168 69.44596386 C80.40109641 69.46144212 67.42565562 69.48255002 54.45019531 69.5168457 C43.14266842 69.54671863 31.83518098 69.56609536 20.52761573 69.57279283 C14.53864801 69.57670864 8.54979318 69.58593138 2.56086159 69.60771751 C-3.0738222 69.62804931 -8.70834637 69.6343678 -14.34306335 69.62985039 C-16.41310811 69.63067707 -18.48315808 69.63666229 -20.55317116 69.64814377 C-23.37611402 69.663036 -26.19845166 69.6594928 -29.02140808 69.65129089 C-30.2543926 69.66439868 -30.2543926 69.66439868 -31.51228589 69.67777127 C-36.12005401 69.64150377 -39.11528739 69.14746373 -42.78491211 66.29052734 C-44.88592806 63.61650705 -44.78338186 62.24768049 -44.65991211 58.79052734 C-43.67935346 54.86829276 -42.92876627 53.73566028 -39.78491211 51.29052734 C-36.96573257 50.79833603 -36.96573257 50.79833603 -33.64727783 50.80950928 C-32.38807022 50.80401062 -31.12886261 50.79851196 -29.83149719 50.79284668 C-28.43868637 50.80700236 -27.0458794 50.82154158 -25.65307617 50.83642578 C-24.18452485 50.83755423 -22.71597127 50.83692045 -21.24742126 50.83465576 C-17.26205041 50.83350757 -13.2771606 50.85703355 -9.29190159 50.88495159 C-5.12657163 50.90994786 -0.96123079 50.91230584 3.2041626 50.91705322 C11.09127172 50.92948824 18.97815921 50.96231689 26.86517072 51.00245118 C35.84450509 51.04715258 44.82385002 51.06915181 53.80326796 51.08923292 C72.27400376 51.13104913 90.74451989 51.20221657 109.21508789 51.29052734 C109.21508789 46.01052734 109.21508789 40.73052734 109.21508789 35.29052734 C107.39340088 35.30623779 105.57171387 35.32194824 103.69482422 35.33813477 C97.66787953 35.38656065 91.64099002 35.42100449 85.61391163 35.44596386 C81.96059591 35.46160267 78.30749118 35.48280783 74.65429688 35.5168457 C71.12703574 35.54950359 67.59997721 35.56739379 64.07257652 35.57515907 C62.07564481 35.58337868 60.07879431 35.60678795 58.08198547 35.63041687 C56.25065315 35.63075676 56.25065315 35.63075676 54.38232422 35.63110352 C53.30976883 35.63776535 52.23721344 35.64442719 51.13215637 35.65129089 C46.82219437 35.11826357 44.19560285 33.44009661 41.40258789 30.16552734 C40.21508789 27.29052734 40.21508789 27.29052734 40.21508789 18.29052734 C29.32508789 18.29052734 18.43508789 18.29052734 7.21508789 18.29052734 C7.21508789 21.92052734 7.21508789 25.55052734 7.21508789 29.29052734 C5.57341821 32.22208035 4.64876778 33.79580211 1.44708252 34.90061951 C-1.31797081 35.38364753 -3.93877124 35.40995201 -6.74682617 35.40405273 C-7.94776917 35.4039772 -9.14871216 35.40390167 -10.38604736 35.40382385 C-12.32371979 35.39608192 -12.32371979 35.39608192 -14.30053711 35.38818359 C-15.64003446 35.38631751 -16.97953249 35.3848945 -18.31903076 35.38389587 C-21.83713683 35.38008569 -25.35520132 35.37026825 -28.87329102 35.35919189 C-32.46622149 35.34894551 -36.05915872 35.34439135 -39.65209961 35.33935547 C-46.6963874 35.32864459 -53.74064704 35.31158622 -60.78491211 35.29052734 C-60.76920166 36.08225342 -60.75349121 36.87397949 -60.73730469 37.68969727 C-60.67484512 41.2857343 -60.63588576 44.88165705 -60.59741211 48.47802734 C-60.57227539 49.72390625 -60.54713867 50.96978516 -60.52124023 52.25341797 C-60.51157227 53.45546875 -60.5019043 54.65751953 -60.49194336 55.89599609 C-60.47623291 57.00096436 -60.46052246 58.10593262 -60.44433594 59.24438477 C-60.83406019 62.73011196 -61.63881037 64.53263684 -63.78491211 67.29052734 C-67.13138651 69.4666552 -69.89885319 69.53385817 -73.83862305 69.51757812 C-75.05958679 69.51742706 -76.28055054 69.517276 -77.53851318 69.51712036 C-78.85216858 69.50679779 -80.16582397 69.49647522 -81.51928711 69.48583984 C-82.88120313 69.48210776 -84.24312184 69.47926171 -85.6050415 69.4772644 C-89.18238797 69.46964329 -92.75957096 69.45000803 -96.33685303 69.42785645 C-99.99008981 69.40736513 -103.64335312 69.39825567 -107.29663086 69.38818359 C-114.45946564 69.36676056 -121.62216593 69.33264317 -128.78491211 69.29052734 C-128.78320337 70.42655952 -128.78320337 70.42655952 -128.78146011 71.58554184 C-128.71435465 116.45287314 -128.66286698 161.32019899 -128.63171612 206.1875704 C-128.62796391 211.5724754 -128.62408095 216.9573803 -128.62011719 222.34228516 C-128.61933026 223.414342 -128.61854332 224.48639884 -128.61773255 225.59094225 C-128.6046716 242.95922797 -128.58101397 260.32748396 -128.55345372 277.69575204 C-128.52541868 295.51155466 -128.50873988 313.32734169 -128.50264663 331.14316547 C-128.49852624 342.14024421 -128.48550307 353.13723893 -128.46116271 364.13429181 C-128.445329 371.67102863 -128.44050638 379.20772188 -128.44440798 386.74447413 C-128.44633321 391.09554763 -128.44334103 395.4464741 -128.42729568 399.79752159 C-128.41271642 403.78002396 -128.41194683 407.76228015 -128.42221542 411.74479376 C-128.4234849 413.18634949 -128.41966255 414.62792046 -128.41026256 416.0694461 C-128.39823181 418.02812942 -128.40650151 419.98690598 -128.41576862 421.94560432 C-128.41405988 423.57802202 -128.41405988 423.57802202 -128.41231662 425.24341786 C-128.84915912 428.81594344 -129.93527203 431.218228 -131.78491211 434.29052734 C-134.71400462 436.11131458 -136.4033361 436.30610187 -139.84741211 436.16552734 C-143.33338139 435.12715352 -144.5419154 434.13211965 -146.78491211 431.29052734 C-147.28745943 428.39497572 -147.28745943 428.39497572 -147.29106998 424.95578861 C-147.30211767 423.64463457 -147.31316536 422.33348053 -147.32454783 420.98259455 C-147.31659017 419.52396256 -147.30825246 418.0653326 -147.29957581 416.60670471 C-147.30489884 415.06000907 -147.31196312 413.51331859 -147.32062286 411.96663803 C-147.33930966 407.70962776 -147.33292459 403.45296394 -147.32246983 399.19593894 C-147.31549485 394.6075642 -147.33146279 390.01926185 -147.34446716 385.4309082 C-147.36614115 376.43936334 -147.36597156 367.44794487 -147.35784162 358.45638246 C-147.35154892 351.150062 -147.35267194 343.84377848 -147.35911369 336.53745842 C-147.36001535 335.49868353 -147.360917 334.45990864 -147.36184598 333.38965572 C-147.36369713 331.2795755 -147.36555969 329.16949529 -147.36743354 327.05941509 C-147.38402391 307.25910013 -147.37528235 287.45885636 -147.35844796 267.65854567 C-147.34375049 249.5332085 -147.3583779 231.4080371 -147.38721813 213.28272129 C-147.41659234 194.68367829 -147.42759014 176.08471185 -147.41803592 157.48564667 C-147.41701334 155.3829018 -147.41601874 153.28015692 -147.41505241 151.17741203 C-147.41457602 150.14275419 -147.41409963 149.10809636 -147.41360881 148.04208525 C-147.41144203 140.74315662 -147.42126277 133.44430025 -147.43582344 126.14538765 C-147.45331643 117.25228841 -147.45327316 108.35940055 -147.43047179 99.46630973 C-147.41930181 94.92691069 -147.4162291 90.38788448 -147.43477249 85.84850121 C-147.45152078 81.69518491 -147.44530379 77.54256822 -147.4205557 73.38929772 C-147.41565329 71.88463075 -147.41923998 70.37990796 -147.43204314 68.87528748 C-147.44816358 66.83394603 -147.43062578 64.79242107 -147.4113245 62.75110722 C-147.41105481 61.61601312 -147.41078512 60.48091902 -147.41050726 59.31142813 C-146.58435592 55.32207301 -144.91493339 53.81282404 -141.78491211 51.29052734 C-138.79191589 50.68925476 -138.79191589 50.68925476 -135.43408203 50.72290039 C-134.17315231 50.72327805 -132.9122226 50.7236557 -131.61308289 50.7240448 C-130.24717205 50.7495741 -128.88127142 50.77565401 -127.51538086 50.80224609 C-126.11006429 50.81157875 -124.70473139 50.81869273 -123.2993927 50.82368469 C-119.61152752 50.84271962 -115.9246566 50.89178764 -112.23718262 50.94720459 C-108.47002613 50.9984743 -104.702708 51.02121505 -100.93530273 51.04638672 C-93.55138731 51.09991197 -86.16828934 51.18517952 -78.78491211 51.29052734 C-78.81109619 50.43821533 -78.83728027 49.58590332 -78.86425781 48.70776367 C-78.94972703 45.53025608 -79.01228 42.35333624 -79.05957031 39.17504883 C-79.08463828 37.80245633 -79.11870293 36.42999633 -79.16210938 35.05786133 C-79.22308742 33.08002038 -79.2485222 31.10118551 -79.27319336 29.12255859 C-79.29937744 27.93380127 -79.32556152 26.74504395 -79.35253906 25.52026367 C-78.60359103 21.2588299 -77.24319455 19.83437241 -73.78491211 17.29052734 C-70.79191589 16.68925476 -70.79191589 16.68925476 -67.43408203 16.72290039 C-66.17315231 16.72327805 -64.9122226 16.7236557 -63.61308289 16.7240448 C-62.24717205 16.7495741 -60.88127142 16.77565401 -59.51538086 16.80224609 C-58.11006429 16.81157875 -56.70473139 16.81869273 -55.2993927 16.82368469 C-51.61152752 16.84271962 -47.9246566 16.89178764 -44.23718262 16.94720459 C-40.47002613 16.9984743 -36.702708 17.02121505 -32.93530273 17.04638672 C-25.55138731 17.09991197 -18.16828934 17.18517952 -10.78491211 17.29052734 C-10.79905151 16.25992187 -10.79905151 16.25992187 -10.81347656 15.20849609 C-10.82080811 14.30744141 -10.82813965 13.40638672 -10.83569336 12.47802734 C-10.84983276 11.13804688 -10.84983276 11.13804688 -10.86425781 9.77099609 C-10.77101388 6.85604726 -10.27753645 4.80442096 -8.78491211 2.29052734 C-5.34842045 -0.0004671 -4.04725299 0.02946486 0 0 Z " fill="#000000" transform="translate(180.784912109375,-0.29052734375)"/>
<path d="M0 0 C2.5625 1.4375 2.5625 1.4375 4 4 C4.8855088 8.08215206 4.88606461 11.56437321 2.65558559 15.17825801 C0.61617813 17.54300417 -1.53037703 19.7220282 -3.76792812 21.90049839 C-4.60773022 22.75338146 -5.44753232 23.60626453 -6.31278297 24.48499253 C-8.65243617 26.85186841 -11.01066392 29.19694228 -13.37885211 31.5350601 C-15.94855051 34.08194854 -18.49206048 36.65476894 -21.03899103 39.22438902 C-25.5076365 43.72556716 -29.99281953 48.20972044 -34.48920631 52.68317986 C-41.17531561 59.33528842 -47.83554847 66.01286126 -54.4908882 72.69573651 C-66.37714608 84.62942668 -78.2890937 96.53721011 -90.21206725 108.43420535 C-100.64586002 118.84537544 -111.07126952 129.26484918 -121.48837471 139.6927166 C-122.17885563 140.38388498 -122.86933655 141.07505337 -123.58074114 141.78716625 C-126.38348539 144.59271246 -129.1861978 147.39829047 -131.98885782 150.20392082 C-158.29059269 176.53319876 -184.61852607 202.83613981 -210.9582332 229.12742412 C-234.36932132 252.49580041 -257.75703248 275.88733317 -281.12524414 299.29858398 C-307.36792886 325.58944008 -333.62506729 351.86572017 -359.90575892 378.11858839 C-362.70629574 380.91623867 -365.50679708 383.71392446 -368.3072834 386.51162529 C-368.99686868 387.20049888 -369.68645397 387.88937246 -370.39693577 388.59912101 C-380.81906354 399.0110031 -391.23002606 409.43396214 -401.63566399 419.86232185 C-413.46512234 431.71748181 -425.31047265 443.55649847 -437.17721342 455.37434459 C-443.82164854 461.99230534 -450.45337916 468.6224266 -457.06762052 475.27056726 C-461.48332993 479.70641023 -465.91509952 484.12575557 -470.36046933 488.53187315 C-472.89537559 491.04530644 -475.42256819 493.56537031 -477.93059372 496.10565139 C-480.62959441 498.83900855 -483.36234429 501.5368953 -486.09950161 504.23207188 C-486.87642686 505.03006762 -487.65335211 505.82806337 -488.45382056 506.65024081 C-492.14254164 510.22595993 -494.61707319 512.46176033 -499.8961249 512.57533926 C-502.74292471 512.36567244 -504.01795965 511.98992507 -506.5625 510.5625 C-508.73620447 506.6876355 -508.92191722 503.3392035 -508 499 C-505.87967436 495.56458879 -503.11433521 492.90566088 -500.23207188 490.09950161 C-499.39226978 489.24661854 -498.55246768 488.39373547 -497.68721703 487.51500747 C-495.34756383 485.14813159 -492.98933608 482.80305772 -490.62114789 480.4649399 C-488.05144949 477.91805146 -485.50793952 475.34523106 -482.96100897 472.77561098 C-478.4923635 468.27443284 -474.00718047 463.79027956 -469.51079369 459.31682014 C-462.82468439 452.66471158 -456.16445153 445.98713874 -449.5091118 439.30426349 C-437.62285392 427.37057332 -425.7109063 415.46278989 -413.78793275 403.56579465 C-403.35413998 393.15462456 -392.92873048 382.73515082 -382.51162529 372.3072834 C-381.82114437 371.61611502 -381.13066345 370.92494663 -380.41925886 370.21283375 C-377.61651461 367.40728754 -374.8138022 364.60170953 -372.01114218 361.79607918 C-345.70940731 335.46680124 -319.38147393 309.16386019 -293.0417668 282.87257588 C-269.63067868 259.50419959 -246.24296752 236.11266683 -222.87475586 212.70141602 C-196.63207114 186.41055992 -170.37493271 160.13427983 -144.09424108 133.88141161 C-141.29370426 131.08376133 -138.49320292 128.28607554 -135.6927166 125.48837471 C-135.00313132 124.79950112 -134.31354603 124.11062754 -133.60306423 123.40087899 C-123.18093646 112.9889969 -112.76997394 102.56603786 -102.36433601 92.13767815 C-90.53487766 80.28251819 -78.68952735 68.44350153 -66.82278658 56.62565541 C-60.17835146 50.00769466 -53.54662084 43.3775734 -46.93237948 36.72943274 C-42.51667007 32.29358977 -38.08490048 27.87424443 -33.63953067 23.46812685 C-31.10462441 20.95469356 -28.57743181 18.43462969 -26.06940628 15.89434861 C-23.37040559 13.16099145 -20.63765571 10.4631047 -17.90049839 7.76792812 C-17.12357314 6.96993238 -16.34664789 6.17193663 -15.54617944 5.34975919 C-10.62392822 0.57829844 -6.92950921 -1.50316335 0 0 Z " fill="#000000" transform="translate(508,0)"/>
<path d="M0 0 C0.82593155 -0.00428513 1.6518631 -0.00857025 2.50282288 -0.01298523 C4.24690841 -0.01871941 5.99101786 -0.01923551 7.73510742 -0.01489258 C10.39738949 -0.0117339 13.05855846 -0.0351978 15.72070312 -0.06054688 C17.41796735 -0.06282016 19.11523456 -0.06352323 20.8125 -0.0625 C21.60534897 -0.07170975 22.39819794 -0.08091949 23.21507263 -0.09040833 C28.9652602 -0.042493 32.30990599 1.13803099 36.47265625 5.30078125 C36.66796875 8.12109375 36.66796875 8.12109375 36.59765625 11.42578125 C36.57960938 12.52148438 36.5615625 13.6171875 36.54296875 14.74609375 C36.51976562 15.58914062 36.4965625 16.4321875 36.47265625 17.30078125 C37.22576584 17.29634003 37.97887543 17.2918988 38.75480652 17.287323 C45.86113448 17.24720585 52.96742304 17.21677631 60.07383251 17.19715691 C63.72708668 17.18673121 67.38024706 17.1725943 71.03344727 17.14990234 C74.56069673 17.12813049 78.08785613 17.11620349 81.61516762 17.11102676 C83.61206154 17.10554713 85.60891936 17.08994109 87.60575867 17.07418823 C88.82664688 17.07403717 90.0475351 17.07388611 91.30541992 17.07373047 C92.37797531 17.06928925 93.4505307 17.06484802 94.55558777 17.06027222 C97.62618513 17.31343953 99.74799768 17.87332013 102.47265625 19.30078125 C104.82632897 22.83129033 104.7295601 24.29796296 104.74681091 28.48106384 C104.75678604 29.77518692 104.76676117 31.06931 104.77703857 32.40264893 C104.77793439 33.8399657 104.77859795 35.27728263 104.77905273 36.71459961 C104.78667278 38.22577831 104.79510001 39.73695312 104.80427551 41.24812317 C104.82624069 45.35552857 104.83502192 49.46285953 104.84010196 53.57031703 C104.84374265 56.13544968 104.84998116 58.70056275 104.85710335 61.26568794 C104.88160329 70.21155786 104.89465125 79.15736973 104.89819336 88.10327148 C104.90183075 96.44731329 104.9317391 104.79098773 104.97359794 113.1349172 C105.00826138 120.29507873 105.0237411 127.45511827 105.02443939 134.61536318 C105.02523346 138.89352394 105.03403128 143.17131048 105.06243706 147.44938469 C105.08855103 151.47227273 105.09086091 155.4944745 105.07478142 159.51740837 C105.07296165 160.99446098 105.07970526 162.47155246 105.09560013 163.94852066 C105.11596356 165.96341774 105.10255597 167.97857213 105.08738708 169.99351501 C105.08939841 171.12158034 105.09140974 172.24964567 105.09348202 173.4118948 C104.47265625 176.30078125 104.47265625 176.30078125 102.43423557 178.69498539 C98.68468587 180.72802612 95.59216154 181.28788915 91.47265625 180.30078125 C88.87536182 178.79791909 86.93634266 176.83444017 84.86073303 174.68453979 C84.2461539 174.08032389 83.63157476 173.47610798 82.99837202 172.8535825 C80.94699915 170.82706551 78.92542001 168.77323875 76.90258789 166.71826172 C75.43674582 165.25834939 73.96918199 163.80016408 72.50003052 162.34358215 C68.51709398 158.38430665 64.55967635 154.40039452 60.60700154 150.41093588 C56.46833313 146.24085666 52.30899222 142.09148941 48.15245056 137.9392395 C41.17586496 130.96348327 34.21528924 123.97206334 27.2644043 116.97070312 C19.22552968 108.87375624 11.16399503 100.79994254 3.08943468 92.73859298 C-4.67521512 84.98593838 -12.42559021 77.21917322 -20.16885567 69.44516373 C-23.46560517 66.13558771 -26.76693518 62.83068229 -30.07194328 59.5293541 C-33.96190925 55.64214851 -37.83911581 51.74264621 -41.70676804 47.83324242 C-43.12911498 46.39948027 -44.55573477 44.96994266 -45.9868679 43.54495049 C-47.93782791 41.60091639 -49.87274979 39.64221157 -51.80430603 37.67892456 C-52.37568753 37.11665031 -52.94706902 36.55437607 -53.53576511 35.9750632 C-56.86131185 32.55357556 -58.40372906 30.1158873 -58.52734375 25.30078125 C-57.29454267 21.73935591 -56.44002625 19.86812443 -53.21484375 17.86328125 C-49.92040284 17.17374711 -47.79432784 17.49119055 -44.52734375 18.30078125 C-42.18108559 19.94399929 -42.18108559 19.94399929 -39.91177368 22.11094666 C-39.04690968 22.92957121 -38.18204567 23.74819576 -37.29097366 24.59162712 C-36.37897579 25.48564798 -35.46697792 26.37966885 -34.52734375 27.30078125 C-33.59803417 28.20609652 -32.66872459 29.11141178 -31.71125412 30.04416084 C-28.5761293 33.11875855 -25.4761739 36.2279066 -22.37646484 39.33813477 C-21.19295399 40.52192838 -20.00922153 41.70550049 -18.82528687 42.88887024 C-15.64192048 46.0719521 -12.46162622 49.25808689 -9.28191328 52.44481778 C-5.94720729 55.78581517 -2.60963057 59.12394238 0.72763062 62.46238708 C7.03335193 68.77120476 13.33652188 75.08256505 19.63875806 81.39486402 C28.16460526 89.93402596 36.69443104 98.46921175 45.22402382 107.004632 C58.64346929 120.43345364 72.0576285 133.86754306 85.47265625 147.30078125 C85.80265625 110.34078125 86.13265625 73.38078125 86.47265625 35.30078125 C65.91922347 35.45906404 65.91922347 35.45906404 45.36621094 35.66113281 C42.79232443 35.67281364 40.21843056 35.68300689 37.64453125 35.69140625 C36.97738098 35.70185974 36.31023071 35.71231323 35.62286377 35.7230835 C33.65208587 35.75241178 31.68095691 35.75413763 29.70996094 35.75488281 C28.04450226 35.76820648 28.04450226 35.76820648 26.34539795 35.78179932 C22.79132475 35.18669763 21.65339209 34.11572489 19.47265625 31.30078125 C18.01484291 26.92734124 18.41285305 22.90562768 18.47265625 18.30078125 C13.19265625 18.30078125 7.91265625 18.30078125 2.47265625 18.30078125 C2.62734375 21.11609375 2.62734375 21.11609375 2.78515625 23.98828125 C2.77022554 28.2037188 2.72228698 29.89513132 0.47265625 33.55078125 C-3.69800342 35.98366606 -5.73760976 35.98502896 -10.52734375 35.30078125 C-12.95853998 33.43063031 -14.16803548 32.0193978 -15.52734375 29.30078125 C-15.794869 25.70256663 -15.75892871 22.09532715 -15.77734375 18.48828125 C-15.79796875 17.48990234 -15.81859375 16.49152344 -15.83984375 15.46289062 C-15.89009422 6.03464607 -15.89009422 6.03464607 -12.52734375 2.30078125 C-8.71100376 -0.36764057 -4.47157105 -0.00512714 0 0 Z " fill="#000000" transform="translate(407.52734375,169.69921875)"/>
<path d="M0 0 C2.81976451 3.01278083 3.3733647 5.02983614 3.36076355 9.11260986 C3.36488754 10.14463531 3.36901154 11.17666077 3.3732605 12.23995972 C3.36247467 13.36636871 3.35168884 14.49277771 3.34057617 15.65332031 C3.34123329 17.43909988 3.34123329 17.43909988 3.34190369 19.26095581 C3.34017251 22.52110023 3.32513338 25.7808577 3.30418181 29.04092503 C3.28542034 32.44952778 3.283665 35.85813825 3.28010559 39.26678467 C3.27078354 45.71951395 3.2461677 52.17209065 3.21605712 58.62475276 C3.17922757 66.69251421 3.16281204 74.76030047 3.14648438 82.828125 C3.11727021 97.21886885 3.05717326 111.60927976 3 126 C31.05 126 59.1 126 88 126 C88 122.04 88 118.08 88 114 C93.49958419 108.50041581 96.86451312 108.84945639 104.34521484 108.83886719 C105.18472183 108.83390228 106.02422882 108.82893738 106.88917542 108.82382202 C109.66310448 108.80923114 112.43697638 108.80240394 115.2109375 108.796875 C117.1414083 108.79112154 119.07187908 108.78536383 121.00234985 108.77960205 C125.04909531 108.76910118 129.09582096 108.76325236 133.14257812 108.75976562 C138.32326244 108.75427923 143.50368417 108.73024419 148.68428612 108.70179367 C152.67175051 108.68315491 156.65915176 108.67796105 160.64665604 108.67642975 C162.55639712 108.6734061 164.46613717 108.66538726 166.37583542 108.65224457 C169.04942485 108.63515629 171.72237394 108.63707093 174.39599609 108.64355469 C175.18165451 108.6343399 175.96731293 108.62512512 176.77677917 108.6156311 C181.57516151 108.65201364 184.82415226 109.38530755 189 112 C192.14777682 116.34795527 191.32917451 121.79841611 191.3125 126.9375 C191.32861328 127.92685547 191.34472656 128.91621094 191.36132812 129.93554688 C191.36747461 139.0753763 191.36747461 139.0753763 188 143 C184.75862098 144.62068951 181.50335931 144.54928387 178 144 C175 142.25 175 142.25 173 139 C173 135.04 173 131.08 173 127 C150.89 127 128.78 127 106 127 C106 129.97 106 132.94 106 136 C105.00440092 139.52288906 103.83691781 141.69164411 101 144 C98.90850163 144.38031673 98.90850163 144.38031673 96.4521637 144.38768005 C95.51984924 144.39758469 94.58753479 144.40748932 93.62696838 144.41769409 C92.60610641 144.41319244 91.58524445 144.4086908 90.53344727 144.40405273 C89.45678802 144.41091599 88.38012878 144.41777924 87.27084351 144.42485046 C83.70256459 144.44319091 80.13472231 144.43927049 76.56640625 144.43359375 C74.09162756 144.4381521 71.61685015 144.44345663 69.14207458 144.44947815 C63.95102807 144.45842355 58.76013528 144.45596983 53.5690918 144.44604492 C46.90943555 144.43455434 40.25051403 144.45476098 33.59089756 144.48396206 C28.47886268 144.50228885 23.36695565 144.50203858 18.25489616 144.49632454 C15.79924717 144.49617089 13.34358975 144.50225108 10.88797188 144.51461601 C7.45695659 144.52945694 4.02693111 144.51889867 0.59594727 144.50170898 C-0.93230934 144.51621094 -0.93230934 144.51621094 -2.49143982 144.53100586 C-9.35304813 144.45884724 -9.35304813 144.45884724 -12.5997467 142.15614319 C-14.89259988 138.62555356 -15.12765228 135.81445209 -15.14044189 131.7063446 C-15.14615204 130.60863739 -15.15186218 129.51093018 -15.15774536 128.37995911 C-15.15886322 127.17522446 -15.15998108 125.97048981 -15.16113281 124.72924805 C-15.16609772 123.46072998 -15.17106262 122.19221191 -15.17617798 120.88525391 C-15.1892941 117.40373529 -15.19574545 113.92223594 -15.20018864 110.44069648 C-15.20312078 108.26484719 -15.20722587 106.08900315 -15.21169281 103.91315651 C-15.225366 97.10333521 -15.23503339 90.29352594 -15.2388947 83.48369187 C-15.24337443 75.6266858 -15.26091898 67.76985378 -15.2898953 59.91290063 C-15.31152335 53.83720917 -15.32159959 47.76156663 -15.32293582 41.68583709 C-15.3239831 38.05827346 -15.32987422 34.43087349 -15.34775543 30.80335045 C-15.36732236 26.755105 -15.3629427 22.70722307 -15.35644531 18.65893555 C-15.3656601 17.46027359 -15.37487488 16.26161163 -15.3843689 15.02662659 C-15.33207617 4.64004306 -15.33207617 4.64004306 -12 0 C-7.45994262 -2.42136394 -4.58595891 -2.24202436 0 0 Z " fill="#000000" transform="translate(185,368)"/>
<path d="M0 0 C1.71703125 -0.01879967 1.71703125 -0.01879967 3.46875 -0.03797913 C4.6959375 -0.02472092 5.923125 -0.01146271 7.1875 0.00219727 C9.09015625 -0.00142067 9.09015625 -0.00142067 11.03125 -0.00511169 C13.71180294 -0.00413262 16.39012063 0.00667318 19.0703125 0.03417969 C22.49705742 0.068264 25.92230443 0.06224057 29.34912109 0.04351711 C32.62866729 0.03037755 35.90798608 0.048671 39.1875 0.06469727 C40.4146875 0.0597374 41.641875 0.05477753 42.90625 0.04966736 C44.0509375 0.06550369 45.195625 0.08134003 46.375 0.09765625 C47.37917969 0.10385483 48.38335937 0.11005341 49.41796875 0.11643982 C52.95307581 0.77337094 54.64013343 2.13592925 57.1875 4.63110352 C58.12179178 7.43397884 58.31499614 9.12957611 58.32121277 12.02708435 C58.32761024 13.37507111 58.32761024 13.37507111 58.33413696 14.75028992 C58.33345718 16.22547844 58.33345718 16.22547844 58.33276367 17.73046875 C58.33612228 18.76811371 58.3394809 19.80575867 58.34294128 20.87484741 C58.35245893 24.31314279 58.35439475 27.75138952 58.35546875 31.18969727 C58.35868055 33.5747937 58.36204456 35.95988994 58.36555481 38.34498596 C58.37154797 43.34767107 58.3733945 48.3503389 58.37280273 53.35302734 C58.37270105 59.77033435 58.38635867 66.18753087 58.40357494 72.60481167 C58.41468061 77.53152477 58.41672239 82.45821104 58.41619301 87.38493538 C58.41737508 89.75126591 58.42180953 92.11759709 58.42952538 94.48391533 C58.43929709 97.79013744 58.43645838 101.09611794 58.43041992 104.40234375 C58.43603943 105.38377853 58.44165894 106.36521332 58.44744873 107.37638855 C58.44325424 108.27786621 58.43905975 109.17934387 58.43473816 110.10813904 C58.43528293 110.8896102 58.43582769 111.67108137 58.43638897 112.47623348 C58.14884022 114.96581825 57.53082285 116.51956519 56.1875 118.63110352 C53.01931244 120.74322855 51.05530748 120.96266816 47.3203125 121.18969727 C43.74692691 120.25381056 42.42396414 118.5460916 40.1875 115.63110352 C39.49480082 112.10854116 39.60503201 108.65848103 39.69921875 105.08032227 C39.70629349 104.06637894 39.71336823 103.05243561 39.72065735 102.00776672 C39.74858988 98.77728721 39.81132838 95.5485569 39.875 92.31860352 C39.90008425 90.12526922 39.92289719 87.93190768 39.94335938 85.73852539 C39.99841245 80.36879049 40.08202727 75.00007198 40.1875 69.63110352 C39.35895508 69.65430664 38.53041016 69.67750977 37.67675781 69.70141602 C36.05012207 69.72848633 36.05012207 69.72848633 34.390625 69.75610352 C33.31458008 69.77930664 32.23853516 69.80250977 31.12988281 69.82641602 C28.1875 69.63110352 28.1875 69.63110352 24.9375 67.63110352 C22.50461519 63.46044385 22.50325229 61.42083751 23.1875 56.63110352 C25.05765094 54.19990729 26.46888345 52.99041179 29.1875 51.63110352 C32.8175 51.63110352 36.4475 51.63110352 40.1875 51.63110352 C40.1875 40.74110352 40.1875 29.85110352 40.1875 18.63110352 C29.2975 18.63110352 18.4075 18.63110352 7.1875 18.63110352 C7.20321045 21.48275146 7.2189209 24.33439941 7.23510742 27.27246094 C7.28480664 36.69208269 7.31795036 46.11171022 7.34293652 55.53142834 C7.35859539 61.2428652 7.37983796 66.95416777 7.41381836 72.66552734 C7.44640352 78.17684055 7.46435134 83.68802455 7.47213173 89.19942665 C7.47767672 91.30258531 7.48850466 93.40573687 7.50469017 95.50884056 C7.52645298 98.45364057 7.52946737 101.39790601 7.52807617 104.34277344 C7.538862 105.21311722 7.54964783 106.083461 7.5607605 106.98017883 C7.53038462 112.91849684 6.49535633 116.32324718 2.1875 120.63110352 C-4.7151905 121.42321554 -4.7151905 121.42321554 -8.40756226 118.7578125 C-11.86616738 114.2612089 -11.51529507 110.57575123 -11.45947266 105.04516602 C-11.46823425 103.97957458 -11.47699585 102.91398315 -11.48602295 101.81610107 C-11.5080196 98.29568702 -11.493462 94.77653022 -11.4765625 91.25610352 C-11.47993052 88.8089982 -11.48478302 86.36189451 -11.49105835 83.91479492 C-11.4984301 78.78686593 -11.48771366 73.6593725 -11.46435547 68.53149414 C-11.43586844 61.95709566 -11.45227066 55.38371772 -11.48221779 48.80935669 C-11.50028204 43.75643214 -11.49453653 38.7037497 -11.48157883 33.65081787 C-11.47824245 31.22670369 -11.48233997 28.80256755 -11.49397659 26.378479 C-11.50667002 22.99074039 -11.4873266 19.60465633 -11.45947266 16.21704102 C-11.46959381 15.21429138 -11.47971497 14.21154175 -11.49014282 13.17840576 C-11.42083865 8.63056673 -11.28986617 6.31567675 -8.63534546 2.50892639 C-5.42893984 0.37595032 -3.81829189 0.003657 0 0 Z " fill="#000000" transform="translate(300.8125,340.368896484375)"/>
<path d="M0 0 C1.71714455 -0.0238678 1.71714455 -0.0238678 3.46897888 -0.04821777 C5.31750206 -0.0485199 5.31750206 -0.0485199 7.20336914 -0.04882812 C9.10814781 -0.06024841 9.10814781 -0.06024841 11.05140686 -0.07189941 C13.73738882 -0.08270707 16.42249089 -0.08691913 19.10839844 -0.08105469 C22.54310618 -0.07515924 25.97640001 -0.10574567 29.41083431 -0.14617157 C32.69581929 -0.1783016 35.98075127 -0.17393226 39.26586914 -0.17382812 C40.4961937 -0.19022339 41.72651825 -0.20661865 42.99412537 -0.22351074 C52.48241795 -0.14659518 52.48241795 -0.14659518 55.55322266 2.76953125 C58.33427944 6.98676165 58.43439034 10.13456264 58.4621582 15.09106445 C58.46960556 16.10138985 58.46960556 16.10138985 58.47720337 17.13212585 C58.49180328 19.3595787 58.49862373 21.5869603 58.50415039 23.81445312 C58.50990413 25.36520896 58.51566183 26.91596478 58.52142334 28.46672058 C58.53192749 31.7191094 58.53777382 34.97147356 58.54125977 38.22387695 C58.54673988 42.38338496 58.57075981 46.54256487 58.59923172 50.7019701 C58.61789328 53.90623413 58.62306559 57.11041973 58.62459564 60.31473351 C58.62761533 61.84768147 58.63562077 63.38062827 58.64878082 64.91352272 C58.66591377 67.06279783 58.66394383 69.21127925 58.6574707 71.3605957 C58.66293915 73.192351 58.66293915 73.192351 58.66851807 75.06111145 C58.25641973 78.82760883 57.29205825 81.21102976 55.30102539 84.41992188 C51.90863321 86.68151666 50.696927 86.68035643 46.71557617 86.71044922 C45.57073761 86.72320892 44.42589905 86.73596863 43.24636841 86.74911499 C42.00885834 86.75134064 40.77134827 86.75356628 39.49633789 86.75585938 C37.5894368 86.76584457 37.5894368 86.76584457 35.64401245 86.77603149 C32.95223003 86.78616642 30.26085137 86.79171244 27.5690918 86.79052734 C24.12672993 86.79032427 20.68519473 86.81761306 17.24302864 86.85207176 C13.95249619 86.87971442 10.66197069 86.87849076 7.37133789 86.88085938 C5.52114548 86.90241592 5.52114548 86.90241592 3.63357544 86.92440796 C2.48243256 86.9182547 1.33128967 86.91210144 0.14526367 86.90576172 C-1.37005447 86.91003677 -1.37005447 86.91003677 -2.91598511 86.91439819 C-6.49844525 86.27787344 -8.15682045 84.98799225 -10.69897461 82.41992188 C-12.18949894 79.03420405 -11.83282371 75.27145864 -11.84423828 71.61938477 C-11.84759689 70.94408218 -11.85095551 70.2687796 -11.85441589 69.57301331 C-11.86389553 67.34618274 -11.86586741 65.1194276 -11.86694336 62.89257812 C-11.87015771 61.3408556 -11.87352191 59.78913339 -11.87702942 58.2374115 C-11.88301299 54.98679909 -11.88487008 51.73621323 -11.88427734 48.4855957 C-11.88417569 44.32497018 -11.89783422 40.16451519 -11.91504955 36.00393009 C-11.92617922 32.79971029 -11.92819626 29.59553163 -11.92766762 26.39129448 C-11.92884603 24.85753224 -11.93326003 23.32376888 -11.94099998 21.79002571 C-11.95082073 19.64318071 -11.94791393 17.49670473 -11.94189453 15.34985352 C-11.94403206 13.51929161 -11.94403206 13.51929161 -11.94621277 11.65174866 C-11.62249561 7.4202102 -10.94897328 4.68224573 -7.93016052 1.63366699 C-5.12559543 0.10800875 -3.18793781 0.02666916 0 0 Z M6.30102539 18.41992188 C6.30102539 34.91992188 6.30102539 51.41992188 6.30102539 68.41992188 C17.52102539 68.41992188 28.74102539 68.41992188 40.30102539 68.41992188 C40.30102539 51.91992188 40.30102539 35.41992188 40.30102539 18.41992188 C29.08102539 18.41992188 17.86102539 18.41992188 6.30102539 18.41992188 Z " fill="#000000" transform="translate(215.698974609375,340.580078125)"/>
<path d="M0 0 C1.16485931 -0.0159874 2.32971863 -0.03197479 3.52987671 -0.04844666 C4.78926056 -0.05380936 6.04864441 -0.05917206 7.34619141 -0.06469727 C8.63965485 -0.07372574 9.93311829 -0.08275421 11.26577759 -0.09205627 C14.00452162 -0.10854167 16.74314349 -0.11624545 19.48193359 -0.11914062 C22.98498215 -0.12452259 26.48687646 -0.1621937 29.98959923 -0.20788479 C33.33762474 -0.24485116 36.68546873 -0.24617121 40.03369141 -0.25219727 C41.28902679 -0.27172958 42.54436218 -0.2912619 43.83773804 -0.31138611 C45.00890167 -0.30530838 46.18006531 -0.29923065 47.38671875 -0.29296875 C48.41469574 -0.2980394 49.44267273 -0.30311005 50.50180054 -0.30833435 C54.47724934 0.55797949 55.91777924 2.05928486 58.32275391 5.30639648 C58.81924449 8.00646525 59.00951488 10.07905584 58.96972656 12.77124023 C58.97848816 13.50521027 58.98724976 14.2391803 58.99627686 14.99539185 C59.01821398 17.41216837 59.00374037 19.82710264 58.98681641 22.24389648 C58.99018623 23.9287145 58.99504023 25.61353014 59.00131226 27.29833984 C59.00867581 30.8256754 58.99799537 34.35237694 58.97460938 37.87963867 C58.94612117 42.39603642 58.96252802 46.9109486 58.99247169 51.42729187 C59.0105591 54.90526478 59.00478019 58.38288676 58.99183273 61.86087036 C58.98850267 63.5258095 58.99257177 65.19078073 59.0042305 66.85568237 C59.016964 69.18516132 58.99753206 71.51225132 58.96972656 73.84155273 C58.98490829 74.86878952 58.98490829 74.86878952 59.00039673 75.91677856 C58.9197208 79.57387585 58.35088891 81.26845266 56.15232849 84.23350525 C52.89678375 86.61845393 51.39219002 86.9337564 47.40258789 86.9375 C45.65068398 86.95629967 45.65068398 86.95629967 43.86338806 86.97547913 C42.61118973 86.96222092 41.35899139 86.94896271 40.06884766 86.93530273 C38.12933983 86.93892067 38.12933983 86.93892067 36.15065002 86.94261169 C33.41936663 86.94546425 30.68890579 86.9308222 27.95776367 86.90332031 C24.46142805 86.86920227 20.96655916 86.87527082 17.47015285 86.89398289 C14.12790568 86.90710523 10.78608459 86.88883705 7.44384766 86.87280273 C6.18962509 86.8777626 4.93540253 86.88272247 3.64317322 86.88783264 C1.89599754 86.86407814 1.89599754 86.86407814 0.11352539 86.83984375 C-0.9106398 86.83364517 -1.93480499 86.82744659 -2.99000549 86.82106018 C-6.36960877 86.17379432 -7.53584769 84.94025369 -9.67724609 82.30639648 C-11.16116409 79.33856048 -10.81278518 76.66153243 -10.82250977 73.34985352 C-10.82586838 72.63422241 -10.82922699 71.91859131 -10.83268738 71.18127441 C-10.84220797 68.80890174 -10.84414112 66.43659958 -10.84521484 64.06420898 C-10.84842693 62.41755138 -10.85179096 60.77089406 -10.8553009 59.12423706 C-10.86129513 55.66916238 -10.86314053 52.21411272 -10.86254883 48.7590332 C-10.86244725 44.33145707 -10.87609358 39.90404147 -10.89332104 35.47650337 C-10.9044399 32.07416039 -10.90646806 28.67185621 -10.9059391 25.26949692 C-10.90711962 23.63722048 -10.91154539 22.00494306 -10.91927147 20.37268448 C-10.92906804 18.08891825 -10.92619463 15.80550035 -10.92016602 13.52172852 C-10.92159103 12.22204132 -10.92301605 10.92235413 -10.92448425 9.58328247 C-10.69086062 6.48684293 -10.43811485 4.82087553 -8.67724609 2.30639648 C-5.26878803 0.03409111 -4.00732649 0.04154106 0 0 Z M7.32275391 18.30639648 C7.32275391 34.80639648 7.32275391 51.30639648 7.32275391 68.30639648 C18.21275391 68.30639648 29.10275391 68.30639648 40.32275391 68.30639648 C40.32275391 51.80639648 40.32275391 35.30639648 40.32275391 18.30639648 C29.43275391 18.30639648 18.54275391 18.30639648 7.32275391 18.30639648 Z " fill="#000000" transform="translate(385.67724609375,340.693603515625)"/>
<path d="M0 0 C3.22484225 2.54027086 4.80748196 4.04244784 5.62641239 8.11566925 C5.6269987 9.29183556 5.62758501 10.46800186 5.62818909 11.67980957 C5.63528347 12.3380058 5.64237786 12.99620202 5.64968723 13.67434359 C5.66724409 15.87268833 5.64917731 18.06925935 5.63110352 20.26757812 C5.6362433 21.84639795 5.64352502 23.42521204 5.65278625 25.00401306 C5.6713013 29.28719007 5.65836134 33.56974463 5.63869596 37.85289574 C5.62230886 42.33622333 5.63112243 46.81951152 5.63621521 51.30285645 C5.64073611 58.83172548 5.62486664 66.36034606 5.59692383 73.88916016 C5.56487188 82.59220219 5.56488763 91.29479612 5.5821386 99.99786997 C5.59800511 108.3716382 5.59126935 116.74524224 5.57420158 125.1190033 C5.56733088 128.68192417 5.56836371 132.24471343 5.57574654 135.80763245 C5.58341053 140.00371917 5.57127991 144.19929627 5.54389763 148.3952961 C5.53701385 149.93478953 5.5369158 151.47433056 5.54411316 153.01382256 C5.55281044 155.11651292 5.53685067 157.21763142 5.5146637 159.32019043 C5.51185678 160.49635674 5.50904985 161.67252304 5.50615788 162.88433075 C4.89135805 166.66874864 3.72821824 168.34332951 1 171 C-1.69530149 171.50133221 -3.76617545 171.67612423 -6.45898438 171.63110352 C-7.57676018 171.64183647 -7.57676018 171.64183647 -8.71711731 171.65278625 C-11.17662143 171.6696743 -13.63430289 171.65027231 -16.09375 171.62890625 C-17.8048111 171.62973495 -19.51587213 171.63219437 -21.22692871 171.63621521 C-24.8115233 171.63907326 -28.39549307 171.62437192 -31.97998047 171.59692383 C-36.57369596 171.56284054 -41.1662942 171.5688589 -45.76006317 171.5875864 C-49.29288029 171.59815743 -52.82543763 171.58921774 -56.35823059 171.57420158 C-58.05189747 171.56902003 -59.74559147 171.56950127 -61.43925476 171.57574654 C-63.80710126 171.5812002 -66.1733511 171.56082142 -68.54101562 171.53344727 C-69.590028 171.54323608 -69.590028 171.54323608 -70.66023254 171.55322266 C-73.97314504 171.48812924 -75.733546 171.20125734 -78.40759277 169.1815033 C-80.65531994 166.10225061 -80.9336023 163.78466869 -81 160 C-79.72323065 156.80807664 -78.84581266 155.42433972 -75.76252747 153.87747192 C-72.66285885 152.8929126 -70.1743657 152.75926583 -66.92456055 152.77294922 C-65.12325935 152.77317581 -65.12325935 152.77317581 -63.28556824 152.77340698 C-61.35563774 152.78889084 -61.35563774 152.78889084 -59.38671875 152.8046875 C-58.04865226 152.80842088 -56.71058303 152.81126632 -55.37251282 152.81326294 C-51.86258301 152.82087384 -48.35282055 152.84050018 -44.84295654 152.8626709 C-41.25665551 152.88318436 -37.67032726 152.89227638 -34.08398438 152.90234375 C-27.05592115 152.92374871 -20.02796862 152.95785369 -13 153 C-13.00184359 152.25731778 -13.00368717 151.51463556 -13.00558662 150.74944782 C-13.04975072 132.6803437 -13.08284931 114.61125034 -13.10362434 96.54210377 C-13.11393797 87.80400975 -13.12799996 79.06595176 -13.15087891 70.32788086 C-13.17081013 62.71199399 -13.18371581 55.0961332 -13.18817699 47.48022097 C-13.19078482 43.4474675 -13.19691617 39.41478866 -13.21146011 35.3820591 C-13.22503979 31.58592751 -13.22922186 27.78990128 -13.22621536 23.99374771 C-13.22676535 22.60098002 -13.23074054 21.20820879 -13.23841095 19.81546211 C-13.24837761 17.91234515 -13.24477364 16.0091716 -13.24050903 14.10603333 C-13.24235262 13.04136243 -13.24419621 11.97669153 -13.24609566 10.87975788 C-12.91080201 6.95622448 -12.01036803 4.0852101 -9.3125 1.1875 C-5.95694997 -0.53562029 -3.71982635 -0.52208089 0 0 Z " fill="#000000" transform="translate(473,341)"/>
</svg>
