<?xml version="1.0" encoding="UTF-8"?>
<svg version="1.1" xmlns="http://www.w3.org/2000/svg" width="512" height="546">
<path d="M0 0 C0.69488525 0.00304138 1.38977051 0.00608276 2.10571289 0.00921631 C13.51708759 0.08276848 24.31656335 1.00052972 35.25 4.4375 C35.93900391 4.65180664 36.62800781 4.86611328 37.33789062 5.08691406 C53.00723556 10.13135641 66.6563989 17.9052556 79.25 28.4375 C80.19617188 29.21867187 81.14234375 29.99984375 82.1171875 30.8046875 C105.22520685 50.77053991 119.75582211 81.13785749 122.25 111.4375 C124.06782955 144.08769923 115.17740707 176.50987754 93.10717773 201.20068359 C90.86099356 203.65197934 88.55749437 206.04377639 86.25 208.4375 C85.25033203 209.53191406 85.25033203 209.53191406 84.23046875 210.6484375 C66.56884242 229.46271734 38.71829766 241.24260956 13.25 243.4375 C11.6 243.4375 9.95 243.4375 8.25 243.4375 C8.25 256.6375 8.25 269.8375 8.25 283.4375 C15.44006836 283.4060791 15.44006836 283.4060791 22.77539062 283.37402344 C38.64901933 283.30761335 54.52265366 283.26330433 70.39638519 283.23025131 C80.01644507 283.20968469 89.6363727 283.18167784 99.25634766 283.13574219 C107.64765884 283.09569277 116.03887418 283.07002438 124.4302783 283.06114602 C128.86756485 283.05596172 133.30457737 283.04390197 137.74177551 283.01457977 C141.93116574 282.98712342 146.12017303 282.97911494 150.3096447 282.98506927 C151.83487477 282.98398237 153.3601197 282.97621031 154.88527107 282.9606781 C172.64225751 282.78894232 187.73779175 286.22211815 201.0625 298.75 C211.58015135 309.83210491 215.55058732 322.408134 215.25 337.4375 C215.98863281 337.57285156 216.72726562 337.70820313 217.48828125 337.84765625 C227.74804139 340.0247591 236.27012612 344.46050128 243.25 352.4375 C243.72824219 352.93636719 244.20648438 353.43523437 244.69921875 353.94921875 C253.17853446 363.11200575 256.64253215 373.93084825 256.5625 386.25 C256.55758545 387.13856689 256.5526709 388.02713379 256.54760742 388.94262695 C256.43566619 395.19468849 255.90810584 400.7015874 253.25 406.4375 C252.92128906 407.17613281 252.59257812 407.91476562 252.25390625 408.67578125 C248.44911996 416.29851917 242.41459623 423.74188725 235.25 428.4375 C234.59 428.4375 233.93 428.4375 233.25 428.4375 C233.26571045 429.13311035 233.2814209 429.8287207 233.29760742 430.54541016 C233.36022863 433.71768971 233.39907677 436.88983885 233.4375 440.0625 C233.47520508 441.70412109 233.47520508 441.70412109 233.51367188 443.37890625 C233.56913346 449.47968094 232.99292458 452.95165083 230.25 458.4375 C231.19263746 460.46516729 232.20233957 462.46204875 233.25 464.4375 C233.67889051 467.60999662 233.62463669 470.74118882 233.5625 473.9375 C233.56733398 475.18080078 233.56733398 475.18080078 233.57226562 476.44921875 C233.53061932 481.21204118 232.88682542 484.92069061 231.25 489.4375 C231.87056011 491.12187744 232.54289322 492.78758418 233.25 494.4375 C233.625218 499.16524679 233.78896696 501.4194513 231.5625 505.625 C231.129375 506.553125 230.69625 507.48125 230.25 508.4375 C231.22934924 510.11638441 232.23343919 511.78088239 233.25 513.4375 C234.10382093 519.61452551 233.4630773 525.00930297 230.25 530.4375 C228.11284572 533.06633945 225.75357127 535.40465701 223.3125 537.75 C222.69181641 538.36939453 222.07113281 538.98878906 221.43164062 539.62695312 C216.80877687 544.16119968 213.56290364 546.71883188 206.875 546.8125 C205.95976562 546.84085938 205.04453125 546.86921875 204.1015625 546.8984375 C197.74163731 545.8703948 193.35126273 540.85435966 189 536.4375 C188.20722656 535.65632812 188.20722656 535.65632812 187.3984375 534.859375 C180.9827953 528.41116609 180.14114063 522.70851291 180.12557983 513.85253906 C180.12917511 513.01384277 180.13277039 512.17514648 180.13647461 511.31103516 C180.13632858 510.41283051 180.13618256 509.51462585 180.1360321 508.58920288 C180.13672602 505.63496443 180.14449395 502.68078987 180.15234375 499.7265625 C180.15420978 497.67247553 180.15563281 495.61838811 180.15663147 493.56430054 C180.16044206 488.16879031 180.17025988 482.77330717 180.18133545 477.37780762 C180.19158094 471.86776089 180.19613581 466.35770977 180.20117188 460.84765625 C180.21188347 450.04425896 180.22894236 439.24088174 180.25 428.4375 C179.62907471 428.13513428 179.00814941 427.83276855 178.3684082 427.52124023 C168.47032871 422.45755752 162.43468295 412.48003109 158.8125 402.3125 C154.84003427 387.83277643 156.68945789 373.33088555 163.9375 360.1875 C171.26665781 349.00374808 182.08946047 340.88454094 195.234375 337.71875 C195.89953125 337.6259375 196.5646875 337.533125 197.25 337.4375 C198.16731036 328.22362701 195.74528672 320.31514396 190.34375 312.77734375 C188.34128876 310.5395186 186.49945111 308.95782213 184 307.3125 C183.29359375 306.83554687 182.5871875 306.35859375 181.859375 305.8671875 C173.10183231 301.06889315 165.13976572 300.99403855 155.37890625 301.00512695 C153.7718277 300.99610088 152.16475603 300.98577159 150.55769348 300.97424316 C146.21324607 300.94674625 141.86892956 300.93739861 137.52440643 300.93138909 C132.97731881 300.92198635 128.43032822 300.89578144 123.88330078 300.87138367 C115.28104806 300.82776719 106.67881422 300.79919044 98.07648468 300.77606028 C88.27957345 300.74898258 78.48276008 300.70507266 68.68591881 300.65977156 C48.54065143 300.56699473 28.39539349 300.49750389 8.25 300.4375 C8.25 312.6475 8.25 324.8575 8.25 337.4375 C12.21 338.4275 16.17 339.4175 20.25 340.4375 C23.90396726 342.33051918 26.95969031 344.06869385 30.25 346.4375 C31.02214844 346.99050781 31.79429687 347.54351562 32.58984375 348.11328125 C42.46690291 355.99804471 48.5583627 367.99899046 50.25 380.4375 C51.42072749 393.2486037 48.31801348 405.65842533 41.25 416.4375 C37.163953 421.34167565 32.56462148 425.89441901 27.25 429.4375 C26.7731891 431.85397576 26.7731891 431.85397576 26.80859375 434.671875 C26.76895508 436.24582031 26.76895508 436.24582031 26.72851562 437.8515625 C26.71498047 438.95242188 26.70144531 440.05328125 26.6875 441.1875 C26.58253966 447.7339153 26.42736484 453.21645759 24.25 459.4375 C24.91 460.4275 25.57 461.4175 26.25 462.4375 C26.50878906 464.71826172 26.50878906 464.71826172 26.515625 467.3671875 C26.51820313 468.32753906 26.52078125 469.28789062 26.5234375 470.27734375 C26.51570313 471.27894531 26.50796875 472.28054688 26.5 473.3125 C26.50773437 474.30636719 26.51546875 475.30023438 26.5234375 476.32421875 C26.51957031 477.76861328 26.51957031 477.76861328 26.515625 479.2421875 C26.51336914 480.11858887 26.51111328 480.99499023 26.50878906 481.89794922 C26.25 484.4375 26.25 484.4375 25.10839844 487.07470703 C24.68349121 488.24428955 24.68349121 488.24428955 24.25 489.4375 C24.91 490.4275 25.57 491.4175 26.25 492.4375 C26.84895032 497.46245979 26.91912695 502.01560523 24.75 506.625 C24.255 507.223125 23.76 507.82125 23.25 508.4375 C23.73339844 508.96988281 24.21679688 509.50226563 24.71484375 510.05078125 C27.6991328 514.69047745 26.99782703 520.14662376 26.25 525.4375 C22.85237003 533.79000701 14.28250556 542.469782 6.25 546.4375 C1.42029472 547.29685446 -3.51609336 547.48356606 -8.02734375 545.37109375 C-10.11076275 543.85700509 -11.91194601 542.24109048 -13.75 540.4375 C-14.45125 539.79941406 -15.1525 539.16132812 -15.875 538.50390625 C-21.15795522 533.52200178 -25.86225307 528.55980777 -26.20169067 521.01174927 C-26.20056559 519.3320772 -26.17778141 517.65232685 -26.13720703 515.97314453 C-26.13148178 515.05023621 -26.12575653 514.12732788 -26.11985779 513.17645264 C-26.10580177 511.18211422 -26.08304042 509.18782191 -26.05246353 507.19366837 C-26.00725735 504.03147986 -25.99222022 500.87046943 -25.98605347 497.70797729 C-25.96519287 488.72062206 -25.90659397 479.7341762 -25.78808594 470.74755859 C-25.71759912 465.24075422 -25.69601057 459.7355202 -25.70479965 454.22829819 C-25.69851612 452.13669944 -25.67374823 450.04506795 -25.62976456 447.95392227 C-25.02384979 436.54094217 -25.02384979 436.54094217 -28.93084717 426.21917725 C-31.4286055 423.95948499 -33.89691805 422.21101079 -36.75 420.4375 C-46.17287102 411.51118571 -49.66745666 399.22034706 -50.0625 386.5625 C-49.76036297 372.68196931 -44.51065374 360.58791355 -35.00390625 350.50390625 C-28.01802369 344.09917163 -17.57653412 337.4375 -7.75 337.4375 C-7.75 325.2275 -7.75 313.0175 -7.75 300.4375 C-28.79548014 300.45523847 -49.84059326 300.49367142 -70.88593674 300.56959057 C-80.65852076 300.60418566 -90.43096454 300.62958889 -100.20361328 300.63305664 C-108.72537987 300.63610417 -117.24689632 300.65670041 -125.76856637 300.69802457 C-130.27724705 300.71928485 -134.78557274 300.73199124 -139.29430389 300.72365379 C-143.54624268 300.71606923 -147.79746481 300.73211347 -152.04927254 300.76556015 C-153.60194093 300.77374073 -155.15468132 300.77360618 -156.70734215 300.76409721 C-168.66160425 300.69818877 -178.46119339 302.43314252 -187.75 310.4375 C-194.52886824 318.74708042 -197.1219241 326.86849858 -197.75 337.4375 C-196.533125 337.623125 -195.31625 337.80875 -194.0625 338 C-181.02459669 340.95662689 -170.63917872 349.13417719 -163.4375 360.1875 C-156.18945789 373.33088555 -154.34003427 387.83277643 -158.3125 402.3125 C-162.16680791 413.08307471 -169.18291563 424.15395782 -179.75 429.4375 C-179.76981934 430.16864014 -179.78963867 430.89978027 -179.81005859 431.65307617 C-179.90552914 434.97740269 -180.01511966 438.30111986 -180.125 441.625 C-180.1559375 442.77548828 -180.186875 443.92597656 -180.21875 445.11132812 C-180.25742188 446.22314453 -180.29609375 447.33496094 -180.3359375 448.48046875 C-180.38306885 450.01223755 -180.38306885 450.01223755 -180.43115234 451.57495117 C-180.75 454.4375 -180.75 454.4375 -181.90087891 457.12231445 C-182.18108887 457.88632568 -182.46129883 458.65033691 -182.75 459.4375 C-181.76 460.9225 -181.76 460.9225 -180.75 462.4375 C-180.50708008 464.82592773 -180.50708008 464.82592773 -180.51953125 467.62109375 C-180.52146484 468.63107422 -180.52339844 469.64105469 -180.52539062 470.68164062 C-180.53763672 471.73544922 -180.54988281 472.78925781 -180.5625 473.875 C-180.5634668 475.44991211 -180.5634668 475.44991211 -180.56445312 477.05664062 C-180.60942058 484.89596675 -180.60942058 484.89596675 -181.32299805 487.64477539 C-181.97371089 489.52531631 -181.97371089 489.52531631 -180.75 491.4375 C-180.6270062 493.55985807 -180.57444318 495.68661463 -180.5625 497.8125 C-180.54832031 498.95460938 -180.53414063 500.09671875 -180.51953125 501.2734375 C-180.73829966 504.27686816 -181.17919363 505.91675934 -182.75 508.4375 C-181.76 509.9225 -181.76 509.9225 -180.75 511.4375 C-180.4140625 514.80078125 -180.4140625 514.80078125 -180.375 518.75 C-180.34664063 520.04550781 -180.31828125 521.34101562 -180.2890625 522.67578125 C-181.14606723 529.6698114 -185.93946894 533.94841247 -190.75 538.6875 C-191.27078125 539.21601562 -191.7915625 539.74453125 -192.328125 540.2890625 C-196.86747045 544.80548196 -199.71348931 546.72270293 -206.125 546.8125 C-207.04023438 546.84085938 -207.95546875 546.86921875 -208.8984375 546.8984375 C-215.44181231 545.8407413 -220.00266876 540.52317797 -224.5 536 C-225.07621094 535.43990234 -225.65242188 534.87980469 -226.24609375 534.30273438 C-227.07560547 533.47418945 -227.07560547 533.47418945 -227.921875 532.62890625 C-228.4178418 532.13592041 -228.91380859 531.64293457 -229.42480469 531.13500977 C-233.28389393 526.19170698 -233.0259095 521.03476545 -232.97705078 515.05737305 C-232.97734283 514.12030014 -232.97763489 513.18322723 -232.97793579 512.21775818 C-232.97654524 509.12815003 -232.96099685 506.03878465 -232.9453125 502.94921875 C-232.9415814 500.80402254 -232.93873488 498.65882462 -232.93673706 496.5136261 C-232.92910829 490.87311074 -232.90946621 485.23269871 -232.8873291 479.59222412 C-232.86685444 473.83428342 -232.85773187 468.076326 -232.84765625 462.31835938 C-232.82621968 451.02469424 -232.79209277 439.73110572 -232.75 428.4375 C-233.53318604 428.14037109 -234.31637207 427.84324219 -235.12329102 427.53710938 C-243.05435666 424.21695697 -248.003796 415.79690668 -251.75 408.4375 C-252.16507813 407.6640625 -252.58015625 406.890625 -253.0078125 406.09375 C-258.05757969 394.93482391 -257.45196753 380.16787945 -253.6875 368.6875 C-248.04431088 355.21098886 -237.13515196 345.0245177 -223.75 339.4375 C-220.74716342 338.57385231 -217.83313482 337.98450779 -214.75 337.4375 C-214.811875 336.2 -214.87375 334.9625 -214.9375 333.6875 C-214.89483298 320.09805414 -209.35548394 308.46808805 -200.13671875 298.76171875 C-186.26213806 285.25046587 -171.59212794 283.11637686 -152.83544922 283.21044922 C-151.24778755 283.21101431 -149.66012536 283.21069486 -148.07246399 283.20956421 C-143.79008835 283.20899352 -139.50782616 283.22070154 -135.22547674 283.23471212 C-130.73985218 283.24726711 -126.25422463 283.24839373 -121.76858521 283.25076294 C-113.28676915 283.25696375 -104.80500504 283.27335553 -96.32321179 283.29346192 C-86.66174417 283.3158646 -77.00027399 283.32682531 -67.33878684 283.33685279 C-47.47582252 283.35772308 -27.61292934 283.39438173 -7.75 283.4375 C-7.75 270.2375 -7.75 257.0375 -7.75 243.4375 C-12.04 243.1075 -16.33 242.7775 -20.75 242.4375 C-23.93754787 241.81791238 -26.95123852 241.17253182 -30.0625 240.3125 C-30.86300781 240.09585693 -31.66351563 239.87921387 -32.48828125 239.65600586 C-40.61277273 237.35572707 -48.17210791 234.13120478 -55.75 230.4375 C-56.73355469 229.96570313 -57.71710938 229.49390625 -58.73046875 229.0078125 C-85.37068903 215.39938829 -105.90229893 189.78281775 -115.625 161.75 C-125.74200457 128.9569507 -123.79346762 95.12628627 -107.9375 64.5625 C-103.84356502 56.95280454 -99.32834023 50.06001521 -93.75 43.4375 C-92.55697266 41.9834375 -92.55697266 41.9834375 -91.33984375 40.5 C-68.48278631 14.02304659 -34.75722246 -0.32539122 0 0 Z M-42.75 25.4375 C-43.33555664 25.71045898 -43.92111328 25.98341797 -44.52441406 26.26464844 C-70.48012397 38.60827296 -90.06698542 60.31798073 -99.80004883 87.42944336 C-109.23400665 115.17540488 -106.29296004 144.17957477 -93.80126953 170.3515625 C-91.2492477 175.41530484 -88.21065663 179.95718561 -84.75 184.4375 C-84.33878906 184.97068848 -83.92757812 185.50387695 -83.50390625 186.05322266 C-65.69715092 208.84666207 -41.00824951 221.98208893 -12.73828125 226.96875 C-10.39626847 227.24028771 -8.10645415 227.38139395 -5.75 227.4375 C-4.39648438 227.49550781 -4.39648438 227.49550781 -3.015625 227.5546875 C25.77126844 228.24008972 53.07535899 217.06605991 74.1328125 197.58984375 C95.40070944 175.96878985 105.6929419 148.79180607 105.61572266 118.83886719 C105.26221868 94.89789129 96.71762821 72.80327328 81.25 54.4375 C80.28513672 53.25414063 80.28513672 53.25414063 79.30078125 52.046875 C62.07283827 31.7936925 36.7201456 18.81108668 10.25 16.4375 C-7.94955243 15.08325468 -26.12699354 17.68562417 -42.75 25.4375 Z M-24.69921875 364.14453125 C-31.41182877 371.64986855 -33.11794918 380.01764952 -33.02734375 389.79296875 C-32.39315234 398.12677981 -28.55357129 405.4673803 -22.75 411.4375 C-14.95452869 417.73545707 -6.34229322 421.17907283 3.76953125 420.19140625 C12.20767764 418.72672032 20.40390323 415.39229303 25.78125 408.46484375 C32.44045013 398.94936905 34.40016093 391.16385336 33.25 379.4375 C31.34720464 370.83303547 26.10354322 363.77680149 18.87109375 358.80078125 C15.38834405 356.79834361 12.1879229 355.28894279 8.25 354.4375 C8.21261719 355.41332031 8.17523438 356.38914062 8.13671875 357.39453125 C8.07097656 358.66683594 8.00523437 359.93914062 7.9375 361.25 C7.85048828 363.14685547 7.85048828 363.14685547 7.76171875 365.08203125 C7.25 368.4375 7.25 368.4375 5.85546875 370.3359375 C3.61936658 371.87019738 1.95441919 372.2443272 -0.75 372.4375 C-3.5 371.625 -3.5 371.625 -5.75 370.4375 C-7.2307848 367.4759304 -7.10314037 364.60243705 -7.3125 361.3125 C-7.43818359 359.39050781 -7.43818359 359.39050781 -7.56640625 357.4296875 C-7.62699219 356.44226563 -7.68757813 355.45484375 -7.75 354.4375 C-14.12808027 354.4375 -20.26410739 360.06177761 -24.69921875 364.14453125 Z M-229 361.625 C-235.70574003 368.48314321 -239.68833494 376.6264747 -240.0625 386.25 C-239.79847592 396.48481577 -236.14317293 403.85032804 -229.12109375 411.125 C-222.29530767 417.45983627 -214.09432393 420.76537102 -204.75 420.4375 C-194.31399427 419.01689189 -185.61986821 414.75183306 -179.03125 406.40625 C-173.87521372 398.48356011 -171.76257577 389.53889745 -173.2734375 380.203125 C-175.85098582 370.12940405 -181.39494018 363.06156728 -190.0625 357.375 C-192.58448192 355.88930415 -194.88808719 355.05031577 -197.75 354.4375 C-197.78738281 355.24574219 -197.82476562 356.05398438 -197.86328125 356.88671875 C-197.92902344 357.95535156 -197.99476563 359.02398437 -198.0625 360.125 C-198.14951172 361.70861328 -198.14951172 361.70861328 -198.23828125 363.32421875 C-198.79466371 366.70923263 -199.71552374 368.6951646 -201.75 371.4375 C-204.77412079 372.63123189 -206.30824235 372.5607812 -209.4375 371.6875 C-211.75 370.4375 -211.75 370.4375 -213.75 367.4375 C-214.1640625 364.30078125 -214.1640625 364.30078125 -214.375 360.75 C-214.44976562 359.57050781 -214.52453125 358.39101563 -214.6015625 357.17578125 C-214.67503906 355.82033203 -214.67503906 355.82033203 -214.75 354.4375 C-219.28943249 354.4375 -225.3847866 359.19168329 -229 361.625 Z M182.875 363.25 C176.06672114 370.5661545 172.89901719 379.20398887 173.25 389.1875 C174.36973518 399.26511659 178.95570009 407.4629895 186.828125 413.81640625 C194.84907641 419.18526889 203.65278468 421.31785084 213.1875 419.875 C223.06760089 417.54666615 230.36496283 411.54357283 236.25 403.4375 C240.56364975 395.93354679 241.55940425 387.04585192 239.6015625 378.66015625 C236.25487403 368.46276786 230.90045848 361.81413788 221.58203125 356.53125 C219.45886835 355.53546171 217.54117737 354.90100255 215.25 354.4375 C215.21261719 355.32953125 215.17523438 356.2215625 215.13671875 357.140625 C215.07097656 358.31109375 215.00523437 359.4815625 214.9375 360.6875 C214.85048828 362.42773438 214.85048828 362.42773438 214.76171875 364.203125 C214.22781774 367.57770542 213.61843622 369.02872545 211.25 371.4375 C208.2605088 372.5388915 206.65252937 372.54047263 203.5625 371.75 C200.7968433 370.18030296 200.38439289 369.36512532 199.25 366.4375 C198.96519194 364.3632375 198.76125776 362.27678561 198.625 360.1875 C198.55023438 359.10984375 198.47546875 358.0321875 198.3984375 356.921875 C198.34945313 356.10203125 198.30046875 355.2821875 198.25 354.4375 C192.88815819 354.4375 186.52454547 359.76540573 182.875 363.25 Z M-215.75 435.4375 C-215.95374072 446.36461996 -216.11867608 457.29046852 -216.21630955 468.21906185 C-216.26318122 473.29430421 -216.3267004 478.36817434 -216.42895508 483.44262695 C-216.52711024 488.34459875 -216.58063296 493.24525521 -216.60389519 498.14813423 C-216.62046076 500.01372541 -216.65281205 501.87924858 -216.70157051 503.74427605 C-217.23424865 514.16661482 -217.23424865 514.16661482 -213.68649292 523.6423645 C-211.484569 525.86262902 -209.35229866 527.71302301 -206.75 529.4375 C-206.23228027 529.0156543 -205.71456055 528.59380859 -205.18115234 528.15917969 C-203.94628906 527.15299479 -202.71142578 526.1468099 -201.4765625 525.140625 C-199.66687682 523.35550519 -198.74882545 521.75800356 -197.75 519.4375 C-198.23984375 518.93089844 -198.7296875 518.42429687 -199.234375 517.90234375 C-201.32478048 514.50274103 -201.07852065 511.96136666 -201 508 C-200.98453125 506.70191406 -200.9690625 505.40382813 -200.953125 504.06640625 C-200.75 500.4375 -200.75 500.4375 -200.171875 497.58984375 C-199.51483755 495.39873881 -199.51483755 495.39873881 -200.75 493.4375 C-201.49559758 486.64156139 -200.74867301 483.06063392 -196.75 477.4375 C-196.08323122 473.89499949 -196.08323122 473.89499949 -196.75 470.4375 C-197.41 469.69628906 -198.07 468.95507812 -198.75 468.19140625 C-201.3524527 464.60795087 -201.28511629 462.32703604 -201.25 457.9375 C-201.26546875 456.00390625 -201.26546875 456.00390625 -201.28125 454.03125 C-200.67300367 449.9166425 -199.36786672 448.55523497 -196.75 445.4375 C-196.2718012 442.77630783 -196.2718012 442.77630783 -196.5 440.125 C-196.5825 438.578125 -196.665 437.03125 -196.75 435.4375 C-203.02 435.4375 -209.29 435.4375 -215.75 435.4375 Z M-9.75 435.4375 C-9.95374072 446.36461996 -10.11867608 457.29046852 -10.21630955 468.21906185 C-10.26318122 473.29430421 -10.3267004 478.36817434 -10.42895508 483.44262695 C-10.52711024 488.34459875 -10.58063296 493.24525521 -10.60389519 498.14813423 C-10.62046076 500.01372541 -10.65281205 501.87924858 -10.70157051 503.74427605 C-11.23424865 514.16661482 -11.23424865 514.16661482 -7.68649292 523.6423645 C-5.484569 525.86262902 -3.35229866 527.71302301 -0.75 529.4375 C2.13276115 528.05187164 4.24219936 526.7181067 6.5 524.4375 C7.02078125 523.921875 7.5415625 523.40625 8.078125 522.875 C9.46062015 521.48824629 9.46062015 521.48824629 9.25 519.4375 C8.59 519.4375 7.93 519.4375 7.25 519.4375 C4.50253576 512.91227243 4.35508765 506.42054117 6.375 499.6875 C7.43694602 495.74312909 6.56370578 494.22406371 5.25 490.4375 C5.12248312 486.13593048 5.58546141 483.26313886 8.3125 479.875 C10.55094972 477.48206106 10.55094972 477.48206106 10.75 473.875 C10.1705118 469.89101863 9.24248293 468.97657643 6.25 466.4375 C4.5354022 461.29370659 4.61953602 455.71686979 6.0625 450.5 C7.25 448.4375 7.25 448.4375 10.25 445.4375 C10.25 442.1375 10.25 438.8375 10.25 435.4375 C3.65 435.4375 -2.95 435.4375 -9.75 435.4375 Z M197.25 435.4375 C197.04625928 446.36461996 196.88132392 457.29046852 196.78369045 468.21906185 C196.73681878 473.29430421 196.6732996 478.36817434 196.57104492 483.44262695 C196.47288976 488.34459875 196.41936704 493.24525521 196.39610481 498.14813423 C196.37953924 500.01372541 196.34718795 501.87924858 196.29842949 503.74427605 C195.76575135 514.16661482 195.76575135 514.16661482 199.31350708 523.6423645 C201.515431 525.86262902 203.64770134 527.71302301 206.25 529.4375 C206.76771973 529.0156543 207.28543945 528.59380859 207.81884766 528.15917969 C209.05371094 527.15299479 210.28857422 526.1468099 211.5234375 525.140625 C213.4400878 523.24999257 214.52565332 522.04514805 215.25 519.4375 C214.27693442 517.75496585 213.27313314 516.0900666 212.25 514.4375 C211.88671875 511.28125 211.88671875 511.28125 211.9375 507.9375 C211.94136719 506.8340625 211.94523437 505.730625 211.94921875 504.59375 C212.24532022 501.48660729 213.05392652 499.2888988 214.25 496.4375 C213.60191436 495.09503688 212.93177416 493.76317199 212.25 492.4375 C211.81909197 487.00805878 211.85845728 483.91433639 215.25 479.4375 C215.58 479.1075 215.91 478.7775 216.25 478.4375 C216.85405843 473.16018036 216.85405843 473.16018036 214.8125 468.625 C214.296875 468.233125 213.78125 467.84125 213.25 467.4375 C212.13916499 464.10499498 212.08240415 461.50711042 212.0625 458 C212.04832031 456.86691406 212.03414063 455.73382813 212.01953125 454.56640625 C212.24095139 451.56034643 212.5827344 449.91207316 214.25 447.4375 C214.91 447.1075 215.57 446.7775 216.25 446.4375 C216.25 442.8075 216.25 439.1775 216.25 435.4375 C209.98 435.4375 203.71 435.4375 197.25 435.4375 Z " fill="#000000" transform="translate(255.75,-0.4375)"/>
<path d="M0 0 C0.60972656 0.29003906 1.21945312 0.58007812 1.84765625 0.87890625 C11.89962866 6.1589533 18.14759487 14.10056469 21.875 24.8125 C24.79585447 35.98870363 23.46004073 47.20509598 17.71484375 57.24609375 C11.63027207 65.94076024 4.09784677 71.79567284 -6 75 C-4.08315513 76.91684487 -1.18808336 76.70962764 1.38720703 77.15356445 C16.21681986 79.76681344 29.11519679 84.46695997 41 94 C41.98355469 94.76570313 42.96710938 95.53140625 43.98046875 96.3203125 C51.23267187 102.41354012 57.02121368 111.73484161 59 121 C59.226875 122.051875 59.45375 123.10375 59.6875 124.1875 C60.67649197 136.25320204 61.20561092 148.70867531 53.8125 158.9375 C47.10287183 166.68585721 39.68548229 169.41945476 29.58880615 170.18213654 C27.12726879 170.256786 24.67356025 170.27057363 22.2109375 170.25878906 C21.28919739 170.2622937 20.36745728 170.26579834 19.41778564 170.26940918 C16.40344469 170.27813439 13.38934289 170.27241011 10.375 170.265625 C8.26090449 170.2669743 6.14680929 170.26891703 4.03271484 170.27142334 C-0.38512138 170.27436214 -4.80287639 170.27011709 -9.22070312 170.26074219 C-14.86262477 170.24934848 -20.50435608 170.25591462 -26.14627075 170.26788712 C-30.50790827 170.27513937 -34.86950122 170.27280236 -39.23114014 170.26763153 C-41.31060814 170.26630434 -43.39008029 170.26790989 -45.46954346 170.27259064 C-48.38344941 170.27771141 -51.2970538 170.26986823 -54.2109375 170.25878906 C-55.47994904 170.26486176 -55.47994904 170.26486176 -56.77459717 170.27105713 C-66.79388802 170.20104287 -75.28947826 168.70800649 -83 162 C-92.25247254 151.87577416 -92.53672608 141.20056034 -92 128 C-90.90469699 114.53315968 -84.50068365 103.50361392 -74.4140625 94.7578125 C-60.40348095 83.6019339 -44.64963213 78.31992587 -27 76 C-27.57105469 75.71640625 -28.14210937 75.4328125 -28.73046875 75.140625 C-41.36623735 68.79011823 -49.3785885 62.30781877 -54.875 48.875 C-57.92499268 38.57442591 -57.07276438 26.44014437 -52 17 C-46.34142886 7.89644385 -38.41652279 1.0029125 -28.16015625 -2.34375 C-18.88731462 -4.26938337 -8.62813578 -4.17953355 0 0 Z M-35.58984375 22.796875 C-39.26679123 28.54146884 -40.68590065 34.0405845 -39.56640625 40.8046875 C-37.72973725 47.9233632 -34.18103991 52.96497602 -28 57 C-22.16642745 59.82899003 -16.34901416 59.81208321 -10 59 C-3.08871267 56.60182106 1.58700022 52.27611891 5 45.84765625 C7.31116561 39.26625107 7.25174523 31.98979369 4.4375 25.5625 C0.56364451 19.14219405 -4.72267929 15.48569033 -11.8828125 13.47265625 C-21.28641326 11.37332841 -29.77087134 15.36839958 -35.58984375 22.796875 Z M-67 111 C-73.14059444 118.48543537 -75.35919612 125.42284907 -75.375 135 C-75.39949219 135.78117187 -75.42398438 136.56234375 -75.44921875 137.3671875 C-75.47621129 142.71171015 -74.63542209 145.8310518 -71 150 C-66.3860761 153.7068846 -62.00079068 153.43208857 -56.34790039 153.40405273 C-55.38145096 153.41091599 -54.41500153 153.41777924 -53.41926575 153.42485046 C-50.22857927 153.44313284 -47.03838381 153.43927881 -43.84765625 153.43359375 C-41.62714986 153.43815486 -39.40664489 153.44346023 -37.18614197 153.44947815 C-32.53329736 153.45841211 -27.88062437 153.4559828 -23.2277832 153.44604492 C-17.26792212 153.4345553 -11.30865352 153.45476565 -5.34887028 153.48396206 C-0.76346581 153.50231625 3.82179648 153.50203311 8.40722847 153.49632454 C10.60444533 153.49617123 12.80167177 153.50222361 14.99885368 153.51461601 C18.07244816 153.52950891 21.1449455 153.51886078 24.21850586 153.50170898 C25.12415283 153.51137695 26.0297998 153.52104492 26.96289062 153.53100586 C32.46996425 153.46671942 35.631902 152.67462574 40 149 C43.56015641 144.74738187 43.50740298 140.62182388 43.4375 135.3125 C43.42505249 134.10811279 43.42505249 134.10811279 43.41235352 132.87939453 C43.15300764 123.75152728 40.64533581 116.71974368 34.3046875 110.01171875 C6.83326321 86.03242466 -40.23852946 85.25361972 -67 111 Z " fill="#000000" transform="translate(272,30)"/>
</svg>
