<?xml version="1.0" encoding="UTF-8"?>
<svg version="1.1" xmlns="http://www.w3.org/2000/svg" width="512" height="512">
<path d="M0 0 C5.02956579 4.03133136 10.04165804 8.08246813 15.02734375 12.16796875 C18.67125494 15.14762079 22.35885865 18.0660992 26.0703125 20.9609375 C31.81067682 25.44260095 37.46725311 30.02050972 43.109375 34.625 C47.39482868 38.11623833 51.71360703 41.55912638 56.0703125 44.9609375 C61.1187769 48.90288915 66.10782712 52.9113117 71.0703125 56.9609375 C76.07859012 61.04616323 81.10882482 65.09841772 86.1953125 69.0859375 C86.76217773 69.53050293 87.32904297 69.97506836 87.91308594 70.43310547 C90.83642261 72.72191299 93.76697284 75.0010974 96.703125 77.2734375 C122.23980662 97.08348312 122.23980662 97.08348312 124.58984375 110.40625 C125.66935553 122.12255121 123.67751563 131.29649514 116.0703125 140.4609375 C110.05744713 146.92080245 103.0739087 150.39910325 94.2734375 151.06640625 C93.29536133 151.1439917 92.31728516 151.22157715 91.30957031 151.30151367 C90.2011377 151.38042847 90.2011377 151.38042847 89.0703125 151.4609375 C89.07492146 152.02893759 89.07953043 152.59693768 89.08427906 153.18214989 C89.19497022 167.03860177 89.27725172 180.8949756 89.32937336 194.75177574 C89.35509397 201.45301809 89.39075579 208.15392077 89.44750977 214.85498047 C89.50196992 221.32594559 89.53176305 227.79660363 89.54469872 234.2677803 C89.55391331 236.73246721 89.57190727 239.19713794 89.59896278 241.66169357 C89.63543746 245.1229719 89.64024991 248.58299298 89.63793945 252.04443359 C89.65591583 253.05576355 89.67389221 254.06709351 89.69241333 255.10906982 C89.63395653 263.24086074 87.26620127 269.61848164 82.04296875 275.8984375 C81.41261719 276.4140625 80.78226562 276.9296875 80.1328125 277.4609375 C79.50503906 277.9971875 78.87726563 278.5334375 78.23046875 279.0859375 C73.24173709 282.26140503 68.25944042 282.7504936 62.47732544 282.70144653 C61.73307591 282.70315538 60.98882639 282.70486423 60.22202384 282.70662487 C57.73922516 282.7099075 55.25669939 282.69893645 52.77392578 282.68798828 C50.98981228 282.6874239 49.20569831 282.68774125 47.42158508 282.68887329 C42.58527696 282.68944676 37.74906819 282.67769334 32.91278315 282.66372538 C27.85591289 282.65121709 22.79904032 282.65004744 17.74215698 282.64767456 C8.16939889 282.64146009 -1.40331348 282.62504969 -10.97605145 282.60497558 C-21.87561405 282.58261559 -32.77517884 282.57162289 -43.67475867 282.56158471 C-66.09309362 282.54068345 -88.511388 282.50550808 -110.9296875 282.4609375 C-111.13269974 283.08012558 -111.33571198 283.69931366 -111.5448761 284.33726501 C-111.94672371 285.55465111 -111.94672371 285.55465111 -112.35668945 286.79663086 C-112.75402031 288.00385048 -112.75402031 288.00385048 -113.15937805 289.23545837 C-114.41023464 292.84927258 -116.14894451 296.0836663 -117.9296875 299.4609375 C-117.24471191 299.45006104 -116.55973633 299.43918457 -115.85400391 299.42797852 C-108.01922401 299.35984435 -100.24881044 299.74181773 -92.43493652 300.25830078 C-82.50792108 300.91134151 -72.58662277 301.4893935 -62.640625 301.74609375 C-61.50740311 301.77545265 -61.50740311 301.77545265 -60.35128784 301.80540466 C-56.74263318 301.89497498 -53.13416065 301.97080322 -49.52490234 302.03100586 C-32.47012134 302.39976353 -14.62026923 303.69328746 -1.9296875 316.4609375 C2.85159541 322.21777365 5.40014931 328.54123088 8.0703125 335.4609375 C37.83585134 326.59022013 67.32650612 317.18242836 96.22802734 305.77734375 C116.88562043 297.74880348 142.8963408 291.0180996 164.51171875 299.19921875 C168.51334757 301.17254105 171.83224267 303.3932924 175.0703125 306.4609375 C175.62332031 306.97398437 176.17632812 307.48703125 176.74609375 308.015625 C182.66330425 314.15307906 185.23619258 321.90497826 185.5703125 330.3359375 C185.26479651 337.90484981 184.07048721 347.28777192 178.2578125 352.7109375 C176.89472658 353.6756267 175.4924303 354.58560361 174.0703125 355.4609375 C173.10996094 356.08613281 172.14960938 356.71132813 171.16015625 357.35546875 C152.60487382 369.13292641 132.57467743 378.28982493 112.4921875 387.09375 C100.71917364 392.25749315 89.03623958 397.59549518 77.3828125 403.0234375 C73.91170209 404.63854516 70.44030742 406.25304088 66.96875 407.8671875 C66.1255571 408.25929916 65.2823642 408.65141083 64.41362 409.05540466 C51.00835001 415.28380756 37.54183935 421.37750945 24.0703125 427.4609375 C23.27715637 427.81927673 22.48400024 428.17761597 21.66680908 428.54681396 C11.43335397 433.16992839 1.1946582 437.78106949 -9.0533905 442.37174988 C-13.81785524 444.50762847 -18.57218053 446.66400401 -23.3203125 448.8359375 C-32.60981114 453.05692738 -41.85075802 457.03249187 -51.6171875 460.0234375 C-52.3587207 460.2512793 -53.10025391 460.47912109 -53.86425781 460.71386719 C-65.92787397 464.14303701 -78.04379349 464.74607418 -90.49021149 464.73533249 C-93.0168011 464.73434712 -95.54298793 464.74754164 -98.06951904 464.76431274 C-105.24244139 464.80998276 -112.41531557 464.83514869 -119.58837891 464.84179688 C-124.00733042 464.84687463 -128.425853 464.87142702 -132.8446579 464.90712357 C-134.50440621 464.91676981 -136.16421464 464.91933886 -137.82398224 464.91395187 C-152.33675688 464.86904696 -167.42124918 466.30972867 -180.5546875 473.0234375 C-181.23724609 473.35786865 -181.91980469 473.6922998 -182.62304688 474.03686523 C-193.26862346 479.44396767 -203.02372174 486.65800295 -212.23046875 494.21875 C-215.91051001 496.90898706 -219.53183062 496.83363724 -223.9296875 496.4609375 C-227.85144315 494.34922292 -230.57659753 492.23540262 -232.9296875 488.4609375 C-233.328125 486.05859375 -233.328125 486.05859375 -233.3046875 483.5234375 C-233.31628906 482.27240234 -233.31628906 482.27240234 -233.328125 480.99609375 C-232.43241329 475.29690846 -229.03136789 472.45894606 -224.63867188 469.16113281 C-223.95095703 468.66194336 -223.26324219 468.16275391 -222.5546875 467.6484375 C-221.83861328 467.12217773 -221.12253906 466.59591797 -220.38476562 466.05371094 C-195.78592083 448.17855039 -170.99614678 438.1606249 -140.42599297 438.18654251 C-137.86148434 438.18752462 -135.29737607 438.17436808 -132.73292542 438.15756226 C-125.44982995 438.11180986 -118.16677961 438.08673898 -110.88354492 438.08007812 C-106.40205897 438.07499592 -101.92099503 438.05041594 -97.4396534 438.01475143 C-95.75561142 438.00510918 -94.07151022 438.00253382 -92.38744926 438.00792313 C-74.45984967 438.0625905 -58.30589098 434.84930866 -41.9296875 427.4609375 C-41.29148071 427.17760559 -40.65327393 426.89427368 -39.99572754 426.60235596 C-35.16096547 424.45455026 -30.35636282 422.24399001 -25.5546875 420.0234375 C-24.02298663 419.31857526 -22.49108102 418.6141578 -20.95898438 417.91015625 C-18.60054213 416.82643576 -16.24220082 415.74250386 -13.88446045 414.65725708 C-6.07845398 411.06476029 1.74484714 407.51079364 9.5703125 403.9609375 C17.93752001 400.16390827 26.30115332 396.35949378 34.65234375 392.52734375 C37.56239172 391.19247211 40.47254426 389.85782882 43.3828125 388.5234375 C44.46802689 388.02577881 44.46802689 388.02577881 45.57516479 387.51806641 C55.97408183 382.75278121 66.41022214 378.07875273 76.87432861 373.45855713 C118.81385906 355.9474054 118.81385906 355.9474054 158.0703125 333.4609375 C158.04904788 330.05478804 158.04904788 330.05478804 157.0703125 326.4609375 C148.99325039 320.99667308 137.02817353 322.46459377 127.83203125 324.12890625 C115.563776 326.84773201 103.82036771 331.80636576 92.09301758 336.23803711 C63.16868205 347.15029462 33.40455497 357.47785871 3.30322266 364.62573242 C0.06258223 365.83787225 -1.35629504 367.85527484 -3.37109375 370.56640625 C-15.93279507 385.83564219 -40.26805589 388.97662318 -58.69247437 390.81745911 C-68.01756415 391.66925448 -77.31827583 391.72801743 -86.67578125 391.66674805 C-89.55998598 391.6484038 -92.44386763 391.64624019 -95.328125 391.64648438 C-100.86326106 391.63758506 -106.39562445 391.56757199 -111.9296875 391.4609375 C-112.79766968 391.44661682 -113.66565186 391.43229614 -114.55993652 391.4175415 C-117.02566161 391.3677105 -119.48856531 391.28898283 -121.953125 391.19921875 C-122.67521149 391.18585983 -123.39729797 391.17250092 -124.14126587 391.15873718 C-129.13561102 390.92743289 -132.05083678 389.56336714 -135.9296875 386.4609375 C-138.81485092 382.9987414 -139.46886615 379.97296866 -139.28125 375.453125 C-138.51686301 371.12159871 -136.13148567 368.33453178 -132.66026306 365.8112793 C-129.47919544 364.23815727 -127.46195874 364.11467232 -123.92797852 364.16796875 C-122.73805801 364.17787842 -121.54813751 364.18778809 -120.32215881 364.19799805 C-119.03893234 364.22289307 -117.75570587 364.24778809 -116.43359375 364.2734375 C-115.08098447 364.2866894 -113.72835635 364.29812967 -112.37571716 364.30786133 C-107.36792146 364.34774947 -102.36067939 364.41919196 -97.35327148 364.49206543 C-56.91361203 366.32709876 -56.91361203 366.32709876 -21.4296875 350.2109375 C-19.27356575 346.25804763 -19.16101714 342.86477811 -19.9296875 338.4609375 C-22.2286013 334.05468606 -25.14345419 332.63255014 -29.63671875 331.0390625 C-34.83855485 329.72752631 -40.05124462 329.33627058 -45.3984375 329.25 C-46.66937256 329.22357422 -47.94030762 329.19714844 -49.24975586 329.16992188 C-49.92811493 329.15662842 -50.606474 329.14333496 -51.3053894 329.12963867 C-66.85227411 328.80980734 -82.35107466 327.97123978 -97.8671875 326.9609375 C-98.88474121 326.89513489 -99.90229492 326.82933228 -100.95068359 326.76153564 C-103.89048581 326.570287 -106.83006008 326.37595465 -109.76953125 326.1796875 C-110.63299667 326.12239471 -111.4964621 326.06510193 -112.38609314 326.006073 C-127.92010779 324.94523181 -127.92010779 324.94523181 -133.26841736 324.08459473 C-137.31517235 323.44663946 -139.45664766 324.1595207 -142.93359375 326.375 C-144.66532223 327.64626888 -146.37005623 328.94866631 -148.07348633 330.25756836 C-166.9019268 344.46531904 -192.45323648 351.45893333 -215.9296875 349.4609375 C-217.59490491 349.1248887 -219.25619801 348.76906287 -220.9140625 348.3984375 C-231.12218711 345.84576655 -231.12218711 345.84576655 -240.93359375 348.2890625 C-244.0422125 350.51817167 -246.73687376 353.1167446 -249.38378906 355.87011719 C-251.72391976 358.27824916 -254.2838395 360.43194385 -256.8046875 362.6484375 C-263.46982478 368.82737394 -269.86750028 375.29643267 -276.3046875 381.7109375 C-276.82705994 382.23054047 -277.34943237 382.75014343 -277.88763428 383.28549194 C-283.2612441 388.63830328 -288.57371389 394.00453305 -293.48974609 399.78833008 C-299.75916549 407.0707635 -299.75916549 407.0707635 -303.9296875 408.4609375 C-309.23903416 408.80347599 -312.67878473 409.00335648 -316.9296875 405.4609375 C-320.30761969 401.53523253 -321.37721598 398.60922899 -321.4609375 393.5859375 C-319.88096738 387.26605704 -314.29270156 382.44693503 -309.9296875 377.8984375 C-308.58544964 376.48223374 -307.24170641 375.06556034 -305.8984375 373.6484375 C-305.23070312 372.94589844 -304.56296875 372.24335938 -303.875 371.51953125 C-301.02876722 368.507554 -298.22934133 365.4536296 -295.4296875 362.3984375 C-289.56608401 356.02958237 -283.61876683 349.96107457 -277.0625 344.3046875 C-274.66535797 342.23243286 -272.29633927 340.13042528 -269.9296875 338.0234375 C-268.785 337.00443359 -268.785 337.00443359 -267.6171875 335.96484375 C-267.0603125 335.46855469 -266.5034375 334.97226562 -265.9296875 334.4609375 C-268.53361565 331.7690388 -271.19014318 329.4013495 -274.1796875 327.1484375 C-275.76384269 325.92033022 -277.34719225 324.69118298 -278.9296875 323.4609375 C-279.58195312 322.96078125 -280.23421875 322.460625 -280.90625 321.9453125 C-298.72570857 307.42575366 -311.95423083 282.75253903 -314.71435547 259.96972656 C-316.13992735 243.3606828 -316.15851175 226.41185652 -310.9296875 210.4609375 C-310.72069824 209.81560059 -310.51170898 209.17026367 -310.29638672 208.50537109 C-301.13001157 181.2396964 -281.50518721 160.08980068 -256.0859375 146.99609375 C-230.48179187 134.89298468 -202.10951656 133.2091956 -175.1171875 141.7109375 C-163.23693729 145.99498898 -152.87531404 151.7067202 -142.9296875 159.4609375 C-141.6096875 160.4509375 -140.2896875 161.4409375 -138.9296875 162.4609375 C-138.5996875 158.8309375 -138.2696875 155.2009375 -137.9296875 151.4609375 C-139.3940625 151.3784375 -140.8584375 151.2959375 -142.3671875 151.2109375 C-151.66300933 150.24071068 -158.58310899 146.26179742 -164.9296875 139.4609375 C-172.10896658 130.46694042 -173.99586595 121.88237414 -172.9296875 110.4609375 C-170.04848672 97.87205454 -162.83137635 91.04296884 -152.8984375 83.5078125 C-148.70342554 80.31977054 -144.66259986 76.96044651 -140.6171875 73.5859375 C-134.30237338 68.34229079 -127.85945375 63.30905227 -121.31201172 58.36035156 C-115.44663588 53.90628536 -109.76038656 49.25863204 -104.09594727 44.55297852 C-99.18235629 40.47564675 -94.20334831 36.49818022 -89.16723633 32.57373047 C-84.70839501 29.09195145 -80.31226268 25.53810044 -75.9296875 21.9609375 C-69.22375123 16.49212807 -62.46132549 11.10386932 -55.63085938 5.79150391 C-53.88345995 4.42478076 -52.14826554 3.04357294 -50.4140625 1.66015625 C-49.27362398 0.76018031 -48.13300577 -0.13956798 -46.9921875 -1.0390625 C-45.49365234 -2.23015625 -45.49365234 -2.23015625 -43.96484375 -3.4453125 C-29.2461804 -13.59872763 -13.5441264 -10.37997152 0 0 Z M-31.7421875 20.7109375 C-32.30623291 21.15767822 -32.87027832 21.60441895 -33.45141602 22.06469727 C-35.28515917 23.52079428 -37.10756878 24.99032987 -38.9296875 26.4609375 C-40.16085617 27.44476445 -41.39262878 28.42783608 -42.625 29.41015625 C-45.14701086 31.42241301 -47.66453334 33.44011902 -50.1796875 35.4609375 C-53.72078803 38.30111916 -57.29058761 41.10318556 -60.8671875 43.8984375 C-66.62595171 48.40341548 -72.30397325 53.00210112 -77.96850586 57.62475586 C-82.8152238 61.57334873 -87.71336034 65.44955876 -92.640625 69.296875 C-97.11405458 72.79869997 -101.52835952 76.36904914 -105.9296875 79.9609375 C-110.89208169 84.01070747 -115.88177404 88.01826963 -120.9296875 91.9609375 C-126.18451633 96.07490032 -131.41599575 100.21681089 -136.6171875 104.3984375 C-137.30103516 104.94242187 -137.98488281 105.48640625 -138.68945312 106.046875 C-143.36860288 109.74215999 -143.36860288 109.74215999 -146.9296875 114.4609375 C-146.9296875 118.67173121 -146.5500828 120.73106067 -143.8046875 123.9609375 C-139.89463233 126.00096629 -138.19109185 125.56655211 -133.9296875 124.4609375 C-130.99979763 122.60775628 -128.46115104 120.37807543 -125.8671875 118.0859375 C-124.35793731 116.79681018 -122.84750496 115.50906567 -121.3359375 114.22265625 C-120.21832031 113.26238525 -120.21832031 113.26238525 -119.078125 112.28271484 C-116.07329112 109.7347523 -112.98233322 107.30926197 -109.8671875 104.8984375 C-104.8363062 100.98110809 -99.86916452 96.99287424 -94.9296875 92.9609375 C-89.38056767 88.43332391 -83.79052949 83.9657776 -78.1484375 79.5546875 C-73.8850549 76.21938819 -69.65190222 72.84816808 -65.4296875 69.4609375 C-55.91382344 61.83276131 -46.32891313 54.29473227 -36.6796875 46.8359375 C-35.85573486 46.19664307 -35.85573486 46.19664307 -35.01513672 45.54443359 C-30.40310403 41.99209995 -27.57856267 40.8412824 -21.75 40.94921875 C-16.11235004 41.97211646 -12.19917537 45.86498517 -7.9296875 49.4609375 C-6.6029126 50.54982422 -5.27469371 51.63695301 -3.9453125 52.72265625 C-1.01911841 55.11891231 1.89563322 57.52828742 4.8046875 59.9453125 C8.53384952 63.03347264 12.31320385 66.04823284 16.1328125 69.0234375 C21.18635323 72.95978788 26.17302486 76.96961179 31.1328125 81.0234375 C35.89199961 84.91081645 40.68405855 88.73433838 45.5703125 92.4609375 C50.45658102 96.18754773 55.24833446 100.01139781 60.0078125 103.8984375 C65.20846949 108.1434503 70.42493382 112.36515057 75.6953125 116.5234375 C76.52857056 117.18460571 76.52857056 117.18460571 77.37866211 117.85913086 C83.62799682 123.3244903 83.62799682 123.3244903 91.1953125 125.4609375 C94.5149551 124.3062792 95.96652315 123.26598997 98.0703125 120.4609375 C99.15055908 118.05983533 99.15055908 118.05983533 99.0703125 115.4609375 C96.7414349 110.27060951 92.5956025 107.29460715 88.2578125 103.8359375 C87.11711304 102.91180054 87.11711304 102.91180054 85.95336914 101.96899414 C80.77619824 97.78732898 75.55409008 93.66184991 70.3046875 89.57128906 C65.9038802 86.13815927 61.5759663 82.62222067 57.2578125 79.0859375 C51.79749856 74.61912854 46.25816593 70.28025216 40.6328125 66.0234375 C34.0305275 61.02441318 27.60646892 55.84459953 21.23681641 50.55322266 C16.32840246 46.48009026 11.35586062 42.50506279 6.32324219 38.58691406 C1.03565686 34.46083396 -4.16114561 30.22646426 -9.33813477 25.96264648 C-19.77063728 16.35993778 -19.77063728 16.35993778 -31.7421875 20.7109375 Z M-31.7421875 75.2734375 C-32.91744654 76.29507115 -34.09459008 77.31454027 -35.2734375 78.33203125 C-35.87929688 78.85522949 -36.48515625 79.37842773 -37.109375 79.91748047 C-39.924567 82.30450351 -42.82683798 84.57316015 -45.7421875 86.8359375 C-50.8566194 90.81589802 -55.90995666 94.86216413 -60.9296875 98.9609375 C-67.63112857 104.42762739 -74.40054377 109.79938213 -81.21630859 115.12255859 C-82.94085457 116.46966048 -84.66413411 117.81835986 -86.38671875 119.16796875 C-87.20093544 119.80298813 -87.20093544 119.80298813 -88.03160095 120.45083618 C-89.18926702 121.36380808 -90.33861238 122.28752682 -91.47569275 123.22601318 C-94.48474121 125.6843044 -97.39365843 127.77567038 -100.85449219 129.55249023 C-105.45716691 132.13583733 -109.19671028 134.86083225 -111.9296875 139.4609375 C-114.43609498 148.66013634 -113.67426633 158.52851647 -113.30938721 167.9765625 C-113.22040835 170.7695772 -113.20882235 173.56050293 -113.19892502 176.35474205 C-113.13600329 190.11264233 -112.64505344 203.16361084 -107.33032227 216.02832031 C-102.20190298 228.59683611 -103.78152753 243.20062045 -103.9296875 256.4609375 C-92.7096875 256.4609375 -81.4896875 256.4609375 -69.9296875 256.4609375 C-69.89230469 252.39007813 -69.85492188 248.31921875 -69.81640625 244.125 C-69.77822951 240.85410945 -69.73715739 237.58328339 -69.6941452 234.31245422 C-69.6497088 230.87352781 -69.61022941 227.43471692 -69.58325195 223.99560547 C-69.55197323 220.03848677 -69.49719408 216.08185181 -69.44140625 212.125 C-69.43501633 210.90793365 -69.4286264 209.69086731 -69.42204285 208.43692017 C-69.23264109 197.33309155 -67.19734997 188.09663055 -59.9296875 179.4609375 C-52.99526393 172.79258294 -44.04958394 170.99456289 -34.72265625 170.9921875 C-33.87600906 170.98457397 -33.02936188 170.97696045 -32.15705872 170.96911621 C-30.37809167 170.95838603 -28.599062 170.955433 -26.82006836 170.95996094 C-24.1335062 170.9609316 -21.44982202 170.91926504 -18.76367188 170.875 C-7.3063457 170.79524309 3.01351816 171.61555781 12.0078125 179.5859375 C19.59721318 188.49119599 20.811766 197.72407875 20.77734375 209.09765625 C20.7904916 210.47201193 20.80580517 211.84634842 20.82316589 213.22065735 C20.86266968 216.79957471 20.87318357 220.37798271 20.87719727 223.95709229 C20.88659496 227.62454102 20.92378281 231.29170752 20.95898438 234.95898438 C21.025783 242.12667978 21.04693467 249.29244555 21.0703125 256.4609375 C34.9303125 256.4609375 48.7903125 256.4609375 63.0703125 256.4609375 C63.27373572 241.34433218 63.43941198 226.22834694 63.53662205 211.11071777 C63.58296536 204.0907276 63.64610585 197.07165021 63.74926758 190.05224609 C63.8488007 183.27649309 63.90088893 176.50168836 63.92420769 169.72525024 C63.94082252 167.14158208 63.9732688 164.55796512 64.02188301 161.97470093 C64.08734344 158.35179104 64.09620969 154.73278223 64.09204102 151.109375 C64.14057724 149.5114637 64.14057724 149.5114637 64.19009399 147.88127136 C64.13468824 143.42330687 63.98979483 140.59116006 61.11678886 137.05967712 C58.85259416 135.02485092 56.55059441 133.22253299 54.0703125 131.4609375 C52.93921709 130.55674506 51.81169982 129.64801063 50.69140625 128.73046875 C49.63222662 127.90884986 48.57099067 127.08987566 47.5078125 126.2734375 C42.3072436 122.23427177 37.17000897 118.12670476 32.0703125 113.9609375 C27.10814602 109.91092961 22.11876806 105.90288225 17.0703125 101.9609375 C12.02184772 98.01898555 7.0328052 94.0105553 2.0703125 89.9609375 C-3.16727105 85.68882473 -8.42958937 81.452011 -13.7421875 77.2734375 C-14.61327148 76.58701172 -14.61327148 76.58701172 -15.50195312 75.88671875 C-22.59977177 70.32379279 -24.895248 69.16982173 -31.7421875 75.2734375 Z M-247.9296875 172.4609375 C-248.90421875 172.96238281 -249.87875 173.46382812 -250.8828125 173.98046875 C-269.61657791 184.79894439 -281.89475789 203.53090221 -287.5390625 224.0625 C-289.06507552 230.34924719 -289.43158394 236.32222269 -289.3671875 242.7734375 C-289.35816406 243.86648193 -289.34914063 244.95952637 -289.33984375 246.08569336 C-288.95308989 264.22149502 -282.27168172 281.96111149 -269.9296875 295.4609375 C-268.72892578 296.79898438 -268.72892578 296.79898438 -267.50390625 298.1640625 C-252.33694321 314.23094664 -231.99001429 322.95125279 -209.9921875 323.7109375 C-186.90427424 323.3916026 -166.53826338 314.28378169 -150.32568359 297.93017578 C-134.89015477 281.68480809 -128.36114839 261.05173131 -128.72265625 238.93359375 C-129.30264242 222.34171941 -135.47384691 206.32797823 -145.9296875 193.4609375 C-146.59613281 192.63207031 -147.26257813 191.80320313 -147.94921875 190.94921875 C-160.98749601 175.60868712 -179.15143867 165.75399621 -199.0546875 162.7109375 C-216.82523587 161.56445051 -232.10337328 164.27051181 -247.9296875 172.4609375 Z M-42.34472656 198.21557617 C-44.85087391 203.34715606 -44.41906236 208.34943856 -44.3203125 213.98046875 C-44.31465271 215.19417648 -44.30899292 216.40788422 -44.30316162 217.65837097 C-44.28079192 221.53046294 -44.23059132 225.40162574 -44.1796875 229.2734375 C-44.15962341 231.90037725 -44.14137249 234.52733152 -44.125 237.15429688 C-44.08432896 243.59048872 -44.00603197 250.02467448 -43.9296875 256.4609375 C-31.0596875 256.4609375 -18.1896875 256.4609375 -4.9296875 256.4609375 C-4.84581412 249.08706937 -4.76567969 241.71492715 -4.72268677 234.34099579 C-4.70155933 230.90721747 -4.67332592 227.47383373 -4.62792969 224.0402832 C-4.57617425 220.10112258 -4.55674513 216.16212332 -4.5390625 212.22265625 C-4.51841736 210.99133469 -4.49777222 209.76001312 -4.47650146 208.49137878 C-4.47619934 207.35042252 -4.47589722 206.20946625 -4.47558594 205.03393555 C-4.46226227 203.52502998 -4.46226227 203.52502998 -4.44866943 201.98564148 C-4.7069277 199.34114792 -4.7069277 199.34114792 -6.75579834 197.63887024 C-11.35955713 195.14430046 -17.11968583 195.94363557 -22.25634766 195.95996094 C-24.42354623 195.96093474 -26.58721744 195.91926833 -28.75390625 195.875 C-30.13540931 195.86979343 -31.51692463 195.8671048 -32.8984375 195.8671875 C-34.15076172 195.86009766 -35.40308594 195.85300781 -36.69335938 195.84570312 C-39.97427213 196.23113097 -39.97427213 196.23113097 -42.34472656 198.21557617 Z " fill="#000000" transform="translate(323.9296875,12.5390625)"/>
<path d="M0 0 C3.26919684 1.87222727 5.50870001 4.12905911 7.375 7.4375 C8.0903083 10.37026401 8.13989754 12.99220282 8 16 C9.918125 16.309375 9.918125 16.309375 11.875 16.625 C17.65872649 17.90216358 22.13090715 20.72536361 27 24 C28.36125 24.86625 28.36125 24.86625 29.75 25.75 C34.93608201 30.93608201 39.11347392 37.88703488 39.375 45.25 C39.34022612 49.04035272 39.19701993 51.5500814 36.8125 54.5625 C32.64616263 58.17332572 30.61073443 59.02556721 25.0625 58.9375 C20.61418471 58.2156979 18.12270088 56.26794278 15 53 C14.505 51.989375 14.01 50.97875 13.5 49.9375 C11.44433418 45.9118211 8.5234331 43.84114437 4.23046875 42.41015625 C-3.85039 40.92418398 -12.7438409 40.95329588 -20 45 C-21.58377402 47.53044606 -21.58377402 47.53044606 -22 50 C-19.02382291 53.39227768 -16.70107456 54.72463414 -12.375 55.9375 C-11.22902344 56.26878906 -10.08304688 56.60007813 -8.90234375 56.94140625 C-6.13008295 57.70372429 -3.34954537 58.43087816 -0.56640625 59.15234375 C13.170571 62.75008883 27.27045721 67.01058276 35.62890625 79.41796875 C40.11183015 87.65582036 40.7743115 95.17006473 38.84765625 104.29296875 C36.37141969 112.20095004 31.10053499 117.91896162 24 122 C13.70899471 127 13.70899471 127 8 127 C7.98582031 127.58007812 7.97164062 128.16015625 7.95703125 128.7578125 C7.58462911 134.85715559 6.49948812 137.80729516 2 142 C-1.70495112 144.30307773 -4.88479155 144.21423154 -9.0703125 143.54296875 C-12.77395134 142.50085175 -15.05782421 140.3190461 -17.25 137.25 C-18.37522999 133.87431002 -18.64612219 130.53877808 -19 127 C-19.845625 126.70867187 -20.69125 126.41734375 -21.5625 126.1171875 C-33.38873787 121.84361518 -42.68663112 116.13813178 -48.375 104.5625 C-50.65966837 98.94164225 -50.89823938 94.50561511 -48.8125 88.6875 C-46.68082803 85.526745 -45.56986793 84.36718346 -42 83 C-37.70930374 82.27881336 -33.83453487 82.03661297 -29.90234375 84.1015625 C-26.61941303 86.70839072 -25.12440051 88.69936545 -23.5 92.625 C-21.44916637 97.23937567 -19.53861534 97.92975441 -15 100 C-6.54517742 102.79961013 4.11741901 101.86085599 12 98 C12 96.35 12 94.7 12 93 C4.75156562 88.97589705 -2.36232812 86.59168709 -10.375 84.5625 C-19.15369061 82.21852225 -27.277253 79.92586025 -35 75 C-35.90298828 74.43925781 -35.90298828 74.43925781 -36.82421875 73.8671875 C-42.844796 69.52994545 -47.40829286 61.4425702 -48.8125 54.1875 C-49.6703861 44.17882884 -47.53134131 36.07803914 -41.53515625 28.03515625 C-35.51893225 21.31287173 -26.87927105 17.13464682 -18 16 C-18.0825 14.80375 -18.165 13.6075 -18.25 12.375 C-18.23404051 7.86644298 -17.03035148 5.42908194 -14 2 C-9.43043447 -1.21946662 -5.29059633 -1.72840199 0 0 Z " fill="#000000" transform="translate(120,184)"/>
</svg>
