<?xml version="1.0" encoding="UTF-8"?>
<svg version="1.1" xmlns="http://www.w3.org/2000/svg" width="512" height="512">
<path d="M0 0 C1.18078125 -0.01160156 2.3615625 -0.02320313 3.578125 -0.03515625 C14.87547146 0.00216978 24.87723846 1.01738218 33.15625 9.19140625 C40.35976088 17.72268291 40.23087097 27.18576354 40.29516602 37.9309082 C40.31224475 39.90795222 40.35611587 41.88470614 40.40039062 43.86132812 C40.45811987 52.71166522 39.11126673 60.08913142 36 68.375 C37.28390625 68.47296875 38.5678125 68.5709375 39.890625 68.671875 C78.73958296 71.85955784 117.29771789 84.13866822 149 107.375 C150.5778125 108.52742188 150.5778125 108.52742188 152.1875 109.703125 C161.81482748 116.86672151 170.52945856 124.87777968 179 133.375 C179.83917969 134.179375 180.67835938 134.98375 181.54296875 135.8125 C208.0677469 161.51450069 232.49507012 202.1961236 236 239.375 C234.81333694 243.33054353 233.8665413 245.64897891 230.6875 248.3125 C226.20581292 250.08432978 223.36383364 249.89325678 218.875 248.1875 C214.54566657 244.92092284 213.91305277 239.46796064 212.57910156 234.47998047 C205.09543726 207.27755482 192.55563123 181.71859976 174.36247253 160.04728699 C173 158.375 173 158.375 171.44087219 156.13691711 C168.73799586 152.57184766 166.59214297 149.84131614 162.20118713 148.55526733 C158.90080569 148.26922123 155.70977007 148.25724421 152.3984375 148.35546875 C150.60558823 148.3603405 150.60558823 148.3603405 148.77651978 148.36531067 C146.25996998 148.38104052 143.74347292 148.41846413 141.22753906 148.47631836 C137.37966468 148.56239565 133.53624997 148.57882453 129.6875 148.58398438 C127.23693595 148.60789881 124.78640656 148.63575921 122.3359375 148.66796875 C121.18894379 148.6755571 120.04195007 148.68314545 118.86019897 148.69096375 C112.68648887 148.85607843 108.62246554 149.09524626 104 153.375 C100.85397673 160.23905078 101.19167632 168.60282285 102.75 175.875 C104.26344679 178.90189359 105.20049856 180.41534899 108 182.375 C111.29076451 183.31183026 114.62420858 183.83805527 118 184.375 C130.08910289 186.52594417 138.76162573 191.72556488 146.640625 201.38671875 C152.42670113 209.97869325 153.45168478 219.25340034 153.36328125 229.375 C153.36377975 230.49132812 153.36427826 231.60765625 153.36479187 232.7578125 C153.36246461 235.10418489 153.35281644 237.45056042 153.33618164 239.796875 C153.31256742 243.36481323 153.31563457 246.93200324 153.32226562 250.5 C153.31668825 252.79167107 153.309578 255.08333903 153.30078125 257.375 C153.30169266 258.42945313 153.30260406 259.48390625 153.30354309 260.5703125 C153.22027817 269.37589662 151.95389083 277.5339439 148.875 285.8125 C148.52179688 286.80121094 148.16859375 287.78992188 147.8046875 288.80859375 C142.07912336 300.12339907 133.12821325 308.62359135 124.19921875 317.3984375 C122.8718163 318.71513807 121.54523687 320.03266881 120.21943665 321.35098267 C116.7565488 324.791272 113.28557034 328.22326177 109.81182861 331.65258789 C104.2343178 337.15942833 98.66471352 342.67417248 93.10404396 348.19801712 C91.16798559 350.11743933 89.22559737 352.03028518 87.28263855 353.94271851 C86.09530836 355.1195879 84.90822719 356.29670861 83.72143555 357.47412109 C83.18374542 357.99990753 82.6460553 358.52569397 82.09207153 359.06741333 C75.42104055 365.71717167 73.85267648 370.75747428 73.796875 379.921875 C73.79117493 380.65190735 73.78547485 381.3819397 73.77960205 382.13409424 C73.7701741 383.67727215 73.76362685 385.22046999 73.75976562 386.76367188 C73.75009003 389.10323042 73.71905955 391.44189849 73.6875 393.78125 C73.68096592 395.28645316 73.67571704 396.79166256 73.671875 398.296875 C73.6533548 399.33167999 73.6533548 399.33167999 73.63446045 400.38739014 C73.67630375 409.68980243 76.83214946 414.77675448 83.28605652 421.22753906 C84.12365005 422.03932617 84.96124359 422.85111328 85.82421875 423.6875 C86.68561966 424.54182617 87.54702057 425.39615234 88.43452454 426.27636719 C91.17395315 428.98792815 93.93029144 431.68153219 96.6875 434.375 C98.55387984 436.21628756 100.4191274 438.0587236 102.28320312 439.90234375 C106.84243997 444.40661201 111.4156673 448.89628384 116 453.375 C152.24085799 439.20270343 180.50443126 403.84070796 198 370.375 C198.60457031 369.22128906 199.20914062 368.06757813 199.83203125 366.87890625 C206.74091223 352.88959195 211.50600655 337.74637879 215.26806641 322.63061523 C216 320.375 216 320.375 218.125 317.6875 C222.16205355 315.84449729 225.63785404 315.57685373 230 316.375 C233.49890004 318.48891877 234.70578686 319.49236059 236 323.375 C236.54093408 329.84085263 234.85246094 335.40092537 233 341.5625 C232.68530762 342.61896729 232.37061523 343.67543457 232.04638672 344.76391602 C222.57350291 375.82480707 207.07096592 403.02694187 185.14453125 427.0078125 C183.25461926 429.09394486 181.43688253 431.22149761 179.625 433.375 C165.83425017 449.07764924 147.98278623 461.02810999 130 471.375 C129.3797998 471.73932129 128.75959961 472.10364258 128.12060547 472.47900391 C104.68100032 486.17513732 77.8277388 493.95044967 51 497.375 C50.26885986 497.4692627 49.53771973 497.56352539 48.78442383 497.66064453 C-5.250428 503.86236554 -61.13654737 487.89085721 -104.09375 454.69140625 C-105.0528125 453.92699219 -106.011875 453.16257812 -107 452.375 C-108.0003125 451.57964844 -109.000625 450.78429687 -110.03125 449.96484375 C-124.25206808 438.40973544 -137.34685399 425.30357711 -148 410.375 C-148.70817871 409.39273438 -148.70817871 409.39273438 -149.43066406 408.390625 C-164.99507579 386.5861035 -176.35466118 362.66714682 -183.3125 336.8125 C-183.54308105 335.96429688 -183.77366211 335.11609375 -184.01123047 334.2421875 C-185.12861515 329.83504498 -186.01553501 325.47507563 -186.55664062 320.96118164 C-188.17258835 307.73743546 -191.90819022 296.26308342 -196.875 283.9375 C-197.59177096 282.11599156 -198.30662091 280.29372601 -199.01953125 278.47070312 C-201.46792148 272.22224775 -201.46792148 272.22224775 -204.00065613 266.00770569 C-205 263.375 -205 263.375 -205.92182922 260.07615662 C-207.91588578 253.42519708 -207.91588578 253.42519708 -212.52557373 248.46336365 C-215.73734509 246.93186482 -218.92753273 245.76057201 -222.30859375 244.65234375 C-224.10781029 243.99498985 -224.10781029 243.99498985 -225.94337463 243.32435608 C-229.11522436 242.17398601 -232.29568108 241.06725396 -235.48950195 239.98071289 C-239.98432711 238.43887351 -244.45024665 236.81443915 -248.9209137 235.20423889 C-251.29649259 234.35403916 -253.67701427 233.51749177 -256.06285095 232.69651794 C-269.72037485 227.9342503 -269.72037485 227.9342503 -272 223.375 C-272.66945239 219.13796228 -272.99077576 215.10375298 -270.80645752 211.29244995 C-269.06885818 209.27378087 -267.24155796 207.46395361 -265.2890625 205.65234375 C-264.60572845 204.98078751 -263.92239441 204.30923126 -263.21835327 203.61732483 C-261.04300626 201.49106434 -258.8351689 199.40247771 -256.625 197.3125 C-255.14621403 195.8753312 -253.66962515 194.435898 -252.1953125 192.99414062 C-249.50068748 190.37419676 -246.80014705 187.76138805 -244.07275391 185.17553711 C-243.52648346 184.6572081 -242.98021301 184.13887909 -242.41738892 183.60484314 C-240.37402064 181.83184885 -239.32911637 181.37286288 -236.59375 181.390625 C-229.09778109 181.95850143 -221.81800846 182.9788143 -214.4453125 184.44628906 C-208.11973012 185.62031263 -202.81686386 185.85340498 -196.93359375 182.765625 C-193.3099287 179.81265162 -190.19838125 176.58281745 -187.0625 173.125 C-186.44205811 172.45041748 -185.82161621 171.77583496 -185.18237305 171.08081055 C-181.65509477 167.23401055 -178.17401355 163.35062587 -174.76953125 159.39453125 C-172.3911558 156.68013807 -169.94491095 154.02927613 -167.5 151.375 C-163.90160399 147.46722048 -160.3565039 143.52298399 -156.8828125 139.50390625 C-153.54846146 135.73373754 -150.08947987 132.07508955 -146.6484375 128.40234375 C-143.79913197 125.25839172 -141.41201126 121.86240256 -139 118.375 C-140.38445312 117.42753906 -140.38445312 117.42753906 -141.796875 116.4609375 C-149.41240734 111.24132528 -157.00274802 105.98760898 -164.5625 100.6875 C-178.39928881 90.98694193 -192.25029523 81.30591938 -206.1875 71.75 C-208.79315622 69.96049109 -211.39712074 68.16854556 -214 66.375 C-214.84320801 65.79411621 -215.68641602 65.21323242 -216.55517578 64.61474609 C-219.29009286 62.72706142 -222.02050615 60.8330159 -224.75 58.9375 C-225.60875732 58.34565918 -226.46751465 57.75381836 -227.35229492 57.14404297 C-228.15900635 56.58217285 -228.96571777 56.02030273 -229.796875 55.44140625 C-230.51198242 54.94584229 -231.22708984 54.45027832 -231.96386719 53.93969727 C-236.31131444 50.59883523 -238.73959775 48.26291633 -239.5 42.75 C-239.43173352 39.1022134 -238.61855288 37.47722319 -236.15625 34.81640625 C-235.52009766 34.12482422 -234.88394531 33.43324219 -234.22851562 32.72070312 C-233.49310547 31.94662109 -232.75769531 31.17253906 -232 30.375 C-231.16662109 29.48748047 -230.33324219 28.59996094 -229.47460938 27.68554688 C-227.15609371 25.24404185 -224.81789651 22.82724149 -222.45703125 20.42700195 C-221.47939312 19.42757665 -220.50808202 18.42192578 -219.54296875 17.41040039 C-218.12637662 15.92674924 -216.69090988 14.46390529 -215.25 13.00390625 C-214.40953125 12.13838135 -213.5690625 11.27285645 -212.703125 10.38110352 C-209.26706499 7.8310579 -207.27613063 7.41231059 -203 7.375 C-199.95358163 8.04363057 -197.11346397 9.10580811 -194.20703125 10.2265625 C-192.41756599 10.8846727 -190.62801062 11.54253791 -188.83837891 12.20019531 C-187.89045471 12.55472778 -186.94253052 12.90926025 -185.96588135 13.27453613 C-181.89369289 14.7854854 -177.80013189 16.23340354 -173.70571899 17.68283081 C-170.37172606 18.86337719 -167.04052746 20.05152275 -163.70996094 21.24169922 C-158.92381045 22.95175949 -154.13658294 24.65875478 -149.34863281 26.36376953 C-137.21953866 30.68808116 -125.10932572 35.05570467 -113.03515625 39.53125 C-109.80315884 40.72333073 -106.57085798 41.91458582 -103.33853149 43.10577393 C-101.287117 43.86577328 -99.23774942 44.63132181 -97.19052124 45.40252686 C-94.36610492 46.46649843 -91.53557136 47.51232173 -88.703125 48.5546875 C-87.87349747 48.87336792 -87.04386993 49.19204834 -86.18910217 49.52038574 C-85.42705978 49.79709106 -84.6650174 50.07379639 -83.87988281 50.35888672 C-83.22272278 50.60500702 -82.56556274 50.85112732 -81.88848877 51.10470581 C-79.31035483 51.47370701 -78.16820844 50.76297283 -76 49.375 C-73.98709828 47.37061549 -72.07732067 45.36358782 -70.1875 43.25 C-69.6519751 42.66033447 -69.1164502 42.07066895 -68.56469727 41.46313477 C-65.27925481 37.83526171 -62.04558959 34.16376411 -58.8359375 30.46875 C-41.8307085 11.07555267 -26.93902255 -0.26468472 0 0 Z M-38.5625 39.25 C-39.18318359 39.91902344 -39.80386719 40.58804688 -40.44335938 41.27734375 C-44.15289445 45.29246096 -47.77015642 49.38153557 -51.35913086 53.50439453 C-53.69651766 56.16903635 -56.09459942 58.77150761 -58.5 61.375 C-61.53968996 64.67452777 -64.56158059 67.98451607 -67.5 71.375 C-70.43844065 74.76550844 -73.46116302 78.07466982 -76.5 81.375 C-80.1441694 85.33359723 -83.73913779 89.32676832 -87.265625 93.390625 C-90.79500714 97.42874691 -94.40634226 101.39414681 -98 105.375 C-99.50028679 107.04140851 -101.00028872 108.70807353 -102.5 110.375 C-165.5 180.375 -165.5 180.375 -167.7421875 182.859375 C-169.27742479 184.5699162 -170.80315478 186.289028 -172.3203125 188.015625 C-180.76084062 197.57201955 -188.62419214 205.21188627 -202 206.375 C-208.7718147 206.58776558 -214.92300371 205.6400447 -221.55273438 204.35351562 C-227.32643072 203.23829773 -227.32643072 203.23829773 -233 204.375 C-235.52953969 206.34791024 -235.52953969 206.34791024 -237.8125 208.8125 C-238.60269531 209.61558594 -239.39289063 210.41867188 -240.20703125 211.24609375 C-242.21472632 213.16606835 -242.21472632 213.16606835 -242 215.375 C-235.50423889 217.92122351 -229.00801834 220.46627202 -222.51147461 223.01049805 C-220.30075615 223.8764372 -218.09014363 224.74264685 -215.87963867 225.60913086 C-212.7051927 226.85341112 -209.53036898 228.0967231 -206.35546875 229.33984375 C-205.36475876 229.72841049 -204.37404877 230.11697723 -203.35331726 230.51731873 C-201.97222527 231.05776573 -201.97222527 231.05776573 -200.56323242 231.60913086 C-199.7527092 231.92667831 -198.94218597 232.24422577 -198.10710144 232.57139587 C-196.42020958 233.21474091 -194.71276014 233.80407995 -193 234.375 C-192.17643738 236.11058044 -192.17643738 236.11058044 -191.53588867 238.34936523 C-190.04398076 243.25610477 -188.27858982 248.00456098 -186.42578125 252.78515625 C-186.09708542 253.63806747 -185.76838959 254.4909787 -185.42973328 255.36973572 C-184.39256254 258.05973093 -183.35258261 260.74862951 -182.3125 263.4375 C-181.60332858 265.27531846 -180.89434249 267.11320844 -180.18554688 268.95117188 C-178.45917057 273.42661018 -176.73027624 277.90106811 -175 282.375 C-169.93771793 279.8909901 -165.80945358 277.43492028 -163 272.375 C-162.8597864 267.55061342 -163.67029195 263.09592326 -164.61425781 258.37939453 C-167.05694696 245.686687 -165.83433059 234.6463435 -158.73046875 223.68359375 C-154.33480304 217.81939863 -148.79693848 213.11370495 -143.265625 208.35546875 C-140.4668369 205.90894191 -137.73311864 203.39421501 -135 200.875 C-131.06736057 197.25387487 -127.09785425 193.68540587 -123.05859375 190.18359375 C-120.5104335 187.9448875 -118.00589407 185.66089788 -115.5 183.375 C-112.38092989 180.52975772 -109.25244609 177.7030042 -106.0625 174.9375 C-102.11332633 171.50731424 -98.26977695 167.96496482 -94.42211914 164.42211914 C-91.03537381 161.30900701 -87.60093751 158.26247918 -84.125 155.25 C-81.38176582 152.82949925 -78.69115432 150.35299358 -76 147.875 C-72.09018405 144.27487244 -68.14133532 140.73082395 -64.125 137.25 C-61.38176582 134.82949925 -58.69115432 132.35299358 -56 129.875 C-52.09018405 126.27487244 -48.14133532 122.73082395 -44.125 119.25 C-41.38176544 116.82949892 -38.69117094 114.3529759 -36 111.875 C-32.06715159 108.25409866 -28.09785988 104.68541075 -24.05859375 101.18359375 C-21.5104335 98.9448875 -19.00589407 96.66089788 -16.5 94.375 C-13.38092989 91.52975772 -10.25244609 88.7030042 -7.0625 85.9375 C11.17462068 70.7444073 11.17462068 70.7444073 19.36865234 49.10986328 C19.49775625 45.71012699 19.49765131 42.33895942 19.4375 38.9375 C19.44813477 37.20209961 19.44813477 37.20209961 19.45898438 35.43164062 C19.64270335 28.24944726 19.64270335 28.24944726 16 22.375 C11.11809426 20.74769809 6.11281993 21.10672855 1 21.0625 C-0.08667969 21.03349609 -1.17335938 21.00449219 -2.29296875 20.97460938 C-18.38158555 20.84966791 -28.1037409 27.77487246 -38.5625 39.25 Z M-204.28515625 32.5625 C-205.20167969 33.490625 -206.11820312 34.41875 -207.0625 35.375 C-208.44115234 36.7671875 -208.44115234 36.7671875 -209.84765625 38.1875 C-210.55792969 38.909375 -211.26820313 39.63125 -212 40.375 C-208.29702741 44.31687404 -204.43030879 47.32179145 -199.9375 50.3125 C-198.50847215 51.27899872 -197.08011867 52.24649507 -195.65234375 53.21484375 C-194.89808105 53.72515137 -194.14381836 54.23545898 -193.36669922 54.76123047 C-189.21585972 57.59154294 -185.11024251 60.48619934 -181 63.375 C-175.01980989 67.57105753 -169.02710086 71.74659682 -163 75.875 C-154.43695668 81.74141852 -145.93929759 87.70047878 -137.44238281 93.66210938 C-133.29698731 96.56935596 -129.14842959 99.47208518 -125 102.375 C-121.99125902 101.03696542 -120.01614357 99.59915624 -117.79296875 97.1796875 C-117.20966797 96.55006104 -116.62636719 95.92043457 -116.02539062 95.27172852 C-115.41888672 94.60455811 -114.81238281 93.9373877 -114.1875 93.25 C-113.56166016 92.56929443 -112.93582031 91.88858887 -112.29101562 91.18725586 C-110.52028766 89.25611914 -108.75839222 87.31736673 -107 85.375 C-106.25363281 84.55386719 -105.50726563 83.73273438 -104.73828125 82.88671875 C-100.89195843 78.57365114 -97.40704561 74.04014054 -94 69.375 C-109.67074996 63.10561769 -125.55698328 57.44000104 -141.44671631 51.75701904 C-144.94227936 50.5063204 -148.4369391 49.25310348 -151.93164062 48 C-156.03472404 46.52882813 -160.13792182 45.05798128 -164.24185181 43.58917236 C-170.68512234 41.28278879 -177.12616381 38.97058258 -183.56201172 36.64355469 C-184.73094467 36.22117523 -185.89987762 35.79879578 -187.10423279 35.36361694 C-189.29472015 34.57154811 -191.48473642 33.77817489 -193.67420959 32.98330688 C-194.63113205 32.63738495 -195.5880545 32.29146301 -196.57397461 31.93505859 C-197.82747963 31.48046768 -197.82747963 31.48046768 -199.10630798 31.01669312 C-201.91415514 30.01026576 -201.91415514 30.01026576 -204.28515625 32.5625 Z M6.52148438 101.70458984 C4.68544399 103.72034535 2.71102179 105.49659192 0.625 107.25 C0.04105469 107.76175781 -0.54289063 108.27351563 -1.14453125 108.80078125 C-2.57580524 110.01510423 -4.03779068 111.19328908 -5.51171875 112.35546875 C-6.35347656 113.04253906 -7.19523438 113.72960937 -8.0625 114.4375 C-9.22458984 115.35208984 -9.22458984 115.35208984 -10.41015625 116.28515625 C-12.30939396 118.29373567 -12.30939396 118.29373567 -11.7578125 121.03710938 C-10.91364909 124.75534458 -9.75601293 128.29109362 -8.46484375 131.87109375 C-7.90821036 133.44439109 -7.35165578 135.01771631 -6.79516602 136.59106445 C-6.49409943 137.43657867 -6.19303284 138.2820929 -5.88284302 139.15322876 C-4.20601014 143.87019749 -2.55209915 148.59517963 -0.8984375 153.3203125 C-0.52805862 154.37855728 -0.15767975 155.43680206 0.22392273 156.52711487 C5.31655708 171.10786637 10.31569805 185.72057651 15.28781128 200.34280396 C16.38634629 203.57226274 17.48951894 206.80007974 18.59671021 210.02658081 C19.91858173 213.8792179 21.23150805 217.73479024 22.53781509 221.59273148 C23.02609184 223.0299722 23.51746459 224.46616529 24.01211166 225.90122604 C24.6949574 227.88423763 25.36625978 229.870808 26.03491211 231.85864258 C26.41602646 232.97692947 26.79714081 234.09521637 27.18980408 235.24739075 C28.41168072 239.96421614 28.70894685 243.09609122 26.32128906 247.40332031 C22.64638006 252.10788409 18.50954952 256.31422236 14.31103516 260.54443359 C12.75367585 262.12127816 11.21896672 263.71818463 9.68359375 265.31640625 C0.37556951 274.82470695 0.37556951 274.82470695 -7 275.375 C-10.875 274.8125 -10.875 274.8125 -14 273.375 C-14.69103477 271.71828845 -15.35264908 270.04926372 -16 268.375 C-17.45988768 266.20201334 -18.94200612 264.09923245 -20.5 262 C-23.95672102 257.2505114 -27.3273221 252.46565582 -30.5625 247.5625 C-36.81431826 238.10711419 -43.20969093 228.74990351 -49.59216309 219.38243103 C-52.26571396 215.45715979 -54.93113998 211.52644846 -57.59375 207.59375 C-58.35011834 206.47766068 -59.10654674 205.36161207 -59.86303711 204.24560547 C-61.28193066 202.15183582 -62.69950954 200.05717436 -64.11547852 197.96142578 C-68.61147158 191.33289555 -73.25080442 184.824447 -78 178.375 C-86.44437119 185.58790039 -94.75653711 192.93333289 -103 200.375 C-104.66640851 201.87528679 -106.33307353 203.37528872 -108 204.875 C-108.825 205.6175 -109.65 206.36 -110.5 207.125 C-119.25 215 -119.25 215 -128 222.875 C-128.81597656 223.6175 -129.63195312 224.36 -130.47265625 225.125 C-132.19860925 226.66155167 -133.95863511 228.16045352 -135.74609375 229.625 C-142.32979242 235.11748526 -142.32979242 235.11748526 -145.80859375 242.734375 C-146.38200901 250.64516512 -144.34814203 258.58119258 -142.875 266.3125 C-140.87703473 277.38319283 -140.87703473 277.38319283 -143.01196289 281.16992188 C-145.98266679 285.12463578 -149.14449745 288.563633 -152.77734375 291.92578125 C-153.61974609 292.70759766 -154.46214844 293.48941406 -155.33007812 294.29492188 C-157.0774805 295.89834353 -158.84352437 297.48166951 -160.62695312 299.04492188 C-165.30391827 303.31496559 -165.30391827 303.31496559 -167.41943359 309.07080078 C-167.19866937 311.94885581 -166.69311214 314.57442877 -166 317.375 C-165.83298584 318.23198486 -165.66597168 319.08896973 -165.49389648 319.97192383 C-164.97885423 322.54318651 -164.38012538 325.079641 -163.75 327.625 C-163.4238269 328.9721106 -163.4238269 328.9721106 -163.09106445 330.34643555 C-161.14742876 338.17742668 -158.73913999 345.78699943 -156 353.375 C-152.72323653 351.95234986 -150.67631561 350.23489272 -148.2421875 347.63671875 C-147.53320312 346.89873047 -146.82421875 346.16074219 -146.09375 345.40039062 C-144.63152813 343.85965156 -143.17562018 342.31289199 -141.7265625 340.75976562 C-141.00984375 340.01791016 -140.293125 339.27605469 -139.5546875 338.51171875 C-138.92030762 337.83842529 -138.28592773 337.16513184 -137.63232422 336.47143555 C-129.04270807 329.6304938 -121.53062359 328.69574118 -110.7421875 328.9140625 C-109.38559682 328.91873472 -108.02899156 328.92016778 -106.6723938 328.91854858 C-100.96222204 328.91818849 -95.25309189 328.98206305 -89.54345703 329.05566406 C-86.03030063 329.09865169 -82.51829732 329.10732586 -79.00491714 329.0966301 C-77.03727651 329.101452 -75.0698641 329.1464045 -73.10275269 329.19229126 C-67.03359755 329.17544809 -62.9821291 329.05123636 -58.27758789 324.97509766 C-57.15714416 323.80108563 -56.06033499 322.60357157 -55 321.375 C-54.19691406 320.60671875 -53.39382812 319.8384375 -52.56640625 319.046875 C-51.57447266 318.09554687 -51.57447266 318.09554687 -50.5625 317.125 C-44.55218518 311.80540747 -38.26284587 309.73033477 -30.24609375 310.10546875 C-21.70845317 311.12998562 -16.70279545 314.7265432 -10.67138672 320.72265625 C-8.63710942 322.73375598 -6.56911312 324.70818318 -4.50390625 326.6875 C-2.87604925 328.26923465 -1.24976065 329.85258494 0.375 331.4375 C1.16060303 332.19297119 1.94620605 332.94844238 2.75561523 333.72680664 C9.60625772 340.51107408 13.48436693 346.8006783 14.25 356.5625 C13.57111847 366.91544332 9.65499618 373.43875689 2 380.375 C0.20917712 381.76026441 -1.61937365 383.07699724 -3.46464539 384.38871765 C-13.97967693 391.92072008 -25.69008158 400.68194133 -28.82965088 413.85644531 C-31.53374201 432.40425485 -29.80358001 451.82798107 -28 470.375 C-24.49030364 471.18414743 -20.97961956 471.98892837 -17.46875 472.79296875 C-16.48229492 473.020448 -15.49583984 473.24792725 -14.47949219 473.4822998 C21.58802593 481.72651828 59.37447478 477.972498 94 465.375 C94.33452505 462.08825679 94.33452505 462.08825679 91.35717773 459.43920898 C90.1397089 458.24261231 88.91458864 457.05377102 87.68359375 455.87109375 C87.03431412 455.23317398 86.38503448 454.59525421 85.71607971 453.93800354 C82.9369944 451.20784893 80.14097928 448.49529113 77.34545898 445.78198242 C63.65912913 432.46437326 53.09368225 421.54070596 52.80975342 401.4009552 C52.8033786 400.33043159 52.8033786 400.33043159 52.796875 399.23828125 C52.79117493 398.47758835 52.78547485 397.71689545 52.77960205 396.93315125 C52.77020738 395.33052944 52.76364026 393.7278888 52.75976562 392.12524414 C52.75009573 389.71139587 52.71903485 387.2984135 52.6875 384.88476562 C52.57176322 368.96213435 55.07237628 356.34751736 66.47159958 344.52787304 C68.87444441 342.10386231 71.30294806 339.70786883 73.74794006 337.32640076 C75.75936474 335.36667925 77.75745379 333.39416543 79.75280762 331.41809082 C84.70777756 326.51620612 89.6844062 321.63650436 94.66046143 316.75604248 C98.87666143 312.61915228 103.08430417 308.47389945 107.28126526 304.31748962 C109.23728915 302.38713396 111.2050749 300.46936355 113.17370605 298.55187988 C124.92599124 287.0025761 132.20612486 276.20610698 132.44248962 259.16804504 C132.43955399 258.22184799 132.43661835 257.27565094 132.43359375 256.30078125 C132.4388356 255.29210495 132.44407745 254.28342865 132.44947815 253.2441864 C132.45585114 251.13081781 132.45462332 249.01741352 132.44604492 246.90405273 C132.43749267 243.68474225 132.46643144 240.46718473 132.49804688 237.24804688 C132.49965827 235.18229219 132.49908254 233.1165344 132.49609375 231.05078125 C132.51294472 229.62237663 132.51294472 229.62237663 132.53013611 228.16511536 C132.46049001 221.44720162 131.22765769 215.94907747 126.6235199 210.8507843 C121.64527653 206.36333438 116.22404403 205.28803942 109.75 204.5625 C100.47991188 203.17937751 93.40021895 200.03152368 87.46875 192.6171875 C79.92459154 181.1003073 79.75966763 166.88958573 81.625 153.625 C83.49237847 144.7582169 88.4710893 137.37224091 96 132.375 C104.73392754 127.38512925 113.87749663 127.7123032 123.625 127.625 C125.21747963 127.59678869 126.80992971 127.56685421 128.40234375 127.53515625 C132.2681753 127.46190686 136.13365821 127.4119619 140 127.375 C136.72114291 123.97910421 133.30457507 121.50846466 129.25 119.125 C128.5902417 118.73513916 127.9304834 118.34527832 127.25073242 117.94360352 C101.14092329 102.71930593 71.45915385 91.21144467 40.98828125 89.546875 C38.57033273 89.40780345 36.25207193 89.14472861 33.85546875 88.828125 C20.75282683 87.50362953 15.04746415 92.17103929 6.52148438 101.70458984 Z M-33.09765625 137.19140625 C-33.7304248 137.78743652 -34.36319336 138.3834668 -35.01513672 138.99755859 C-35.6907666 139.63773926 -36.36639648 140.27791992 -37.0625 140.9375 C-41.69418856 145.29500827 -46.32902945 149.62670818 -51.1484375 153.77734375 C-54.80454938 156.93209007 -58.39495228 160.16216812 -62 163.375 C-58.54578147 169.93379197 -54.62307282 175.97607647 -50.3125 182 C-49.05341073 183.77904499 -47.79560445 185.55899867 -46.5390625 187.33984375 C-45.9296582 188.20335449 -45.32025391 189.06686523 -44.69238281 189.95654297 C-42.47419501 193.12638838 -40.31872774 196.33377316 -38.1875 199.5625 C-27.33915316 215.97557871 -16.17342784 232.18197606 -5 248.375 C-2.02481282 247.0064139 0.41129147 245.47463425 2.875 243.3125 C3.51179688 242.78527344 4.14859375 242.25804687 4.8046875 241.71484375 C7.01928401 237.3797349 4.50350812 232.01272519 3.12945557 227.54344177 C2.07530504 224.316219 0.98679816 221.10248027 -0.11328125 217.890625 C-0.51973373 216.69228531 -0.92618622 215.49394562 -1.34495544 214.2592926 C-2.43757813 211.0420703 -3.53450532 207.82638607 -4.63383484 204.61145401 C-5.54125243 201.95544127 -6.4451291 199.29822886 -7.34913445 196.6410532 C-14.42837859 175.83742658 -21.62883772 155.0771188 -29 134.375 C-30.79216562 134.375 -31.85250603 136.01216853 -33.09765625 137.19140625 Z M-35.921875 331.52734375 C-36.52515625 332.11644531 -37.1284375 332.70554687 -37.75 333.3125 C-38.43707031 333.95574219 -39.12414062 334.59898437 -39.83203125 335.26171875 C-41.28789176 336.68085485 -42.74361905 338.10012764 -44.19921875 339.51953125 C-45.30716797 340.56173828 -45.30716797 340.56173828 -46.4375 341.625 C-47.09621094 342.26953125 -47.75492187 342.9140625 -48.43359375 343.578125 C-56.23136682 349.03775302 -64.18144461 348.56145552 -73.34375 348.0078125 C-104.80787786 345.24183364 -104.80787786 345.24183364 -132.47006226 356.66174316 C-137.80110088 361.92465439 -142.23628446 367.91055021 -146 374.375 C-144.75923954 376.57319467 -143.51529128 378.76948447 -142.26953125 380.96484375 C-141.75138855 381.88396545 -141.75138855 381.88396545 -141.22277832 382.82165527 C-128.36699424 405.43679256 -110.0577682 425.17933854 -89 440.375 C-88.14317627 440.99834229 -88.14317627 440.99834229 -87.26904297 441.63427734 C-76.06212718 449.69307717 -62.52468866 459.18800379 -49 462.375 C-48.99857498 461.69563385 -48.99714996 461.0162677 -48.99568176 460.3163147 C-48.97591084 453.20998372 -48.92147826 446.10450317 -48.84741211 438.99853516 C-48.82429423 436.35081088 -48.80985109 433.70299546 -48.80444336 431.05517578 C-48.79510906 427.23673097 -48.75401529 423.41970769 -48.70703125 419.6015625 C-48.7109639 418.42824371 -48.71489655 417.25492493 -48.71894836 416.04605103 C-48.52124502 404.76940878 -44.96231296 397.72534272 -36.97039795 389.8815155 C-36.21188538 389.16135757 -35.4533728 388.44119965 -34.671875 387.69921875 C-33.88226379 386.92616898 -33.09265259 386.1531192 -32.27911377 385.35664368 C-29.78122311 382.91275871 -27.26752186 380.48614571 -24.75 378.0625 C-22.21924238 375.62003022 -19.69263507 373.17390935 -17.17803955 370.71479797 C-15.6196479 369.19114887 -14.05187338 367.67702352 -12.47381592 366.17375183 C-11.76928284 365.48565933 -11.06474976 364.79756683 -10.33886719 364.08862305 C-9.71663269 363.49035202 -9.09439819 362.89208099 -8.45330811 362.27568054 C-6.68886034 359.96808209 -6.26422496 358.25011277 -6 355.375 C-7.10415601 353.33584199 -7.10415601 353.33584199 -8.9296875 351.58984375 C-9.57905273 350.90390137 -10.22841797 350.21795898 -10.89746094 349.51123047 C-11.59129883 348.80627441 -12.28513672 348.10131836 -13 347.375 C-13.66032227 346.67391113 -14.32064453 345.97282227 -15.00097656 345.25048828 C-17.01664721 343.11956639 -19.06558835 341.02610935 -21.125 338.9375 C-22.15947266 337.85952148 -22.15947266 337.85952148 -23.21484375 336.75976562 C-24.22611328 335.73592773 -24.22611328 335.73592773 -25.2578125 334.69140625 C-26.15717529 333.77016968 -26.15717529 333.77016968 -27.07470703 332.83032227 C-29.96145554 330.6482391 -32.69817716 329.59443549 -35.921875 331.52734375 Z " fill="#000000" transform="translate(272,6.625)"/>
<path d="M0 0 C4.37758112 2.34513274 4.37758112 2.34513274 6 5 C6.79637068 8.49486415 6.76412732 11.50110122 6 15 C3.63095184 18.41421647 2.02503506 19.64346607 -1.875 21 C-5.90306262 21 -8.47273862 19.89929459 -12 18 C-14.82827437 13.75758844 -14.8876122 9.97696843 -14 5 C-10.90973636 -0.13529105 -5.51511126 -1.31312173 0 0 Z " fill="#000000" transform="translate(506,280)"/>
</svg>
